<svg id="Group_14805" data-name="Group 14805" xmlns="http://www.w3.org/2000/svg" xmlns:xlink="http://www.w3.org/1999/xlink" width="689.784" height="634.258" viewBox="0 0 689.784 634.258">
  <defs>
    <clipPath id="clip-path">
      <rect id="Rectangle_3609" data-name="Rectangle 3609" width="689.784" height="634.258" fill="#ebebeb"/>
    </clipPath>
    <clipPath id="clip-path-2">
      <rect id="Rectangle_3594" data-name="Rectangle 3594" width="689.784" height="634.258" fill="none"/>
    </clipPath>
    <clipPath id="clip-path-3">
      <rect id="Rectangle_3588" data-name="Rectangle 3588" width="52.797" height="5.493" fill="#135160"/>
    </clipPath>
    <clipPath id="clip-path-4">
      <rect id="Rectangle_3589" data-name="Rectangle 3589" width="73.91" height="5.654" fill="none"/>
    </clipPath>
    <clipPath id="clip-path-5">
      <rect id="Rectangle_3590" data-name="Rectangle 3590" width="73.9" height="5.545" fill="#135160"/>
    </clipPath>
    <clipPath id="clip-path-6">
      <rect id="Rectangle_3591" data-name="Rectangle 3591" width="74.011" height="5.435" fill="#135160"/>
    </clipPath>
    <clipPath id="clip-path-7">
      <rect id="Rectangle_3592" data-name="Rectangle 3592" width="73.921" height="5.654" fill="#135160"/>
    </clipPath>
    <clipPath id="clip-path-8">
      <rect id="Rectangle_3593" data-name="Rectangle 3593" width="57.748" height="57.808" fill="none"/>
    </clipPath>
    <clipPath id="clip-path-9">
      <rect id="Rectangle_3604" data-name="Rectangle 3604" width="366.432" height="266.089" fill="none"/>
    </clipPath>
    <clipPath id="clip-path-10">
      <rect id="Rectangle_3595" data-name="Rectangle 3595" width="56.404" height="4.37" fill="#42737f"/>
    </clipPath>
    <clipPath id="clip-path-11">
      <rect id="Rectangle_3596" data-name="Rectangle 3596" width="50.725" height="4.349" fill="#42737f"/>
    </clipPath>
    <clipPath id="clip-path-12">
      <rect id="Rectangle_3597" data-name="Rectangle 3597" width="41.251" height="4.327" fill="#42737f"/>
    </clipPath>
    <clipPath id="clip-path-14">
      <rect id="Rectangle_3599" data-name="Rectangle 3599" width="35.819" height="4.318" fill="#42737f"/>
    </clipPath>
    <clipPath id="clip-path-15">
      <rect id="Rectangle_3601" data-name="Rectangle 3601" width="84.722" height="127.062" fill="none"/>
    </clipPath>
    <clipPath id="clip-path-16">
      <rect id="Rectangle_3602" data-name="Rectangle 3602" width="139.076" height="93.785" fill="none"/>
    </clipPath>
    <clipPath id="clip-path-17">
      <rect id="Rectangle_3603" data-name="Rectangle 3603" width="147.665" height="137.511" fill="none"/>
    </clipPath>
    <clipPath id="clip-path-19">
      <rect id="Rectangle_3605" data-name="Rectangle 3605" width="11.118" height="11.116" fill="none"/>
    </clipPath>
    <clipPath id="clip-path-20">
      <rect id="Rectangle_3606" data-name="Rectangle 3606" width="11.116" height="11.116" fill="none"/>
    </clipPath>
  </defs>
  <g id="Group_14804" data-name="Group 14804" clip-path="url(#clip-path)">
    <g id="Group_14766" data-name="Group 14766">
      <g id="Group_14765" data-name="Group 14765" clip-path="url(#clip-path-2)">
        <path id="Path_30223" data-name="Path 30223" d="M389.511,7.481c95.643,12.839,118.621,70.582,162.4,79.6,65.474,13.481,135.442,23.75,120.036,104.63s-54.562,101.422-40.441,170.748,42.323,110.438-7.06,147c-49.427,36.587-107.2-4.494-191.288,12.837s-182.3,43.65-337.64-8.344S47.377,383.635,40.957,322.655s-64.028-81.9-30.6-152.987C83.581,13.969,322.661-1.493,389.511,7.481" transform="translate(0 3.467)" fill="#eff5f8"/>
        <path id="Path_30225" data-name="Path 30225" d="M256.972,274.639l-1.2-.3C279.4,179.417,301.483,124.027,329.6,89.126l.966.778c-28,34.75-50.008,90-73.6,184.735" transform="translate(162.217 56.526)" fill="#58857a"/>
        <path id="Path_30226" data-name="Path 30226" d="M293.05,112.481c1.26-9.83,9.454-32.484,21.137-30.91s-1.561,18.114-10.989,24.456c-6.316,4.249-10.149,6.454-10.149,6.454" transform="translate(185.861 51.686)" fill="#58857a"/>
        <path id="Path_30227" data-name="Path 30227" d="M286.632,118.4c4.826-8.826,14.324-17.081,26.295-17.472,7.035-.229,9.457,13.409-7.16,13.337-12.229-.054-19.135,4.135-19.135,4.135" transform="translate(181.791 64.013)" fill="#58857a"/>
        <path id="Path_30228" data-name="Path 30228" d="M292.561,123.862c4.662-19.826-1-34.5-9.712-32.776s-3.675,14.244,1.791,19.08,7.921,13.7,7.921,13.7" transform="translate(176.405 57.683)" fill="#58857a"/>
        <path id="Path_30229" data-name="Path 30229" d="M280.493,130.4c10.654-15.352,23.453-17.125,29.24-13.67s4.429,14.5-7.683,12.394c-12.837-2.229-21.557,1.276-21.557,1.276" transform="translate(177.897 73.087)" fill="#58857a"/>
        <path id="Path_30230" data-name="Path 30230" d="M274.593,144.485c20.709-20.472,38.409-12.093,36.953-5.55s-11.654,4.682-20.158,3.685a43.084,43.084,0,0,0-16.8,1.865" transform="translate(174.155 83.434)" fill="#58857a"/>
        <path id="Path_30231" data-name="Path 30231" d="M269.446,160.982c21.794-22.219,41.509-17.99,43.178-9.879s-4.893,9.684-20.645,5.867c-15.926-3.86-22.533,4.012-22.533,4.012" transform="translate(170.891 91.689)" fill="#58857a"/>
        <path id="Path_30232" data-name="Path 30232" d="M288.843,136.223c4.035-28.4-13.678-35.855-19.791-28.105s10.739,12.994,14.146,19.2a61.7,61.7,0,0,0,5.645,8.9" transform="translate(169.802 66.749)" fill="#58857a"/>
        <path id="Path_30233" data-name="Path 30233" d="M284.534,151.006c.49-14.589-6.81-32.523-17.038-32.541s-9.114,11.039-1.361,14.793c11.6,5.614,18.4,17.748,18.4,17.748" transform="translate(164.946 75.134)" fill="#58857a"/>
        <path id="Path_30234" data-name="Path 30234" d="M264.324,178.9c8.04-13.255,33.445-22.994,43.451-13.618s-4.948,15.172-17.351,11.758-26.1,1.86-26.1,1.86" transform="translate(167.642 102.463)" fill="#58857a"/>
        <path id="Path_30235" data-name="Path 30235" d="M258.745,199.422c13.231-21.822,40.74-22.749,51.32-11.9s-8.5,14.7-24.471,8.333-26.849,3.568-26.849,3.568" transform="translate(164.104 114.63)" fill="#58857a"/>
        <path id="Path_30236" data-name="Path 30236" d="M281,164.064c-5.262-30.818-23.915-33.459-28.586-25.932S281,164.064,281,164.064" transform="translate(159.803 85.359)" fill="#58857a"/>
        <path id="Path_30237" data-name="Path 30237" d="M275.673,185.406c1.566-23.084-17.723-39.865-27.82-33.371s10.238,14.512,15.774,19.411,12.046,13.96,12.046,13.96" transform="translate(155.439 95.531)" fill="#58857a"/>
        <path id="Path_30238" data-name="Path 30238" d="M273.85,207.262c-5.994-23.639-28.725-47.4-36.891-36.051-7.222,10.039,4.35,14.376,23.193,20.227,10.405,3.231,13.7,15.824,13.7,15.824" transform="translate(148.909 106.734)" fill="#58857a"/>
        <path id="Path_30239" data-name="Path 30239" d="M259.329,264.67l-1.108-.551c25.5-51.233,47.309-85.974,68.646-109.327,20.023-21.913,40.754-35.278,67.226-43.332l.359,1.185c-52.4,15.944-86.49,54.305-135.123,152.024" transform="translate(163.772 70.692)" fill="#76a699"/>
        <path id="Path_30240" data-name="Path 30240" d="M328.806,122.494c14.319-17.674,30.214-18.666,31.256-9.768,1.459,12.448-31.256,9.768-31.256,9.768" transform="translate(208.539 68.008)" fill="#76a699"/>
        <path id="Path_30241" data-name="Path 30241" d="M317.923,122.891c23.78-2.121,35.716,4.045,35.3,11.111s-6.64,7.3-19.129-.577-16.174-10.534-16.174-10.534" transform="translate(201.637 77.672)" fill="#76a699"/>
        <path id="Path_30242" data-name="Path 30242" d="M322.635,133.6c8.434-12.389,9.193-30.411-3.561-30.259s1.6,16.064,3,20.972a24.049,24.049,0,0,1,.565,9.287" transform="translate(199.043 65.544)" fill="#76a699"/>
        <path id="Path_30243" data-name="Path 30243" d="M304.729,135.9c22.163-11.315,45.407-2.973,41.457,9.593s-14.7-2.915-23.572-5.816a95.153,95.153,0,0,0-17.885-3.777" transform="translate(193.268 82.807)" fill="#76a699"/>
        <path id="Path_30244" data-name="Path 30244" d="M302.011,112.9c11-4.023,22.095,16.194,9.34,33.348,0,0,1.173-10.689-9.428-19.006s-4.568-12.639.088-14.342" transform="translate(187.752 71.278)" fill="#76a699"/>
        <path id="Path_30245" data-name="Path 30245" d="M289.158,157.279c12.577-17.266,35.229-15.37,43.217-6.442s-.312,14.7-6.908,14.331-11.964-7.921-21.724-8.393-14.586.5-14.586.5" transform="translate(183.393 91.431)" fill="#76a699"/>
        <path id="Path_30246" data-name="Path 30246" d="M299.355,160.473c7.068-20.188-.25-36.394-13.43-33.157s6.663,14.064,9.635,20.872a54.274,54.274,0,0,1,3.795,12.285" transform="translate(178.504 80.486)" fill="#76a699"/>
        <path id="Path_30247" data-name="Path 30247" d="M278.79,171.018c34.324-18.911,50.6-3.347,46.342,5.922s-20.595-1.986-27.135-4.676c-8.3-3.417-19.207-1.247-19.207-1.247" transform="translate(176.817 102.797)" fill="#76a699"/>
        <path id="Path_30248" data-name="Path 30248" d="M268.315,191.093c45.9-34.25,77.641,14.357,29.048,2.389-16.579-4.082-29.048-2.389-29.048-2.389" transform="translate(170.174 113.304)" fill="#76a699"/>
        <path id="Path_30249" data-name="Path 30249" d="M283.079,193.593c.536-21.263-19.74-41.789-28.532-29.62s17.9,17.56,22.16,22.688a64.452,64.452,0,0,0,6.372,6.932" transform="translate(160.322 101.69)" fill="#76a699"/>
        <path id="Path_30250" data-name="Path 30250" d="M286.24,183.729c6.46-7.41,6.341-38.016-10.214-41.338s-6.382,17.883.126,25.4a68.257,68.257,0,0,1,10.088,15.942" transform="translate(169.368 90.086)" fill="#76a699"/>
        <path id="Path_30251" data-name="Path 30251" d="M261.1,202.832c26.326-18.191,43.85,13.376,13.634.829a20.877,20.877,0,0,0-13.634-.829" transform="translate(165.598 124.964)" fill="#76a699"/>
        <path id="Path_30252" data-name="Path 30252" d="M270.5,205.646c2.969-15.285-9.465-29.145-17.941-21.188s14.863,12.948,16.671,17.235,1.27,3.953,1.27,3.953" transform="translate(159.01 115.518)" fill="#76a699"/>
        <path id="Path_30253" data-name="Path 30253" d="M277.8,254.161l-1.235-.106c2.723-31.4-5.976-99.842-58.367-134.118l.678-1.036c52.884,34.6,61.668,103.605,58.924,135.26" transform="translate(138.39 75.411)" fill="#9fc7bd"/>
        <path id="Path_30254" data-name="Path 30254" d="M275.1,214.023l-.662-1.048c39.271-24.821,90.915-17.331,91.432-17.253l-.186,1.224c-.512-.074-51.714-7.491-90.584,17.076" transform="translate(174.056 123.423)" fill="#58857a"/>
        <path id="Path_30255" data-name="Path 30255" d="M315.355,197.313c15.878-7.547,25.455-8.671,31.023-.273s-7.872,9.565-16.828,6.133-14.195-5.86-14.195-5.86" transform="translate(200.008 121.256)" fill="#58857a"/>
        <path id="Path_30256" data-name="Path 30256" d="M299.327,196.611c25.445,1.538,40.271,13.765,36.587,25.615s-14.033-9.836-20.68-16.1-15.908-9.519-15.908-9.519" transform="translate(189.842 124.697)" fill="#58857a"/>
        <path id="Path_30257" data-name="Path 30257" d="M285.574,200.5c19.692.61,37.375,16.512,37.453,25.376s-16.906,9.335-24.644-5.141S285.574,200.5,285.574,200.5" transform="translate(181.12 127.166)" fill="#58857a"/>
        <path id="Path_30258" data-name="Path 30258" d="M302.014,208.818c16.9-4.932,14.9-21.686,7.684-28.463s-13.134-2.713-10.314,6.878c1.8,6.11,7.7,9.663,5.231,16.465a17.4,17.4,0,0,1-2.6,5.12" transform="translate(189.423 112.251)" fill="#58857a"/>
        <path id="Path_30259" data-name="Path 30259" d="M290.686,216.006c9.6-5.462,14.659-31.175-.059-38.017-13.451-6.254-17.682,5.715-5.994,17.7,7.686,7.882,6.053,20.317,6.053,20.317" transform="translate(176.202 111.798)" fill="#58857a"/>
        <path id="Path_30260" data-name="Path 30260" d="M233.331,131.05c-3.868-7.365-20.016-23.343-21.127-14.353s21.127,14.353,21.127,14.353" transform="translate(134.56 72.318)" fill="#9fc7bd"/>
        <path id="Path_30261" data-name="Path 30261" d="M238.073,145.372c-6.439-7.223-12.775-31.013.739-27.591s-.739,27.591-.739,27.591" transform="translate(146.393 74.488)" fill="#9fc7bd"/>
        <path id="Path_30262" data-name="Path 30262" d="M247.851,137.188c-16.725-5.849-35.087-11.659-32.134-.518s32.134.518,32.134.518" transform="translate(136.615 82.671)" fill="#9fc7bd"/>
        <path id="Path_30263" data-name="Path 30263" d="M243.392,158.185C240.02,136.919,251.8,123.937,261.38,131s-17.988,27.187-17.988,27.187" transform="translate(153.993 81.855)" fill="#9fc7bd"/>
        <path id="Path_30264" data-name="Path 30264" d="M259.461,156.55c-9.686-8.992-32.506-19.617-36.241-7.6s36.241,7.6,36.241,7.6" transform="translate(141.417 91.059)" fill="#9fc7bd"/>
        <path id="Path_30265" data-name="Path 30265" d="M248.85,171.1c8.42-20.465,17.571-31.913,25.223-24.744S248.85,171.1,248.85,171.1" transform="translate(157.828 91.463)" fill="#9fc7bd"/>
        <path id="Path_30266" data-name="Path 30266" d="M264.669,166.487c-14.177-8.053-38.749-15.855-39.416-3.983s39.416,3.983,39.416,3.983" transform="translate(142.857 99.208)" fill="#9fc7bd"/>
        <path id="Path_30267" data-name="Path 30267" d="M252.94,185.986c3.09-19.678,22.294-33.824,27.762-22.237s-27.762,22.237-27.762,22.237" transform="translate(160.422 101.203)" fill="#9fc7bd"/>
        <path id="Path_30268" data-name="Path 30268" d="M269.62,181c-17.426-6.718-45.881-17.862-43.337-3.066S269.62,181,269.62,181" transform="translate(143.414 108.216)" fill="#9fc7bd"/>
        <path id="Path_30269" data-name="Path 30269" d="M254.008,189.748c6.548-10.953,31.371-19.751,35.3-6.887s-35.3,6.887-35.3,6.887" transform="translate(161.1 111.928)" fill="#9fc7bd"/>
        <path id="Path_30270" data-name="Path 30270" d="M266.949,196.35c-2.373-4.576-29.439-19.759-32.457-9.1s32.457,9.1,32.457,9.1" transform="translate(148.606 116.402)" fill="#9fc7bd"/>
        <path id="Path_30271" data-name="Path 30271" d="M183.966,295.2c-9.444-97.17-23.118-155.049-45.719-193.53l1.069-.626c22.7,38.646,36.42,96.676,45.884,194.037Z" transform="translate(87.68 64.083)" fill="#58857a"/>
        <path id="Path_30272" data-name="Path 30272" d="M153.437,126.473c.194-9.908-4.591-33.518-16.378-33.675s-1.111,18.146,7.285,25.8c5.625,5.13,9.093,7.872,9.093,7.872" transform="translate(83.613 58.855)" fill="#58857a"/>
        <path id="Path_30273" data-name="Path 30273" d="M161.273,133.628c-3.481-9.439-11.665-19-23.45-21.137-6.926-1.258-11.32,11.879,5.127,14.242,12.1,1.739,18.323,6.895,18.323,6.895" transform="translate(83.477 71.291)" fill="#58857a"/>
        <path id="Path_30274" data-name="Path 30274" d="M149.607,137c-1.706-20.3,6.048-33.977,14.412-31s1.548,14.628-4.569,18.612S149.607,137,149.607,137" transform="translate(94.735 66.973)" fill="#58857a"/>
        <path id="Path_30275" data-name="Path 30275" d="M166.029,146.246c-8.287-16.749-20.689-20.379-26.919-17.808s-6.507,13.692,5.782,13.386c13.025-.324,21.137,4.422,21.137,4.422" transform="translate(85.558 80.986)" fill="#58857a"/>
        <path id="Path_30276" data-name="Path 30276" d="M171.466,161.212c-17.485-23.286-36.221-17.594-35.741-10.907s10.841,6.339,19.4,6.6a43.076,43.076,0,0,1,16.341,4.306" transform="translate(86.076 91.602)" fill="#58857a"/>
        <path id="Path_30277" data-name="Path 30277" d="M176.734,178.611c-18.3-25.174-38.424-23.879-41.263-16.1s3.42,10.3,19.56,8.83c16.321-1.484,21.7,7.272,21.7,7.272" transform="translate(85.5 99.922)" fill="#58857a"/>
        <path id="Path_30278" data-name="Path 30278" d="M153.839,149.859c.172-28.684,18.787-33.463,23.7-24.9s-12.526,11.279-16.806,16.922a61.95,61.95,0,0,1-6.89,7.978" transform="translate(97.569 76.826)" fill="#58857a"/>
        <path id="Path_30279" data-name="Path 30279" d="M157.309,165.115c1.652-14.5,11.5-31.175,21.622-29.692s7.4,12.257-.82,14.832c-12.293,3.854-20.8,14.86-20.8,14.86" transform="translate(99.77 85.831)" fill="#58857a"/>
        <path id="Path_30280" data-name="Path 30280" d="M180.469,197.148c-6.009-14.29-29.712-27.648-40.983-19.841s2.67,15.734,15.437,14.175,25.546,5.666,25.546,5.666" transform="translate(85.838 110.99)" fill="#58857a"/>
        <path id="Path_30281" data-name="Path 30281" d="M186.077,218.327c-9.89-23.526-36.965-28.475-49.022-19.3s6.257,15.793,22.985,11.83,26.037,7.465,26.037,7.465" transform="translate(84.458 123.485)" fill="#58857a"/>
        <path id="Path_30282" data-name="Path 30282" d="M160.473,178.565c9.722-29.714,28.561-29.591,32.078-21.461s-32.078,21.461-32.078,21.461" transform="translate(101.777 96.685)" fill="#58857a"/>
        <path id="Path_30283" data-name="Path 30283" d="M163.512,200.472c1.835-23.064,23.376-36.837,32.41-28.932s-12.255,12.853-18.449,16.89-13.961,12.043-13.961,12.043" transform="translate(103.704 107.373)" fill="#58857a"/>
        <path id="Path_30284" data-name="Path 30284" d="M165.6,222.346c9.4-22.505,35.363-42.676,41.776-30.253,5.674,10.989-6.409,13.584-25.906,16.609-10.766,1.67-15.87,13.644-15.87,13.644" transform="translate(105.03 119.424)" fill="#58857a"/>
        <path id="Path_30285" data-name="Path 30285" d="M206.7,288.519c-33.781-103.793-61.885-146.738-111.378-170.19l.529-1.119C120.86,129.057,139.41,145.316,156,169.928c17.684,26.229,34.169,63.791,51.879,118.207Z" transform="translate(60.458 74.338)" fill="#76a699"/>
        <path id="Path_30286" data-name="Path 30286" d="M118.853,131.38C107.28,111.8,91.7,108.486,89.367,117.134c-3.268,12.1,29.486,14.246,29.486,14.246" transform="translate(56.534 71.433)" fill="#76a699"/>
        <path id="Path_30287" data-name="Path 30287" d="M131.387,132.777c-23.214-5.584-35.924-1.234-36.55,5.816s5.5,8.192,19.006,2.232,17.543-8.049,17.543-8.049" transform="translate(60.121 82.596)" fill="#76a699"/>
        <path id="Path_30288" data-name="Path 30288" d="M117.454,142.216c-6.525-13.492-4.635-31.43,7.959-29.41s-3.942,15.654-6.037,20.305a24.027,24.027,0,0,0-1.922,9.1" transform="translate(72.164 71.446)" fill="#76a699"/>
        <path id="Path_30289" data-name="Path 30289" d="M145.117,148.126c-20.266-14.442-44.481-9.6-42.415,3.412s14.966-.729,24.169-2.3a95.029,95.029,0,0,1,18.246-1.115" transform="translate(65.058 88.355)" fill="#76a699"/>
        <path id="Path_30290" data-name="Path 30290" d="M143.532,124.941c-10.292-5.592-24.229,12.78-14.126,31.619,0,0,.405-10.747,12.111-17.419s6.37-11.833,2.015-14.2" transform="translate(79.851 78.595)" fill="#76a699"/>
        <path id="Path_30291" data-name="Path 30291" d="M159.223,171.766c-9.91-18.923-32.6-20.369-41.805-12.708s-1.847,14.587,4.731,15.189,13-6.083,22.719-5.118,14.355,2.638,14.355,2.638" transform="translate(71.724 98.125)" fill="#76a699"/>
        <path id="Path_30292" data-name="Path 30292" d="M139.163,172.34c-4.032-21.006,5.583-35.966,18.145-30.83s-8.652,12.935-12.59,19.235a54.293,54.293,0,0,0-5.555,11.595" transform="translate(87.671 89.106)" fill="#76a699"/>
        <path id="Path_30293" data-name="Path 30293" d="M167.564,187.074c-31.181-23.737-49.566-10.729-46.708-.935s20.662,1.056,27.525-.647c8.715-2.162,19.183,1.582,19.183,1.582" transform="translate(76.466 110.134)" fill="#76a699"/>
        <path id="Path_30294" data-name="Path 30294" d="M177.381,208.7c-40.385-40.609-78.907,2.821-29.084-1.9,17-1.608,29.084,1.9,29.084,1.9" transform="translate(79.098 121.266)" fill="#76a699"/>
        <path id="Path_30295" data-name="Path 30295" d="M154.786,207.513c2.587-21.111,25.653-38.444,32.565-25.118s-20.278,14.746-25.247,19.194a64.323,64.323,0,0,1-7.318,5.924" transform="translate(98.17 112.719)" fill="#76a699"/>
        <path id="Path_30296" data-name="Path 30296" d="M150.134,197.163c-5.3-8.276-.7-38.534,16.163-39.393s3.692,18.624-3.845,25.1a68.266,68.266,0,0,0-12.317,14.29" transform="translate(93.896 100.045)" fill="#76a699"/>
        <path id="Path_30297" data-name="Path 30297" d="M173.405,220.391c-23.374-21.855-45.337,6.8-13.608-1.18a20.88,20.88,0,0,1,13.608,1.18" transform="translate(91.307 134.454)" fill="#76a699"/>
        <path id="Path_30298" data-name="Path 30298" d="M160.9,221.21c-.695-15.555,13.636-27.442,20.853-18.328s-16.6,10.629-19.018,14.6-1.835,3.724-1.835,3.724" transform="translate(102.006 126.662)" fill="#76a699"/>
        <path id="Path_30299" data-name="Path 30299" d="M169.416,267.8l-1.237-.075c1.927-31.716,20.73-98.691,78.113-125.162l.52,1.124c-56.852,26.226-75.485,92.653-77.4,124.113" transform="translate(106.664 90.418)" fill="#9fc7bd"/>
        <path id="Path_30300" data-name="Path 30300" d="M194.859,234.581c-34.713-29.884-86.181-30.17-87.095-30.17-.007,0-.01-1.239-.01-1.239.433,0,52.683.141,87.913,30.47Z" transform="translate(68.342 128.859)" fill="#58857a"/>
        <path id="Path_30301" data-name="Path 30301" d="M135.285,208.588c-14.6-9.794-23.909-12.307-30.647-4.818s6.383,10.616,15.746,8.534,14.9-3.716,14.9-3.716" transform="translate(65.191 126.472)" fill="#58857a"/>
        <path id="Path_30302" data-name="Path 30302" d="M153.843,209.154c-25.394-2.209-41.854,7.714-39.947,19.975s15.324-7.673,22.814-12.891,17.133-7.084,17.133-7.084" transform="translate(72.141 132.456)" fill="#58857a"/>
        <path id="Path_30303" data-name="Path 30303" d="M167.168,215c-19.57-2.281-39.392,10.856-40.768,19.612s15.355,11.711,25.131-1.474S167.168,215,167.168,215" transform="translate(80.116 136.196)" fill="#58857a"/>
        <path id="Path_30304" data-name="Path 30304" d="M141.108,220.987c-16-7.357-11.561-23.636-3.429-29.282s13.389-.758,9.194,8.315c-2.675,5.782-9.037,8.431-7.588,15.522a17.358,17.358,0,0,0,1.822,5.445" transform="translate(82.667 120.054)" fill="#58857a"/>
        <path id="Path_30305" data-name="Path 30305" d="M153.653,229.883c-8.7-6.81-9.93-32.987,5.632-37.6,14.223-4.215,16.653,8.245,3.335,18.387-8.759,6.671-8.967,19.21-8.967,19.21" transform="translate(93.419 121.419)" fill="#58857a"/>
        <path id="Path_30306" data-name="Path 30306" d="M208.737,152.579c4.906-6.718,23.222-20.157,23-11.1s-23,11.1-23,11.1" transform="translate(132.387 87.804)" fill="#9fc7bd"/>
        <path id="Path_30307" data-name="Path 30307" d="M198.717,166.245c7.429-6.2,17.182-28.8,3.313-27.4s-3.313,27.4-3.313,27.4" transform="translate(123.594 88.02)" fill="#9fc7bd"/>
        <path id="Path_30308" data-name="Path 30308" d="M197.225,156.8c17.4-3.334,36.416-6.39,31.863,4.2s-31.863-4.2-31.863-4.2" transform="translate(125.086 97.463)" fill="#9fc7bd"/>
        <path id="Path_30309" data-name="Path 30309" d="M193.977,178.569c6.452-20.542-3.3-35.111-13.809-29.531s13.809,29.531,13.809,29.531" transform="translate(112.596 93.764)" fill="#9fc7bd"/>
        <path id="Path_30310" data-name="Path 30310" d="M184.8,174.386c10.9-7.473,35.031-14.638,36.963-2.2s-36.963,2.2-36.963,2.2" transform="translate(117.206 104.922)" fill="#9fc7bd"/>
        <path id="Path_30311" data-name="Path 30311" d="M188.83,190.951c-5.328-21.479-12.7-34.144-21.323-28.174s21.323,28.174,21.323,28.174" transform="translate(105.249 102.301)" fill="#9fc7bd"/>
        <path id="Path_30312" data-name="Path 30312" d="M179.155,183.5c15.2-5.888,40.655-10,39.573,1.839s-39.573-1.839-39.573-1.839" transform="translate(113.626 112.728)" fill="#9fc7bd"/>
        <path id="Path_30313" data-name="Path 30313" d="M183.5,205.149c-.172-19.918-17.094-36.726-24.2-26.068s24.2,26.068,24.2,26.068" transform="translate(100.362 111.481)" fill="#9fc7bd"/>
        <path id="Path_30314" data-name="Path 30314" d="M173.712,197.059c18.222-4.092,48-10.944,43.317,3.321s-43.317-3.321-43.317-3.321" transform="translate(110.173 121.629)" fill="#9fc7bd"/>
        <path id="Path_30315" data-name="Path 30315" d="M184.722,208.955c-4.873-11.794-28.137-24.136-33.91-11.987s33.91,11.987,33.91,11.987" transform="translate(95.285 121.751)" fill="#9fc7bd"/>
        <path id="Path_30316" data-name="Path 30316" d="M170.074,212.506c3.018-4.179,32.018-15.229,33.44-4.241s-33.44,4.241-33.44,4.241" transform="translate(107.866 129.09)" fill="#9fc7bd"/>
        <path id="Path_30317" data-name="Path 30317" d="M338.87,215.262c-198.124,0-195.73,3.28-195.73-8.024,0-142.542-3.027-143.577,8.024-143.577,198.124,0,195.73-3.28,195.73,8.024V207.238a8.023,8.023,0,0,1-8.024,8.024" transform="translate(90.543 40.095)" fill="#fff"/>
        <path id="Path_30318" data-name="Path 30318" d="M192.033,216.987c-35.68,0-44.981-.683-48.053-3.749-1.417-1.412-1.412-3.188-1.407-5.244l0-.4c0-30.594-.139-54.449-.25-73.616-.306-52.925-.379-65.5,3.44-69.34,1.536-1.546,3.589-1.546,5.759-1.546,44.678,0,78.551-.163,105.769-.3,70.738-.34,85.457-.413,89.481,3.6,1.417,1.412,1.412,3.188,1.407,5.244V207.6a8.961,8.961,0,0,1-8.951,8.951c-44.682,0-78.557.163-105.777.3-16.746.08-30.353.145-41.42.145M298.571,64.5c-11.09,0-24.669.065-41.269.145-27.221.132-61.1.3-105.779.3-2.139,0-3.5.049-4.445,1-3.277,3.295-3.19,18.3-2.9,68.023.111,19.17.25,43.028.25,73.627l0,.4c0,2.012.031,3.1.863,3.929,3.479,3.471,21.413,3.384,88.157,3.061,27.221-.131,61.1-.294,105.785-.294a7.108,7.108,0,0,0,7.1-7.1V71.64c0-2.012-.031-3.1-.863-3.929C342.853,65.1,332.073,64.5,298.571,64.5" transform="translate(90.184 39.736)" fill="#c3c4d7"/>
        <path id="Path_30319" data-name="Path 30319" d="M346.747,71.16H142.993a7.534,7.534,0,0,1,7.534-7.534c200.715,0,196.22-2.829,196.22,7.534" transform="translate(90.691 40.13)" fill="#444244"/>
        <path id="Path_30320" data-name="Path 30320" d="M348.033,72.444H142.427v-.925a8.468,8.468,0,0,1,8.459-8.459c43.248,0,76.523-.132,103.259-.234,75.318-.294,88.891-.346,92.661,3.445,1.263,1.273,1.247,2.883,1.231,4.592Zm-203.689-1.85H346.186c.011-1.513-.044-2.36-.693-3.015-3.224-3.244-21.887-3.169-91.34-2.9-26.738.1-60.015.234-103.267.234a6.616,6.616,0,0,0-6.542,5.682" transform="translate(90.332 39.77)" fill="#444244"/>
        <path id="Path_30321" data-name="Path 30321" d="M262.6,68.621c2.268,0,3.3.222,3.3-.762,0-2.268.221-3.3-.762-3.3-2.268,0-3.3-.222-3.3.76,0,2.27-.221,3.3.762,3.3" transform="translate(166.052 40.932)" fill="#bec0c2"/>
        <path id="Path_30322" data-name="Path 30322" d="M262.529,68.081a.463.463,0,0,1-.327-.791l2.368-2.368a.463.463,0,1,1,.655.654l-2.37,2.37a.463.463,0,0,1-.327.136" transform="translate(166.21 41.089)" fill="#fff"/>
        <path id="Path_30323" data-name="Path 30323" d="M264.9,68.081a.463.463,0,0,1-.327-.136l-2.37-2.37a.463.463,0,0,1,.655-.654l2.368,2.368a.463.463,0,0,1-.327.791" transform="translate(166.21 41.089)" fill="#fff"/>
        <path id="Path_30324" data-name="Path 30324" d="M169.752,76.165H149.667a.462.462,0,1,1,0-.925h20.085a.462.462,0,1,1,0,.925" transform="translate(94.63 47.72)" fill="#eee4d9"/>
        <path id="Path_30325" data-name="Path 30325" d="M169.752,144.863H149.667a.462.462,0,1,1,0-.925h20.085a.462.462,0,1,1,0,.925" transform="translate(94.63 91.29)" fill="#eee4d9"/>
        <path id="Path_30326" data-name="Path 30326" d="M149.667,188.434a.462.462,0,0,1-.462-.463V75.7a.462.462,0,1,1,.925,0V187.971a.462.462,0,0,1-.462.463" transform="translate(94.63 47.719)" fill="#eee4d9"/>
        <path id="Path_30327" data-name="Path 30327" d="M173.344,82.455H156.937a.462.462,0,0,1,0-.925h16.406a.462.462,0,1,1,0,.925" transform="translate(99.241 51.709)" fill="#eee4d9"/>
        <path id="Path_30328" data-name="Path 30328" d="M173.344,138.574H156.937a.463.463,0,0,1,0-.927h16.406a.463.463,0,0,1,0,.927" transform="translate(99.241 87.3)" fill="#eee4d9"/>
        <path id="Path_30329" data-name="Path 30329" d="M156.937,174.165a.462.462,0,0,1-.462-.462V81.992a.462.462,0,1,1,.925,0V173.7a.462.462,0,0,1-.462.462" transform="translate(99.241 51.709)" fill="#eee4d9"/>
        <path id="Path_30330" data-name="Path 30330" d="M177.617,90.807H166.094a.462.462,0,0,1,0-.925h11.523a.462.462,0,0,1,0,.925" transform="translate(105.049 57.006)" fill="#eee4d9"/>
        <path id="Path_30331" data-name="Path 30331" d="M177.617,130.222H166.094a.463.463,0,0,1,0-.927h11.523a.463.463,0,0,1,0,.927" transform="translate(105.049 82.003)" fill="#eee4d9"/>
        <path id="Path_30332" data-name="Path 30332" d="M166.094,155.219a.463.463,0,0,1-.462-.462V90.345a.462.462,0,1,1,.925,0v64.412a.462.462,0,0,1-.462.462" transform="translate(105.049 57.005)" fill="#eee4d9"/>
        <path id="Path_30333" data-name="Path 30333" d="M174.138,136.411a.462.462,0,0,1-.462-.462V120a.462.462,0,1,1,.925,0v15.948a.463.463,0,0,1-.462.462" transform="translate(110.151 75.813)" fill="#eee4d9"/>
        <path id="Path_30334" data-name="Path 30334" d="M183,101.2h-16.9a.462.462,0,0,1,0-.925H183a.462.462,0,1,1,0,.925" transform="translate(105.049 63.597)" fill="#eee4d9"/>
        <path id="Path_30335" data-name="Path 30335" d="M190.918,80.674c-39.841,0-38.7.474-38.7-1.108,0-4.988-.327-6.277,1.108-6.277,39.839,0,38.7-.474,38.7,1.108,0,4.988.327,6.277-1.108,6.277" transform="translate(96.519 46.44)" fill="#9ebfd8"/>
        <path id="Path_30336" data-name="Path 30336" d="M200.494,87.178c-39.841,0-38.7.474-38.7-1.108,0-4.988-.327-6.277,1.108-6.277,39.841,0,38.7-.474,38.7,1.108,0,4.988.327,6.277-1.108,6.277" transform="translate(102.592 50.565)" fill="#33dbce"/>
        <path id="Path_30337" data-name="Path 30337" d="M180.393,95.306c-10.714,0-11.583.369-11.583-1.108,0-4.988-.325-6.277,1.108-6.277,10.716,0,11.583-.369,11.583,1.108,0,4.988.327,6.277-1.108,6.277" transform="translate(107.044 55.736)" fill="#135160"/>
        <path id="Path_30338" data-name="Path 30338" d="M181.671,134.72c-10.714,0-11.583.369-11.583-1.108,0-4.988-.325-6.277,1.108-6.277,10.716,0,11.583-.369,11.583,1.108,0,4.988.327,6.277-1.108,6.277" transform="translate(107.854 80.734)" fill="#135160"/>
        <path id="Path_30339" data-name="Path 30339" d="M181.671,125.046c-10.714,0-11.583.369-11.583-1.108,0-4.988-.325-6.277,1.108-6.277,10.716,0,11.583-.369,11.583,1.108,0,4.988.327,6.277-1.108,6.277" transform="translate(107.854 74.598)" fill="#135160"/>
        <path id="Path_30340" data-name="Path 30340" d="M192.058,142.941c-30.89,0-30.268.472-30.268-1.108,0-4.988-.327-6.277,1.108-6.277h29.16a1.108,1.108,0,0,1,1.108,1.108v5.169a1.108,1.108,0,0,1-1.108,1.108" transform="translate(102.592 85.974)" fill="#33dbce"/>
        <path id="Path_30341" data-name="Path 30341" d="M214.16,142.941H185a1.108,1.108,0,0,1-1.108-1.108v-5.169A1.108,1.108,0,0,1,185,135.556h29.16a1.108,1.108,0,0,1,1.108,1.108v5.169a1.108,1.108,0,0,1-1.108,1.108" transform="translate(116.63 85.974)" fill="#33dbce"/>
        <path id="Path_30342" data-name="Path 30342" d="M238.495,115.516h-29.16a1.108,1.108,0,0,1-1.108-1.108c0-4.988-.327-6.277,1.108-6.277h29.16a1.109,1.109,0,0,1,1.108,1.108v5.169a1.109,1.109,0,0,1-1.108,1.108" transform="translate(132.044 68.58)" fill="#33dbce"/>
        <path id="Path_30343" data-name="Path 30343" d="M172.545,149.366c-18.393,0-18.8.42-18.8-1.108,0-4.988-.325-6.277,1.11-6.277,18.393,0,18.8-.418,18.8,1.108v5.169a1.108,1.108,0,0,1-1.108,1.108" transform="translate(97.49 90.016)" fill="#9ebfd8"/>
        <path id="Path_30344" data-name="Path 30344" d="M250.063,80.678c-73,0-69.429.51-69.429-1.108,0-4.988-.325-6.277,1.108-6.277,73,0,69.429-.51,69.429,1.108V79.57a1.109,1.109,0,0,1-1.108,1.108" transform="translate(114.544 46.436)" fill="#33dbce"/>
        <path id="Path_30345" data-name="Path 30345" d="M236.73,125.03c-58.411,0-55.742.449-55.742-.994,0-5.349-.293-6.391.994-6.391H236.73a.994.994,0,0,1,.994.994v5.4a.993.993,0,0,1-.994.994" transform="translate(114.77 74.614)" fill="#9ebfd8"/>
        <path id="Path_30346" data-name="Path 30346" d="M238.238,105.711c-72.995,0-69.429.512-69.429-1.108,0-4.988-.325-6.277,1.108-6.277,73,0,69.427-.508,69.427,1.108V104.6a1.105,1.105,0,0,1-1.106,1.108" transform="translate(107.044 62.314)" fill="#9ebfd8"/>
        <path id="Path_30347" data-name="Path 30347" d="M248.341,80.662c-16.89,0-16.638.27-16.638-.663,0-6.029-.261-6.722.665-6.722,16.888,0,16.636-.27,16.636.665,0,6.029.263,6.72-.663,6.72" transform="translate(146.932 46.452)" fill="#33dbce"/>
        <path id="Path_30348" data-name="Path 30348" d="M261.035,80.662c-16.89,0-16.638.27-16.638-.663,0-6.029-.261-6.722.665-6.722,16.888,0,16.636-.27,16.636.665,0,6.029.263,6.72-.664,6.72" transform="translate(154.983 46.452)" fill="#135160"/>
        <path id="Path_30349" data-name="Path 30349" d="M374.118,276.4c-172.918,0-169.537,2.644-169.537-6.323,0-101-2.388-102.721,6.321-102.721,172.92,0,169.538-2.646,169.538,6.321v96.4a6.322,6.322,0,0,1-6.323,6.323" transform="translate(129.562 105.912)" fill="#fff"/>
        <path id="Path_30350" data-name="Path 30350" d="M245.329,278.052c-30.67,0-37.736-.557-40.209-3.036-1.131-1.136-1.121-2.566-1.11-4.077l0-.5c0-21.639-.109-38.586-.2-52.2-.245-38.04-.3-47.077,2.726-50.125,1.214-1.222,2.788-1.32,4.718-1.32,39.56,0,69.272-.136,93.148-.244,61.83-.283,72.967-.333,76.207,2.915,1.133,1.136,1.121,2.564,1.111,4.077l0,.5v96.4a7.256,7.256,0,0,1-7.248,7.248c-39.56,0-69.273.136-93.149.243-14.656.067-26.468.121-36,.121m94.648-109.773c-9.521,0-21.216.054-35.559.119-23.878.109-53.593.245-93.156.245-1.824,0-2.747.111-3.4.771-2.486,2.5-2.41,14.17-2.188,48.81.087,13.62.2,30.57.2,52.215l0,.512c-.01,1.425.01,2.2.57,2.757,2.692,2.7,17.985,2.631,74.887,2.371,23.876-.109,53.593-.245,93.158-.245a5.4,5.4,0,0,0,5.4-5.395l0-96.913c.01-1.425-.01-2.195-.57-2.757-2.015-2.02-11.082-2.491-39.329-2.491" transform="translate(129.202 105.552)" fill="#c3c4d7"/>
        <path id="Path_30351" data-name="Path 30351" d="M380.325,172.735H204.465a5.419,5.419,0,0,1,5.419-5.419c176.5,0,170.44-2.051,170.44,5.419" transform="translate(129.678 105.953)" fill="#444244"/>
        <path id="Path_30352" data-name="Path 30352" d="M381.611,174.021H203.9v-.927a6.353,6.353,0,0,1,6.346-6.344c38.3,0,67.543-.095,91.04-.172,66.469-.216,76.685-.248,79.487,2.625a3.979,3.979,0,0,1,.851,3.2c0,.221-.011.451-.011.691Zm-175.765-1.852H379.777c.023-.878,0-1.334-.332-1.673-2.255-2.312-18.336-2.262-78.155-2.066-23.5.077-52.743.172-91.046.172a4.5,4.5,0,0,0-4.4,3.568" transform="translate(129.318 105.594)" fill="#444244"/>
        <path id="Path_30353" data-name="Path 30353" d="M307.646,170.922c1.521,0,2.906.315,2.906-.6,0-1.1.258-2.322-.6-2.322-1.521,0-2.906-.315-2.906.6,0,1.1-.257,2.322.6,2.322" transform="translate(194.715 106.518)" fill="#bec0c2"/>
        <path id="Path_30354" data-name="Path 30354" d="M307.66,170.7a.463.463,0,0,1-.3-.819l2.044-1.7a.462.462,0,0,1,.592.711l-2.043,1.7a.46.46,0,0,1-.3.108" transform="translate(194.834 106.595)" fill="#fff"/>
        <path id="Path_30355" data-name="Path 30355" d="M309.7,170.7a.453.453,0,0,1-.3-.108l-2.044-1.7a.463.463,0,0,1,.593-.711l2.043,1.7a.463.463,0,0,1-.3.819" transform="translate(194.834 106.595)" fill="#fff"/>
        <g id="Group_14749" data-name="Group 14749" transform="translate(357.176 369.316)" opacity="0.8">
          <g id="Group_14748" data-name="Group 14748">
            <g id="Group_14747" data-name="Group 14747" clip-path="url(#clip-path-3)">
              <path id="Path_30356" data-name="Path 30356" d="M247.534,230.426c0-3.005-.3-4.409,1.026-4.409,3,0,4.408-.3,4.408,1.026,0,3.005.3,4.409-1.025,4.409-3.005,0-4.409.3-4.409-1.026" transform="translate(-200.201 -225.988)" fill="#135160"/>
              <path id="Path_30357" data-name="Path 30357" d="M240.221,230.426c0-3.005-.3-4.409,1.026-4.409,3,0,4.408-.3,4.408,1.026,0,3.005.3,4.409-1.025,4.409-3.005,0-4.409.3-4.409-1.026" transform="translate(-204.839 -225.988)" fill="#135160"/>
              <path id="Path_30358" data-name="Path 30358" d="M232.433,230.426c0-3.005-.3-4.409,1.026-4.409,3.005,0,4.409-.3,4.409,1.026,0,3.005.3,4.409-1.026,4.409-3.005,0-4.409.3-4.409-1.026" transform="translate(-209.778 -225.988)" fill="#135160"/>
              <path id="Path_30359" data-name="Path 30359" d="M226.052,230.426c0-3.005-.3-4.409,1.026-4.409,3,0,4.408-.3,4.408,1.026,0,3.005.3,4.409-1.025,4.409-3.005,0-4.409.3-4.409-1.026" transform="translate(-213.825 -225.988)" fill="#135160"/>
              <path id="Path_30360" data-name="Path 30360" d="M218.588,230.426c0-3.005-.3-4.409,1.026-4.409,3.005,0,4.409-.3,4.409,1.026,0,3.005.3,4.409-1.026,4.409-3.005,0-4.409.3-4.409-1.026" transform="translate(-218.559 -225.988)" fill="#135160"/>
            </g>
          </g>
        </g>
        <path id="Path_30361" data-name="Path 30361" d="M240.946,180.688c-21.621,0-22.361.592-22.361-1.626,0-1.646-.333-3.808,1.628-3.808,21.621,0,22.36-.593,22.36,1.626,0,1.646.335,3.808-1.626,3.808" transform="translate(138.619 111.106)" fill="#9ebfd8"/>
        <g id="Group_14752" data-name="Group 14752" transform="translate(387.456 286.249)" opacity="0.8">
          <g id="Group_14751" data-name="Group 14751">
            <g id="Group_14750" data-name="Group 14750" clip-path="url(#clip-path-4)">
              <path id="Path_30362" data-name="Path 30362" d="M309.362,180.7c-74.771,0-72.253.742-72.253-1.626,0-1.646-.333-3.808,1.628-3.808,74.771,0,72.251-.742,72.251,1.626v2.182a1.626,1.626,0,0,1-1.626,1.626" transform="translate(-237.088 -175.158)" fill="#514342"/>
            </g>
          </g>
        </g>
        <g id="Group_14755" data-name="Group 14755" transform="translate(387.456 310.26)" opacity="0.8">
          <g id="Group_14754" data-name="Group 14754">
            <g id="Group_14753" data-name="Group 14753" clip-path="url(#clip-path-5)">
              <path id="Path_30363" data-name="Path 30363" d="M309.362,195.286c-74.771,0-72.253.742-72.253-1.626,0-1.646-.333-3.808,1.628-3.808h70.625a1.625,1.625,0,0,1,1.626,1.626v2.182a1.626,1.626,0,0,1-1.626,1.626" transform="translate(-237.088 -189.85)" fill="#135160"/>
            </g>
          </g>
        </g>
        <g id="Group_14758" data-name="Group 14758" transform="translate(387.345 334.163)" opacity="0.8">
          <g id="Group_14757" data-name="Group 14757">
            <g id="Group_14756" data-name="Group 14756" clip-path="url(#clip-path-6)">
              <path id="Path_30364" data-name="Path 30364" d="M309.4,209.912H238.78c-2.347,0-2.345-5.435,0-5.435H309.4a1.626,1.626,0,0,1,1.626,1.628v2.182a1.626,1.626,0,0,1-1.626,1.626" transform="translate(-237.02 -204.477)" fill="#135160"/>
            </g>
          </g>
        </g>
        <g id="Group_14761" data-name="Group 14761" transform="translate(387.456 357.955)" opacity="0.8">
          <g id="Group_14760" data-name="Group 14760">
            <g id="Group_14759" data-name="Group 14759" clip-path="url(#clip-path-7)">
              <path id="Path_30365" data-name="Path 30365" d="M309.362,224.581c-74.771,0-72.253.742-72.253-1.626,0-1.646-.333-3.808,1.628-3.808,74.771,0,72.251-.742,72.251,1.626,0,1.646.335,3.808-1.626,3.808" transform="translate(-237.088 -219.036)" fill="#135160"/>
            </g>
          </g>
        </g>
        <path id="Path_30366" data-name="Path 30366" d="M240.946,188c-21.621,0-22.361.592-22.361-1.626,0-1.646-.333-3.808,1.628-3.808,21.621,0,22.36-.593,22.36,1.626,0,1.646.335,3.808-1.626,3.808" transform="translate(138.619 115.744)" fill="#9ebfd8"/>
        <path id="Path_30367" data-name="Path 30367" d="M240.946,195.314c-21.621,0-22.361.592-22.361-1.626,0-1.646-.333-3.808,1.628-3.808,21.621,0,22.36-.593,22.36,1.626,0,1.646.335,3.808-1.626,3.808" transform="translate(138.619 120.382)" fill="#9ebfd8"/>
        <path id="Path_30368" data-name="Path 30368" d="M240.946,202.627c-21.621,0-22.361.592-22.361-1.626,0-1.646-.333-3.808,1.628-3.808,21.621,0,22.36-.593,22.36,1.626,0,1.646.335,3.808-1.626,3.808" transform="translate(138.619 125.02)" fill="#9ebfd8"/>
        <path id="Path_30369" data-name="Path 30369" d="M240.946,209.94c-21.621,0-22.361.592-22.361-1.626,0-1.646-.333-3.809,1.628-3.809,21.621,0,22.36-.592,22.36,1.628v2.182a1.626,1.626,0,0,1-1.626,1.626" transform="translate(138.619 129.658)" fill="#9ebfd8"/>
        <path id="Path_30370" data-name="Path 30370" d="M240.946,217.253c-21.621,0-22.361.592-22.361-1.626,0-1.646-.333-3.808,1.628-3.808,21.621,0,22.36-.593,22.36,1.626,0,1.646.335,3.808-1.626,3.808" transform="translate(138.619 134.296)" fill="#9ebfd8"/>
        <path id="Path_30371" data-name="Path 30371" d="M240.946,224.566c-21.621,0-22.361.592-22.361-1.626,0-1.646-.333-3.808,1.628-3.808,21.621,0,22.36-.593,22.36,1.626,0,1.646.335,3.808-1.626,3.808" transform="translate(138.619 138.935)" fill="#9ebfd8"/>
        <path id="Path_30372" data-name="Path 30372" d="M305.654,188c-21.621,0-22.361.592-22.361-1.626,0-1.646-.333-3.808,1.628-3.808,21.621,0,22.361-.593,22.361,1.626,0,1.646.333,3.808-1.628,3.808" transform="translate(179.659 115.744)" fill="#9ebfd8"/>
        <path id="Path_30373" data-name="Path 30373" d="M305.654,202.627c-21.621,0-22.361.592-22.361-1.626,0-1.646-.333-3.808,1.628-3.808,21.621,0,22.361-.593,22.361,1.626,0,1.646.333,3.808-1.628,3.808" transform="translate(179.659 125.02)" fill="#9ebfd8"/>
        <path id="Path_30374" data-name="Path 30374" d="M305.654,217.253c-21.621,0-22.361.592-22.361-1.626,0-1.646-.333-3.808,1.628-3.808,21.621,0,22.361-.593,22.361,1.626,0,1.646.333,3.808-1.628,3.808" transform="translate(179.659 134.296)" fill="#9ebfd8"/>
        <path id="Path_30375" data-name="Path 30375" d="M273.425,188.008H252.692a1.627,1.627,0,0,1-1.628-1.624V184.2a1.625,1.625,0,0,1,1.628-1.624h20.733a1.624,1.624,0,0,1,1.626,1.624v2.183a1.626,1.626,0,0,1-1.626,1.624" transform="translate(159.232 115.795)" fill="#d6723a"/>
        <path id="Path_30376" data-name="Path 30376" d="M273.434,202.636c-21.621,0-22.361.592-22.361-1.626,0-1.646-.333-3.808,1.628-3.808h20.733a1.624,1.624,0,0,1,1.626,1.626v2.182a1.626,1.626,0,0,1-1.626,1.626" transform="translate(159.224 125.072)" fill="#33dbce"/>
        <path id="Path_30377" data-name="Path 30377" d="M273.434,217.289c-21.621,0-22.361.592-22.361-1.624,0-1.647-.333-3.811,1.628-3.811,21.621,0,22.36-.592,22.36,1.628,0,1.646.335,3.808-1.626,3.808" transform="translate(159.224 134.319)" fill="#33dbce"/>
        <path id="Path_30378" data-name="Path 30378" d="M410.03,235.441c-187.618,0-183.148,2.615-183.148-6.829V124.472a6.829,6.829,0,0,1,6.829-6.829c187.618,0,183.148-2.615,183.148,6.829v104.14a6.829,6.829,0,0,1-6.83,6.829" transform="translate(143.889 74.402)" fill="#fff"/>
        <path id="Path_30379" data-name="Path 30379" d="M273.768,236.971c-35.585,0-43.659-.578-46.309-3.249-1.144-1.152-1.128-2.6-1.11-4.141l0-.634V124.807a7.7,7.7,0,0,1,7.691-7.691c40.888,0,72.184-.123,97.332-.221,69.6-.273,82.143-.32,85.573,3.136,1.146,1.152,1.128,2.6,1.111,4.141l0,.634v104.14a7.7,7.7,0,0,1-7.692,7.691c-40.893,0-72.19.123-97.34.221-15.857.062-28.756.113-39.256.113m96.152-118.462c-10.444,0-23.141.049-38.538.109-25.148.1-56.443.221-97.336.221a5.976,5.976,0,0,0-5.968,5.968l0,104.793c-.018,1.49,0,2.3.611,2.909,2.922,2.943,20.166,2.875,84.334,2.626,25.149-.1,56.45-.221,97.346-.221a5.975,5.975,0,0,0,5.968-5.968l.007-104.793c.016-1.49,0-2.3-.611-2.907-2.221-2.239-12.719-2.737-45.807-2.737" transform="translate(143.554 74.067)" fill="#c3c4d7"/>
        <path id="Path_30380" data-name="Path 30380" d="M416.856,123.476H226.878a5.854,5.854,0,0,1,5.854-5.854c190.386,0,184.124-2.214,184.124,5.854" transform="translate(143.893 74.423)" fill="#444244"/>
        <path id="Path_30381" data-name="Path 30381" d="M418.052,124.671H226.35v-.861a6.723,6.723,0,0,1,6.717-6.715c41.3,0,72.857-.1,98.212-.186,70.234-.227,82.888-.266,85.893,2.8.954.979.923,2.141.891,3.375,0,.229-.011.471-.011.722Zm-189.9-1.722h188.2c.026-1.038.01-1.608-.4-2.031-2.5-2.553-18.269-2.5-84.655-2.285-25.357.082-56.914.185-98.219.185a5,5,0,0,0-4.919,4.131" transform="translate(143.558 74.089)" fill="#444244"/>
        <path id="Path_30382" data-name="Path 30382" d="M338.342,121.511c1.946,0,3.139.278,3.139-.647,0-1.193.278-2.509-.647-2.509-1.946,0-3.139-.279-3.139.647,0,1.193-.278,2.509.647,2.509" transform="translate(214.152 75.039)" fill="#bec0c2"/>
        <path id="Path_30383" data-name="Path 30383" d="M338.329,121.181a.431.431,0,0,1-.276-.762l2.211-1.842a.431.431,0,0,1,.551.662l-2.21,1.842a.429.429,0,0,1-.276.1" transform="translate(214.305 75.143)" fill="#fff"/>
        <path id="Path_30384" data-name="Path 30384" d="M340.54,121.181a.429.429,0,0,1-.276-.1l-2.209-1.842a.431.431,0,1,1,.552-.662l2.209,1.842a.432.432,0,0,1,.054.606.427.427,0,0,1-.33.155" transform="translate(214.306 75.143)" fill="#fff"/>
        <path id="Path_30385" data-name="Path 30385" d="M253.19,127.327H236.544a.384.384,0,0,1,0-.768H253.19a.384.384,0,0,1,0,.768" transform="translate(149.78 80.268)" fill="#eee4d9"/>
        <path id="Path_30386" data-name="Path 30386" d="M253.19,184.269H236.544a.383.383,0,1,1,0-.766H253.19a.383.383,0,1,1,0,.766" transform="translate(149.78 116.383)" fill="#eee4d9"/>
        <path id="Path_30387" data-name="Path 30387" d="M236.544,220.384a.384.384,0,0,1-.384-.384V126.942a.384.384,0,0,1,.768,0V220a.385.385,0,0,1-.384.384" transform="translate(149.78 80.268)" fill="#eee4d9"/>
        <path id="Path_30388" data-name="Path 30388" d="M250.079,139.463h-9.552a.384.384,0,0,1,0-.768h9.552a.384.384,0,1,1,0,.768" transform="translate(152.307 87.965)" fill="#eee4d9"/>
        <path id="Path_30389" data-name="Path 30389" d="M250.079,172.132h-9.552a.383.383,0,0,1,0-.766h9.552a.383.383,0,1,1,0,.766" transform="translate(152.307 108.686)" fill="#eee4d9"/>
        <path id="Path_30390" data-name="Path 30390" d="M240.528,192.853a.384.384,0,0,1-.384-.384V139.081a.383.383,0,1,1,.766,0v53.389a.383.383,0,0,1-.382.384" transform="translate(152.307 87.965)" fill="#eee4d9"/>
        <path id="Path_30391" data-name="Path 30391" d="M254.538,148.077H240.529a.384.384,0,0,1,0-.768h14.009a.384.384,0,0,1,0,.768" transform="translate(152.307 93.428)" fill="#eee4d9"/>
        <path id="Path_30392" data-name="Path 30392" d="M270.725,131.064H239.561a.919.919,0,0,1-.918-.918v-4.283a.918.918,0,0,1,.918-.918c33.015,0,32.082-.392,32.082.918v4.283a.919.919,0,0,1-.918.918" transform="translate(151.355 79.208)" fill="#9ebfd8"/>
        <path id="Path_30393" data-name="Path 30393" d="M252.369,143.179h-8.683a.919.919,0,0,1-.918-.918v-4.283a.92.92,0,0,1,.918-.92h8.683a.92.92,0,0,1,.918.92v4.283a.919.919,0,0,1-.918.918" transform="translate(153.971 86.926)" fill="#135160"/>
        <path id="Path_30394" data-name="Path 30394" d="M255.5,187.984H240.833a.918.918,0,0,1-.918-.917v-4.285a.916.916,0,0,1,.918-.917H255.5a.917.917,0,0,1,.918.917v4.285a.919.919,0,0,1-.918.917" transform="translate(152.161 115.344)" fill="#9ebfd8"/>
        <path id="Path_30395" data-name="Path 30395" d="M315.583,148.077h-38.8a.384.384,0,0,1,0-.768h38.8a.384.384,0,0,1,0,.768" transform="translate(175.304 93.428)" fill="#eee4d9"/>
        <path id="Path_30396" data-name="Path 30396" d="M319.761,131.068c-60.435,0-57.548.43-57.548-.918,0-4.014-.279-5.2.918-5.2,60.435,0,57.548-.431,57.548.918,0,4.012.278,5.2-.918,5.2" transform="translate(166.286 79.204)" fill="#33dbce"/>
        <path id="Path_30397" data-name="Path 30397" d="M289.661,175.848H244.282a.824.824,0,0,1-.824-.824v-4.473a.823.823,0,0,1,.824-.824h45.379a.822.822,0,0,1,.824.824v4.473a.823.823,0,0,1-.824.824" transform="translate(154.408 107.647)" fill="#9ebfd8"/>
        <path id="Path_30398" data-name="Path 30398" d="M300.316,151.792H243.686a.919.919,0,0,1-.918-.918V146.59a.918.918,0,0,1,.918-.918h56.629a.918.918,0,0,1,.918.918v4.283a.919.919,0,0,1-.918.918" transform="translate(153.971 92.39)" fill="#9ebfd8"/>
        <path id="Path_30399" data-name="Path 30399" d="M305.121,173.184h-17.2a.383.383,0,0,1,0-.766h17.2a.383.383,0,1,1,0,.766" transform="translate(182.369 109.353)" fill="#eee4d9"/>
        <path id="Path_30400" data-name="Path 30400" d="M305.121,164.86h-17.2a.384.384,0,0,1,0-.768h17.2a.384.384,0,0,1,0,.768" transform="translate(182.369 104.072)" fill="#eee4d9"/>
        <path id="Path_30401" data-name="Path 30401" d="M305.121,156.535h-17.2a.384.384,0,0,1,0-.768h17.2a.384.384,0,0,1,0,.768" transform="translate(182.369 98.792)" fill="#eee4d9"/>
        <path id="Path_30402" data-name="Path 30402" d="M297.207,151.951c-13.259,0-13.791.35-13.791-.551,0-4.267-.35-5.569.551-5.569,13.259,0,13.791-.35,13.791.549,0,4.269.35,5.571-.551,5.571" transform="translate(179.709 92.448)" fill="#33dbce"/>
        <path id="Path_30403" data-name="Path 30403" d="M281.262,162.76H251.084a.821.821,0,0,1-.82-.82v-4.481a.819.819,0,0,1,.82-.817h30.178a.819.819,0,0,1,.82.817v4.481a.821.821,0,0,1-.82.82" transform="translate(158.725 99.347)" fill="#33dbce"/>
        <path id="Path_30404" data-name="Path 30404" d="M307.728,151.951c-13.259,0-13.791.35-13.791-.551,0-4.267-.35-5.569.551-5.569,13.259,0,13.791-.35,13.791.549,0,4.269.35,5.571-.551,5.571" transform="translate(186.381 92.448)" fill="#135160"/>
        <path id="Path_30405" data-name="Path 30405" d="M297.207,160.277c-13.259,0-13.791.35-13.791-.551,0-4.267-.35-5.571.551-5.571,13.259,0,13.791-.348,13.791.551,0,4.269.35,5.571-.551,5.571" transform="translate(179.709 97.728)" fill="#33dbce"/>
        <path id="Path_30406" data-name="Path 30406" d="M307.728,160.277c-13.259,0-13.791.35-13.791-.551,0-4.267-.35-5.571.551-5.571,13.259,0,13.791-.348,13.791.551v5.02a.551.551,0,0,1-.551.551" transform="translate(186.381 97.728)" fill="#135160"/>
        <path id="Path_30407" data-name="Path 30407" d="M297.207,168.6c-13.259,0-13.791.35-13.791-.551,0-4.267-.35-5.569.551-5.569,13.259,0,13.791-.35,13.791.549,0,4.269.35,5.571-.551,5.571" transform="translate(179.709 103.008)" fill="#33dbce"/>
        <path id="Path_30408" data-name="Path 30408" d="M307.728,168.6c-13.259,0-13.791.35-13.791-.551,0-4.267-.35-5.569.551-5.569,13.259,0,13.791-.35,13.791.549,0,4.269.35,5.571-.551,5.571" transform="translate(186.381 103.008)" fill="#135160"/>
        <path id="Path_30409" data-name="Path 30409" d="M297.207,176.928c-13.259,0-13.791.35-13.791-.551,0-4.267-.35-5.571.551-5.571,13.259,0,13.791-.348,13.791.551,0,4.269.35,5.571-.551,5.571" transform="translate(179.709 108.288)" fill="#33dbce"/>
        <path id="Path_30410" data-name="Path 30410" d="M307.728,176.928c-13.259,0-13.791.35-13.791-.551,0-4.267-.35-5.571.551-5.571,13.259,0,13.791-.348,13.791.551,0,4.269.35,5.571-.551,5.571" transform="translate(186.381 108.288)" fill="#135160"/>
        <path id="Path_30411" data-name="Path 30411" d="M293.187,189.109a.385.385,0,0,1-.384-.384V147.693a.384.384,0,0,1,.768,0v41.032a.385.385,0,0,1-.384.384" transform="translate(185.705 93.428)" fill="#eee4d9"/>
        <path id="Path_30412" data-name="Path 30412" d="M311.239,131.056c-8.856,0-9.6.309-9.6-.918,0-4.014-.278-5.2.918-5.2,8.858,0,9.6-.309,9.6.918,0,4.012.279,5.2-.918,5.2" transform="translate(191.29 79.216)" fill="#135160"/>
        <path id="Path_30413" data-name="Path 30413" d="M322.277,131.056c-8.856,0-9.6.309-9.6-.918,0-4.014-.279-5.2.918-5.2,8.856,0,9.6-.309,9.6.918,0,4.012.279,5.2-.918,5.2" transform="translate(198.291 79.216)" fill="#135160"/>
        <path id="Path_30414" data-name="Path 30414" d="M333.315,131.056c-8.856,0-9.6.309-9.6-.918,0-4.014-.278-5.2.918-5.2,8.857,0,9.6-.309,9.6.918,0,4.012.279,5.2-.918,5.2" transform="translate(205.292 79.216)" fill="#135160"/>
        <path id="Path_30415" data-name="Path 30415" d="M110.468,169.019a32.67,32.67,0,1,1-32.67-32.67,32.669,32.669,0,0,1,32.67,32.67" transform="translate(28.622 86.477)" fill="#fff"/>
        <path id="Path_30416" data-name="Path 30416" d="M78.431,203.951a34.3,34.3,0,1,1,34.3-34.3,34.339,34.339,0,0,1-34.3,34.3m0-65.34a31.04,31.04,0,1,0,31.041,31.041,31.076,31.076,0,0,0-31.041-31.041" transform="translate(27.989 85.844)" fill="#33dbce"/>
        <g id="Group_14764" data-name="Group 14764" transform="translate(77.492 226.521)" opacity="0.3">
          <g id="Group_14763" data-name="Group 14763">
            <g id="Group_14762" data-name="Group 14762" clip-path="url(#clip-path-8)">
              <path id="Path_30417" data-name="Path 30417" d="M65.244,138.718a1.925,1.925,0,0,1,1.177,3.666,1.925,1.925,0,0,1-1.177-3.666" transform="translate(-36.957 -138.61)" fill="#72787a"/>
              <path id="Path_30418" data-name="Path 30418" d="M74.454,140.828a1.925,1.925,0,0,1-.814,3.762,1.925,1.925,0,0,1,.814-3.762" transform="translate(-31.743 -137.236)" fill="#72787a"/>
              <path id="Path_30419" data-name="Path 30419" d="M81.922,148.3a1.925,1.925,0,0,1-2.76,2.683,1.925,1.925,0,0,1,2.76-2.683" transform="translate(-27.648 -132.85)" fill="#72787a"/>
              <path id="Path_30420" data-name="Path 30420" d="M80.4,157.02a1.924,1.924,0,0,1,3.849.038,1.924,1.924,0,0,1-3.849-.038" transform="translate(-26.5 -128.132)" fill="#72787a"/>
              <path id="Path_30421" data-name="Path 30421" d="M57.2,140.828a1.925,1.925,0,0,0,.814,3.762,1.925,1.925,0,0,0-.814-3.762" transform="translate(-42.167 -137.236)" fill="#72787a"/>
              <path id="Path_30422" data-name="Path 30422" d="M49.766,148.3a1.925,1.925,0,0,0,2.76,2.683,1.925,1.925,0,0,0-2.76-2.683" transform="translate(-46.291 -132.85)" fill="#72787a"/>
              <path id="Path_30423" data-name="Path 30423" d="M51.268,157.02a1.924,1.924,0,0,0-3.849.038,1.924,1.924,0,0,0,3.849-.038" transform="translate(-47.417 -128.132)" fill="#72787a"/>
              <path id="Path_30424" data-name="Path 30424" d="M65.248,175.381a1.925,1.925,0,0,0,1.177-3.666,1.925,1.925,0,0,0-1.177,3.666" transform="translate(-36.955 -117.682)" fill="#72787a"/>
              <path id="Path_30425" data-name="Path 30425" d="M74.458,173.266a1.925,1.925,0,0,0-.814-3.764,1.925,1.925,0,0,0,.814,3.764" transform="translate(-31.741 -119.05)" fill="#72787a"/>
              <path id="Path_30426" data-name="Path 30426" d="M81.926,165.806a1.925,1.925,0,0,0-2.76-2.683,1.925,1.925,0,0,0,2.76,2.683" transform="translate(-27.645 -123.45)" fill="#72787a"/>
              <path id="Path_30427" data-name="Path 30427" d="M57.208,173.266a1.925,1.925,0,0,1,.814-3.764,1.925,1.925,0,0,1-.814,3.764" transform="translate(-42.165 -119.05)" fill="#72787a"/>
              <path id="Path_30428" data-name="Path 30428" d="M49.77,165.806a1.924,1.924,0,0,1,2.759-2.683,1.924,1.924,0,0,1-2.759,2.683" transform="translate(-46.289 -123.45)" fill="#72787a"/>
            </g>
          </g>
        </g>
        <path id="Path_30429" data-name="Path 30429" d="M65.392,166.223a.814.814,0,0,1-.814-.815V144.113a.815.815,0,1,1,1.629,0v19.965l18.168-9.246a.815.815,0,0,1,.739,1.453l-19.353,9.85a.819.819,0,0,1-.369.088" transform="translate(40.957 90.884)" fill="#72787a"/>
      </g>
    </g>
    <g id="Group_14792" data-name="Group 14792" transform="translate(63.158 282.849)">
      <g id="Group_14791" data-name="Group 14791" clip-path="url(#clip-path-9)">
        <path id="Path_30430" data-name="Path 30430" d="M189.074,274.747H141.215l13.058-28.3h21.743Z" transform="translate(26.405 -126.543)" fill="#72787a"/>
        <path id="Path_30431" data-name="Path 30431" d="M260.231,289.74c-158.135,0-151.715,1.381-151.715-3.105,0-106.305-1.33-102.605,3.105-102.605,158.135,0,151.715-1.381,151.715,3.105,0,106.307,1.33,102.605-3.105,102.605" transform="translate(5.547 -166.259)" fill="#9c9fa0"/>
        <path id="Path_30432" data-name="Path 30432" d="M255.435,268.17c-150.281,0-144.808,1.417-144.808-3.105,0-80.282-1.317-79.143,3.105-79.143,150.281,0,144.808-1.417,144.808,3.1,0,80.283,1.316,79.144-3.105,79.144" transform="translate(6.889 -165.065)" fill="#0d2557"/>
        <path id="Path_30433" data-name="Path 30433" d="M157.334,248.5c-5.682,0-5.689-8.6,0-8.6s5.689,8.6,0,8.6" transform="translate(33.923 -130.695)" fill="#72787a"/>
        <path id="Path_30434" data-name="Path 30434" d="M230.584,259.94c-111.745,0-109.426,1.667-109.426-4.081,0-65.194-1.541-66.3,4.081-66.3,111.745,0,109.426-1.667,109.426,4.081,0,65.194,1.541,66.3-4.081,66.3" transform="translate(13.561 -162.768)" fill="#fff"/>
        <path id="Path_30435" data-name="Path 30435" d="M147.831,260.88c-20.111,0-24.728-.353-26.3-1.937a3.238,3.238,0,0,1-.685-2.544l0-.338c0-13.978-.07-24.922-.126-33.716-.159-24.509-.194-30.331,1.734-32.274a3.869,3.869,0,0,1,2.987-.825c25.244,0,44.3-.085,59.61-.152,40.321-.177,47.587-.208,49.648,1.861a3.237,3.237,0,0,1,.685,2.546l0,.338c0,13.978.07,24.922.126,33.716.159,24.509.2,30.331-1.734,32.274a3.867,3.867,0,0,1-2.987.825c-25.244,0-44.3.085-59.609.152-9.492.041-17.153.074-23.345.074m60.138-70.831c-6.163,0-13.7.034-22.917.074-15.311.067-34.368.15-59.613.15-1.049,0-1.773.036-2.257.525-1.628,1.637-1.582,8.57-1.435,31.541.056,8.8.126,19.742.126,33.722l0,.346c-.008.928,0,1.43.384,1.811,1.758,1.765,11.748,1.722,48.916,1.557,15.313-.065,34.368-.149,59.613-.149,1.051,0,1.775-.038,2.258-.525,1.628-1.637,1.582-8.57,1.435-31.541-.057-8.8-.127-19.741-.127-33.722l0-.348c.008-.927,0-1.428-.384-1.809-1.322-1.329-7.3-1.633-26-1.633" transform="translate(13.362 -162.968)" fill="#eee4d9"/>
        <path id="Path_30436" data-name="Path 30436" d="M234.59,193.05H121.083a3.5,3.5,0,0,1,3.5-3.5c113.572,0,110.01-1.494,110.01,3.5" transform="translate(13.636 -162.762)" fill="#444244"/>
        <path id="Path_30437" data-name="Path 30437" d="M235.3,193.764H120.768v-.515a4.016,4.016,0,0,1,4.012-4.012c26.36,0,46.762-.082,61.66-.142,39.424-.155,46.527-.186,48.319,1.639a2.593,2.593,0,0,1,.551,2.085c0,.137,0,.281,0,.43Zm-113.463-1.03H234.283c.013-.654,0-1.013-.26-1.28-1.486-1.517-11.248-1.474-47.579-1.33-14.9.06-35.3.142-61.664.142a2.988,2.988,0,0,0-2.938,2.468" transform="translate(13.437 -162.962)" fill="#444244"/>
        <path id="Path_30438" data-name="Path 30438" d="M187.694,191.85h1.489c.536,0,.7-1.886,0-1.886h-1.489c-.67,0-.387,1.994-.387,1.5a.387.387,0,0,0,.387.387" transform="translate(55.6 -162.368)" fill="#bec0c2"/>
        <path id="Path_30439" data-name="Path 30439" d="M187.673,191.662a.254.254,0,0,1-.2-.093.259.259,0,0,1,.033-.363l1.32-1.1a.258.258,0,0,1,.328.4l-1.319,1.1a.262.262,0,0,1-.165.059" transform="translate(55.707 -162.316)" fill="#fff"/>
        <path id="Path_30440" data-name="Path 30440" d="M188.992,191.662a.265.265,0,0,1-.165-.059l-1.319-1.1a.258.258,0,0,1,.328-.4l1.32,1.1a.259.259,0,0,1,.033.363.254.254,0,0,1-.2.093" transform="translate(55.706 -162.316)" fill="#fff"/>
        <path id="Path_30441" data-name="Path 30441" d="M159.526,202.8c-29.939,0-29.052.322-29.052-.714,0-2.448-.211-3.391.714-3.391,29.941,0,29.052-.322,29.052.714,0,2.448.212,3.391-.714,3.391" transform="translate(19.579 -156.861)" fill="#9ebfd8"/>
        <path id="Path_30442" data-name="Path 30442" d="M181.9,224.936c-53.712,0-51.426.44-51.426-.948,0-1.889-.245-3.157.948-3.157,53.712,0,51.426-.438,51.426.948,0,1.889.245,3.157-.948,3.157" transform="translate(19.579 -142.834)" fill="#9ebfd8"/>
        <path id="Path_30443" data-name="Path 30443" d="M129.468,202.838c-2.3,0-3.368.23-3.368-.784,0-2.294-.23-3.368.783-3.368,2.3,0,3.368-.229,3.368.784,0,2.3.23,3.368-.783,3.368" transform="translate(16.804 -156.851)" fill="#33dbce"/>
        <path id="Path_30444" data-name="Path 30444" d="M129.468,208.425c-2.3,0-3.368.23-3.368-.783,0-2.3-.23-3.368.783-3.368,2.3,0,3.368-.23,3.368.783,0,2.3.23,3.368-.783,3.368" transform="translate(16.804 -153.307)" fill="#33dbce"/>
        <path id="Path_30445" data-name="Path 30445" d="M129.468,214.374c-2.3,0-3.368.23-3.368-.783,0-2.3-.23-3.368.783-3.368,2.3,0,3.368-.23,3.368.783,0,2.3.23,3.368-.783,3.368" transform="translate(16.804 -149.534)" fill="#33dbce"/>
        <path id="Path_30446" data-name="Path 30446" d="M129.468,219.249c-2.3,0-3.368.23-3.368-.783,0-2.3-.23-3.368.783-3.368,2.3,0,3.368-.23,3.368.783,0,2.3.23,3.368-.783,3.368" transform="translate(16.804 -146.442)" fill="#33dbce"/>
        <path id="Path_30447" data-name="Path 30447" d="M129.468,224.951c-2.3,0-3.368.23-3.368-.783,0-2.3-.23-3.368.783-3.368,2.3,0,3.368-.23,3.368.783,0,2.3.23,3.368-.783,3.368" transform="translate(16.804 -142.826)" fill="#33dbce"/>
        <g id="Group_14769" data-name="Group 14769" transform="translate(183.655 41.727)" opacity="0.8">
          <g id="Group_14768" data-name="Group 14768">
            <g id="Group_14767" data-name="Group 14767" clip-path="url(#clip-path-10)">
              <path id="Path_30448" data-name="Path 30448" d="M206.166,202.894c-56.961,0-55.123.574-55.123-1.249,0-1.312-.253-2.948,1.249-2.948,56.961,0,55.123-.575,55.123,1.249,0,1.312.255,2.948-1.249,2.948" transform="translate(-151.027 -198.611)" fill="#42737f"/>
            </g>
          </g>
        </g>
        <path id="Path_30449" data-name="Path 30449" d="M159.526,208.388c-29.939,0-29.052.322-29.052-.714,0-2.448-.211-3.391.714-3.391,29.941,0,29.052-.322,29.052.714,0,2.448.212,3.391-.714,3.391" transform="translate(19.579 -153.317)" fill="#9ebfd8"/>
        <g id="Group_14772" data-name="Group 14772" transform="translate(183.653 50.867)" opacity="0.8">
          <g id="Group_14771" data-name="Group 14771">
            <g id="Group_14770" data-name="Group 14770" clip-path="url(#clip-path-11)">
              <path id="Path_30450" data-name="Path 30450" d="M200.55,208.477c-51.21,0-49.506.521-49.506-1.185,0-1.441-.257-3.012,1.185-3.012,51.21,0,49.506-.523,49.506,1.183,0,1.441.257,3.014-1.185,3.014" transform="translate(-151.026 -204.203)" fill="#42737f"/>
            </g>
          </g>
        </g>
        <path id="Path_30451" data-name="Path 30451" d="M159.526,214.336c-29.939,0-29.052.324-29.052-.714,0-2.448-.211-3.389.714-3.389,29.941,0,29.052-.324,29.052.712,0,2.448.212,3.391-.714,3.391" transform="translate(19.579 -149.544)" fill="#9ebfd8"/>
        <g id="Group_14775" data-name="Group 14775" transform="translate(183.647 60.601)" opacity="0.8">
          <g id="Group_14774" data-name="Group 14774">
            <g id="Group_14773" data-name="Group 14773" clip-path="url(#clip-path-12)">
              <path id="Path_30452" data-name="Path 30452" d="M191.183,214.422c-41.32,0-40.137.461-40.137-1.067,0-1.624-.278-3.13,1.067-3.13,41.32,0,40.137-.461,40.137,1.067,0,1.624.278,3.13-1.067,3.13" transform="translate(-151.022 -210.16)" fill="#42737f"/>
            </g>
          </g>
        </g>
        <g id="Group_14778" data-name="Group 14778" transform="translate(183.647 70.643)" opacity="0.8">
          <g id="Group_14777" data-name="Group 14777">
            <g id="Group_14776" data-name="Group 14776" clip-path="url(#clip-path-12)">
              <path id="Path_30453" data-name="Path 30453" d="M191.183,220.567c-41.32,0-40.137.461-40.137-1.067,0-1.624-.278-3.13,1.067-3.13,41.32,0,40.137-.461,40.137,1.067,0,1.624.278,3.13-1.067,3.13" transform="translate(-151.022 -216.305)" fill="#42737f"/>
            </g>
          </g>
        </g>
        <path id="Path_30454" data-name="Path 30454" d="M159.526,220.287c-29.939,0-29.052.322-29.052-.714,0-2.448-.211-3.391.714-3.391,29.941,0,29.052-.322,29.052.714,0,2.448.212,3.391-.714,3.391" transform="translate(19.579 -145.771)" fill="#9ebfd8"/>
        <g id="Group_14781" data-name="Group 14781" transform="translate(204.245 77.891)" opacity="0.8">
          <g id="Group_14780" data-name="Group 14780">
            <g id="Group_14779" data-name="Group 14779" clip-path="url(#clip-path-14)">
              <path id="Path_30455" data-name="Path 30455" d="M198.421,225c-35.752,0-34.767.425-34.767-1,0-1.682-.293-3.2,1-3.2,35.749,0,34.765-.425,34.765.994,0,1.682.291,3.2-1,3.2" transform="translate(-163.626 -220.74)" fill="#42737f"/>
            </g>
          </g>
        </g>
        <path id="Path_30456" data-name="Path 30456" d="M366.413,296.9c0-34.425.3-33.046-.665-33.046-306.212,0-290.661-.345-290.661.665V296.9c0,.757,291.326,1.278,291.326,0" transform="translate(-15.619 -115.541)" fill="#343434"/>
        <path id="Path_30457" data-name="Path 30457" d="M285.032,288.392c-115.56,0-111.134,1.075-111.134-2.484,0-15.917-.784-18.325,2.484-18.325,115.56,0,111.134-1.075,111.134,2.482,0,15.919.784,18.326-2.484,18.326" transform="translate(47.081 -113.237)" fill="#a5a5a5"/>
        <path id="Path_30458" data-name="Path 30458" d="M210.31,279.872c-5.774,0-5.78-8.74,0-8.74s5.78,8.74,0,8.74" transform="translate(67.479 -110.889)" fill="#0e1123"/>
        <path id="Path_30459" data-name="Path 30459" d="M209.652,288.392c-115.56,0-111.134,1.075-111.134-2.484,0-15.917-.784-18.325,2.484-18.325,115.558,0,111.134-1.075,111.134,2.482,0,15.919.784,18.326-2.484,18.326" transform="translate(-0.727 -113.237)" fill="#a5a5a5"/>
        <path id="Path_30460" data-name="Path 30460" d="M134.928,279.872c-5.774,0-5.78-8.74,0-8.74s5.78,8.74,0,8.74" transform="translate(19.67 -110.889)" fill="#0e1123"/>
        <rect id="Rectangle_3600" data-name="Rectangle 3600" width="206.426" height="9.157" transform="translate(107.119 182.022)" fill="#a5a5a5"/>
        <path id="Path_30461" data-name="Path 30461" d="M240.759,286.383,264.914,419.3c.811,4.463-4.689,4.09-5.426,1.333C222.014,280.393,221.674,284.36,226.1,284.4c12.719.1,14.213-.484,14.662,1.987" transform="translate(79.023 -102.488)" fill="#343434"/>
        <path id="Path_30462" data-name="Path 30462" d="M98.084,286.4c-.1.559-24.25,133.082-24.167,133.644.685,4.633,4.948,2.433,5.44.592,37.574-140.619,37.716-136.27,33.369-136.236-12.722.1-14.193-.469-14.643,2" transform="translate(-16.278 -102.488)" fill="#9a9a9a"/>
        <path id="Path_30463" data-name="Path 30463" d="M98.595,304.691c.173.541,41.107,128.875,41.446,129.333,2.78,3.769,5.511-.177,5.081-2.036C112.235,290.2,114.4,293.973,110.582,296.046c-11.183,6.065-12.75,6.254-11.987,8.645" transform="translate(-0.73 -95.45)" fill="#9a9a9a"/>
        <path id="Path_30464" data-name="Path 30464" d="M96.252,295.851l-.237-.78c13.906-4.233,12.62-11.58,10.992-20.882-1.52-8.683-3.411-19.487,7.285-30.48l.585.567c-10.407,10.7-8.632,20.83-7.068,29.772,1.631,9.315,3.038,17.36-11.557,21.8" transform="translate(-2.262 -128.282)" fill="#84534a"/>
        <path id="Path_30465" data-name="Path 30465" d="M192.117,381.15c-2.775-.139-16.092,3.607-24.554,14.151,0,0-29.272-24.278-42.867-61.735l25.388-14.983s21.5,36.9,28.161,46.752a81.944,81.944,0,0,0,13.873,15.814" transform="translate(15.927 -80.794)" fill="#0e1123"/>
        <path id="Path_30466" data-name="Path 30466" d="M167.847,396.2l-.361-.3c-.294-.244-29.524-24.788-43.006-61.932l-.131-.361L150.467,318.2l.234.4c.216.369,21.572,37,28.146,46.724a82.182,82.182,0,0,0,13.785,15.718l1.074.889-1.392-.07c-2.214-.116-15.5,3.18-24.172,13.978Zm-42.366-62.187c12.639,34.486,38.877,57.961,42.24,60.87,7.6-9.2,19.045-13.285,23.466-13.88a85.911,85.911,0,0,1-13.107-15.166c-6.218-9.2-25.585-42.333-27.944-46.376Z" transform="translate(15.708 -81.04)" fill="#3b3348"/>
        <path id="Path_30467" data-name="Path 30467" d="M193.438,370.158c-5,13.456-6.8,39.259-5.828,49.52-3.094-4.643-13.839-12.173-32.739-7.767L166.518,337c-32.278-3.94-23.571-2.876-40.921-5-4.984-7.192-19.423-28.03-24.419-35.242,18.14-10.69,14.693-8.657,19.284-11.369,6.936,5.127,64.052,14.434,79.5,22.886,15.053,8.248-1.533,48.421-6.521,61.877" transform="translate(1.012 -101.843)" fill="#0e1123"/>
        <path id="Path_30468" data-name="Path 30468" d="M188.5,421.679l-1.018-1.53c-3.01-4.519-13.625-11.917-32.25-7.573l-.668.155.106-.678,11.574-74.436-40.655-4.963-.118-.17-24.7-35.652,6.38-3.76c9.657-5.689,9.657-5.689,11.83-6.973l1.767-1.043.245.181c3.115,2.3,17.293,5.632,32.307,9.158,18.16,4.265,38.741,9.1,47.138,13.693,14.342,7.859,1.216,42.546-5.094,59.215-.453,1.2-.861,2.28-1.214,3.229-4.839,13.03-6.823,38.5-5.8,49.316Zm-22.469-11.343c11.06,0,18.109,4.452,21.255,8.047-.726-11.624,1.312-35.618,5.975-48.172.351-.951.763-2.036,1.216-3.236,5.731-15.143,19.152-50.6,5.516-58.074-8.287-4.535-28.8-9.353-46.906-13.6-15.381-3.612-28.717-6.744-32.389-9.137l-1.247.735c-2.174,1.286-2.174,1.286-11.83,6.977l-5.522,3.254,24.015,34.662,41.191,5.029-11.614,74.709a47.96,47.96,0,0,1,10.341-1.188" transform="translate(0.755 -102.058)" fill="#3b3348"/>
        <g id="Group_14784" data-name="Group 14784" transform="translate(101.09 183.006)" opacity="0.5">
          <g id="Group_14783" data-name="Group 14783">
            <g id="Group_14782" data-name="Group 14782" clip-path="url(#clip-path-15)">
              <path id="Path_30469" data-name="Path 30469" d="M172.39,411l-.521.18a43.563,43.563,0,0,0-16.569.945l11.647-74.908-27.313-3.334c-.994-.487-23.556-11.526-39.128-19.153l1.288-27.1,14.4-2.567c8.759,22.52,41.158,41.678,69.033,49.782C174.382,374.677,166.332,396.216,172.39,411" transform="translate(-100.505 -285.061)" fill="#3b3348"/>
            </g>
          </g>
        </g>
        <path id="Path_30470" data-name="Path 30470" d="M146.172,318.515c-.092,0-.183,0-.273,0a.408.408,0,0,1,.007-.815,26.784,26.784,0,0,0,13.376-3.543.407.407,0,1,1,.436.688,27.838,27.838,0,0,1-13.546,3.672" transform="translate(29.121 -83.643)" fill="#3b3348"/>
        <path id="Path_30471" data-name="Path 30471" d="M184.5,266.4c4.092-6.8,18.1-10.335,26.359-.069Z" transform="translate(53.857 -118.016)" fill="#9c9fa0"/>
        <path id="Path_30472" data-name="Path 30472" d="M175.123,262.355c8.947-5.618,27.676-7.7,33.191-5.514s9.884,7.075,7.906,8.531-8.116-2.393-11.757-.936c-10.026,4.01-12.933,8.807-30.173,8.22Z" transform="translate(47.383 -120.494)" fill="#fdc4bb"/>
        <path id="Path_30473" data-name="Path 30473" d="M233.594,291.574c-9.255,2.294-44.194,10.863-54.753,12.061-10.493,1.188-33.3-19.622-40.921-27.051a47.92,47.92,0,0,1-6.105,12.9c-3.865,5.537-6.5,18.833-4.661,21.819,1.6,2.388,5.932,6.014,6.462,8.011.554,2.079-2.909,8.738-18.313,13.18C95.91,299.222,102.249,310.1,87,283.935c31.848-46.847,10.286-15.125,35.371-52.022,14.517.209,55.928,48.561,60.037,47.826,47.713-8.539,45.231-8.635,46.664-7.042a27.037,27.037,0,0,1,5.862,12.119c.713,3.014,1.479,6.058-1.345,6.758" transform="translate(-7.977 -135.763)" fill="#33dbce"/>
        <path id="Path_30474" data-name="Path 30474" d="M115.3,333.219,86.671,284.1l.163-.242c17.045-25.074,18.792-27.64,20.578-30.268l14.934-21.961.25,0c9.353.136,29.282,19.5,43.833,33.646,7.294,7.088,14.808,14.437,16.115,14.188,10.889-1.948,19.161-3.458,25.465-4.608,20.42-3.724,20.423-3.726,21.472-2.466l.152.178a27.343,27.343,0,0,1,5.885,11.964l.132.526c.695,2.976,1.484,6.347-1.732,7.145-10.207,2.531-44.324,10.882-54.812,12.072-11.059,1.26-34.827-20.93-40.771-26.669a46.77,46.77,0,0,1-5.929,12.324c-3.871,5.547-6.316,18.434-4.672,21.271a30.731,30.731,0,0,0,2.847,3.309c1.724,1.837,3.35,3.571,3.695,4.867.649,2.435-3.141,9.276-18.633,13.742ZM87.764,284.135l27.968,47.994c14.837-4.36,18.135-10.686,17.648-12.513-.284-1.072-1.979-2.878-3.474-4.471a33.8,33.8,0,0,1-2.775-3.19h-.221l-.007-.343c-1.874-3.45.943-16.769,4.743-22.211a47.2,47.2,0,0,0,6.045-12.783l.235-.7.528.515c13.371,13.023,32.006,27.885,40.547,26.922,10.433-1.183,44.5-9.523,54.693-12.051,2.133-.528,1.858-2.561,1.1-5.846l-.092-.36a26.579,26.579,0,0,0-5.756-11.912c-.065-.072-.123-.141-.175-.206-.69-.825-1.072-.775-20.595,2.786-6.3,1.149-14.579,2.659-25.468,4.607-1.665.3-6.674-4.475-16.924-14.435-14.309-13.907-33.86-32.907-42.956-33.376l-14.649,21.546c-1.781,2.618-3.523,5.179-20.415,30.026" transform="translate(-8.189 -135.944)" fill="#2e5151"/>
        <g id="Group_14787" data-name="Group 14787" transform="translate(88.548 102.738)" opacity="0.5">
          <g id="Group_14786" data-name="Group 14786">
            <g id="Group_14785" data-name="Group 14785" clip-path="url(#clip-path-16)">
              <path id="Path_30475" data-name="Path 30475" d="M231.906,288.244s-44.811,11.239-57.018,12.624c-8.64.979-25.527-12.959-34.68-21.207-.742-.925-9.127-8.869-10.546-8.336-3.326,1.247-8.949,14.767-10.613,22.054a15.778,15.778,0,0,0,4.149,15.159c1.606,2.388,5.934,6.016,6.463,8.011.554,2.079-2.911,8.738-18.313,13.18-18.593-31.9-15.448-25.77-18.517-34.271,1.757-10.353,5.973-35.193,7.7-45.365l21.222-14.149c6.447,3.953,16.855,24.345,22.683,32.879s22.886,26.218,30.171,26.635c6.447.366,47.067-10.815,56.374-13.407a38.479,38.479,0,0,1,.922,6.194" transform="translate(-92.83 -235.944)" fill="#2e5151"/>
            </g>
          </g>
        </g>
        <path id="Path_30476" data-name="Path 30476" d="M142.2,267.171a.4.4,0,0,1-.176-.041.409.409,0,0,1-.191-.544,43.092,43.092,0,0,1,3.252-5.208.407.407,0,0,1,.577.575,45.663,45.663,0,0,0-3.094,4.988.411.411,0,0,1-.368.23" transform="translate(26.772 -117.151)" fill="#2e5151"/>
        <path id="Path_30477" data-name="Path 30477" d="M145.983,266.559a.409.409,0,0,1-.389-.284,31.045,31.045,0,0,0-1.42-3.767.408.408,0,0,1,.7-.412,31.048,31.048,0,0,1,1.494,3.932.408.408,0,0,1-.266.511.4.4,0,0,1-.123.02" transform="translate(28.246 -116.748)" fill="#2e5151"/>
        <path id="Path_30478" data-name="Path 30478" d="M120.631,262.478a.407.407,0,0,1-.306-.137c-.569-.641-5.579-6.282-6-6.911a.407.407,0,1,1,.677-.453c.294.44,3.708,4.321,5.931,6.823a.408.408,0,0,1-.3.678" transform="translate(9.308 -121.25)" fill="#2e5151"/>
        <path id="Path_30479" data-name="Path 30479" d="M117.129,284.117a.4.4,0,0,1-.167-.036c-3.925-1.758-11.2-2.871-11.27-2.881a.41.41,0,0,1-.343-.464.421.421,0,0,1,.464-.343c.3.046,7.454,1.139,11.482,2.945a.408.408,0,0,1-.167.78" transform="translate(3.655 -105.017)" fill="#2e5151"/>
        <path id="Path_30480" data-name="Path 30480" d="M118.566,199.4c1.149,14.25,12.5,15.156,2.08,18.833,0,0,1.665,12.8-8.843,16.022l-10.093-19.093L108.89,202Z" transform="translate(1.35 -156.383)" fill="#fdc4bb"/>
        <path id="Path_30481" data-name="Path 30481" d="M148.671,263.937c-1.67,12.209-13.6,14.979-17.132,29.83s7.14,16.365,5.958,30.31-14.63,18.176-14.63,18.176c-.121-.09-63.475-47.44-63.475-47.589.212,0-2.249-5.648,10.93-12.585,13.237-6.625-8.844-21.616,1.973-35.273,9.47-11.964,17.833,5.274,23.106-30.034s29.895-34.615,38.216-28.583c24.561,1.182,19.835,19.526,3.324,37.873-9.291,10.335,13.391,25.666,11.729,37.875" transform="translate(-25.525 -165.498)" fill="#4d3930"/>
        <path id="Path_30482" data-name="Path 30482" d="M133.722,261.86c-1.67,12.209-13.6,14.979-17.132,29.83s7.14,16.365,5.958,30.31-14.63,18.176-14.63,18.176-.1-.067-.106-.074L85.994,290.784c-11.815-23.061,13.379-30.106,23.448-47.027,6.936-11.654,2.772-22.755,5.135-29.552s11.932-.554,15.95-11.369c3.179-8.542-.472-13.025-2.152-14.532,15.146,6.391,4.638,23.435-6.382,35.68-9.291,10.335,13.391,25.666,11.729,37.875" transform="translate(-10.576 -163.421)" fill="#44322b"/>
        <path id="Path_30483" data-name="Path 30483" d="M89.019,275.912l-20.188,7.14c-5.681-4.272-9.439-7.107-9.439-7.14.212,0-2.249-5.648,10.93-12.584.082-.041.163-.09.245-.139,8.7-1.369,13.675-5.053,10.676-12.665-7.395-18.813,20.526-17.7,19.423-35.927,0,0,5,14.084-9.153,21.778-15.625,8.5,12.6,28.272-2.494,39.537" transform="translate(-25.526 -146.745)" fill="#44322b"/>
        <path id="Path_30484" data-name="Path 30484" d="M112.436,209.389c-1.858-7.717-13.023-3.618-4.231,10.057Z" transform="translate(3.354 -152.498)" fill="#fdc4bb"/>
        <path id="Path_30485" data-name="Path 30485" d="M110.95,212.474l-.075.722a14.009,14.009,0,0,0-.119,2.04,21.726,21.726,0,0,0,.208,3.154c.173,1.211.433,2.566.781,4.032s.786,3.041,1.265,4.708,1,3.424,1.4,5.29a26.989,26.989,0,0,1,.78,5.857,13.027,13.027,0,0,1-1.288,6.032,26.416,26.416,0,0,1-3.535,4.989c-1.3,1.518-2.651,2.94-3.935,4.327a55.243,55.243,0,0,0-6.516,7.931A20.291,20.291,0,0,0,98.09,265.2a12.208,12.208,0,0,0-.734,3.059,8.584,8.584,0,0,0-.072,1.169,5.793,5.793,0,0,0,.016.866c.034.472.054.724.054.724s-.036-.25-.1-.719a6.215,6.215,0,0,1-.077-.869,7.207,7.207,0,0,1,0-1.186,12.424,12.424,0,0,1,.585-3.152,18.017,18.017,0,0,1,1.709-3.8,50.654,50.654,0,0,1,6.37-8.2c1.271-1.4,2.6-2.835,3.867-4.345a25.672,25.672,0,0,0,3.37-4.845,9.482,9.482,0,0,0,.958-2.729l.157-.708.064-.726a9.577,9.577,0,0,0,.072-1.451,26.132,26.132,0,0,0-.7-5.689c-.8-3.669-1.793-7.075-2.394-10.055a34.608,34.608,0,0,1-.613-4.107,21.7,21.7,0,0,1-.046-3.2,12.141,12.141,0,0,1,.248-2.036c.082-.466.124-.714.124-.714" transform="translate(-1.542 -148.092)" fill="#382823"/>
        <path id="Path_30486" data-name="Path 30486" d="M73.014,274.117a.463.463,0,0,1-.438-.312c-2.16-6.31.809-9.933,3.679-13.438,1.9-2.321,3.7-4.512,4.069-7.441.433-3.406-1.42-6.176-3.566-9.385-2.492-3.726-5.316-7.949-5.316-14.278,0-7.184,6.047-12.2,10.9-16.225,3.082-2.558,5.743-4.764,5.743-6.666a.463.463,0,0,1,.927,0c0,2.339-2.682,4.563-6.078,7.379-4.71,3.9-10.57,8.763-10.57,15.512,0,6.048,2.742,10.147,5.161,13.763,2.156,3.224,4.192,6.267,3.715,10.016-.407,3.193-2.371,5.592-4.27,7.911-2.835,3.461-5.514,6.731-3.52,12.551a.463.463,0,0,1-.288.588.49.49,0,0,1-.15.025" transform="translate(-17.847 -152.256)" fill="#382823"/>
        <path id="Path_30487" data-name="Path 30487" d="M98.276,300.753a.462.462,0,0,1-.348-.768c.039-.044,3.886-4.584,3.216-14.368-.217-3.172-2.914-6.287-5.77-9.583-5.9-6.808-13.236-15.282-1.608-28.625,16.092-18.467,14.1-25.018,11.346-34.085l-.342-1.129a.462.462,0,1,1,.886-.266l.342,1.126c2.842,9.353,4.895,16.11-11.534,34.963-11.1,12.739-4.347,20.534,1.61,27.411,2.961,3.417,5.756,6.645,5.994,10.127.7,10.2-3.275,14.849-3.443,15.042a.467.467,0,0,1-.348.157" transform="translate(-7.596 -148.648)" fill="#382823"/>
        <path id="Path_30488" data-name="Path 30488" d="M203.057,361.026c-23.448,26.22-72.553,23.587-94.754,21.923S78.9,375.6,70.983,357.562,53.093,294.855,55.863,271c3.313-28.527,32.477-27.176,44.485-20.817,11.318,5.973,17.247,14.95,22.452,27.577,5.084,12.332,9.418,28.425,17.686,48.449,13.347,32.322,37.9,33.554,55.031,34.517,4.417.244,7.539.3,7.539.3" transform="translate(-28.027 -126.568)" fill="#c3c4d7"/>
        <g id="Group_14790" data-name="Group 14790" transform="translate(27.364 119.843)" style="mix-blend-mode: multiply;isolation: isolate">
          <g id="Group_14789" data-name="Group 14789">
            <g id="Group_14788" data-name="Group 14788" clip-path="url(#clip-path-17)">
              <path id="Path_30490" data-name="Path 30490" d="M203.057,361.026c-23.448,26.22-72.553,23.587-94.754,21.923S78.9,375.6,70.983,357.562,53.093,294.855,55.863,271c3.313-28.527,32.477-27.176,44.485-20.817-2.608.065-6.318,1-10.359,4.622-7.694,6.878,5.664,93.109,15.38,106.263s37.849,15.175,53.024,12.551c12.332-2.134,30.67-10.016,37.125-12.892,4.417.244,7.539.3,7.539.3" transform="translate(-55.391 -246.411)" fill="#e0dfea"/>
            </g>
          </g>
        </g>
      </g>
    </g>
    <g id="Group_14803" data-name="Group 14803">
      <g id="Group_14802" data-name="Group 14802" clip-path="url(#clip-path-2)">
        <path id="Path_30491" data-name="Path 30491" d="M264.128,310.813c131.253,0,123.826.815,124.344-1.8,13.664-69.045,14.639-68.381,10.819-68.381-131.255,0-123.827-.817-124.344,1.8-13.664,69.046-14.641,68.383-10.819,68.383" transform="translate(166.289 152.541)" fill="#fff"/>
        <path id="Path_30492" data-name="Path 30492" d="M362.683,312.129c-6.633,0-14.948-.016-25.375-.038-17.377-.034-41.178-.082-72.849-.082h-.106a2.488,2.488,0,0,1-2.139-.695c-1.306-1.593-.489-5.628,4.829-31.874,1.92-9.488,4.313-21.3,7.39-36.844a1.614,1.614,0,0,0,.021-.255c.065-1.719,1.092-2.03,7.313-2.209,6.444-.188,19.326-.162,45-.108,17.378.034,41.179.082,72.849.082h.108a2.491,2.491,0,0,1,2.139.695c1.3,1.593.489,5.627-4.829,31.874-1.922,9.487-4.313,21.294-7.39,36.842a1.428,1.428,0,0,0-.021.255c-.067,1.721-1.092,2.03-7.313,2.209-3.829.113-9.93.147-19.63.147m-98.224-1.843c31.673,0,55.474.047,72.854.083,38.264.08,49.156.1,50.589-.6,0-.021,0-.042,0-.064a3.451,3.451,0,0,1,.052-.523c3.079-15.553,5.471-27.362,7.393-36.85,4.249-20.974,6.007-29.655,5.182-30.444a2.478,2.478,0,0,0-.8-.06h-.109c-31.671,0-55.474-.047-72.852-.082-38.267-.078-49.158-.1-50.591.6,0,.02,0,.041,0,.062a3.274,3.274,0,0,1-.052.525c-3.077,15.551-5.47,27.36-7.392,36.85-4.249,20.974-6.007,29.653-5.182,30.442a2.376,2.376,0,0,0,.8.06Z" transform="translate(165.958 152.206)" fill="#c3c4d7"/>
        <g id="Group_14795" data-name="Group 14795" transform="translate(542.687 406.767)" opacity="0.5">
          <g id="Group_14794" data-name="Group 14794">
            <g id="Group_14793" data-name="Group 14793" clip-path="url(#clip-path-19)">
              <path id="Path_30493" data-name="Path 30493" d="M334.191,259.968c6.244,0,8.949.57,8.949-2.061,0-6.246.57-8.951-2.064-8.951-6.243,0-8.947-.57-8.947,2.064,0,6.244-.57,8.947,2.062,8.947" transform="translate(-332.074 -248.904)" fill="#9ebfd8"/>
            </g>
          </g>
        </g>
        <path id="Path_30494" data-name="Path 30494" d="M297.567,259.992c44.043,0,44.126.848,44.126-2.061,0-6.246.57-8.951-2.062-8.951-44.043,0-44.126-.848-44.126,2.064v6.887a2.062,2.062,0,0,0,2.062,2.061" transform="translate(187.418 157.838)" fill="#9ebfd8"/>
        <path id="Path_30495" data-name="Path 30495" d="M276.416,259.977c17.254,0,19.184.69,19.184-2.061,0-6.246.57-8.951-2.062-8.951-17.254,0-19.184-.686-19.184,2.064,0,6.244-.57,8.947,2.062,8.947" transform="translate(173.97 157.853)" fill="#33dbce"/>
        <g id="Group_14798" data-name="Group 14798" transform="translate(539.386 422.032)" opacity="0.5">
          <g id="Group_14797" data-name="Group 14797">
            <g id="Group_14796" data-name="Group 14796" clip-path="url(#clip-path-20)">
              <path id="Path_30496" data-name="Path 30496" d="M332.17,269.309c6.244,0,8.949.57,8.949-2.062,0-6.244.57-8.951-2.062-8.951-6.244,0-8.949-.569-8.949,2.064,0,6.244-.57,8.949,2.062,8.949" transform="translate(-330.055 -258.245)" fill="#9ebfd8"/>
            </g>
          </g>
        </g>
        <path id="Path_30497" data-name="Path 30497" d="M295.567,269.334c44.043,0,44.126.846,44.126-2.062,0-6.244.57-8.951-2.062-8.951-44.042,0-44.126-.847-44.126,2.064,0,6.244-.57,8.949,2.062,8.949" transform="translate(186.116 163.762)" fill="#9ebfd8"/>
        <path id="Path_30498" data-name="Path 30498" d="M274.4,269.319c17.254,0,19.184.688,19.184-2.062,0-6.244.57-8.951-2.062-8.951-17.256,0-19.184-.686-19.184,2.064,0,6.244-.57,8.949,2.062,8.949" transform="translate(172.689 163.777)" fill="#33dbce"/>
        <g id="Group_14801" data-name="Group 14801" transform="translate(536.608 438.645)" opacity="0.5">
          <g id="Group_14800" data-name="Group 14800">
            <g id="Group_14799" data-name="Group 14799" clip-path="url(#clip-path-19)">
              <path id="Path_30499" data-name="Path 30499" d="M330.47,279.476c6.244,0,8.949.57,8.949-2.062,0-6.244.57-8.951-2.062-8.951-6.244,0-8.949-.569-8.949,2.064,0,6.244-.57,8.949,2.062,8.949" transform="translate(-328.355 -268.411)" fill="#9ebfd8"/>
            </g>
          </g>
        </g>
        <path id="Path_30500" data-name="Path 30500" d="M293.867,279.5c44.043,0,44.126.847,44.126-2.062,0-6.244.57-8.951-2.062-8.951-44.043,0-44.126-.848-44.126,2.064,0,6.244-.57,8.949,2.062,8.949" transform="translate(185.038 170.21)" fill="#9ebfd8"/>
        <path id="Path_30501" data-name="Path 30501" d="M272.7,279.486c17.254,0,19.184.688,19.184-2.062,0-6.244.57-8.951-2.062-8.951-17.254,0-19.184-.686-19.184,2.064,0,6.244-.57,8.949,2.062,8.949" transform="translate(171.611 170.225)" fill="#33dbce"/>
      </g>
    </g>
  </g>
</svg>
