<svg id="Group_14793" data-name="Group 14793" xmlns="http://www.w3.org/2000/svg" xmlns:xlink="http://www.w3.org/1999/xlink" width="82.741" height="82.798" viewBox="0 0 82.741 82.798">
  <defs>
    <clipPath id="clip-path">
      <rect id="Rectangle_3606" data-name="Rectangle 3606" width="55.512" height="39.031" fill="#fff"/>
    </clipPath>
  </defs>
  <path id="Path_30297" data-name="Path 30297" d="M133.341,180.8v35.558A47.216,47.216,0,0,1,86.158,263.6H50.6V231.516a50.657,50.657,0,0,1,50.659-50.659h32.082Z" transform="translate(-50.6 -180.8)" fill="#44d0bd"/>
  <g id="Group_14787" data-name="Group 14787" transform="translate(17.399 22.936)">
    <path id="Path_30290" data-name="Path 30290" d="M40.8.5l-.919.216-.324.379-.811.324-.973.324h-.487l-.324.379H36.2l-.487.271-.81.216-.757.324-.864.54-.757.487v.562L32.2,4.6l-.486.44-.325.595-.7.955-.648.882-.757.054-.379.324-1.027.324-.271.216H26.582l-.648-.216-1.892-.054-.487-.216-.811.054-.433.216L20.8,8.122l-.325-.216-.54-.325-.864-.27-.217.486-.594.379-.541.487H15.771l-.7-.433h-.757l-.54-.323h-.811l-.432-.325-.432.054-1.136.271-.432-.487L9.771,7.2l-1.135.162-.864.216-.65.325H6.041l-.919-.271-.459-.54V6.068l.622-.324h.324l.432-.324V4.6l-.648-.079L4.96,4.23,4.2,3.851l-.919-.379-.933.117.392,1.119L1.393,5.851,1.122,7.2.582,8.446,2.312,10.5v1.514l.973.972,1.189.811.864,1.244.973.54v1.4L4.582,18.5,4.8,19.582H3.393l-1.622.864.541.864-.324,2.271,1.3.892-1.622,2.46.648.864.648.811,1.028.541,1.081.432,1.243.487v.918l.81,1.784.65.54v.648l-.325.541-.107.811.107,2.7-1.405.379.648.325.541-.218.541-.054,1.134.271h.812l.108-.7.54-.379,1.081-.324.812.108.7.109.54-.217.919-.162h.541l.378-.487.487-.162.433-.381.27.219.595-.219.162-.754.432-.108.757-.216.7-.162.27.27.648.217.271-.379.271-.162,1.136-.109v.933l.486.47h1.081l.324.543.379.594.216-.648.379-.489.54.381h.864l.379.379.595.054.649.539.487.541h.432L29.5,37.8l.487-.595h.756l.162-.324h1.568l.27-.379h2.108l.325-.381.972-.47.271-1.528-.162-.7-.432-.757-.7-.7.271-.324v-.379h1.784l.27-.487v-.864h1.459l.324-.271.109-.811.108-.649.432-.432h1.189l.325-.27h.757v-.433l.7-.108.217-.432.216-.487.432-.216.379.216.432.162.432-.325v-.486l.541.324.595.162.432.433.432.432.649.324.487.433.486-.541.487-.432.811-.054.487.487.054-.7H52.2l-.379-.7-.432-.865-.595-.972-.92-.379-.27-.811.054-.54-.756-.811-.595-.649h-.7l-.324-.108-.216.379-.7.379h-.648l.648-.649.487-.432.162-.648.432-.216h.7v-.541l.271-.541.27-.432.379-.432.811-.277.162-.48-.271-.433v-.54l-.216-2.163-.162-1.027.216-.864H48.2l.054-.487h1.568l.379-.595.379-.595.27-1.135.27-.54.973.054.649-.162h.648l.541.325.216-.487.324-.595.271-.666.323-.361-.432-.325-.27-.595V4.067l-2.811.109-.487-.325-.7-.108-.756-.432-.541-.7-.324-.919-.54-.216-.324.378-.271.432-.973-.107-.271-.7h-.595l-.324.378H44.1l-.432-.432L43.014.932,42.15.879,41.555.5Z" transform="translate(-0.13 -0.111)" fill="#fff"/>
    <g id="Group_14786" data-name="Group 14786" transform="translate(0 0)">
      <g id="Group_14785" data-name="Group 14785" clip-path="url(#clip-path)">
        <path id="Path_30291" data-name="Path 30291" d="M54.636,5.905l-.271-.595V4.068l-2.811.108-.486-.324-.7-.108-.757-.433-.54-.7-.324-.919L48.2,1.473l-.324.379-.271.432-.972-.108-.271-.7h-.595l-.324.379H44.1l-.432-.432L43.015.933,42.15.878,41.555.5H40.8L39.88.717l-.325.378-.811.325-.972.324h-.487l-.324.378H36.2l-.487.271-.811.216-.756.325-.865.54-.756.487v.563L32.2,4.6l-.486.439-.325.595-.7.955-.648.883-.757.054-.378.324-1.028.325-.27.216H26.582l-.649-.216-1.892-.054-.486-.216-.811.054-.433.217L20.8,8.122l-.324-.216-.54-.324-.865-.271-.216.487-.595.379-.54.486H15.771l-.7-.432h-.756l-.541-.324H12.96l-.432-.324-.432.054-1.135.271-.433-.487L9.771,7.2l-1.135.162-.865.216-.648.324H6.042l-.919-.271-.459-.54V6.068l.621-.325h.324l.433-.324V4.6l-.649-.079L4.96,4.229,4.2,3.852l-.919-.379-.932.117.392,1.118L1.393,5.851,1.123,7.2.582,8.446,2.312,10.5v1.513l.972.972,1.189.811.865,1.244.972.54v1.4L4.582,18.5,4.8,19.581H3.393l-1.622.864.541.865-.324,2.27,1.3.892-1.622,2.46.649.864.648.811,1.027.541,1.081.432,1.243.487v.919l.812,1.784.648.54v.648l-.324.541-.108.811.108,2.7-1.405.378.648.325.541-.217.54-.054,1.135.271h.811l.108-.7.541-.379,1.081-.324.811.108.7.108.541-.216.919-.162h.54l.379-.487.487-.162.432-.382.271.219.595-.219.162-.754.433-.108.756-.216.7-.162.271.271.648.216.271-.378.271-.162,1.135-.108v.932l.487.47h1.081l.325.543.378.595.217-.648.378-.49.541.382h.864l.379.378.595.054.648.54.487.541h.432l.92-.217.486-.594h.757l.162-.325h1.568l.271-.378h2.108l.324-.382.972-.47.271-1.527-.162-.7-.433-.756-.7-.7.271-.325v-.378h1.784l.27-.487v-.865h1.46l.324-.27.108-.812.108-.648.433-.432h1.189l.325-.271h.756v-.432l.7-.108.216-.433.216-.486.433-.217.378.217.433.162.432-.324v-.487l.54.324.595.162.432.432.433.432.648.325.487.432.487-.54.487-.433.811-.054.487.487.054-.7H52.2l-.379-.7-.432-.865-.595-.973-.919-.378-.271-.811.054-.541-.757-.811-.595-.648h-.7l-.324-.108-.216.379-.7.378h-.649l.649-.648.487-.432.162-.649.433-.216h.7v-.54l.27-.541.271-.432.379-.432.811-.277.162-.48-.27-.432v-.54l-.216-2.163-.162-1.027.216-.865H48.2l.054-.487h1.567l.379-.595.379-.594.27-1.136.271-.54.973.054.648-.162h.649l.54.324.216-.487.324-.595.271-.666.324-.361Z" transform="translate(-0.13 -0.111)" fill="#fff"/>
      </g>
    </g>
  </g>
</svg>
