<svg width="22" height="22" viewBox="0 0 22 22" fill="none" xmlns="http://www.w3.org/2000/svg">
<path d="M20.2167 10.3877L16.9264 13.678C15.7845 14.8173 14.2373 15.4571 12.6242 15.4571C11.0112 15.4571 9.46397 14.8173 8.32204 13.678C8.07782 13.4335 7.9407 13.1019 7.94083 12.7563C7.94095 12.4107 8.0783 12.0793 8.32269 11.8349C8.56708 11.5905 8.89851 11.4531 9.24413 11.453C9.58975 11.4529 9.92128 11.59 10.1658 11.8342C10.8184 12.4853 11.7025 12.8509 12.6242 12.8509C13.546 12.8509 14.4301 12.4853 15.0826 11.8342L18.3729 8.54387C18.6958 8.22105 18.9519 7.83778 19.1267 7.41595C19.3015 6.99412 19.3915 6.54199 19.3915 6.08538C19.3915 5.62877 19.3016 5.17663 19.1269 4.75478C18.9522 4.33292 18.6961 3.94962 18.3732 3.62675C18.0503 3.30388 17.667 3.04778 17.2452 2.87307C16.8233 2.69835 16.3712 2.60845 15.9146 2.60849C15.458 2.60853 15.0058 2.69852 14.584 2.87331C14.1622 3.0481 13.7789 3.30427 13.4561 3.6272L12.4077 4.67536C12.2867 4.79654 12.143 4.89268 11.9848 4.95828C11.8265 5.02389 11.657 5.05768 11.4857 5.05773C11.3144 5.05777 11.1448 5.02407 10.9866 4.95854C10.8283 4.89301 10.6846 4.79695 10.5635 4.67583C10.4424 4.55472 10.3463 4.41093 10.2808 4.25268C10.2153 4.09443 10.1816 3.92482 10.1817 3.75355C10.1817 3.58228 10.2155 3.4127 10.2812 3.2545C10.3468 3.0963 10.443 2.95258 10.5641 2.83156L11.6123 1.7834C12.1772 1.21813 12.8479 0.769694 13.5862 0.463695C14.3244 0.157696 15.1157 0.000130872 15.9148 8.14914e-08C16.714 -0.000130709 17.5053 0.157175 18.2437 0.462933C18.982 0.76869 19.6529 1.21691 20.218 1.78199C20.783 2.34707 21.2313 3.01793 21.537 3.75627C21.8428 4.49461 22.0001 5.28595 22 6.0851C21.9999 6.88425 21.8423 7.67554 21.5363 8.41379C21.2303 9.15203 20.7819 9.82276 20.2167 10.3877ZM9.58739 17.3295L8.53933 18.3774C7.88731 19.0292 7.00307 19.3954 6.08111 19.3953C5.15914 19.3953 4.27495 19.029 3.62302 18.3771C2.97108 17.7251 2.60479 16.841 2.60471 15.919C2.60462 14.997 2.97075 14.1128 3.62257 13.4607L6.91283 10.1704C7.56535 9.51935 8.44946 9.15373 9.37121 9.15373C10.293 9.15373 11.1771 9.51935 11.8296 10.1704C12.0742 10.4146 12.4057 10.5517 12.7513 10.5516C13.0969 10.5515 13.4284 10.4141 13.6727 10.1697C13.9171 9.92534 14.0545 9.59391 14.0546 9.24829C14.0547 8.90267 13.9176 8.57114 13.6734 8.32658C12.5315 7.18727 10.9843 6.54744 9.37121 6.54744C7.75814 6.54744 6.21094 7.18727 5.06903 8.32658L1.77878 11.6169C0.639195 12.7582 -0.00060401 14.3053 4.27884e-07 15.9181C0.000604866 17.531 0.641564 19.0776 1.782 20.218C2.92244 21.3584 4.46903 21.9994 6.08185 22C7.69467 22.0006 9.24174 21.3608 10.383 20.2212L11.4311 19.1733C11.5522 19.0522 11.6482 18.9085 11.7137 18.7503C11.7792 18.5921 11.813 18.4226 11.813 18.2514C11.813 18.0802 11.7793 17.9107 11.7137 17.7525C11.6482 17.5943 11.5522 17.4506 11.4311 17.3295C11.3101 17.2085 11.1664 17.1124 11.0082 17.0469C10.85 16.9814 10.6805 16.9476 10.5093 16.9476C10.3381 16.9476 10.1685 16.9814 10.0104 17.0469C9.85218 17.1124 9.70845 17.2084 9.58739 17.3295Z" fill="#33DBCE"/>
</svg>
