<svg id="Group_14790" data-name="Group 14790" xmlns="http://www.w3.org/2000/svg" xmlns:xlink="http://www.w3.org/1999/xlink" width="83.497" height="83.554" viewBox="0 0 83.497 83.554">
  <defs>
    <clipPath id="clip-path">
      <rect id="Rectangle_3599" data-name="Rectangle 3599" width="63.307" height="55.654" fill="#fff"/>
    </clipPath>
  </defs>
  <path id="Path_26583" data-name="Path 26583" d="M50.6,180.8v35.883a47.648,47.648,0,0,0,47.614,47.671H134.1V231.979a51.12,51.12,0,0,0-51.122-51.122H50.6Z" transform="translate(-50.6 -180.8)" fill="#44d0bd"/>
  <g id="Group_14775" data-name="Group 14775" transform="translate(13.455 13.95)">
    <path id="Path_30230" data-name="Path 30230" d="M18.507,12.278H17.033l-.737.632-.632.737-.526-.737H14.014l-1.088.632V19.86l-.842-.947v-.737l-.948,1.368-.421-.631,1.369-1.686-.527-1.052v-1.58H10.82v.948l-1.368.527v.947l-1.37.632v2.422l-.527.316-.526-1.054-.631-.42-1.475-.422-.737-.631-.422-1.79-.42.947-.633,1.9-.842,1.264,1.79,1.79-.948.21v-.948l-.526,1.158-.421.948.316,2.212h.631l.633,1.474v2.107H1.764v1.263L.5,33.015v.957l.631.526.632-1.054h.527l.526,1.37v1.158H4.4l.526,1.263v4.634H4.4V44.4l.075.527H6.344l.368.684,1.739.316.842.948,1.053.21.632-.368,1-.842.737-.316H13.5l.51-.632v.948l2.177,1.053.315-1.264-1.684-2.212-.808-.1-.51.527-1.209.526-.633-1.158.316-.843.632-.736.894-.317.51-.842-.51-.842.51-2.738-1.3-.632,1.3-.21h1.018l.737-1.159-.947-.632L13.5,33.55l.51-.535,1.229.64,2,.106.421-.746.1-.624-.631-.947-.737-.632h1.79l1.263.211.948-1.159.1-3.58,1.58-1.474.211,1.053-.527.631.842.633,1.053-.738.948.527.421-.632.106-.948,1.368-1.579v-1.79l-.526-.106v-.737l-3.054-.1-.526-.842-.738.1-1.158,1.053.211-1.579.947-.422V18.28L20.4,17.754l1.263-.316V14.49l-.737-1.054-1.053-1.158Z" transform="translate(0.005 0.118)" fill="#fff"/>
    <g id="Group_14770" data-name="Group 14770" transform="translate(0 0)">
      <g id="Group_14769" data-name="Group 14769" clip-path="url(#clip-path)">
        <path id="Path_30231" data-name="Path 30231" d="M1.764,33.444H2.29l.527,1.369v1.158H4.4l.526,1.264v4.633H4.4V44.4l.075.526H6.344l.368.685,1.737.316.843.948,1.053.211.632-.37,1-.842.738-.316h.789l.509-.632v.948l2.177,1.053.316-1.264-1.685-2.211-.808-.1-.509.526-1.211.527-.631-1.159.315-.842.632-.737.9-.316.509-.842-.509-.843.509-2.738-1.3-.632,1.3-.21h1.018l.737-1.159-.947-.631-1.316-.738.509-.535,1.229.641,2,.1.421-.746.1-.623-.632-.948-.737-.632h1.79l1.264.211.948-1.158.1-3.581,1.58-1.474.21,1.053-.526.632.842.632,1.053-.737.948.526.421-.632.106-.947,1.368-1.58v-1.79l-.526-.1v-.738l-3.054-.1-.526-.842-.737.1-1.159,1.053.211-1.58.948-.421V18.28L20.4,17.754l1.264-.316V14.489l-.738-1.053-1.053-1.158H17.033l-.737.632-.632.737-.526-.737H14.014l-1.088.631V19.86l-.842-.948v-.737l-.948,1.369-.421-.632,1.369-1.685-.527-1.053v-1.58H10.82v.948l-1.369.527v.948l-1.369.631V20.07l-.526.316-.527-1.053L6.4,18.912l-1.474-.421-.737-.632-.421-1.79-.422.948-.631,1.895-.843,1.264,1.79,1.79-.947.211v-.948l-.527,1.158-.421.948.316,2.211h.632l.631,1.475v2.106H1.764V30.39L.5,33.014v.957l.632.526Z" transform="translate(0.005 0.118)" fill="#fff"/>
      </g>
    </g>
    <path id="Path_30232" data-name="Path 30232" d="M3.838,15.429v-.948l2.738-3.37,1.79-1.369v.527h2.106l.632-.527h1.053l.527.527,2.738-.527,4.212-5.686H22.9l3.159-1.895-2,2.211.315.948L25,6.583l-.526,1.369.1,2.106-.737.527-2,3.054-1.474-1.264-1.158-1.053H18.054L17,11.533l-1.053-.106-1.966.948h-.509l-.9-.632-.842-.1-2,.737H9L8.05,12.9l-.1.526.948.1,1.684-.315-.842,1.053-.421,1.158-.527.632L7.208,16.8l-.316-.843.21-.631.211-.948L6.155,14.9l-.211.948-.1.948-.421.632Z" transform="translate(0.037 0.021)" fill="#fff"/>
    <path id="Path_30233" data-name="Path 30233" d="M3.838,15.429v-.948l2.738-3.37,1.79-1.369v.527h2.106l.632-.527h1.053l.527.527,2.738-.527,4.212-5.686H22.9l3.159-1.895-2,2.211.315.948L25,6.583l-.526,1.369.1,2.106-.737.527-2,3.054-1.474-1.264-1.158-1.053H18.054L17,11.533l-1.053-.106-1.966.948h-.509l-.9-.632-.842-.1-2,.737H9L8.05,12.9l-.1.526.948.1,1.684-.315-.842,1.053-.421,1.158-.527.632L7.208,16.8l-.316-.843.21-.631.211-.948L6.155,14.9l-.211.948-.1.948-.421.632Z" transform="translate(0.037 0.021)" fill="#fff"/>
    <path id="Path_30234" data-name="Path 30234" d="M15.421,36.174h.842l1.159-.527.842-.526h2.212l1.263,1.053-1.158.737.211,1.264h.947l1.58,1.053v.948h-.843l-.421.631.421,1.159.843.632v.842l-1.369.632H19.37l-.894-.632-1.369-.421.316-.948L16.9,41.65l-.842-.737-.632-.737-.58-1.685v-.738Z" transform="translate(0.142 0.337)" fill="#fff"/>
    <path id="Path_30235" data-name="Path 30235" d="M15.421,36.174h.842l1.159-.527.842-.526h2.212l1.263,1.053-1.158.737.211,1.264h.947l1.58,1.053v.948h-.843l-.421.631.421,1.159.843.632v.842l-1.369.632H19.37l-.894-.632-1.369-.421.316-.948L16.9,41.65l-.842-.737-.632-.737-.58-1.685v-.738Z" transform="translate(0.142 0.337)" fill="#fff"/>
    <path id="Path_30236" data-name="Path 30236" d="M21.569,47.574l1.685-2.949,1.264-1.369v1.369L21.569,49.47Z" transform="translate(0.207 0.415)" fill="#fff"/>
    <path id="Path_30237" data-name="Path 30237" d="M21.569,47.574l1.685-2.949,1.264-1.369v1.369L21.569,49.47Z" transform="translate(0.207 0.415)" fill="#fff"/>
    <path id="Path_30238" data-name="Path 30238" d="M22.2,32.015l.842-1.158-.842-.738v-.6l1.579,1.25-.526.725-.211,1.895Z" transform="translate(0.213 0.283)" fill="#fff"/>
    <path id="Path_30239" data-name="Path 30239" d="M22.2,32.015l.842-1.158-.842-.738v-.6l1.579,1.25-.526.725-.211,1.895Z" transform="translate(0.213 0.283)" fill="#fff"/>
    <path id="Path_30240" data-name="Path 30240" d="M24.49,52.957V53.8l.422.843H26.28v-.948l-.421-.737Z" transform="translate(0.235 0.508)" fill="#fff"/>
    <g id="Group_14772" data-name="Group 14772" transform="translate(0 0)">
      <g id="Group_14771" data-name="Group 14771" clip-path="url(#clip-path)">
        <path id="Path_30241" data-name="Path 30241" d="M24.49,52.957h1.369l.421.737v.948H24.911L24.49,53.8Z" transform="translate(0.235 0.508)" fill="#fff"/>
      </g>
    </g>
    <path id="Path_30242" data-name="Path 30242" d="M25.385,46.34H27.86l2.317-.685v.685l-1.9.421v.684l.843.843h1.053V46.972h.948l.421-.632H32.6l.842.632,1.475,1.316v.631l-1.475,1.791-.21,2.316-.843-1.895H29.019l-.106.948-1.053-.527-.526-1.158-1.053-.527-1.79-.526V48.289l1.368-.106-.473-.631-.473-.791Z" transform="translate(0.235 0.438)" fill="#fff"/>
    <path id="Path_30243" data-name="Path 30243" d="M25.385,46.34H27.86l2.317-.685v.685l-1.9.421v.684l.843.843h1.053V46.972h.948l.421-.632H32.6l.842.632,1.475,1.316v.631l-1.475,1.791-.21,2.316-.843-1.895H29.019l-.106.948-1.053-.527-.526-1.158-1.053-.527-1.79-.526V48.289l1.368-.106-.473-.631-.473-.791Z" transform="translate(0.235 0.438)" fill="#fff"/>
    <path id="Path_30244" data-name="Path 30244" d="M25.846,33.393h3.37V32.024h1.579V30.971L28.9,29.523l2.422,1.027h2.317l-1.264.908-.211,1.4-.526.535.737.737.526,1.053,1.58-2.325.421.535-.737,1.79h1.474V30.655l-.737-.632,1.264-.5,1.369-.869,1.263.869h1.58v.921l-.632,1.014.632,5.726h-.737l-.843-.632-.737-.1-.737.737-.948,1.053-.315,1.422.526.684h1.264l.316,1.9H36.692L35.323,43.4H34.27l.632.737,1.053.632-1.053.526V46.5h2.106l-.316-.685h1.369l.422,1.105H37.008l-1.474.9H34.9L34.27,46.5l-.737-.685H32.48l-.21-1.053H31.006l.842-.632-.316-1.369-1.842-.526-2.579-.211.316-3.791-1.159-.842.843-.738-.843-.631-.421-1.475Z" transform="translate(0.248 0.275)" fill="#fff"/>
    <path id="Path_30245" data-name="Path 30245" d="M25.846,33.393h3.37V32.024h1.579V30.971L28.9,29.523l2.422,1.027h2.317l-1.264.908-.211,1.4-.526.535.737.737.526,1.053,1.58-2.325.421.535-.737,1.79h1.474V30.655l-.737-.632,1.264-.5,1.369-.869,1.263.869h1.58v.921l-.632,1.014.632,5.726h-.737l-.843-.632-.737-.1-.737.737-.948,1.053-.315,1.422.526.684h1.264l.316,1.9H36.692L35.323,43.4H34.27l.632.737,1.053.632-1.053.526V46.5h2.106l-.316-.685h1.369l.422,1.105H37.008l-1.474.9H34.9L34.27,46.5l-.737-.685H32.48l-.21-1.053H31.006l.842-.632-.316-1.369-1.842-.526-2.579-.211.316-3.791-1.159-.842.843-.738-.843-.631-.421-1.475Z" transform="translate(0.248 0.275)" fill="#fff"/>
    <path id="Path_30246" data-name="Path 30246" d="M57.763,45.679V43.994l.7-.737.562.737,1.474.632,1.474,1.737-.737.421-.21,1.421-1.159-.526-1.4-.9Z" transform="translate(0.553 0.415)" fill="#fff"/>
    <g id="Group_14774" data-name="Group 14774" transform="translate(0 0)">
      <g id="Group_14773" data-name="Group 14773" clip-path="url(#clip-path)">
        <path id="Path_30247" data-name="Path 30247" d="M57.763,45.679V43.994l.7-.737.562.737,1.474.632,1.474,1.737-.737.421-.21,1.421-1.159-.526-1.4-.9Z" transform="translate(0.553 0.415)" fill="#fff"/>
      </g>
    </g>
    <path id="Path_30248" data-name="Path 30248" d="M26.993,9.728l.948-.58h1.737l-.684.58-.658.789H27.73Z" transform="translate(0.259 0.088)" fill="#fff"/>
    <path id="Path_30249" data-name="Path 30249" d="M26.993,9.728l.948-.58h1.737l-.684.58-.658.789H27.73Z" transform="translate(0.259 0.088)" fill="#fff"/>
  </g>
</svg>
