<svg xmlns="http://www.w3.org/2000/svg" width="27.249" height="27.251" viewBox="0 0 27.249 27.251">
  <g id="email_icon" data-name="email icon" transform="translate(-0.099 384.053)">
    <path id="Path_30814" data-name="Path 30814" d="M12.229-383.971A13.758,13.758,0,0,0,3.3-379.187a13.581,13.581,0,0,0-1.86,14.643,13.45,13.45,0,0,0,6.4,6.4A13.576,13.576,0,0,0,22.486-360a13.678,13.678,0,0,0,4.862-10.42,13.678,13.678,0,0,0-4.862-10.42A13.767,13.767,0,0,0,12.229-383.971Zm7.361,7.595c-2.591,1.512-5.9,3.4-5.941,3.4s-3.35-1.888-5.941-3.4c-.092-.05,1.739-.071,5.941-.071S19.682-376.426,19.59-376.376Zm2.222,6.913v5.146H5.628v-10.235l.4.227c.227.128,2.009,1.15,3.968,2.278S13.6-370,13.656-370s1.888-1.036,4.074-2.307,4-2.3,4.032-2.307S21.811-372.295,21.811-369.463Z" transform="translate(0)" fill="#33dbce"/>
  </g>
</svg>
