<svg id="Group_14794" data-name="Group 14794" xmlns="http://www.w3.org/2000/svg" width="82.741" height="82.798" viewBox="0 0 82.741 82.798">
  <path id="Path_30292" data-name="Path 30292" d="M133.341,180.8v35.558A47.216,47.216,0,0,1,86.158,263.6H50.6V231.516a50.657,50.657,0,0,1,50.659-50.659h32.082Z" transform="translate(-50.6 -180.8)" fill="#44d0bd"/>
  <g id="France" transform="translate(17.839 18.26)">
    <path id="Path_30128" data-name="Path 30128" d="M366.544,368.779l-.762-.064-.159-.063-.635-.571-.6-.54-.572-.159-.73-.127-.476.127-.286-.19v-.6l-.317-.73-.349-.254-.73-.064-.7.032-.222-.317-.254-.286-.857.1-.349-.191v-.413l-.476-.381-.6-.857-.508-.064.1-.317.064-.286-.127-.286.127-.317.349-.254-.317-.318-.349.222-.222.476-.286.127-.571.032-.381-.064-.349-.317v-.476l.1-.349.254-.508-.6-.571-.286-.064-.286-.032h-.317v-.7l-.318-.349-.54.1-.254-.381-.159-.6-.349-.381-.445-.127-.349-.1-.286-.7v-1.238h-.921l-.54.222h-1.27l-.381.762-.317.444v.6l-.222.413-.159.508v.476l.381.381v.222l-.444-.413-.317.19-.635.635-1.143.445-.889-.064-.286-.063-1.619.508v.19l-.413.54.413.54-.19.222-.635.19-.413.222H340.8l-.73-.54-.254-.1-.54-.1-.381-.222-.286-.222h-.73l-.159-.7-.063-.54.222-.127V359.6l-.222-.032-.159-.159-.254.222-.667-.064-.349-.413-.19-.349-.286.286.286.318.19.317-.444.159v.254l.19.444-.159.159.413.286v1.079l-.222.349.222.444-.317.444-.1.825.413.381-.222.032-.317-.1-.413.032-.381-.1v-.54h-.318l-.318.73-.032-.54h-.413l-.286-.063V363.6h-.572l-.286.286-.571.19-.889-2.159h-1.079l-.286-.222v.222l-.286.413-.286-.032v-.19l-.508-.064-.159.254-.222-.349-.254-.1-.318.032-.254.159-.349.032v-.222l-.254-.159-.19.159h-.571l-.6.349-.127.381-.381.444h1.111l.254.254.318.254.159.317-.7-.254-.381-.317-.063.286.063.317h.445l.381.318-.064.413-.317.063-.127-.286h-1.079l.921.857v.825l.54.222v-.444h.381v.254h.159l.349.286v.286h.191l.825.381v.286h.6l.159.54.159,1.048v-.667h.222l.476.286.222.508h.921l.222.159-.063.318-.286.19-.159.635h.444l.476.222.032.571h-.318l.222.19.159.222.349.191-.19.349-.286.254-.254-.127v-.476H331.3l-.1.349.349.413v.667l.413.571.222.508v.508l.984.889.032.254h.318l.349.349h.317l-.222.444-.318-.064-.6-.571h-.19l-.127.19.254.19.317.349h.349l.286.286.1.286v.444l-.127.571-.254.064-.444-.571-.063-.508-.254.318.286.508.222.635-.286.286.508.413.952,1.4v2.1l-.19-.19-.127-1.206-.032-.413-.54-.889-.19-.413-.286.317-.254,1.238-.667,1.873-.476,1.016.635-.508v.508l-.318.19-.381.476-.508,1.3-.508,1.27-.7,1.429v.349l-.54.508-.413.413h-.508v.286l.381.127.159.254h.444l.127.19v.476l-.286.159-.1.19.1.159.286.159.159-.222.222.222.921.825h.667v.476l.286.413.286.19.127-.1.159.1h.794l.318.572.19.286.476.127h.508l.254.222.349.1.381.1h.508v-.222l.127-.159.159-.254.445.222.349.222.318.19h.19l.286.54h.572l.191.222v.73l-.1.222.1.349.349.063h.508l.127-.159.508.159.222.286v.444h.508l.286-.159h.381l.381.222.413.476h.413l.127-.317h.571l.19-.064h.6l.127.191.349.032-.1-.381-.222-.381.063-.508.222-.127.032-.286-.063-.476.063-.349.222-.159.064-.635.444-.318.381-.317.508-.127.286.222.318-.254.794-.317v-.19l.318-.317h.286l.571.063.19.508,1.46.476-.064.381.254.127.762.1.064-.635.127.286.349.508,1.111-.032.032.921h.286l.476.159.572.349.127.349h.413l.317.127.19.222.349-.254.254-.222.349.222.508-.159h.508l.159-.54.127-.413.476-.159h.413l.032-.254.1-.254h.54l.254-.317.317-.286h.381l.222-.222h.381l.222-.159-.1-.381.159-.222L362,393.7l.254-.318-.127-.413-.952.159-.508-.349-.381-.476H360l-.349-.762.032-.286.254-.222h-.317l.032-.413.254-.318.032-.222.349-.1v-.794l-.254-.032-.349-.222-.254-.063.1-.572-.19-.19-.064-.444.19-.254h.413l.064.222.317-.032.476-.191.254-.222.191-.413V386.3l-.064-.317-.349-.317v-.508l-.127-.921.159-.921.063-.476-.444-.381.127-.381.222-.19-.127-.318.19-.349-.318-.254-.635-.127-.54.222-.476.19-.159.286.159.54-.317.159-.476-.159h-.413l.127-.349.444-.159.19-.222.1-.317-.191-.508.159-.159.1-.349.19-.286.73-.286.476-.317-.159-.476.222-.444.571-.127.952-.857.635-.444-.063-.318h-.254l-.032-.19.254-.349.349-.064.159.159.127.254h.857l.222-.6h.222l-.1-.857.19-.635.286-.349-.127-.349.1-.508.444-.476.349-.889.19-.6.159-.413.889-.635.7-.921Z" transform="translate(-325.081 -355.382)" fill="#fff"/>
    <path id="Path_30129" data-name="Path 30129" d="M466.109,512.627h.444l.222.222.222-.889v-.571h.444l.19.73-.159.191.159.54-.286.317.1.445.19,1.778-.286.6-.476.476-.1.222v1.016l-.667.762v.476l-.222.318v.349l-.381-.222-.222-.349-.413-.222-.381-.317v-.381l.159-.1.032-.286-.286-.1-.349-.127.1-.159.127-.19.222-.159v-.159l-.19-.19-.254-.032-.19-.063v-.254l.254-.1.254-.19.032-.1-.032-.159-.127-.127-.222-.127h-.159V515.1l.19-.222.191-.159-.222-.159-.064-.254.1-.159.191-.1.159-.159v-.318l.19-.127.1-.1.254-.1.159-.063.254-.19.159.064h.254l.191-.159Z" transform="translate(-424.741 -467.418)" fill="#fff"/>
  </g>
</svg>
