<svg id="Group_14791" data-name="Group 14791" xmlns="http://www.w3.org/2000/svg" xmlns:xlink="http://www.w3.org/1999/xlink" width="82.741" height="82.798" viewBox="0 0 82.741 82.798">
  <defs>
    <clipPath id="clip-path">
      <rect id="Rectangle_3604" data-name="Rectangle 3604" width="37.466" height="51.062" fill="#fff"/>
    </clipPath>
  </defs>
  <path id="Path_30295" data-name="Path 30295" d="M133.341,180.8v35.558A47.216,47.216,0,0,1,86.158,263.6H50.6V231.516a50.657,50.657,0,0,1,50.659-50.659h32.082Z" transform="translate(-50.6 -180.8)" fill="#44d0bd"/>
  <g id="Group_14782" data-name="Group 14782" transform="translate(22.637 15.868)">
    <g id="Group_14781" data-name="Group 14781" clip-path="url(#clip-path)">
      <path id="Path_30282" data-name="Path 30282" d="M37.238,26.08l-.115-.245L37.238,25l-.3-.187-.476-.1-.1-.331.159-.36-.13-.36-.173-.259-.144-.465L35.9,22.81l.043-.216.115-.259.216-.086.115-.259V21.3l-.072-.4-.014-.4.087-.374v-.23l-.374-.245-.187-.274-.159-.245v-.475l.187-.13.2-.173.058-.691-.187-.2-.3-.3-.346-.461-.374-.461-.476-.259-.13-.259.087-.274-.014-.345.3-.346.36-.2.231-.245.043-.216.014-.576.1-.3-.058-.864-.115-.936V10.121l-.562-.2-.576-.158a4.247,4.247,0,0,0-.374-.4c-.072-.043.058-.173.058-.173h.187l.36-.014.317-.014.316-.1V8.868l.072-.36-.259-.115-.245.043-.187.245-.072-.173-.187-.23-.346.014-.144-.23.173-.087.317.2.259-.158-.072-.187-.245-.187-.115-.3-.36-.159-.345.058-.187-.072-.159.274-.418.029-.2-.115-.173-.273-.317-.245-.245-.259.245-.029.274-.014.043-.187.115-.259.159-.029.173-.187.288-.014.159.029.1.158.144.187.3-.058.144-.345-.339-.13-.093-.166-.259-.108-.058-.288.058-.159.173-.086.115-.2.065-.259-.518.043-.54-.173V3.741l-.238.022-.194.151-.13.345-.324-.022-.324.3-.152.346.411.022.195.216v.562l-.476.065V5.426l-.281-.173h-.411l-.151.281-.216.194-.194-.194-.195-.216-.367.13-.238.237-.346.324-.151.237-.194-.3.583-.6.346-.108V4.972l-.281-.13-.259.389-.346.411-.432.54-.281.216-.194.281-1.793-.022-.5.627-.454.28-.259.216-.454.043V7.5l-.562-.087-.3.087L23,7.564l-.195.195L22.525,7.5l-.367-.411-.043-.345.281-.022.562-.259.367-.281.194-.324V5.015l-.3-.13-.324-.022-.194.324-.519.086L21.618,4.8,21.4,4.41H20.343l-.13.324-.108-.216.108-.173.13-.476h-.238l-.6.022-.367.086.195-.237.3-.367.345-.281-.216-.54V2.1l-.3-.259-.367-.108-.259-.259-.5-.108-.476-.13-.259.151L17.168,1.3,16.822.911l-.713-.13L15.958.5H13.819l.194.151h.67l.065.194.173.454.108.3-.216.281-.281.216.022.281.238-.173.3-.324.151.346.238.519.237.281-.108.28h-.367l.065.173h.454l.129.194-.259.151H14.489l-.065.734h1.059l.065.151-.3.13-.3.389.065.281h.5l.065.691-.324.108L15.05,6.2l-.108.13.065.583.238.238.238.237,1.037.151.3.195.173.713.281.173.043.345.13.259.345.3.54.238-.5-.043-.411-.281-.345-.367-.173-.454-.238-.173-.151-.519-.259-.389H14.553l-.194-.389h-.216l-.237.13-.151.259-.238.389-.195.238-.065.669.151.151.108.519-.151.259-.259.043.13-.216-.108-.346-.194-.108-.281-.173-.108.043-.216.237h-.3v.173l.411-.022.108.065v.411l-.13.324-.54-.259-.3-.13.043-.389.259-.022-.108-.151V8.839l-.13-.216L11.55,8.1H10.038l-.367.065-.3-.238H8.763L8.656,8.1,8.2,8.17v.454l-.367.216-.216.476V9.7h.476l.324.237v.346l-.216.281-.3.345v.475l-.086.821-.346.605-.389.475-.043.821-.216.259-.562.13-.519-.3-.13.3-.259.476.216.475.518.13.519.173-.043,1.21L6,17.395l-.389.3-.345.13H5l-.043.432.389.345-.389.432-.519.087-.519-.043-.389.086-.3-.043-.345-.475L2.671,18.6,2.5,18.95l-.475.043-.432.087.216.475.216.562.518.994-.13,1.123-.691.7.3.422-.346.432H1.159l-.173.345H.64l.087.346h.562l-.13.821-.13.389v.216l.345.648.432.605-.389.432.389.3.216.562v.686H1.634l-.562.438L.9,29.968l-.173.418v.547l.259.519.173.518.432.317.432.2v.518l-.144.2-.288.461-.432.273v.476l.13.216.475.346.389.95v.778l.389.259.605-.173.95.173.735.216.821.691.821.734.216.087.994.087.734.345L7.51,40.31l-1.167.849-.216.519-.259.821-.432,1.123-.6.648-.087.648.13.475-.346.432-.259.821L4.4,47.8l.273.119.562.058L5.624,48l.562.144h.5l.13-.1.216-.1.317-.043.187.2.216.144.288.087.173-.115.2-.144-.216-.2L8.13,47.54l.2-.087.389-.345.331-.044.144.13.461.3.173.072.187.1.159.23.216.072L11.01,48l.274.13.634.331.345.245.533.619.231.043h.259l.288-.13.173-.158.259-.058.187.245.5.086.1.331.288.144.1.662.331.072.072.461.374.1.461-.389.187-.23.158-.144.014-.821.144-.1.533.014.4.086.389.2.418.072.1.418.288.331.576.1h.519l.274-.029.3-.159.273-.259h.432l.231-.23.158-.259,2.088-.014.274.086.2-.086-.058-.274-.087-.216.5-.043.259.115.36.029.216.273.331.043.245-.144.533-.072.144.144.072.749.274.173.273.245.245.13.245.115.072-.634.116-.259.129-.36-.129-.216-.317-.159h-.245l-.014-.259.144-.274.216-.115.043-.274-.273-.144-.058-.374-.259-.187-.187-.259-.1-.3.058-.4.1-.447.562-.331.562-.216.3-.173h.288l.4-.072.432-.173.158-.317.029-.216.2-.265L30.109,44l.216-.1H30.6l.245.043.288.216L31.448,44l.274-.3.086-.835-.086-.5-.2-.331-.36-.317-.187-.374h-.72l-.2-.591-.3-.432-.317-.116-.187-.245-.331-.591-.447-.619-.662-.2-.245-.187-.346-.519-.187-.634-.158-.634-.2-.287-.3-.36-.029-.259.2-.36.317-.447L27,34.779l-.144-.345-.533-.447-.418-.346-.216-.533-.043-.3-.231-.231-.058-.288.13-.144.159-.043.014.389.144.432.2-.144.058-.374.259-.3.245-.3.288-.216.331-.187.288-.129.159.129h.374l.058-.187.216-.014.1.2h.345l.173-.158.087-.345.23-.015.245.1.274-.1.115-.173.187-.346.274-.13.158-.144.245.158.317.115.043-.216.159-.36.317-.23h1.022l.072-.115.1-.144h.562l.374-.23.216-.274.273-.173.36.014.216-.1-.173-.4-.36-.4.317-.058.273.086.346.1.331.129v.144l.245.317.2.2-.029.331.2.317h.317l.015-.23.087-.374.173-.274.115-.273.23-.36.144-.187.043-.274v-.389l.159-.273.187-.317Z" transform="translate(-0.375 -0.293)" fill="#fff"/>
      <path id="Path_30283" data-name="Path 30283" d="M37.238,26.08l-.115-.245L37.238,25l-.3-.187-.476-.1-.1-.331.159-.36-.13-.36-.173-.259-.144-.465L35.9,22.81l.043-.216.115-.259.216-.086.115-.259V21.3l-.072-.4-.014-.4.087-.374v-.23l-.374-.245-.187-.274-.159-.245v-.475l.187-.13.2-.173.058-.691-.187-.2-.3-.3-.346-.461-.374-.461-.476-.259-.13-.259.087-.274-.014-.345.3-.346.36-.2.231-.245.043-.216.014-.576.1-.3-.058-.864-.115-.936V10.121l-.562-.2-.576-.158a4.247,4.247,0,0,0-.374-.4c-.072-.043.058-.173.058-.173h.187l.36-.014.317-.014.316-.1V8.868l.072-.36-.259-.115-.245.043-.187.245-.072-.173-.187-.23-.346.014-.144-.23.173-.087.317.2.259-.158-.072-.187-.245-.187-.115-.3-.36-.159-.345.058-.187-.072-.159.274-.418.029-.2-.115-.173-.273-.317-.245-.245-.259.245-.029.274-.014.043-.187.115-.259.159-.029.173-.187.288-.014.159.029.1.158.144.187.3-.058.144-.345-.339-.13-.093-.166-.259-.108-.058-.288.058-.159.173-.086.115-.2.065-.259-.518.043-.54-.173V3.741l-.238.022-.194.151-.13.345-.324-.022-.324.3-.152.346.411.022.195.216v.562l-.476.065V5.426l-.281-.173h-.411l-.151.281-.216.194-.194-.194-.195-.216-.367.13-.238.237-.346.324-.151.237-.194-.3.583-.6.346-.108V4.972l-.281-.13-.259.389-.346.411-.432.54-.281.216-.194.281-1.793-.022-.5.627-.454.28-.259.216-.454.043V7.5l-.562-.087-.3.087L23,7.564l-.195.195L22.525,7.5l-.367-.411-.043-.345.281-.022.562-.259.367-.281.194-.324V5.015l-.3-.13-.324-.022-.194.324-.519.086L21.618,4.8,21.4,4.41H20.343l-.13.324-.108-.216.108-.173.13-.476h-.238l-.6.022-.367.086.195-.237.3-.367.345-.281-.216-.54V2.1l-.3-.259-.367-.108-.259-.259-.5-.108-.476-.13-.259.151L17.168,1.3,16.822.911l-.713-.13L15.958.5H13.819l.194.151h.67l.065.194.173.454.108.3-.216.281-.281.216.022.281.238-.173.3-.324.151.346.238.519.237.281-.108.28h-.367l.065.173h.454l.129.194-.259.151H14.489l-.065.734h1.059l.065.151-.3.13-.3.389.065.281h.5l.065.691-.324.108L15.05,6.2l-.108.13.065.583.238.238.238.237,1.037.151.3.195.173.713.281.173.043.345.13.259.345.3.54.238-.5-.043-.411-.281-.345-.367-.173-.454-.238-.173-.151-.519-.259-.389H14.553l-.194-.389h-.216l-.237.13-.151.259-.238.389-.195.238-.065.669.151.151.108.519-.151.259-.259.043.13-.216-.108-.346-.194-.108-.281-.173-.108.043-.216.237h-.3v.173l.411-.022.108.065v.411l-.13.324-.54-.259-.3-.13.043-.389.259-.022-.108-.151V8.839l-.13-.216L11.55,8.1H10.038l-.367.065-.3-.238H8.763L8.656,8.1,8.2,8.17v.454l-.367.216-.216.476V9.7h.476l.324.237v.346l-.216.281-.3.345v.475l-.086.821-.346.605-.389.475-.043.821-.216.259-.562.13-.519-.3-.13.3-.259.476.216.475.518.13.519.173-.043,1.21L6,17.395l-.389.3-.345.13H5l-.043.432.389.345-.389.432-.519.087-.519-.043-.389.086-.3-.043-.345-.475L2.671,18.6,2.5,18.95l-.475.043-.432.087.216.475.216.562.518.994-.13,1.123-.691.7.3.422-.346.432H1.159l-.173.345H.64l.087.346h.562l-.13.821-.13.389v.216l.345.648.432.605-.389.432.389.3.216.562v.686H1.634l-.562.438L.9,29.968l-.173.418v.547l.259.519.173.518.432.317.432.2v.518l-.144.2-.288.461-.432.273v.476l.13.216.475.346.389.95v.778l.389.259.605-.173.95.173.735.216.821.691.821.734.216.087.994.087.734.345L7.51,40.31l-1.167.849-.216.519-.259.821-.432,1.123-.6.648-.087.648.13.475-.346.432-.259.821L4.4,47.8l.273.119.562.058L5.624,48l.562.144h.5l.13-.1.216-.1.317-.043.187.2.216.144.288.087.173-.115.2-.144-.216-.2L8.13,47.54l.2-.087.389-.345.331-.044.144.13.461.3.173.072.187.1.159.23.216.072L11.01,48l.274.13.634.331.345.245.533.619.231.043h.259l.288-.13.173-.158.259-.058.187.245.5.086.1.331.288.144.1.662.331.072.072.461.374.1.461-.389.187-.23.158-.144.014-.821.144-.1.533.014.4.086.389.2.418.072.1.418.288.331.576.1h.519l.274-.029.3-.159.273-.259h.432l.231-.23.158-.259,2.088-.014.274.086.2-.086-.058-.274-.087-.216.5-.043.259.115.36.029.216.273.331.043.245-.144.533-.072.144.144.072.749.274.173.273.245.245.13.245.115.072-.634.116-.259.129-.36-.129-.216-.317-.159h-.245l-.014-.259.144-.274.216-.115.043-.274-.273-.144-.058-.374-.259-.187-.187-.259-.1-.3.058-.4.1-.447.562-.331.562-.216.3-.173h.288l.4-.072.432-.173.158-.317.029-.216.2-.265L30.109,44l.216-.1H30.6l.245.043.288.216L31.448,44l.274-.3.086-.835-.086-.5-.2-.331-.36-.317-.187-.374h-.72l-.2-.591-.3-.432-.317-.116-.187-.245-.331-.591-.447-.619-.662-.2-.245-.187-.346-.519-.187-.634-.158-.634-.2-.287-.3-.36-.029-.259.2-.36.317-.447L27,34.779l-.144-.345-.533-.447-.418-.346-.216-.533-.043-.3-.231-.231-.058-.288.13-.144.159-.043.014.389.144.432.2-.144.058-.374.259-.3.245-.3.288-.216.331-.187.288-.129.159.129h.374l.058-.187.216-.014.1.2h.345l.173-.158.087-.345.23-.015.245.1.274-.1.115-.173.187-.346.274-.13.158-.144.245.158.317.115.043-.216.159-.36.317-.23h1.022l.072-.115.1-.144h.562l.374-.23.216-.274.273-.173.36.014.216-.1-.173-.4-.36-.4.317-.058.273.086.346.1.331.129v.144l.245.317.2.2-.029.331.2.317h.317l.015-.23.087-.374.173-.274.115-.273.23-.36.144-.187.043-.274v-.389l.159-.273.187-.317Z" transform="translate(-0.375 -0.293)" fill="#fff"/>
    </g>
  </g>
</svg>
