<svg xmlns="http://www.w3.org/2000/svg" width="35.438" height="36" viewBox="0 0 35.438 36">
  <path id="Icon_awesome-flag" data-name="Icon awesome-flag" d="M24.579,6.946C20.811,6.946,17.7,4.5,12.962,4.5a13.666,13.666,0,0,0-4.784.845A3.938,3.938,0,1,0,2.25,7.168V34.313A1.687,1.687,0,0,0,3.938,36H5.063A1.687,1.687,0,0,0,6.75,34.313V27.675A19.645,19.645,0,0,1,14.8,26.12c3.768,0,6.88,2.446,11.617,2.446a14.72,14.72,0,0,0,8.614-2.873A2.246,2.246,0,0,0,36,23.839V6.746a2.25,2.25,0,0,0-3.2-2.04,20.471,20.471,0,0,1-8.223,2.24Z" transform="translate(-0.563)" fill="#4d6c9c"/>
</svg>
