<svg id="Group_14695" data-name="Group 14695" xmlns="http://www.w3.org/2000/svg" xmlns:xlink="http://www.w3.org/1999/xlink" width="578.096" height="362.101" viewBox="0 0 578.096 362.101">
  <defs>
    <clipPath id="clip-path">
      <rect id="Rectangle_3554" data-name="Rectangle 3554" width="578.096" height="362.101" fill="none"/>
    </clipPath>
    <clipPath id="clip-path-2">
      <rect id="Rectangle_3529" data-name="Rectangle 3529" width="578.094" height="362.101" fill="none"/>
    </clipPath>
    <clipPath id="clip-path-3">
      <rect id="Rectangle_3511" data-name="Rectangle 3511" width="91.179" height="9.533" fill="none"/>
    </clipPath>
    <clipPath id="clip-path-4">
      <rect id="Rectangle_3512" data-name="Rectangle 3512" width="19.857" height="91.835" fill="none"/>
    </clipPath>
    <clipPath id="clip-path-5">
      <rect id="Rectangle_3513" data-name="Rectangle 3513" width="16.727" height="26.494" fill="#e3bb93"/>
    </clipPath>
    <clipPath id="clip-path-6">
      <rect id="Rectangle_3514" data-name="Rectangle 3514" width="30.191" height="113.184" fill="none"/>
    </clipPath>
    <clipPath id="clip-path-7">
      <rect id="Rectangle_3515" data-name="Rectangle 3515" width="86.325" height="154.642" fill="none"/>
    </clipPath>
    <clipPath id="clip-path-8">
      <rect id="Rectangle_3516" data-name="Rectangle 3516" width="48.056" height="86.431" fill="#0e1123"/>
    </clipPath>
    <clipPath id="clip-path-9">
      <rect id="Rectangle_3520" data-name="Rectangle 3520" width="79.947" height="80.938" fill="none"/>
    </clipPath>
    <clipPath id="clip-path-10">
      <rect id="Rectangle_3521" data-name="Rectangle 3521" width="33.219" height="16.096" fill="none"/>
    </clipPath>
    <clipPath id="clip-path-11">
      <rect id="Rectangle_3522" data-name="Rectangle 3522" width="58.712" height="43.984" fill="none"/>
    </clipPath>
    <clipPath id="clip-path-12">
      <rect id="Rectangle_3524" data-name="Rectangle 3524" width="9.754" height="6.041" fill="none"/>
    </clipPath>
    <clipPath id="clip-path-13">
      <rect id="Rectangle_3526" data-name="Rectangle 3526" width="9.755" height="6.041" fill="none"/>
    </clipPath>
    <clipPath id="clip-path-14">
      <rect id="Rectangle_3527" data-name="Rectangle 3527" width="285.782" height="6.015" fill="none"/>
    </clipPath>
    <clipPath id="clip-path-15">
      <rect id="Rectangle_3528" data-name="Rectangle 3528" width="12.651" height="4.209" fill="none"/>
    </clipPath>
    <clipPath id="clip-path-16">
      <path id="Path_30116" data-name="Path 30116" d="M1074.182,263.479a4.833,4.833,0,0,1-4.026-1.769c-1.977-2.6-.917-7.284-.777-7.855l9.652.05c.184.817,1.059,5.274-.806,7.814a4.609,4.609,0,0,1-3.962,1.762h-.082m4.849-9.8a.064.064,0,0,0-.034.068l-9.736-.05-.015.057c-.014.051-1.354,5.222.788,8.044a4.976,4.976,0,0,0,4.146,1.83h.1a4.616,4.616,0,0,0,4.79-3.216,13.321,13.321,0,0,0,.116-6.512h0l-.023-.1c-.01-.04-.015-.064-.017-.071h-.006a.14.14,0,0,0-.022-.051l-.043-.034Z" transform="translate(-1068.819 -253.654)" fill="none"/>
    </clipPath>
    <clipPath id="clip-path-18">
      <rect id="Rectangle_3530" data-name="Rectangle 3530" width="9.69" height="22.507" fill="none"/>
    </clipPath>
    <clipPath id="clip-path-19">
      <rect id="Rectangle_3531" data-name="Rectangle 3531" width="9.642" height="9.729" fill="none"/>
    </clipPath>
    <clipPath id="clip-path-20">
      <rect id="Rectangle_3532" data-name="Rectangle 3532" width="16.549" height="25.254" fill="none"/>
    </clipPath>
    <clipPath id="clip-path-21">
      <rect id="Rectangle_3533" data-name="Rectangle 3533" width="28.85" height="5.255" fill="none"/>
    </clipPath>
    <clipPath id="clip-path-22">
      <rect id="Rectangle_3534" data-name="Rectangle 3534" width="38.639" height="16.38" fill="none"/>
    </clipPath>
    <clipPath id="clip-path-23">
      <rect id="Rectangle_3535" data-name="Rectangle 3535" width="23.386" height="18.642" fill="none"/>
    </clipPath>
    <clipPath id="clip-path-24">
      <rect id="Rectangle_3537" data-name="Rectangle 3537" width="5.702" height="4.975" fill="none"/>
    </clipPath>
    <clipPath id="clip-path-25">
      <rect id="Rectangle_3538" data-name="Rectangle 3538" width="3.176" height="3.701" fill="none"/>
    </clipPath>
    <clipPath id="clip-path-32">
      <rect id="Rectangle_3549" data-name="Rectangle 3549" width="5.005" height="5.681" fill="none"/>
    </clipPath>
    <clipPath id="clip-path-33">
      <rect id="Rectangle_3550" data-name="Rectangle 3550" width="2.651" height="4.044" fill="none"/>
    </clipPath>
    <clipPath id="clip-path-34">
      <rect id="Rectangle_3551" data-name="Rectangle 3551" width="14.857" height="2.966" fill="#0e1123"/>
    </clipPath>
    <clipPath id="clip-path-35">
      <rect id="Rectangle_3552" data-name="Rectangle 3552" width="14.857" height="2.966" fill="none"/>
    </clipPath>
  </defs>
  <g id="Group_14694" data-name="Group 14694" clip-path="url(#clip-path)">
    <g id="Group_14635" data-name="Group 14635">
      <g id="Group_14634" data-name="Group 14634" clip-path="url(#clip-path-2)">
        <path id="Path_30018" data-name="Path 30018" d="M14.436,345.986s-26.1-75.71-8.112-113.911,34.814-45.587,75.6-78.4,92.563-34.423,124.042-68.8C294.11-11.387,508.093-43.28,558.879,82.944s-15.166,263.042-15.166,263.042Z" transform="translate(0 0)" fill="#eff5f8"/>
        <path id="Path_30019" data-name="Path 30019" d="M565.165,836.162c0-8.9-118.483-16.116-264.639-16.116S35.887,827.261,35.887,836.162s118.483,16.116,264.639,16.116,264.639-7.215,264.639-16.116" transform="translate(-21.451 -490.177)" fill="#c3c4d7"/>
        <path id="Path_30020" data-name="Path 30020" d="M204.65,357.644q-.16,0-.322-.016c-5.329-.537-17.106-6.024-27.705-18.937-9.1-11.083-19.943-31.155-19.943-63.841,0-29.062,4.686-47.335,13.928-54.312,5.132-3.874,9.714-2.722,10.22-2.578l-1.739,6.105.084.023c-.091-.021-2.271-.471-4.987,1.71-4.167,3.346-11.157,14.167-11.157,49.052,0,30.808,10.061,49.531,18.5,59.812,9.566,11.653,20.1,16.312,23.436,16.649a3.174,3.174,0,0,1-.315,6.333" transform="translate(-93.654 -130.122)" fill="#838383"/>
        <path id="Path_30021" data-name="Path 30021" d="M344.754,679.794h.179a2.93,2.93,0,0,0,2.93-2.93V558.681a2.93,2.93,0,0,0-2.93-2.93h-.179a2.93,2.93,0,0,0-2.93,2.93V676.864a2.93,2.93,0,0,0,2.93,2.93" transform="translate(-204.323 -332.196)" fill="#838383"/>
        <path id="Path_30022" data-name="Path 30022" d="M332.94,834.069c1.067-3.471.13-7.688-2.133-10.953a24.493,24.493,0,0,0-8.838-7.564,49.84,49.84,0,0,0-43.529-.012,24.459,24.459,0,0,0-8.841,7.568c-2.263,3.269-3.2,7.49-2.125,10.961a14.682,14.682,0,0,1,5.542-7.816,26.651,26.651,0,0,1,8.317-3.869,75.784,75.784,0,0,1,37.753-.012,26.558,26.558,0,0,1,8.321,3.872,14.67,14.67,0,0,1,5.533,7.824" transform="translate(-159.616 -484.496)" fill="#838383"/>
        <path id="Path_30023" data-name="Path 30023" d="M414.493,859.575a6.6,6.6,0,1,0,6.6-6.6,6.6,6.6,0,0,0-6.6,6.6" transform="translate(-247.76 -509.862)" fill="#081839"/>
        <path id="Path_30024" data-name="Path 30024" d="M251.373,859.575a6.6,6.6,0,1,0,6.6-6.6,6.6,6.6,0,0,0-6.6,6.6" transform="translate(-150.256 -509.862)" fill="#081839"/>
        <path id="Path_30025" data-name="Path 30025" d="M332.573,795.447h8.536a4.244,4.244,0,0,0,4.244-4.244V769.665a4.244,4.244,0,0,0-4.244-4.244h-8.536a4.244,4.244,0,0,0-4.244,4.244V791.2a4.244,4.244,0,0,0,4.244,4.244" transform="translate(-196.256 -457.525)" fill="#a0a0a0"/>
        <path id="Path_30026" data-name="Path 30026" d="M235.892,544.41a126.373,126.373,0,0,0,81.4,0c5.368-1.823,8.044-7.179,6.12-11.441s-7.056-6.141-11.581-4.612a109.411,109.411,0,0,1-70.473,0c-4.524-1.529-9.655.337-11.581,4.612s.753,9.618,6.12,11.441" transform="translate(-136.972 -315.506)" fill="#a0a0a0"/>
        <g id="Group_14588" data-name="Group 14588" transform="translate(94.028 212.32)" opacity="0.26" style="mix-blend-mode: overlay;isolation: isolate">
          <g id="Group_14587" data-name="Group 14587">
            <g id="Group_14586" data-name="Group 14586" clip-path="url(#clip-path-3)">
              <path id="Path_30027" data-name="Path 30027" d="M324.929,531.024c-.268-.021-.543-.028-.811-.028a13.553,13.553,0,0,0-3.739.529,147.36,147.36,0,0,1-82.08,0,13.51,13.51,0,0,0-4.55-.5,9.584,9.584,0,0,1,10.355-2.673,109.384,109.384,0,0,0,70.469,0,10.133,10.133,0,0,1,3.21-.529,9.27,9.27,0,0,1,7.146,3.2" transform="translate(-233.75 -527.822)"/>
            </g>
          </g>
        </g>
        <path id="Path_30028" data-name="Path 30028" d="M198.392,203.636h1.8A18.056,18.056,0,0,0,218.25,185.58V129.856A18.056,18.056,0,0,0,200.194,111.8h-1.8Z" transform="translate(-118.587 -66.828)" fill="#a0a0a0"/>
        <g id="Group_14591" data-name="Group 14591" transform="translate(79.807 44.972)" opacity="0.26" style="mix-blend-mode: overlay;isolation: isolate">
          <g id="Group_14590" data-name="Group 14590">
            <g id="Group_14589" data-name="Group 14589" clip-path="url(#clip-path-4)">
              <path id="Path_30029" data-name="Path 30029" d="M218.254,129.858v55.719A18.057,18.057,0,0,1,200.2,203.635h-1.8v-.007a18.375,18.375,0,0,0,12.986-17.565V129.371A18.374,18.374,0,0,0,198.4,111.807V111.8h1.8a18.057,18.057,0,0,1,18.058,18.058" transform="translate(-198.397 -111.8)"/>
            </g>
          </g>
        </g>
        <path id="Path_30030" data-name="Path 30030" d="M434.561,101.353s7.352-1.615,9.292,2.749l-8.116,8.421s-3.5-8.408-1.175-11.17" transform="translate(-259.279 -60.408)" fill="#7f7f7e"/>
        <path id="Path_30031" data-name="Path 30031" d="M457.8,128.5s-8.9.443-9.735,3.731-1.521,17.925-1.521,17.925l5.053-1.278s7.058,41.545,6.221,45.619,6.722-26.2,4.642-43.306S457.8,128.5,457.8,128.5" transform="translate(-266.919 -76.812)" fill="#0e1123"/>
        <path id="Path_30032" data-name="Path 30032" d="M423.62,136.122c9.818,6.384,11.937,1.187,11.937,1.187a66.459,66.459,0,0,1-2.5-16.6c-.017-.992-.025-2.009,0-3.043.1-3.985,6.528-8.317,6.91-8.572l.017-.017L433.429,95.13a40.942,40.942,0,0,0-7.206,6.706,7.922,7.922,0,0,1-.746.755v.008a15.119,15.119,0,0,1-2.221,1.653c-2.433,1.577-5.7,3.231-7.47,4.333-8,4.959,2.518,24.078,7.834,27.537" transform="translate(-246.798 -56.863)" fill="#ffcc97"/>
        <g id="Group_14594" data-name="Group 14594" transform="translate(176.458 38.267)" style="isolation: isolate">
          <g id="Group_14593" data-name="Group 14593">
            <g id="Group_14592" data-name="Group 14592" clip-path="url(#clip-path-5)">
              <path id="Path_30033" data-name="Path 30033" d="M438.669,104.252c3.154,7.681,7.113,15.218,9.5,17.372a9.456,9.456,0,0,1,.305-.916c-.017-.992-.026-2.009,0-3.043.1-3.985,6.528-8.317,6.91-8.571l.017-.017L448.843,95.13a40.906,40.906,0,0,0-7.206,6.706,7.777,7.777,0,0,1-.746.755v.008a15.089,15.089,0,0,1-2.221,1.653" transform="translate(-438.669 -95.13)" fill="#e3bb93"/>
            </g>
          </g>
        </g>
        <path id="Path_30034" data-name="Path 30034" d="M476.462,50.722a24.131,24.131,0,0,1-6.876,20.96c-10.511,10.235-17.259,5.276-19.328,2.381s-7.85-12.855-7.85-12.855l20.263-24.685s10.066,5.927,13.791,14.2" transform="translate(-264.446 -21.831)" fill="#fcd9b5"/>
        <path id="Path_30035" data-name="Path 30035" d="M453.664,15.171a4.6,4.6,0,0,1-.363-1.251,5.868,5.868,0,0,1-.052-1.185,6.347,6.347,0,0,1,.525-2.22,9.65,9.65,0,0,1,2.581-3.406A19.718,19.718,0,0,1,458,5.853c.59-.348,1.143-.749,1.754-1.046s1.194-.638,1.817-.9l1.858-.783-1.741,1c-.58.331-1.114.738-1.669,1.1s-1.043.818-1.564,1.218a18.909,18.909,0,0,0-1.393,1.37,8.415,8.415,0,0,0-1.873,3.2A4.711,4.711,0,0,0,455,12.73a4.007,4.007,0,0,0,.138.811,2.834,2.834,0,0,0,.27.65Z" transform="translate(-270.92 -1.869)" fill="#1d0100"/>
        <path id="Path_30036" data-name="Path 30036" d="M436.363,26.581a2.839,2.839,0,0,0-.4-.576,4.046,4.046,0,0,0-.61-.552,4.716,4.716,0,0,0-1.544-.759,8.415,8.415,0,0,0-3.706-.135,18.768,18.768,0,0,0-1.9.441c-.617.224-1.263.39-1.867.666s-1.233.507-1.823.819l-1.781.932,1.657-1.149c.553-.387,1.153-.7,1.731-1.053s1.214-.608,1.824-.919a19.69,19.69,0,0,1,1.942-.712,9.658,9.658,0,0,1,4.259-.352,6.344,6.344,0,0,1,2.155.747,5.89,5.89,0,0,1,.972.68,4.6,4.6,0,0,1,.861.977Z" transform="translate(-252.681 -13.827)" fill="#1d0100"/>
        <path id="Path_30037" data-name="Path 30037" d="M581.65,203.4s4.868-5.51,6.112-9.785,4.729-8.009,5.461-7.461-1.992,7.54-1.992,7.54,7.171-11.945,10.732-10.9c3.4-.341,4.012,10.275,1.685,14.181-4.191,6.61-14.15,12.444-15.191,13.046a81.718,81.718,0,0,1-6.806-6.622" transform="translate(-347.677 -109.223)" fill="#fcd9b5"/>
        <path id="Path_30038" data-name="Path 30038" d="M440.674,163.25s14.982,32.627,15.377,40.332,20.757-18.471,24.31-17.538S492.7,196.89,492.7,196.89s-19.62,26.683-31.952,31.316-13.193,2.36-21.719-.77-24.636-54.845-24.636-54.845,20.774-10.208,26.286-9.342" transform="translate(-247.698 -97.551)" fill="#0e1123"/>
        <path id="Path_30039" data-name="Path 30039" d="M457.7,792.207s-3.049-7.348-.086-13.55l-11.058-4.985s-4.443,11.1-6.519,13.092,14.1,11.441,14.1,11.441Z" transform="translate(-262.919 -462.457)" fill="#0e1123"/>
        <path id="Path_30040" data-name="Path 30040" d="M461.716,842.622s-.556,2.317-5.317,1.1-8.791-2.544-13.013-7.073-8.426-7.272-11.012-7.662c0,0-1.382,1.486-2.217,1.291s-6.576-3.861-6.126-4.984l1.466-3.654,5.042-1.593,28.326,17.976Z" transform="translate(-253.446 -490.177)"/>
        <path id="Path_30041" data-name="Path 30041" d="M440.549,808.672c5.331,2.6,6.057,1.223,6.057,1.223.915-1.736,3.228-1.7,5.3-1.248,1.152,7.737,9.369,13.477,9.78,13.725,4.991,2.911,3.711,7.042,2.476,9.3-1.975.671-6.279.226-11.255-1.708s-8.517-7.824-10.58-9.581a13.009,13.009,0,0,0-2.977-1.762,10.594,10.594,0,0,0-1.241-.562c-1.407-.6-2.913-1.213-4.34-1.9-3.064-1.486-5.668-5.621-5.751-5.729l0-.008a2.516,2.516,0,0,1,.088-.256c.9-2.422,3.775-5.875,5.7-8.325,1.811,1.406,2.084,4.553,6.739,6.824" transform="translate(-255.844 -479.299)" fill="#081839"/>
        <path id="Path_30042" data-name="Path 30042" d="M444.5,628.09l19.076,6.358c3.815-2.119,25.434-80.118,25.858-84.357l-27.978-28.826a88.3,88.3,0,0,0-2.213,9.8C454.053,558.416,444.5,628.09,444.5,628.09" transform="translate(-265.696 -311.582)" fill="#0d2557"/>
        <g id="Group_14597" data-name="Group 14597" transform="translate(193.546 209.682)" opacity="0.35" style="mix-blend-mode: overlay;isolation: isolate">
          <g id="Group_14596" data-name="Group 14596">
            <g id="Group_14595" data-name="Group 14595" clip-path="url(#clip-path-6)">
              <path id="Path_30043" data-name="Path 30043" d="M485.482,634.448c3.815-2.12,25.434-80.118,25.858-84.358l-27.978-28.826a88.334,88.334,0,0,0-2.213,9.8c2.094,6.062,10.691,31.293,12.352,41.941,1.891,12.149-8.02,61.441-8.02,61.441" transform="translate(-481.15 -521.264)"/>
            </g>
          </g>
        </g>
        <path id="Path_30044" data-name="Path 30044" d="M416.068,160.317c21.309,20.521-3.463,122.445-2.727,141.945s-.354,8.283-.354,8.283l-22.156,6.808S378.35,257.183,388,228.5c6.8-20.207,17.4-70.314,28.067-68.185" transform="translate(-229.736 -95.789)" fill="#0e1123"/>
        <path id="Path_30045" data-name="Path 30045" d="M629.265,799.162s-6.259-4.911-6.716-11.769l-12.081,1.074s1.567,11.852.734,14.606,17.894,3.065,17.894,3.065Z" transform="translate(-364.903 -470.659)" fill="#0e1123"/>
        <path id="Path_30046" data-name="Path 30046" d="M651.885,842.858s.651,2.292-4.1,3.564-8.909,2.091-14.81.212-10.908-2.21-13.354-1.282c0,0-.476,1.973-1.3,2.212s-7.625-.142-7.782-1.342l-.513-3.9,3.615-3.859,33.5,1.787Z" transform="translate(-364.641 -501.183)"/>
        <path id="Path_30047" data-name="Path 30047" d="M619.724,819.808c5.922-.346,5.879-1.9,5.879-1.9-.053-1.962,1.979-3.068,4.007-3.685,4.8,6.179,14.772,7.156,15.252,7.171,5.777.092,6.686,4.32,6.718,6.9-1.392,1.553-5.362,3.275-10.647,4.027s-11.258-2.646-13.918-3.166a12.989,12.989,0,0,0-3.459-.076,10.581,10.581,0,0,0-1.357.118c-1.523.163-3.133.371-4.714.473-3.4.206-7.7-2.122-7.821-2.175v-.008a2.659,2.659,0,0,1-.049-.267c-.4-2.552.411-6.971.89-10.05,2.267.338,4.048,2.947,9.219,2.646" transform="translate(-364.329 -486.695)" fill="#081839"/>
        <path id="Path_30048" data-name="Path 30048" d="M377.8,452.216s36.032,1.272,43.663,7.206,46.206,102.586,46.206,102.586l17.38-2.967a.538.538,0,0,1-.017-.084c-.551-3.595-18.414-118.779-31.352-129.631-9.2-7.715-38.313-18.949-54.972-25.011-7.155-2.594-12-4.239-12-4.239-19.923,16.956-8.9,52.141-8.9,52.141" transform="translate(-224.013 -239.142)" fill="#0d2557"/>
        <path id="Path_30049" data-name="Path 30049" d="M420.122,151.317s-2.752,3.38-9.531-.886a19.876,19.876,0,0,1-5.259-5.236c-5.935,4.133-16.5,85.052-13.767,113.166,3.109.283,10.041-1.128,15.485-1.41,14.164-53.438,16.913-44.069,20.377-63.008,1.72-9.408,1.365-20-5.13-37.91-1.564-4.312-2.175-4.714-2.175-4.714" transform="translate(-233.791 -86.789)" fill="#fff"/>
        <path id="Path_30050" data-name="Path 30050" d="M329.094,185.607c-.776,1.855-1.636,3.795-2.526,5.819a191.72,191.72,0,0,0-7.237,18.044,93.218,93.218,0,0,0-2.8,10.511,73.787,73.787,0,0,0-1.467,12.563c-.445,14.962-2.921,23.221-.981,38.952a145.43,145.43,0,0,0,2.864,15.547c-24.583,5.657-53.11,4.148-79.117-4.042-3.132-10.666,3.188-28.653,9.128-61.334.776-4.253,1.211-8.391,2.313-12.182,12.716-43.723,17.313-62.082,35.816-78.426,13.318-11.759,25.977-15.822,27.106-15.822s2.821,8.7,5.932,13.791,8.366,17.014,8.366,17.014a53.88,53.88,0,0,1,6.292,24.2c.346,5.276-1.213,9.452-3.689,15.363" transform="translate(-141.665 -68.882)" fill="#0e1123"/>
        <g id="Group_14600" data-name="Group 14600" transform="translate(174.699 165.172)" opacity="0.35" style="mix-blend-mode: overlay;isolation: isolate">
          <g id="Group_14599" data-name="Group 14599">
            <g id="Group_14598" data-name="Group 14598" clip-path="url(#clip-path-7)">
              <path id="Path_30051" data-name="Path 30051" d="M434.3,410.613c10.064,7.452,27.206,19.839,40.56,27.9,19.873,12,44.985,123.264,45.765,126.74-.551-3.595-18.415-118.779-31.352-129.631-9.2-7.715-38.313-18.949-54.972-25.011" transform="translate(-434.297 -410.613)"/>
            </g>
          </g>
        </g>
        <g id="Group_14603" data-name="Group 14603" transform="translate(136.846 64.889)" opacity="0.62" style="mix-blend-mode: overlay;isolation: isolate">
          <g id="Group_14602" data-name="Group 14602">
            <g id="Group_14601" data-name="Group 14601" clip-path="url(#clip-path-8)">
              <path id="Path_30052" data-name="Path 30052" d="M355.7,244.778c9.015,2.793,16.492,3.351,22.516,2.744a93.531,93.531,0,0,1,2.8-10.51,191.6,191.6,0,0,1,7.237-18.044c-5.333-.628-6.807-1.4-6.807-3.478,0-11.378-.409-31.99-.388-32.886.395-20.435-36.786-34.2-40.751-2.68,0,0-2.419,38.74,15.392,64.854" transform="translate(-340.195 -161.312)" fill="#0e1123"/>
            </g>
          </g>
        </g>
        <path id="Path_30053" data-name="Path 30053" d="M406.878,360.382a4.14,4.14,0,1,0,4.14-4.14,4.14,4.14,0,0,0-4.14,4.14" transform="translate(-243.208 -212.941)" fill="#0e1123"/>
        <path id="Path_30056" data-name="Path 30056" d="M418.6,363.007a.418.418,0,1,0,.418-.418.418.418,0,0,0-.418.418" transform="translate(-250.215 -216.735)" fill="#fff"/>
        <path id="Path_30057" data-name="Path 30057" d="M413.664,368.473a.418.418,0,1,0,.418-.417.418.418,0,0,0-.418.417" transform="translate(-247.265 -220.002)" fill="#fff"/>
        <path id="Path_30059" data-name="Path 30059" d="M413.792,362.878a.418.418,0,1,0,.421.414.418.418,0,0,0-.421-.414" transform="translate(-247.094 -216.908)" fill="#fff"/>
        <path id="Path_30062" data-name="Path 30062" d="M401.971,424.873a4.14,4.14,0,1,0,4.14-4.14,4.14,4.14,0,0,0-4.14,4.14" transform="translate(-240.275 -251.49)" fill="#0e1123"/>
        <path id="Path_30065" data-name="Path 30065" d="M413.693,427.5a.418.418,0,1,0,.418-.418.418.418,0,0,0-.418.418" transform="translate(-247.282 -255.284)" fill="#fff"/>
        <path id="Path_30066" data-name="Path 30066" d="M408.757,432.964a.418.418,0,1,0,.418-.418.418.418,0,0,0-.418.418" transform="translate(-244.332 -258.552)" fill="#fff"/>
        <path id="Path_30068" data-name="Path 30068" d="M408.885,427.369a.418.418,0,1,0,.421.414.418.418,0,0,0-.421-.414" transform="translate(-244.161 -255.457)" fill="#fff"/>
        <path id="Path_30071" data-name="Path 30071" d="M401.971,483.263a4.14,4.14,0,1,0,4.14-4.14,4.14,4.14,0,0,0-4.14,4.14" transform="translate(-240.275 -286.392)" fill="#0e1123"/>
        <path id="Path_30074" data-name="Path 30074" d="M413.693,485.888a.418.418,0,1,0,.418-.417.418.418,0,0,0-.418.417" transform="translate(-247.282 -290.186)" fill="#fff"/>
        <path id="Path_30075" data-name="Path 30075" d="M408.757,491.354a.418.418,0,1,0,.418-.417.418.418,0,0,0-.418.417" transform="translate(-244.332 -293.454)" fill="#fff"/>
        <path id="Path_30076" data-name="Path 30076" d="M414.394,490.647a.418.418,0,1,0,.421.414.418.418,0,0,0-.421-.414" transform="translate(-247.454 -293.281)" fill="#fff"/>
        <path id="Path_30077" data-name="Path 30077" d="M408.885,485.759a.418.418,0,1,0,.421.414.418.418,0,0,0-.421-.414" transform="translate(-244.161 -290.359)" fill="#fff"/>
        <g id="Group_14615" data-name="Group 14615" transform="translate(95.335 140.603)" opacity="0.62" style="mix-blend-mode: overlay;isolation: isolate">
          <g id="Group_14614" data-name="Group 14614">
            <g id="Group_14613" data-name="Group 14613" clip-path="url(#clip-path-9)">
              <path id="Path_30080" data-name="Path 30080" d="M316.947,427.092c-24.583,5.657-53.109,4.148-79.117-4.042-3.132-10.665,3.188-28.653,9.128-61.334q1.164-6.38,2.314-12.182c-1.411,23.878-4.183,59.056,7.118,65.778,17.43,10.355,41.132,7.738,49.589,3.3a27.718,27.718,0,0,0,8.105-7.068,145.5,145.5,0,0,0,2.864,15.547" transform="translate(-236.999 -349.534)"/>
            </g>
          </g>
        </g>
        <path id="Path_30081" data-name="Path 30081" d="M422.376,101.787s-8.993,2.617-9,6.011,2.936,17.748,2.936,17.748l4.584-2.482s17.062,38.532,17.252,42.686S440.706,137.5,432,122.634c-8.72-14.879-9.62-20.847-9.62-20.847" transform="translate(-247.094 -60.842)" fill="#0d2557"/>
        <path id="Path_30082" data-name="Path 30082" d="M466.912,40.063c-7.117-1.633-7.255-8.113-11.61-8.284a4.285,4.285,0,0,0-4.58,3.368,6.834,6.834,0,0,1-3.641,4.741h-.007a4.9,4.9,0,0,1-1.889.484c-.933.349-2.932,3.319-4.512,6.148s-5.62,4.592-5.62,4.592-11.095-8.079-8.81-21.135S438.02,18.4,438.02,18.4c2.2-8.465,20.367-7.41,26.2.781,3.346,4.7,15.66,5.027,15.66,5.027,2.31,9.68-5.375,17.6-12.971,15.854" transform="translate(-254.598 -7.487)" fill="#1d0100"/>
        <path id="Path_30083" data-name="Path 30083" d="M463.885,76.146S464,69.555,460.4,69.89s-6.754,2.846-6.319,6.309,3.82,5.508,3.82,5.508Z" transform="translate(-271.397 -41.769)" fill="#fcd9b5"/>
        <g id="Group_14618" data-name="Group 14618" transform="translate(192.483 16.721)" opacity="0.62" style="mix-blend-mode: overlay;isolation: isolate">
          <g id="Group_14617" data-name="Group 14617">
            <g id="Group_14616" data-name="Group 14616" clip-path="url(#clip-path-10)">
              <path id="Path_30084" data-name="Path 30084" d="M498.338,57.423c-7.117-1.633-7.255-8.113-11.61-8.284a4.284,4.284,0,0,0-4.58,3.368,6.834,6.834,0,0,1-3.641,4.741c.139-.214,2.395-3.508,2.565-5.414.178-1.957,2.613-6.812,6.848-4.986s8.093,8.052,13.954,7.585S511.5,42.7,511.309,41.569c2.31,9.68-5.375,17.6-12.971,15.854" transform="translate(-478.507 -41.569)"/>
            </g>
          </g>
        </g>
        <path id="Path_30085" data-name="Path 30085" d="M601.4,176.117l-4.3-20.537a.679.679,0,0,0-1.216-.255l-40.452,56.593a.679.679,0,0,0,.226.99l16.013,8.777a.678.678,0,0,0,.9-.229l28.743-44.834a.678.678,0,0,0,.093-.506" transform="translate(-331.929 -92.674)" fill="#5bb7b6"/>
        <path id="Path_30086" data-name="Path 30086" d="M645.437,181l-4.316-15.777c-.537-1.709-.893-2.415-1.346-2.4l-2.569-.068.087,3.105-8.417,12.935Z" transform="translate(-375.906 -97.281)" fill="#fff"/>
        <path id="Path_30087" data-name="Path 30087" d="M637.756,180.215s-3.741-17.885-4.022-17.477l-10.666,15.643Z" transform="translate(-372.435 -97.271)" fill="#d6d4d4"/>
        <path id="Path_30088" data-name="Path 30088" d="M620.293,190.867l-23.544-10.224a1.1,1.1,0,0,0-1.467.615l-1.428,3.712Z" transform="translate(-354.972 -107.923)" fill="#fff"/>
        <path id="Path_30089" data-name="Path 30089" d="M571.185,200.351l-.568.877-.026.036c-.016,0-.029.021-.042.039l-28.818,43.984L514.8,242.223a3.433,3.433,0,0,1-2.96-2.585,3.4,3.4,0,0,1,.405-2.73l24.31-38.857a3.505,3.505,0,0,1,3.376-1.608Z" transform="translate(-305.871 -117.409)" fill="#33dbce"/>
        <path id="Path_30090" data-name="Path 30090" d="M611.934,193l-27.966-8.8a1.768,1.768,0,0,0-2.106.884L579.87,189Z" transform="translate(-346.613 -110.059)" fill="#fff"/>
        <path id="Path_30091" data-name="Path 30091" d="M658.733,205.083s1.267-2.117,4.21.771l-1.132,1.766-3.648-1.667Z" transform="translate(-393.412 -122.14)" fill="#999"/>
        <path id="Path_30092" data-name="Path 30092" d="M620.014,206.967a3.97,3.97,0,0,1-4.21-.771l-29.46,44.935s1.555,2.893,4.435,1.437Z" transform="translate(-350.483 -123.252)" fill="#468987"/>
        <g id="Group_14621" data-name="Group 14621" transform="translate(205.965 83.894)" opacity="0.25" style="mix-blend-mode: overlay;isolation: isolate">
          <g id="Group_14620" data-name="Group 14620">
            <g id="Group_14619" data-name="Group 14619" clip-path="url(#clip-path-11)">
              <path id="Path_30093" data-name="Path 30093" d="M570.736,208.559l-28.818,43.984-26.933-3.063a3.432,3.432,0,0,1-2.961-2.585c8.9.541,27.7,1,31.386-4.448,4.746-6.979,26-32.314,27.326-33.888" transform="translate(-512.024 -208.559)"/>
            </g>
          </g>
        </g>
        <path id="Path_30094" data-name="Path 30094" d="M570.16,210.525l-6.043,9.659,23.727,3.931,6.174-9.423Z" transform="translate(-337.197 -125.84)" fill="#fff"/>
        <path id="Path_30095" data-name="Path 30095" d="M561.1,243.9l-3.837,6.133,15.064,2.5,3.92-5.983Z" transform="translate(-333.097 -145.788)" fill="#fff"/>
        <path id="Path_30096" data-name="Path 30096" d="M518.229,278.1s6.6-3.238,9.379-6.718,7.424-5.6,7.893-4.816-4.716,6.212-4.716,6.212,11.182-8.311,14.076-5.988c3.272.979-.206,11.029-3.846,13.753-6.393,4.514-17.825,6.113-19.017,6.272a81.685,81.685,0,0,1-3.769-8.715" transform="translate(-309.768 -159.227)" fill="#fcd9b5"/>
        <path id="Path_30097" data-name="Path 30097" d="M351.957,165.71s3.586,50.638,16.48,65.736c18.851,11.373,61.333-15.72,61.333-15.72l-5.16-13.759s-35.766,16.285-38.745,10.591-.908-40.152-.86-42.571c.4-20.433-29.09-35.789-33.049-4.276" transform="translate(-210.38 -88.289)" fill="#0e1123"/>
        <rect id="Rectangle_3523" data-name="Rectangle 3523" width="9.754" height="187.101" transform="translate(263.809 169.207)" fill="#838383"/>
        <g id="Group_14624" data-name="Group 14624" transform="translate(263.809 172.495)" opacity="0.3" style="mix-blend-mode: overlay;isolation: isolate">
          <g id="Group_14623" data-name="Group 14623">
            <g id="Group_14622" data-name="Group 14622" clip-path="url(#clip-path-12)">
              <path id="Path_30098" data-name="Path 30098" d="M665.575,428.817v2.753l-9.754,3.289v-6.041Z" transform="translate(-655.821 -428.817)"/>
            </g>
          </g>
        </g>
        <rect id="Rectangle_3525" data-name="Rectangle 3525" width="9.754" height="187.101" transform="translate(408.179 169.207)" fill="#838383"/>
        <g id="Group_14627" data-name="Group 14627" transform="translate(408.178 172.495)" opacity="0.3" style="mix-blend-mode: overlay;isolation: isolate">
          <g id="Group_14626" data-name="Group 14626">
            <g id="Group_14625" data-name="Group 14625" clip-path="url(#clip-path-13)">
              <path id="Path_30099" data-name="Path 30099" d="M1024.476,428.817v2.753l-9.753,3.289v-6.041Z" transform="translate(-1014.722 -428.817)"/>
            </g>
          </g>
        </g>
        <path id="Path_30100" data-name="Path 30100" d="M776.235,402.9v4.854a3.677,3.677,0,0,1-3.519,3.819H493.974a3.677,3.677,0,0,1-3.519-3.819V402.9a3.677,3.677,0,0,1,3.519-3.819H772.716a3.677,3.677,0,0,1,3.519,3.819" transform="translate(-293.166 -238.548)" fill="#a0a0a0"/>
        <g id="Group_14630" data-name="Group 14630" transform="translate(197.289 160.534)" opacity="0.3" style="mix-blend-mode: overlay;isolation: isolate">
          <g id="Group_14629" data-name="Group 14629">
            <g id="Group_14628" data-name="Group 14628" clip-path="url(#clip-path-14)">
              <path id="Path_30101" data-name="Path 30101" d="M776.235,402.761V405.1H490.778l-.323-1.368v-.97a3.6,3.6,0,0,1,3.519-3.678H772.716a3.6,3.6,0,0,1,3.519,3.678" transform="translate(-490.455 -399.083)"/>
            </g>
          </g>
        </g>
        <path id="Path_30102" data-name="Path 30102" d="M1073.716,276.97l-2.094-3.544h8.547l-2.044,3.544Z" transform="translate(-640.554 -163.438)" fill="gray"/>
        <path id="Path_30103" data-name="Path 30103" d="M1079.619,284.21v1.068h-12.651V284.21c0-2.169.962-3.927,2.15-3.927h8.352a1.653,1.653,0,0,1,1.289.785,5.473,5.473,0,0,1,.86,3.141" transform="translate(-637.773 -167.538)" fill="#999"/>
        <g id="Group_14633" data-name="Group 14633" transform="translate(429.196 113.531)" opacity="0.37" style="mix-blend-mode: overlay;isolation: isolate">
          <g id="Group_14632" data-name="Group 14632">
            <g id="Group_14631" data-name="Group 14631" clip-path="url(#clip-path-15)">
              <path id="Path_30104" data-name="Path 30104" d="M1079.619,285.377v1.068h-12.651v-.5c.857.079,8.061.667,11.244-1.418.446-.288.551-1.327.547-2.294a5.473,5.473,0,0,1,.86,3.141" transform="translate(-1066.969 -282.236)"/>
            </g>
          </g>
        </g>
        <path id="Path_30105" data-name="Path 30105" d="M1079.227,254.217s.008.031.02.09c.222.97,1.989,9.587-5.026,9.551a4.809,4.809,0,0,1-4.227-1.944c-1.969-2.827-.68-7.747-.68-7.747l9.773.049h.14Z" transform="translate(-638.928 -151.927)" fill="#33dbce"/>
        <path id="Path_30106" data-name="Path 30106" d="M1074.282,263.633h-.1a4.978,4.978,0,0,1-4.146-1.83c-2.142-2.822-.8-7.992-.788-8.044l.015-.057,9.736.05a.065.065,0,0,1,.035-.068l.045-.029.043.034a.162.162,0,0,1,.022.052h.006c0,.008.006.031.016.072l.023.1h0a13.325,13.325,0,0,1-.117,6.512,4.616,4.616,0,0,1-4.789,3.216m-4.9-9.779c-.14.571-1.2,5.252.777,7.855a4.831,4.831,0,0,0,4.025,1.769,4.64,4.64,0,0,0,4.044-1.761c1.866-2.54.991-7,.807-7.813Z" transform="translate(-638.879 -151.62)" fill="#ffb938"/>
      </g>
    </g>
    <g id="Group_14637" data-name="Group 14637" transform="translate(429.94 102.034)">
      <g id="Group_14636" data-name="Group 14636" clip-path="url(#clip-path-16)">
        <path id="Path_30107" data-name="Path 30107" d="M1074.308,263.78h-.105a4.972,4.972,0,0,1-4.149-1.831c-2.124-2.809-.774-7.94-.76-7.992l.015-.057,10.031.124.014.058c.012.052,1.235,5.214-.958,7.97a4.931,4.931,0,0,1-4.088,1.728m-4.881-9.726c-.141.569-1.21,5.212.75,7.8a5.629,5.629,0,0,0,8.1.1c2.023-2.541,1.07-7.208.943-7.781Z" transform="translate(-1068.843 -253.801)" fill="#ffb938"/>
        <path id="Path_30108" data-name="Path 30108" d="M1074.308,263.78h-.105a4.972,4.972,0,0,1-4.149-1.831c-2.124-2.809-.774-7.94-.76-7.992l.015-.057,10.031.124.014.058c.012.052,1.235,5.214-.958,7.97a4.931,4.931,0,0,1-4.088,1.728m-4.881-9.726c-.141.569-1.21,5.212.75,7.8a5.629,5.629,0,0,0,8.1.1c2.023-2.541,1.07-7.208.943-7.781Z" transform="translate(-1068.843 -253.801)" fill="#ffb938"/>
        <path id="Path_30109" data-name="Path 30109" d="M1072.9,255.668c-3.359,0-6.729-.243-6.97-.261l.011-.153c.1.008,10.274.741,13.068-.318l.054.144a21.849,21.849,0,0,1-6.163.588" transform="translate(-1067.09 -254.42)" fill="#ffb938"/>
        <path id="Path_30110" data-name="Path 30110" d="M1073.42,259.057c-3.271,0-6.559-.272-6.79-.292l.013-.152c.1.008,9.621.8,12.524-.285l.053.144a20.044,20.044,0,0,1-5.8.586" transform="translate(-1067.51 -256.448)" fill="#ffb938"/>
        <path id="Path_30111" data-name="Path 30111" d="M1073.908,262.439c-3.253,0-6.52-.31-6.574-.315l.015-.152c.089.009,8.967.851,11.981-.252l.052.144a18.634,18.634,0,0,1-5.474.576" transform="translate(-1067.932 -258.475)" fill="#ffb938"/>
        <path id="Path_30112" data-name="Path 30112" d="M1074.366,265.83c-3.144,0-6.278-.342-6.329-.347l.017-.152c.083.009,8.312.905,11.437-.218l.052.144a17.334,17.334,0,0,1-5.177.574" transform="translate(-1068.352 -260.503)" fill="#ffb938"/>
        <path id="Path_30113" data-name="Path 30113" d="M1074.795,269.221a55.213,55.213,0,0,1-6.055-.379l.02-.152c.076.01,7.658.961,10.892-.185l.051.144a16.187,16.187,0,0,1-4.909.572" transform="translate(-1068.772 -262.53)" fill="#ffb938"/>
        <path id="Path_30114" data-name="Path 30114" d="M1075.2,272.611a45.313,45.313,0,0,1-5.754-.413l.022-.151c.069.01,7,1.015,10.349-.152l.05.145a15.206,15.206,0,0,1-4.667.572" transform="translate(-1069.192 -264.557)" fill="#ffb938"/>
        <path id="Path_30115" data-name="Path 30115" d="M1075.577,276a36.709,36.709,0,0,1-5.433-.446l.026-.151c.063.011,6.349,1.07,9.8-.119l.05.145a14.364,14.364,0,0,1-4.447.571" transform="translate(-1069.611 -266.585)" fill="#ffb938"/>
      </g>
    </g>
    <g id="Group_14693" data-name="Group 14693">
      <g id="Group_14692" data-name="Group 14692" clip-path="url(#clip-path-2)">
        <path id="Path_30117" data-name="Path 30117" d="M1076.6,193.413h0a22.63,22.63,0,0,1-1.979,6.236l-.039.082c-1.688,3.5-4.442,10.6-4.442,10.6l-4.943-.025h-.134l-4.818-.025s-2.785-7.531-4.5-10.732c-3.429-6.416-3.864-18.191,9.4-18.633v-.02c.158,0,.313,0,.468.009s.31,0,.469,0v.02c4.8.21,7.661,1.866,9.205,4.2a11.7,11.7,0,0,1,1.313,8.284" transform="translate(-629.845 -108.133)" fill="#fff"/>
        <path id="Path_30118" data-name="Path 30118" d="M1069.76,219.106a2.2,2.2,0,0,1-1.736-1.141c-.412-.538-.769-1.006-1.458-.98a.2.2,0,1,1-.013-.408,2.161,2.161,0,0,1,1.8,1.14c.411.538.766,1,1.458.98s1.019-.508,1.4-1.071a1.9,1.9,0,0,1,3.525-.112c.413.538.77,1.006,1.465.98s1.021-.508,1.4-1.072a2.171,2.171,0,0,1,1.726-1.252.2.2,0,1,1,.013.408c-.695.022-1.022.508-1.4,1.072a1.9,1.9,0,0,1-3.527.112c-.413-.538-.771-1-1.465-.98s-1.019.508-1.4,1.071a2.168,2.168,0,0,1-1.724,1.252h-.059" transform="translate(-637.406 -129.215)" fill="#ffb938"/>
        <path id="Path_30119" data-name="Path 30119" d="M1069.76,213.089a2.2,2.2,0,0,1-1.736-1.141c-.412-.538-.769-1-1.458-.98a.2.2,0,0,1-.013-.408,2.16,2.16,0,0,1,1.8,1.14c.412.538.769,1,1.459.98s1.019-.508,1.4-1.071a1.9,1.9,0,0,1,3.525-.112c.413.538.769,1.006,1.465.981s1.021-.508,1.4-1.072a2.171,2.171,0,0,1,1.726-1.252.206.206,0,0,1,.21.2.2.2,0,0,1-.2.21c-.694.022-1.021.508-1.4,1.071a1.9,1.9,0,0,1-3.527.112c-.414-.538-.771-1-1.464-.98s-1.019.508-1.4,1.071a2.169,2.169,0,0,1-1.723,1.252h-.06" transform="translate(-637.407 -125.618)" fill="#ffb938"/>
        <g id="Group_14640" data-name="Group 14640" transform="translate(425.89 74.372)" opacity="0.36">
          <g id="Group_14639" data-name="Group 14639">
            <g id="Group_14638" data-name="Group 14638" clip-path="url(#clip-path-18)">
              <path id="Path_30120" data-name="Path 30120" d="M1063.509,207.394a26.424,26.424,0,0,1-3.327-6.156,19.27,19.27,0,0,1-1.434-7,9.225,9.225,0,0,1,.778-3.679,7.387,7.387,0,0,1,2.47-2.844,17.8,17.8,0,0,1,6.444-2.833,34.142,34.142,0,0,0-5.61,3.852,6.67,6.67,0,0,0-1.844,2.473,7.991,7.991,0,0,0-.556,3.059,16.559,16.559,0,0,0,.275,3.271c.167,1.1.442,2.194.72,3.292.589,2.189,1.315,4.363,2.083,6.561" transform="translate(-1058.749 -184.886)" fill="#fff"/>
            </g>
          </g>
        </g>
        <g id="Group_14643" data-name="Group 14643" transform="translate(431.039 102.203)" opacity="0.37" style="mix-blend-mode: overlay;isolation: isolate">
          <g id="Group_14642" data-name="Group 14642">
            <g id="Group_14641" data-name="Group 14641" clip-path="url(#clip-path-19)">
              <path id="Path_30121" data-name="Path 30121" d="M1080.831,254.251c.222.97,1.989,9.587-5.026,9.551a4.809,4.809,0,0,1-4.228-1.944l-.029-.1a5.073,5.073,0,0,0,5.9-1.124,10.834,10.834,0,0,0,3.223-6.472c.005-.057.007-.086.007-.086l.076.088Z" transform="translate(-1071.549 -254.074)"/>
            </g>
          </g>
        </g>
        <g id="Group_14646" data-name="Group 14646" transform="translate(430.395 76.95)" opacity="0.5" style="mix-blend-mode: overlay;isolation: isolate">
          <g id="Group_14645" data-name="Group 14645">
            <g id="Group_14644" data-name="Group 14644" clip-path="url(#clip-path-20)">
              <path id="Path_30122" data-name="Path 30122" d="M1086.29,199.58h0v0a22.647,22.647,0,0,1-1.979,6.236l-.039.082c-1.688,3.5-4.422,10.65-4.422,10.65l-4.964-.072h-.134l-4.8.022s16.139-10.373,15.022-25.2a11.7,11.7,0,0,1,1.313,8.284" transform="translate(-1069.953 -191.296)"/>
            </g>
          </g>
        </g>
        <path id="Path_30123" data-name="Path 30123" d="M1075.683,297.392v1.333h-28.851v-1.333a4.9,4.9,0,0,1,4.9-4.9h19.046a4.9,4.9,0,0,1,4.9,4.9" transform="translate(-625.736 -174.833)" fill="#999"/>
        <g id="Group_14649" data-name="Group 14649" transform="translate(421.095 118.636)" opacity="0.37" style="mix-blend-mode: overlay;isolation: isolate">
          <g id="Group_14648" data-name="Group 14648">
            <g id="Group_14647" data-name="Group 14647" clip-path="url(#clip-path-21)">
              <path id="Path_30124" data-name="Path 30124" d="M1075.683,298.849v1.333h-28.851v-.621c1.954.1,18.383.832,25.641-1.77,1.016-.36,1.256-1.658,1.249-2.864a4.886,4.886,0,0,1,1.961,3.922" transform="translate(-1046.831 -294.927)"/>
            </g>
          </g>
        </g>
        <path id="Path_30125" data-name="Path 30125" d="M1062.464,378.05l-54.84.191a.691.691,0,0,1-.693-.689l-.036-10.212a.691.691,0,0,1,.689-.694l54.84-.191a5.8,5.8,0,0,1,.04,11.594" transform="translate(-601.864 -219.046)" fill="#eeded6"/>
        <path id="Path_30126" data-name="Path 30126" d="M997.732,375.96l57.109-.2c3.155-.012,5.92-1.871,6.11-4.324.206-2.668-2.528-4.883-5.908-4.872l-57.342.2a1.121,1.121,0,1,1-.008-2.174l57.063-.2c4.539-.016,8.533,2.588,8.959,6.106.485,4.016-3.569,7.418-8.632,7.435l-57.342.2a1.121,1.121,0,1,1-.008-2.174" transform="translate(-595.531 -217.813)" fill="#1b1464"/>
        <path id="Path_30127" data-name="Path 30127" d="M1067.79,375.094l-6.436.169-6.436.107-12.872.115-12.872-.025-6.437-.062-6.437-.125,6.436-.17,6.436-.107,12.872-.114,12.873.025,6.436.062Z" transform="translate(-607.486 -224.083)" fill="#9f9d9d"/>
        <path id="Path_30128" data-name="Path 30128" d="M1067.809,380.5l-6.436.169-6.436.107-12.873.115-12.872-.025-6.437-.062-6.436-.125,6.436-.17,6.436-.107,12.872-.114,12.873.025,6.436.062Z" transform="translate(-607.498 -227.313)" fill="#9f9d9d"/>
        <path id="Path_30129" data-name="Path 30129" d="M1067.828,385.9l-6.436.169-6.436.107-12.872.115-12.873-.025-6.436-.062-6.437-.125,6.436-.17,6.436-.107,12.872-.114,12.873.025,6.437.062Z" transform="translate(-607.509 -230.544)" fill="#9f9d9d"/>
        <path id="Path_30130" data-name="Path 30130" d="M1055.731,352.589l-45.689-.159a3.1,3.1,0,0,1-3.084-3.105l.006-1.59a3.1,3.1,0,0,1,3.105-3.084l45.69.159a3.1,3.1,0,0,1,3.084,3.106l-.005,1.589a3.1,3.1,0,0,1-3.106,3.084" transform="translate(-601.902 -206.013)" fill="#33dbce"/>
        <path id="Path_30131" data-name="Path 30131" d="M1067.715,327.137l-.016,4.515a1.634,1.634,0,0,1-1.638,1.627l-48.613-.169a1.633,1.633,0,0,1-1.627-1.638l.016-4.515a1.634,1.634,0,0,1,1.638-1.627l48.614.169a1.633,1.633,0,0,1,1.627,1.638" transform="translate(-607.2 -194.464)" fill="#1b1464"/>
        <path id="Path_30132" data-name="Path 30132" d="M1075.36,335.067h0l-32.349-.113a.33.33,0,1,1,0-.661l32.349.113a.33.33,0,0,1,0,.661" transform="translate(-623.255 -199.822)" fill="#fff"/>
        <path id="Path_30133" data-name="Path 30133" d="M1081.505,353.833h0l-32.349-.113a.33.33,0,0,1-.33-.332.344.344,0,0,1,.332-.329l32.349.113a.33.33,0,0,1,0,.661" transform="translate(-626.928 -211.038)" fill="#fff"/>
        <path id="Path_30134" data-name="Path 30134" d="M1024.067,353.027h-.01l-5.716-.02a2.759,2.759,0,0,1,.019-5.517l5.716.02a2.759,2.759,0,0,1-.01,5.517m-.008-.331h.008a2.428,2.428,0,0,0,.009-4.856l-5.716-.02a2.428,2.428,0,0,0-.017,4.856Z" transform="translate(-607.063 -207.709)" fill="#fff"/>
        <path id="Path_30135" data-name="Path 30135" d="M1021.6,333.86a.323.323,0,0,1-.331-.332l.021-6.142a.323.323,0,0,1,.332-.329.331.331,0,0,1,.329.332l-.021,6.142a.331.331,0,0,1-.331.329" transform="translate(-610.456 -195.495)" fill="#fff"/>
        <path id="Path_30136" data-name="Path 30136" d="M1028.494,333.884a.327.327,0,0,1-.331-.332l.021-6.142a.365.365,0,0,1,.332-.329.331.331,0,0,1,.329.332l-.021,6.142a.331.331,0,0,1-.331.329" transform="translate(-614.577 -195.51)" fill="#fff"/>
        <path id="Path_30137" data-name="Path 30137" d="M1035.388,333.908a.331.331,0,0,1-.331-.332l.021-6.142a.348.348,0,0,1,.332-.329.33.33,0,0,1,.329.332l-.021,6.142a.331.331,0,0,1-.331.329" transform="translate(-618.698 -195.525)" fill="#fff"/>
        <path id="Path_30138" data-name="Path 30138" d="M1066.794,314.6l-41.421-.144a2.364,2.364,0,0,1-2.355-2.372l.008-2.288a2.364,2.364,0,0,1,2.372-2.356l41.421.144a2.364,2.364,0,0,1,2.356,2.372l-.008,2.288a2.364,2.364,0,0,1-2.372,2.356" transform="translate(-611.501 -183.773)" fill="#33dbce"/>
        <path id="Path_30139" data-name="Path 30139" d="M1088.62,316.214h0l-24.708-.086a.331.331,0,0,1-.329-.332.35.35,0,0,1,.332-.329l24.708.086a.33.33,0,0,1,0,.661" transform="translate(-635.749 -188.568)" fill="#fff"/>
        <path id="Path_30140" data-name="Path 30140" d="M1030.269,309.594l-.018,5.092Z" transform="translate(-615.825 -185.058)" fill="#fff"/>
        <path id="Path_30141" data-name="Path 30141" d="M1029.76,314.524a.32.32,0,0,1-.331-.332l.018-5.092a.324.324,0,0,1,.332-.329.33.33,0,0,1,.329.331l-.018,5.092a.331.331,0,0,1-.331.329" transform="translate(-615.334 -184.565)" fill="#fff"/>
        <path id="Path_30142" data-name="Path 30142" d="M1033.756,309.606l-.017,5.092Z" transform="translate(-617.91 -185.065)" fill="#fff"/>
        <path id="Path_30143" data-name="Path 30143" d="M1033.247,314.535h0a.33.33,0,0,1-.329-.332l.018-5.092a.331.331,0,0,1,.661,0l-.018,5.092a.331.331,0,0,1-.331.329" transform="translate(-617.418 -184.571)" fill="#fff"/>
        <path id="Path_30144" data-name="Path 30144" d="M1037.244,309.618l-.018,5.092Z" transform="translate(-619.995 -185.072)" fill="#fff"/>
        <path id="Path_30145" data-name="Path 30145" d="M1036.734,314.546a.319.319,0,0,1-.33-.332l.018-5.092c0-.183.179-.357.332-.329a.33.33,0,0,1,.329.332l-.018,5.092a.331.331,0,0,1-.331.329" transform="translate(-619.503 -184.577)" fill="#fff"/>
        <path id="Path_30146" data-name="Path 30146" d="M1040.732,309.631l-.018,5.092Z" transform="translate(-622.08 -185.08)" fill="#fff"/>
        <path id="Path_30147" data-name="Path 30147" d="M1040.223,314.562a.327.327,0,0,1-.331-.332l.018-5.092a.352.352,0,0,1,.332-.329.33.33,0,0,1,.329.331l-.018,5.092a.331.331,0,0,1-.33.329" transform="translate(-621.588 -184.588)" fill="#fff"/>
        <path id="Path_30148" data-name="Path 30148" d="M1044.22,309.643l-.018,5.092Z" transform="translate(-624.164 -185.087)" fill="#fff"/>
        <path id="Path_30149" data-name="Path 30149" d="M1043.711,314.574a.336.336,0,0,1-.331-.332l.018-5.092a.357.357,0,0,1,.332-.329.33.33,0,0,1,.329.331l-.018,5.092a.331.331,0,0,1-.331.329" transform="translate(-623.673 -184.596)" fill="#fff"/>
        <path id="Path_30150" data-name="Path 30150" d="M1047.707,309.655l-.017,5.092Z" transform="translate(-626.249 -185.094)" fill="#fff"/>
        <path id="Path_30151" data-name="Path 30151" d="M1047.2,314.586h0a.331.331,0,0,1-.33-.332l.018-5.092a.344.344,0,0,1,.332-.329.331.331,0,0,1,.33.331l-.018,5.092a.331.331,0,0,1-.331.329" transform="translate(-625.757 -184.603)" fill="#fff"/>
        <path id="Path_30152" data-name="Path 30152" d="M971.328,292.17l-5.392-1.348s-30.581,28.348-29.508,34.718,2.156,6.494,2.156,6.494l34.011-39.3Z" transform="translate(-559.727 -173.837)" fill="#d1d3d3"/>
        <path id="Path_30153" data-name="Path 30153" d="M936.891,328.323l.515-.376c-.027-.039-2.636-4.051,6.78-15.805,9.335-11.653,21.861-20.449,21.986-20.536l-.365-.522c-.126.088-12.727,8.936-22.119,20.661-9.8,12.23-6.924,16.408-6.8,16.579" transform="translate(-559.728 -173.993)" fill="#d1d3d3"/>
        <path id="Path_30154" data-name="Path 30154" d="M936.933,329.868l.529-.355a7.959,7.959,0,0,1-.844-4.541c.156-2.769,1.384-7.369,6.344-13.56,9.334-11.653,21.861-20.449,21.986-20.536l-.986-.076a117.7,117.7,0,0,0-21.5,20.214c-5.093,6.358-6.338,11.116-6.486,13.989a8.348,8.348,0,0,0,.955,4.866" transform="translate(-559.464 -173.823)" fill="#d1d3d3"/>
        <path id="Path_30155" data-name="Path 30155" d="M812.288,380.807l2.464-4.982s41.4-4.952,45.563-.01,3.553,5.847,3.553,5.847l-51.969.477Z" transform="translate(-485.307 -223.329)" fill="#d1d3d3"/>
        <path id="Path_30156" data-name="Path 30156" d="M866.5,375.876l-.619.149c-.012-.046-1.38-4.632-16.435-5.066-14.924-.43-29.738,3.42-29.886,3.459l-.162-.616c.148-.039,15.05-3.913,30.067-3.48,15.664.452,16.987,5.346,17.035,5.555" transform="translate(-489.791 -221.337)" fill="#d1d3d3"/>
        <path id="Path_30157" data-name="Path 30157" d="M868.141,375.59l-.613.173a7.964,7.964,0,0,0-2.914-3.584c-2.212-1.673-6.513-3.716-14.441-3.945-14.925-.431-29.738,3.42-29.886,3.459l.581-.8a117.7,117.7,0,0,1,29.324-3.3c8.143.235,12.576,2.367,14.861,4.114a8.347,8.347,0,0,1,3.09,3.878" transform="translate(-490.32 -219.708)" fill="#d1d3d3"/>
        <path id="Path_30158" data-name="Path 30158" d="M820.069,385.464c7.605-.65,15.226-1.1,22.85-1.48,3.813-.159,7.629-.282,11.446-.309q2.863-.034,5.726.059c.953.062,1.909.064,2.857.19.474.054.95.093,1.423.159l1.4.315-1.4-.289c-.473-.056-.949-.088-1.424-.133-.947-.108-1.9-.092-2.856-.137q-2.859-.074-5.72-.022c-3.815.05-7.628.2-11.439.379-3.812.152-7.623.352-11.433.57Z" transform="translate(-490.191 -229.334)" fill="#727272"/>
        <path id="Path_30159" data-name="Path 30159" d="M826.489,382.1c6.763-.578,13.54-.982,20.319-1.317,3.391-.142,6.784-.251,10.178-.274q2.546-.03,5.092.053c.847.055,1.7.056,2.541.168.422.048.845.083,1.265.141l1.242.28-1.245-.257c-.42-.05-.844-.078-1.266-.118-.843-.1-1.693-.082-2.54-.122q-2.542-.065-5.087-.02c-3.392.045-6.783.176-10.172.337-6.781.268-13.553.712-20.327,1.128" transform="translate(-494.028 -227.441)" fill="#727272"/>
        <path id="Path_30160" data-name="Path 30160" d="M972.114,295.9l-7.93,8.256q-3.949,4.143-7.837,8.343c-2.606,2.787-5.187,5.6-7.695,8.472q-1.892,2.146-3.687,4.374c-.582.754-1.214,1.473-1.744,2.265-.273.391-.558.774-.821,1.171l-.687,1.255.665-1.268c.256-.4.534-.791.8-1.187.518-.8,1.136-1.534,1.706-2.3q1.779-2.243,3.662-4.4c2.492-2.892,5.056-5.72,7.646-8.523,5.224-5.566,10.5-11.08,15.922-16.456" transform="translate(-562.902 -176.872)" fill="#727272"/>
        <path id="Path_30161" data-name="Path 30161" d="M970.17,298.422c-4.7,4.893-9.427,9.767-14.021,14.761-2.317,2.478-4.612,4.978-6.842,7.533q-1.683,1.909-3.279,3.89c-.518.671-1.079,1.31-1.551,2.014-.243.348-.5.688-.73,1.041l-.611,1.115.591-1.128c.228-.358.475-.7.712-1.055.461-.715,1.01-1.364,1.516-2.045q1.583-1.995,3.256-3.915c2.216-2.572,4.5-5.087,6.8-7.58,4.645-4.95,9.34-9.853,14.159-14.633" transform="translate(-563.754 -178.38)" fill="#727272"/>
        <path id="Path_30162" data-name="Path 30162" d="M897.413,294.266a1.593,1.593,0,0,0-2.25.115l-33.6,37.237h0l-50.222,1.5a1.593,1.593,0,0,0,.1,3.185l50.222-1.5a3.319,3.319,0,0,0,2.211-.984l33.66-37.3a1.593,1.593,0,0,0-.115-2.25" transform="translate(-484.049 -175.65)" fill="#0d2557"/>
        <path id="Path_30163" data-name="Path 30163" d="M907.072,348.5l3.56.187s10.18,5.065,13.769,5.543a8.761,8.761,0,0,0,8.71-4.434,9.264,9.264,0,0,0-1.235-8.8c-2.3-3.228,6.895,4.933,6.895,4.933l-4.665,10.715-10.245,3.766Z" transform="translate(-542.196 -203.377)" fill="#818787"/>
        <path id="Path_30164" data-name="Path 30164" d="M936.986,366.148a15.561,15.561,0,0,1-9.433,8.484,18.848,18.848,0,0,1-13.558-.685l-14.4-6.27,3.008-6.91,14.4,6.271c4.891,2.13,10.447.249,12.383-4.2Z" transform="translate(-537.725 -215.646)" fill="#0d2557"/>
        <path id="Path_30165" data-name="Path 30165" d="M951.887,331.923l-7.6-3.309c1.936-4.447-.472-9.8-5.363-11.925l-14.4-6.271,3.009-6.909,14.4,6.271a18.16,18.16,0,0,1,11.174,15.189l0,.006a15.014,15.014,0,0,1-1.217,6.948" transform="translate(-552.627 -181.421)" fill="#33dbce"/>
        <g id="Group_14652" data-name="Group 14652" transform="translate(361.868 143.554)" opacity="0.81" style="mix-blend-mode: overlay;isolation: isolate">
          <g id="Group_14651" data-name="Group 14651">
            <g id="Group_14650" data-name="Group 14650" clip-path="url(#clip-path-22)">
              <path id="Path_30166" data-name="Path 30166" d="M936.986,363.821a15.561,15.561,0,0,1-9.433,8.484,18.848,18.848,0,0,1-13.558-.685l-14.4-6.27,1.166-2.678c5.654,2.935,18.82,8.589,23.653,7.879,5.667-.832,7.6-4.27,10.349-7.7a20.781,20.781,0,0,0,3.442-5.979,15.014,15.014,0,0,1-1.217,6.948" transform="translate(-899.593 -356.873)"/>
            </g>
          </g>
        </g>
        <g id="Group_14655" data-name="Group 14655" transform="translate(375.162 125.154)" style="mix-blend-mode: soft-light;isolation: isolate">
          <g id="Group_14654" data-name="Group 14654">
            <g id="Group_14653" data-name="Group 14653" clip-path="url(#clip-path-23)">
              <path id="Path_30167" data-name="Path 30167" d="M932.642,311.13a45.586,45.586,0,0,1,7.691,2.226,44.5,44.5,0,0,1,7.246,3.5,23.256,23.256,0,0,1,6.186,5.261,11.153,11.153,0,0,1,1.939,3.622,7.652,7.652,0,0,1,.1,4.03,9.6,9.6,0,0,0-2.832-6.989,27.791,27.791,0,0,0-6.084-4.795,70.957,70.957,0,0,0-6.957-3.684c-2.393-1.107-4.817-2.175-7.289-3.175" transform="translate(-932.642 -311.13)" fill="#fff"/>
            </g>
          </g>
        </g>
        <path id="Path_30168" data-name="Path 30168" d="M704.3,314.94h-3.048V267.914a2.678,2.678,0,0,0-2.675-2.676H660.246a2.678,2.678,0,0,0-2.675,2.676V314.94h-3.047V267.914a5.729,5.729,0,0,1,5.722-5.723h38.332a5.73,5.73,0,0,1,5.722,5.723Z" transform="translate(-391.237 -156.723)" fill="#0e1123"/>
        <rect id="Rectangle_3536" data-name="Rectangle 3536" width="0.661" height="29.132" transform="translate(274.452 108.441)" fill="#d1d3d3"/>
        <path id="Path_30169" data-name="Path 30169" d="M681.465,337a3.365,3.365,0,1,1-3.365-3.365A3.365,3.365,0,0,1,681.465,337" transform="translate(-403.318 -199.429)" fill="#33dbce"/>
        <g id="Group_14658" data-name="Group 14658" transform="translate(272.448 135.965)" opacity="0.51" style="mix-blend-mode: overlay;isolation: isolate">
          <g id="Group_14657" data-name="Group 14657">
            <g id="Group_14656" data-name="Group 14656" clip-path="url(#clip-path-24)">
              <path id="Path_30170" data-name="Path 30170" d="M683,339.611a3.367,3.367,0,0,1-3.37,3.37,3.324,3.324,0,0,1-2.332-.945,3.574,3.574,0,0,0,1.671.41,3.7,3.7,0,0,0,3.7-3.7,3.9,3.9,0,0,0-.073-.74,3.38,3.38,0,0,1,.4,1.605" transform="translate(-677.297 -338.006)"/>
            </g>
          </g>
        </g>
        <g id="Group_14661" data-name="Group 14661" transform="translate(272.326 134.986)" style="mix-blend-mode: soft-light;isolation: isolate">
          <g id="Group_14660" data-name="Group 14660">
            <g id="Group_14659" data-name="Group 14659" clip-path="url(#clip-path-25)">
              <path id="Path_30171" data-name="Path 30171" d="M677.084,338.353a2.17,2.17,0,0,1,1.474-2.693,2.143,2.143,0,0,1,1.614.163,2.305,2.305,0,0,0-1.108.049,2.385,2.385,0,0,0-1.619,2.957,2.52,2.52,0,0,0,.178.444,2.177,2.177,0,0,1-.539-.92" transform="translate(-676.996 -335.571)" fill="#fff"/>
            </g>
          </g>
        </g>
        <rect id="Rectangle_3539" data-name="Rectangle 3539" width="0.661" height="29.132" transform="translate(281.184 108.441)" fill="#d1d3d3"/>
        <path id="Path_30172" data-name="Path 30172" d="M698.2,337a3.365,3.365,0,1,1-3.365-3.365A3.365,3.365,0,0,1,698.2,337" transform="translate(-413.322 -199.429)" fill="#33dbce"/>
        <g id="Group_14664" data-name="Group 14664" transform="translate(279.18 135.965)" opacity="0.51" style="mix-blend-mode: overlay;isolation: isolate">
          <g id="Group_14663" data-name="Group 14663">
            <g id="Group_14662" data-name="Group 14662" clip-path="url(#clip-path-24)">
              <path id="Path_30173" data-name="Path 30173" d="M699.735,339.611a3.367,3.367,0,0,1-3.369,3.37,3.323,3.323,0,0,1-2.332-.945,3.573,3.573,0,0,0,1.671.41,3.7,3.7,0,0,0,3.7-3.7,3.888,3.888,0,0,0-.073-.74,3.381,3.381,0,0,1,.4,1.605" transform="translate(-694.034 -338.006)"/>
            </g>
          </g>
        </g>
        <g id="Group_14667" data-name="Group 14667" transform="translate(279.059 134.986)" style="mix-blend-mode: soft-light;isolation: isolate">
          <g id="Group_14666" data-name="Group 14666">
            <g id="Group_14665" data-name="Group 14665" clip-path="url(#clip-path-25)">
              <path id="Path_30174" data-name="Path 30174" d="M693.82,338.353a2.169,2.169,0,0,1,1.475-2.693,2.143,2.143,0,0,1,1.614.163,2.3,2.3,0,0,0-1.108.049,2.385,2.385,0,0,0-1.619,2.957,2.548,2.548,0,0,0,.179.444,2.183,2.183,0,0,1-.539-.92" transform="translate(-693.732 -335.571)" fill="#fff"/>
            </g>
          </g>
        </g>
        <rect id="Rectangle_3542" data-name="Rectangle 3542" width="0.661" height="29.132" transform="translate(287.915 108.441)" fill="#d1d3d3"/>
        <path id="Path_30175" data-name="Path 30175" d="M714.935,337a3.365,3.365,0,1,1-3.365-3.365A3.365,3.365,0,0,1,714.935,337" transform="translate(-423.324 -199.429)" fill="#33dbce"/>
        <g id="Group_14670" data-name="Group 14670" transform="translate(285.911 135.965)" opacity="0.51" style="mix-blend-mode: overlay;isolation: isolate">
          <g id="Group_14669" data-name="Group 14669">
            <g id="Group_14668" data-name="Group 14668" clip-path="url(#clip-path-24)">
              <path id="Path_30176" data-name="Path 30176" d="M716.468,339.611a3.367,3.367,0,0,1-3.369,3.37,3.324,3.324,0,0,1-2.332-.945,3.574,3.574,0,0,0,1.672.41,3.7,3.7,0,0,0,3.7-3.7,3.9,3.9,0,0,0-.073-.74,3.381,3.381,0,0,1,.4,1.605" transform="translate(-710.766 -338.006)"/>
            </g>
          </g>
        </g>
        <g id="Group_14673" data-name="Group 14673" transform="translate(285.79 134.986)" style="mix-blend-mode: soft-light;isolation: isolate">
          <g id="Group_14672" data-name="Group 14672">
            <g id="Group_14671" data-name="Group 14671" clip-path="url(#clip-path-25)">
              <path id="Path_30177" data-name="Path 30177" d="M710.553,338.353a2.169,2.169,0,0,1,1.475-2.693,2.142,2.142,0,0,1,1.613.163,2.3,2.3,0,0,0-1.108.049,2.385,2.385,0,0,0-1.619,2.957,2.506,2.506,0,0,0,.179.444,2.177,2.177,0,0,1-.539-.92" transform="translate(-710.465 -335.571)" fill="#fff"/>
            </g>
          </g>
        </g>
        <rect id="Rectangle_3545" data-name="Rectangle 3545" width="0.661" height="29.132" transform="translate(294.648 108.441)" fill="#d1d3d3"/>
        <path id="Path_30178" data-name="Path 30178" d="M731.671,337a3.365,3.365,0,1,1-3.365-3.365A3.365,3.365,0,0,1,731.671,337" transform="translate(-433.328 -199.429)" fill="#33dbce"/>
        <g id="Group_14676" data-name="Group 14676" transform="translate(292.643 135.965)" opacity="0.51" style="mix-blend-mode: overlay;isolation: isolate">
          <g id="Group_14675" data-name="Group 14675">
            <g id="Group_14674" data-name="Group 14674" clip-path="url(#clip-path-24)">
              <path id="Path_30179" data-name="Path 30179" d="M733.2,339.611a3.367,3.367,0,0,1-3.37,3.37,3.323,3.323,0,0,1-2.332-.945,3.573,3.573,0,0,0,1.671.41,3.7,3.7,0,0,0,3.7-3.7,3.893,3.893,0,0,0-.073-.74,3.38,3.38,0,0,1,.4,1.605" transform="translate(-727.503 -338.006)"/>
            </g>
          </g>
        </g>
        <g id="Group_14679" data-name="Group 14679" transform="translate(292.522 134.986)" style="mix-blend-mode: soft-light;isolation: isolate">
          <g id="Group_14678" data-name="Group 14678">
            <g id="Group_14677" data-name="Group 14677" clip-path="url(#clip-path-25)">
              <path id="Path_30180" data-name="Path 30180" d="M727.29,338.353a2.169,2.169,0,0,1,1.475-2.693,2.143,2.143,0,0,1,1.614.163,2.3,2.3,0,0,0-1.108.049,2.385,2.385,0,0,0-1.619,2.957,2.52,2.52,0,0,0,.179.444,2.177,2.177,0,0,1-.539-.92" transform="translate(-727.202 -335.571)" fill="#fff"/>
            </g>
          </g>
        </g>
        <rect id="Rectangle_3548" data-name="Rectangle 3548" width="0.661" height="29.132" transform="matrix(0.967, -0.256, 0.256, 0.967, 299.264, 108.106)" fill="#d1d3d3"/>
        <path id="Path_30181" data-name="Path 30181" d="M761.539,332.686a3.365,3.365,0,1,1-4.115-2.392,3.366,3.366,0,0,1,4.115,2.392" transform="translate(-451.248 -197.363)" fill="#33dbce"/>
        <g id="Group_14682" data-name="Group 14682" transform="translate(305.401 133.871)" opacity="0.51" style="mix-blend-mode: overlay;isolation: isolate">
          <g id="Group_14681" data-name="Group 14681">
            <g id="Group_14680" data-name="Group 14680" clip-path="url(#clip-path-32)">
              <path id="Path_30182" data-name="Path 30182" d="M764.109,334.248a3.367,3.367,0,0,1-2.395,4.12,3.324,3.324,0,0,1-2.5-.317,3.572,3.572,0,0,0,1.721-.032,3.7,3.7,0,0,0,2.63-4.523,3.9,3.9,0,0,0-.26-.7,3.387,3.387,0,0,1,.8,1.449" transform="translate(-759.218 -332.799)"/>
            </g>
          </g>
        </g>
        <g id="Group_14685" data-name="Group 14685" transform="translate(304.485 133.684)" style="mix-blend-mode: soft-light;isolation: isolate">
          <g id="Group_14684" data-name="Group 14684">
            <g id="Group_14683" data-name="Group 14683" clip-path="url(#clip-path-33)">
              <path id="Path_30183" data-name="Path 30183" d="M757.255,335.628a2.169,2.169,0,0,1,.737-2.981,2.142,2.142,0,0,1,1.6-.256,2.307,2.307,0,0,0-1.058.331,2.385,2.385,0,0,0-.809,3.273,2.52,2.52,0,0,0,.286.384,2.18,2.18,0,0,1-.757-.751" transform="translate(-756.942 -332.335)" fill="#fff"/>
            </g>
          </g>
        </g>
        <path id="Path_30184" data-name="Path 30184" d="M654.7,392.445H639.845a4.289,4.289,0,0,1,.1-.924,3.113,3.113,0,0,1,2.835-2.692h8.99a2.572,2.572,0,0,1,1.676.65,3.914,3.914,0,0,1,1.257,2.966" transform="translate(-382.463 -232.42)" fill="#0e1123"/>
        <g id="Group_14688" data-name="Group 14688" transform="translate(257.382 157.059)" opacity="0.51" style="mix-blend-mode: overlay;isolation: isolate">
          <g id="Group_14687" data-name="Group 14687">
            <g id="Group_14686" data-name="Group 14686" clip-path="url(#clip-path-34)">
              <path id="Path_30185" data-name="Path 30185" d="M654.7,393.411H639.845a4.29,4.29,0,0,1,.1-.924c3.591-.051,10.543-.366,13.5-2.042a3.914,3.914,0,0,1,1.257,2.966" transform="translate(-639.845 -390.445)" fill="#0e1123"/>
            </g>
          </g>
        </g>
        <path id="Path_30186" data-name="Path 30186" d="M770.869,392.445H756.012a4.266,4.266,0,0,1,.1-.924,3.113,3.113,0,0,1,2.835-2.692h8.99a2.574,2.574,0,0,1,1.677.65,3.915,3.915,0,0,1,1.257,2.966" transform="translate(-451.901 -232.42)" fill="#0e1123"/>
        <g id="Group_14691" data-name="Group 14691" transform="translate(304.111 157.059)" opacity="0.51" style="mix-blend-mode: overlay;isolation: isolate">
          <g id="Group_14690" data-name="Group 14690">
            <g id="Group_14689" data-name="Group 14689" clip-path="url(#clip-path-35)">
              <path id="Path_30187" data-name="Path 30187" d="M770.869,393.411H756.012a4.267,4.267,0,0,1,.1-.924c3.591-.051,10.543-.366,13.5-2.042a3.915,3.915,0,0,1,1.257,2.966" transform="translate(-756.012 -390.445)"/>
            </g>
          </g>
        </g>
      </g>
    </g>
  </g>
</svg>
