<svg xmlns="http://www.w3.org/2000/svg" width="19.772" height="19.772" viewBox="0 0 19.772 19.772">
  <path id="Icon_awesome-linkedin-in" data-name="Icon awesome-linkedin-in" d="M4.426,19.772H.327V6.572h4.1Zm-2.052-15a2.385,2.385,0,1,1,2.374-2.4A2.394,2.394,0,0,1,2.374,4.771Zm17.394,15h-4.09V13.346c0-1.531-.031-3.5-2.131-3.5-2.131,0-2.458,1.664-2.458,3.385v6.536H6.993V6.572h3.931v1.8h.057a4.307,4.307,0,0,1,3.879-2.132c4.149,0,4.911,2.732,4.911,6.28v7.251Z" transform="translate(0 -0.001)" fill="#fff"/>
</svg>
