<svg xmlns="http://www.w3.org/2000/svg" width="17.123" height="17.123" viewBox="0 0 17.123 17.123">
  <path id="Icon_awesome-linkedin-in" data-name="Icon awesome-linkedin-in" d="M3.833,17.124H.283V5.692h3.55ZM2.056,4.132A2.066,2.066,0,1,1,4.112,2.057,2.073,2.073,0,0,1,2.056,4.132ZM17.12,17.124H13.577V11.559c0-1.326-.027-3.027-1.846-3.027C9.886,8.531,9.6,9.972,9.6,11.463v5.661H6.057V5.692h3.4V7.251h.05A3.73,3.73,0,0,1,12.87,5.4c3.593,0,4.253,2.366,4.253,5.439v6.28Z" transform="translate(0 -0.001)" fill="#fff"/>
</svg>
