<svg xmlns="http://www.w3.org/2000/svg" width="25.888" height="25.888" viewBox="0 0 25.888 25.888">
  <path id="Icon_awesome-linkedin-in" data-name="Icon awesome-linkedin-in" d="M5.795,25.888H.428V8.6H5.795ZM3.108,6.247A3.123,3.123,0,1,1,6.217,3.109,3.135,3.135,0,0,1,3.108,6.247ZM25.882,25.888H20.527V17.475c0-2.005-.04-4.577-2.79-4.577-2.79,0-3.218,2.179-3.218,4.432v8.558H9.157V8.6H14.3v2.358h.075a5.64,5.64,0,0,1,5.078-2.791c5.432,0,6.43,3.577,6.43,8.223v9.494Z" transform="translate(0 0)" fill="#44d0bd"/>
</svg>
