<svg xmlns="http://www.w3.org/2000/svg" width="21.93" height="17.818" viewBox="0 0 21.93 17.818">
  <path id="Icon_awesome-list-ul" data-name="Icon awesome-list-ul" d="M2.056,3.375A2.056,2.056,0,1,0,4.112,5.431,2.056,2.056,0,0,0,2.056,3.375Zm0,6.853a2.056,2.056,0,1,0,2.056,2.056A2.056,2.056,0,0,0,2.056,10.228Zm0,6.853a2.056,2.056,0,1,0,2.056,2.056,2.056,2.056,0,0,0-2.056-2.056Zm19.188.685H7.538a.685.685,0,0,0-.685.685v1.371a.685.685,0,0,0,.685.685H21.244a.685.685,0,0,0,.685-.685V18.452A.685.685,0,0,0,21.244,17.766Zm0-13.706H7.538a.685.685,0,0,0-.685.685V6.116a.685.685,0,0,0,.685.685H21.244a.685.685,0,0,0,.685-.685V4.746A.685.685,0,0,0,21.244,4.06Zm0,6.853H7.538a.685.685,0,0,0-.685.685v1.371a.685.685,0,0,0,.685.685H21.244a.685.685,0,0,0,.685-.685V11.6A.685.685,0,0,0,21.244,10.913Z" transform="translate(0 -3.375)" fill="#33dbce"/>
</svg>
