<svg id="Group_14069" data-name="Group 14069" xmlns="http://www.w3.org/2000/svg" width="33.065" height="47.252" viewBox="0 0 33.065 47.252">
  <path id="Icon_material-location-on-13" data-name="Icon material-location-on-13" d="M276.214,617.52h-.029a16.522,16.522,0,0,0-16.525,16.511v.029c0,3.7,1.467,7.929,3.543,12.038,4.85,9.656,12.982,18.674,12.982,18.674s8-8.843,12.866-18.413c2.135-4.2,3.674-8.524,3.674-12.3A16.544,16.544,0,0,0,276.214,617.52Zm-.029,10.63a5.91,5.91,0,1,1-5.9,5.91A5.915,5.915,0,0,1,276.185,628.15Z" transform="translate(-259.66 -617.52)" fill="#476899"/>
</svg>
