<?xml version="1.0" encoding="utf-8"?>
<!-- Generator: Adobe Illustrator 19.0.0, SVG Export Plug-In . SVG Version: 6.00 Build 0)  -->
<svg version="1.1" id="Layer_1" xmlns="http://www.w3.org/2000/svg" xmlns:xlink="http://www.w3.org/1999/xlink" x="0px" y="0px"
	 viewBox="-297 385.7 15.6 22.3" style="enable-background:new -297 385.7 15.6 22.3;" xml:space="preserve">
<style type="text/css">
	.st0{fill:#44BEED;}
</style>
<path id="Icon_material-location-on" class="st0" d="M-289.2,385.7c-4.3,0-7.8,3.5-7.8,7.8c0,0,0,0,0,0c0,5.8,7.8,14.5,7.8,14.5
	s7.8-8.6,7.8-14.5C-281.4,389.2-284.9,385.7-289.2,385.7C-289.2,385.7-289.2,385.7-289.2,385.7z M-289.2,396.3
	c-1.5,0-2.8-1.2-2.8-2.8c0-1.5,1.2-2.8,2.8-2.8c1.5,0,2.8,1.2,2.8,2.8C-286.4,395.1-287.7,396.3-289.2,396.3z"/>
</svg>
