<svg xmlns="http://www.w3.org/2000/svg" width="680" height="425.963" viewBox="0 0 680 425.963">
  <g id="Group_14027" data-name="Group 14027" transform="translate(-129 -393)">
    <circle id="Ellipse_2872" data-name="Ellipse 2872" cx="137" cy="137" r="137" transform="translate(129 393)" fill="#4d6c9c"/>
    <circle id="Ellipse_2873" data-name="Ellipse 2873" cx="69" cy="69" r="69" transform="translate(671 598)" fill="#e6e6e6"/>
    <g id="Group_14016" data-name="Group 14016" transform="translate(-23563 -4331.281)">
      <path id="Path_27567" data-name="Path 27567" d="M851.756,643.16H413.2a14.7,14.7,0,0,1-14.7-14.7h0q238.462-27.714,467.961,0h0A14.7,14.7,0,0,1,851.756,643.16Z" transform="translate(23393.5 4507.084)"/>
      <path id="Path_27568" data-name="Path 27568" d="M866.461,546.639,398.5,545.774l54.235-91.257.259-.432V252.965a18.587,18.587,0,0,1,18.59-18.589h319.2a18.587,18.587,0,0,1,18.589,18.59v202.5Z" transform="translate(23393.5 4589.766)" fill="#102441"/>
      <path id="Path_27569" data-name="Path 27569" d="M489.668,250.957a6.062,6.062,0,0,0-6.055,6.055V440.39a6.062,6.062,0,0,0,6.055,6.055H812.31a6.062,6.062,0,0,0,6.055-6.055V257.012a6.062,6.062,0,0,0-6.055-6.055Z" transform="translate(23374.992 4586.16)" fill="#fff"/>
      <path id="Path_27570" data-name="Path 27570" d="M487.713,531.718a2.6,2.6,0,0,0-2.358,1.51l-16.712,36.33a2.595,2.595,0,0,0,2.357,3.68H822.435a2.595,2.595,0,0,0,2.32-3.756l-18.165-36.33a2.582,2.582,0,0,0-2.32-1.434Z" transform="translate(23378.299 4525.107)"/>
      <circle id="Ellipse_2868" data-name="Ellipse 2868" cx="3.892" cy="3.892" r="3.892" transform="translate(24020.789 4826.304)" fill="#fff"/>
      <path id="Path_27571" data-name="Path 27571" d="M649.814,593.619a2.6,2.6,0,0,0-2.505,1.92l-4.192,15.57a2.595,2.595,0,0,0,2.505,3.27h79.721a2.594,2.594,0,0,0,2.451-3.444l-5.389-15.57a2.6,2.6,0,0,0-2.452-1.746Z" transform="translate(23340.326 4511.646)"/>
      <path id="Path_27572" data-name="Path 27572" d="M620.942,337.135v3.46H264.306l.268-.432v-3.028Z" transform="translate(23581.93 4703.688)"/>
      <circle id="Ellipse_2869" data-name="Ellipse 2869" cx="60.549" cy="60.549" r="60.549" transform="translate(24132.375 4777)" fill="#47bee2"/>
      <path id="Path_27573" data-name="Path 27573" d="M927.987,274.887h-50.17a3.463,3.463,0,0,1-3.46-3.46V241.152a3.464,3.464,0,0,1,3.46-3.46h50.169a3.464,3.464,0,0,1,3.46,3.46v30.275a3.463,3.463,0,0,1-3.46,3.46Zm-50.17-33.735v30.275H927.99l0-30.275Z" transform="translate(23290.021 4589.044)" fill="#fff"/>
      <path id="Path_27574" data-name="Path 27574" d="M922.078,233.461h-31.14v-13.84c0-10.024,6.548-17.3,15.57-17.3s15.57,7.276,15.57,17.3ZM894.4,230h24.22v-10.38c0-8.149-4.98-13.84-12.11-13.84s-12.11,5.691-12.11,13.84Z" transform="translate(23286.416 4596.736)" fill="#fff"/>
      <circle id="Ellipse_2870" data-name="Ellipse 2870" cx="3.46" cy="3.46" r="3.46" transform="translate(24189.465 4841.01)" fill="#fff"/>
      <path id="Path_27575" data-name="Path 27575" d="M786.246,401.529H536.9a4.623,4.623,0,0,1-4.618-4.618V335.059a4.623,4.623,0,0,1,4.618-4.618h249.35a4.623,4.623,0,0,1,4.618,4.618v61.853A4.623,4.623,0,0,1,786.246,401.529ZM536.9,332.288a2.774,2.774,0,0,0-2.771,2.771v61.853a2.774,2.774,0,0,0,2.771,2.771h249.35a2.774,2.774,0,0,0,2.77-2.771V335.059a2.774,2.774,0,0,0-2.771-2.771Z" transform="translate(23364.408 4568.875)" fill="#e6e6e6"/>
      <circle id="Ellipse_2871" data-name="Ellipse 2871" cx="18.81" cy="18.81" r="18.81" transform="translate(23921.24 4913.678)" fill="#e6e6e6"/>
      <path id="Path_27576" data-name="Path 27576" d="M642.332,356.805a3.135,3.135,0,1,0,0,6.27H790.121a3.135,3.135,0,0,0,0-6.27Z" transform="translate(23341.158 4563.143)" fill="#e6e6e6"/>
      <path id="Path_27577" data-name="Path 27577" d="M642.332,380.842a3.135,3.135,0,1,0,0,6.27h63.594a3.135,3.135,0,1,0,0-6.27Z" transform="translate(23341.158 4557.916)" fill="#e6e6e6"/>
    </g>
  </g>
</svg>
