<svg id="Group_14754" data-name="Group 14754" xmlns="http://www.w3.org/2000/svg" xmlns:xlink="http://www.w3.org/1999/xlink" width="86.809" height="86.808" viewBox="0 0 86.809 86.808">
  <defs>
    <clipPath id="clip-path">
      <rect id="Rectangle_3592" data-name="Rectangle 3592" width="86.809" height="86.808" fill="none"/>
    </clipPath>
  </defs>
  <g id="Group_14748" data-name="Group 14748" clip-path="url(#clip-path)">
    <path id="Path_29798" data-name="Path 29798" d="M71.8,98.989a3.066,3.066,0,0,1-2.188-.888,3.143,3.143,0,0,1,0-4.379A3.1,3.1,0,1,1,73.993,98.1a3.069,3.069,0,0,1-2.187.888ZM96.476,76.565a3.068,3.068,0,0,1-2.19-.886,3.142,3.142,0,0,1,0-4.377,3.144,3.144,0,0,1,4.379,0,3.142,3.142,0,0,1,0,4.377,3.068,3.068,0,0,1-2.189.881ZM35.715,69.7a3.07,3.07,0,0,1-2.19-.888,3.076,3.076,0,0,1,2.189-5.265,3.3,3.3,0,0,1,2.19.888,3.154,3.154,0,0,1,0,4.377,3.069,3.069,0,0,1-2.189.882Zm55.017-12.07a3.067,3.067,0,0,1-2.189-.886,3.027,3.027,0,0,1-.888-2.189,3.155,3.155,0,0,1,.888-2.19,3.076,3.076,0,0,1,5.265,2.19,3.3,3.3,0,0,1-.888,2.189,3.067,3.067,0,0,1-2.184.884ZM80.651,39.352a3.03,3.03,0,1,1,2.21-.886,3.2,3.2,0,0,1-2.2.885Zm-21.416,0a3.029,3.029,0,0,1-3.055-3.075,2.813,2.813,0,0,1,.888-2.189,3.144,3.144,0,0,1,4.379,0,3.146,3.146,0,0,1,0,4.377,3.2,3.2,0,0,1-2.206.885Z" transform="translate(-22.247 -22.631)" fill="#44d0bd"/>
    <path id="Path_29799" data-name="Path 29799" d="M38.335,87.322H1.417v-.059h3.5L22.96,69.217,32.6,78.859,42.78,68.684l2.248,2.248a6.253,6.253,0,0,0-.888,3.254,6.323,6.323,0,0,0,1.894,4.556,6.434,6.434,0,0,0,9.112,0,6.443,6.443,0,0,0-7.692-10.179l-4.615-4.615L32.663,74.124l-7.277-7.277L39.7,52.53,50.411,63.238l6.626-6.628,7.869,7.869,7.159-7.159a6.655,6.655,0,0,0,3.195.888,6.321,6.321,0,0,0,4.556-1.894,7.119,7.119,0,0,0,1.42-2.07,6.9,6.9,0,0,0,.474-2.486A6.322,6.322,0,0,0,79.816,47.2a6.5,6.5,0,0,0-9.11,0,6.321,6.321,0,0,0-1.892,4.556,6.007,6.007,0,0,0,.888,3.195l-4.793,4.792L57.04,51.877,50.413,58.5l-8.34-8.34,7.335-7.337L55.68,49.1,66.389,38.39a6.239,6.239,0,0,0,3.195.888,6.49,6.49,0,0,0,4.556-1.894,6.427,6.427,0,0,0,0-9.112,6.611,6.611,0,0,0-9.111,0,7.124,7.124,0,0,0-1.42,2.07,6.928,6.928,0,0,0-.474,2.486,6.666,6.666,0,0,0,.888,3.195l-8.34,8.34-3.9-3.9,7.633-7.633L51.546,24.96l4.791-4.791a6.239,6.239,0,0,0,3.195.888,6.489,6.489,0,0,0,4.556-1.894,6.429,6.429,0,0,0,0-9.111,6.612,6.612,0,0,0-9.112,0,6.322,6.322,0,0,0-1.894,4.556A6.023,6.023,0,0,0,53.97,17.8l-7.159,7.159,7.869,7.869L39.713,47.8l-8.461-8.283,6.628-6.626L30.01,25.02,34.8,20.229A6.235,6.235,0,0,0,38,21.116a6.49,6.49,0,0,0,4.556-1.894,6.5,6.5,0,0,0,0-9.111,6.611,6.611,0,0,0-9.111,0,6.322,6.322,0,0,0-1.893,4.556,6.008,6.008,0,0,0,.888,3.195l-7.16,7.159,7.869,7.869-6.626,6.626L37.228,50.226l-18.16,18.16-4.733-4.734L24.986,53l-4.971-4.969A6.439,6.439,0,0,0,9.839,40.4a6.433,6.433,0,0,0,0,9.112A6.5,6.5,0,0,0,14.4,51.405a6.657,6.657,0,0,0,3.313-.942l2.545,2.544L9.6,63.657l7.1,7.1L1.417,86.02V54.013a52.553,52.553,0,0,1,52.6-52.6h33.31V38.274A48.948,48.948,0,0,1,38.335,87.322Z" transform="translate(-0.966 -0.966)" fill="none" stroke="#fff" stroke-miterlimit="10" stroke-width="2"/>
  </g>
</svg>
