<svg xmlns="http://www.w3.org/2000/svg" width="31.956" height="20.419" viewBox="0 0 31.956 20.419">
  <path id="Icon_zocial-email" data-name="Icon zocial-email" d="M.072,22.679V5.877q0-.029.092-.554l10.447,8.459L.2,23.262a2.355,2.355,0,0,1-.123-.583ZM1.459,4.156a1.4,1.4,0,0,1,.524-.088H30.118a1.835,1.835,0,0,1,.555.088L20.2,12.644l-1.387,1.05-2.743,2.129-2.743-2.129-1.387-1.05ZM1.49,24.4,12,14.861l4.068,3.121,4.068-3.121L30.642,24.4a1.554,1.554,0,0,1-.524.088H1.983A1.466,1.466,0,0,1,1.49,24.4ZM21.52,13.782,31.936,5.322a1.657,1.657,0,0,1,.092.554v16.8a2.126,2.126,0,0,1-.092.583Z" transform="translate(-0.072 -4.068)" fill="#44d0bd"/>
</svg>
