<svg xmlns="http://www.w3.org/2000/svg" width="21.097" height="14.241" viewBox="0 0 21.097 14.241">
  <path id="Icon_zocial-email" data-name="Icon zocial-email" d="M.072,17.047V5.329q0-.02.061-.387l6.9,5.9L.153,17.454a1.724,1.724,0,0,1-.081-.407ZM.987,4.129a.877.877,0,0,1,.346-.061H19.907a1.152,1.152,0,0,1,.366.061l-6.917,5.92-.915.732-1.811,1.485L8.82,10.782,7.9,10.049Zm.02,14.119L7.945,11.6l2.685,2.177L13.316,11.6l6.937,6.652a.977.977,0,0,1-.346.061H1.333a.921.921,0,0,1-.326-.061Zm13.224-7.405,6.876-5.9a1.214,1.214,0,0,1,.061.387V17.047a1.559,1.559,0,0,1-.061.407Z" transform="translate(-0.072 -4.068)" fill="#fff"/>
</svg>
