<svg xmlns="http://www.w3.org/2000/svg" xmlns:xlink="http://www.w3.org/1999/xlink" width="83.497" height="83.554" viewBox="0 0 83.497 83.554">
  <defs>
    <clipPath id="clip-path">
      <rect id="Rectangle_3605" data-name="Rectangle 3605" width="62.326" height="56.651" fill="#fff"/>
    </clipPath>
  </defs>
  <g id="Group_14792" data-name="Group 14792" transform="translate(0 0)">
    <path id="Path_30296" data-name="Path 30296" d="M50.6,180.8v35.883a47.648,47.648,0,0,0,47.614,47.671H134.1V231.979a51.12,51.12,0,0,0-51.122-51.122H50.6Z" transform="translate(-50.6 -180.8)" fill="#44d0bd"/>
    <g id="Group_14784" data-name="Group 14784" transform="translate(10.586 13.452)">
      <g id="Group_14783" data-name="Group 14783" transform="translate(0 0)" clip-path="url(#clip-path)">
        <path id="Path_30284" data-name="Path 30284" d="M35.366,40.168a6.06,6.06,0,0,1-1.512-.663,3.932,3.932,0,0,0-2.543-.642c-.093.007-.228.039-.282-.011-.407-.364-.827-.036-1.238-.064a2.525,2.525,0,0,1-1.623-.778.867.867,0,0,0-.706-.314c-.046,0-.111.018-.139-.007-.35-.3-.56-.1-.888.111s-.76-.014-1.106-.2c-.428-.225-.806-.564-1.348-.449a.256.256,0,0,1-.214-.082c-.506-.728-1.32-.517-2.008-.635-.945-.164-1.041-.2-1.241-1.116-.029-.132-.1-.21-.221-.2-.592.021-1.052-.428-1.655-.442-.25-.007-.485-.328-.835-.335-.214,0-.175-.3-.118-.442.093-.243-.007-.35-.189-.464a5.761,5.761,0,0,0-2.165-1.02.257.257,0,0,1-.21-.175.758.758,0,0,0-.464-.46c-.71-.278-1.059-1.049-1.8-1.284a.565.565,0,0,1-.353-.371,1.872,1.872,0,0,0-.963-.945c-.524-.307-.546-.267-.232-.717-.071-.1-.175-.071-.264-.068A2.079,2.079,0,0,1,9.133,27.2a2.465,2.465,0,0,1-.339-1.544,2.415,2.415,0,0,0-.927-1.826c-.342-.282-.4-.553-.128-.9a.507.507,0,0,0-.036-.763c-.107-.107-.26-.26-.185-.414.1-.207.325-.068.474-.043a4.072,4.072,0,0,0,1.395-.007c-.4-.5-.6-1.1-1.131-1.462a2.265,2.265,0,0,1,.011-1.441c.168-.214.838-.161,1.07.1.071.082.111.228.243.178a.307.307,0,0,0,.157-.321c-.011-.235-.036-.474-.057-.724-.164.014-.328.193-.474-.011a.24.24,0,0,1-.036-.271.305.305,0,0,1,.414-.125.191.191,0,0,0,.253-.071c.071-.132-.025-.21-.118-.275-.128-.082-.36-.128-.071-.3.089-.057.228-.089.164-.243a.267.267,0,0,0-.271-.164.508.508,0,0,1-.581-.364c-.1-.246-.4-.307-.66-.314a.647.647,0,0,1-.706-.606c-.043-.428.278-.567.638-.617.246-.032.342-.143.435-.4a1.842,1.842,0,0,1,.617-1.056c.139-.089.339-.239,0-.41a.618.618,0,0,1-.075-.97c-.1-.143-.292-.1-.41-.2s-.221-.157-.021-.321c.278-.232.007-1.131-.346-1.216a1.273,1.273,0,0,0-1.138.068.666.666,0,0,1-.881-.111.629.629,0,0,1-.086-.806c.189-.414.357-.756.838-.888.214-.057.289-.328.435-.5.111-.128.193-.31.421-.225a.184.184,0,0,0,.268-.121.3.3,0,0,0-.089-.3.806.806,0,0,0-.467-.228c-.489-.111-.428-.36-.153-.745.061.467.325.542.681.478a.7.7,0,0,1,.635.121c.139.121.3.054.449-.021a.842.842,0,0,1,.51-.093c.171.025.325.175.478-.121.1-.185.35.114.567.136.057-.182.111-.364.171-.542.046-.139.121-.268.285-.289a.3.3,0,0,1,.328.218c.161.367.36.228.535.018.125-.153.218-.325.464-.225.086.036.2.039.246-.075s-.05-.171-.128-.228c-.157-.111-.36-.21-.268-.446s.264-.239.531-.228c.613.032.852.161,1.024.838a.581.581,0,0,0,.232.346c.207.157.457.321.317.621a.794.794,0,0,1-.706.424,1.155,1.155,0,0,0-1.127.606A3.376,3.376,0,0,1,11.347,8.98c-.556.225-.678.439-.542.931a.781.781,0,0,0,1.006.638,8.926,8.926,0,0,0,3.046-.877c.21-.125.268.029.342.185.232.478.317.5.72.185.1-.082.2-.136.285-.036.31.4.753.268,1.148.289.235.014.3.029.36.325.068.35.153.6-.082.92-.1.132.353.442-.078.6-.239.089-.464-.1-.763-.061.432.66-.161,1-.407,1.448-.021.039-.071.061-.1.1-.182.221-.628.432-.446.688.157.221.628.125.949.014a7.638,7.638,0,0,1,1.544-.631c.143-.018.285-.036.424-.061.178-.036.546.1.31-.335-.071-.128.078-.146.164-.164.189-.036.382-.057.567-.093a.966.966,0,0,0,.724-.464,2.047,2.047,0,0,1,1.437-.77c.3-.064.271.371.185.546-.307.635-.1,1.4-.571,2a1.807,1.807,0,0,1,.867-.667,1.114,1.114,0,0,0,.6-.72c.071-.225.214-.357.424-.268a5.5,5.5,0,0,1,1.591.849,3.161,3.161,0,0,1,.517.849c.075.132.075.314.253.385.164-.1.1-.257.118-.389.018-.164.086-.278.257-.292a.3.3,0,0,1,.325.232.778.778,0,0,1,.029.424c-.054.275-.218.617.332.514.05-.007.132.125.185.2.1.15.071.417.321.432.471.029.956.36,1.395.125a1.968,1.968,0,0,1,1.527.025.218.218,0,0,1,.125.132c.175.621.76.731,1.223.984.146.082.389.046.432.246.043.218-.2.253-.328.364-.043.039-.089.078-.175.157h.9c-.046.221-.264.442.007.671.075.064-.014.21-.1.292a.655.655,0,0,0-.146.578c0,.114-.021.232.121.282a.276.276,0,0,0,.342-.1c.214-.35.446-.2.735-.086.681.268.97.9,1.391,1.409.132.157.214.353.4.464.121.071.285.146.171.328a.356.356,0,0,1-.464.143,3.166,3.166,0,0,1-.485-.307c-.653-.449-1.1-.375-1.651.35.4-.232.731-.075,1.063-.075.207,0,.5,0,.446.282-.05.228-.193.6-.514.524-.449-.111-.506.078-.51.428,0,.1.011.268-.146.253-.674-.046-.278.564-.489.8-.029.032.064.178.168.2.086.025.15-.046.2-.107a1.032,1.032,0,0,0,.218-.367c.078-.5.467-.688.856-.863a.958.958,0,0,0,.328-.26,2.129,2.129,0,0,1,1.516-.6c.171-.018.364.043.342.239-.039.364-.107.806-.4.984a4.271,4.271,0,0,0-1.3,1.288,3.327,3.327,0,0,1-1.131.949c-.36.2-.068.574-.317.76a.257.257,0,0,0,.442-.014c.146-.2.353-.328.492-.517a.89.89,0,0,1,.92-.375.754.754,0,0,1,.506.86c.339-.638-.021-1.113-.257-1.609-.057-.121-.214-.271-.068-.382s.292.054.4.168a2.183,2.183,0,0,1,.549.706,1.049,1.049,0,0,0-.271-.7c-.078-.111-.228-.235-.054-.367.157-.121.26.011.353.128a2.46,2.46,0,0,0,.992.7c-.36-.207-.656-.5-.524-.92.111-.357.4.086.642-.032-.139-.2-.282-.389-.414-.589a.279.279,0,0,1-.046-.314c.093-.132.2.011.3.014.5.029.845.392,1.266.585.3.139.638-.054.917.232.774.788,1.855,1.227,2.525,2.14.161.221.442.246.646.4a10.8,10.8,0,0,1,1.826,2.2c.185.243-.107.25-.228.278a1.589,1.589,0,0,0-1.12.549c.8-.581,1.149.185,1.662.439v.1a2.346,2.346,0,0,0-.382.282,2.813,2.813,0,0,1-1.273,1.009c-.15.043-.15.193-.132.325a.335.335,0,0,0,.285.335c.157.021.317.018.478.036.185.021.257.082.132.278-.4.621-.385.621.171,1.134a.292.292,0,0,1,.036.46c-.164.182-.26.114-.367-.05-.039-.064-.114-.111-.161-.171-.139-.175-.325-.325-.528-.243a.45.45,0,0,0-.31.489.2.2,0,0,1-.146.257.334.334,0,0,0-.221.421.34.34,0,0,0,.382.289c.207-.011.282.132.171.275a.591.591,0,0,0,.032.852c.071.082.014.214-.011.325a3.268,3.268,0,0,0-.232,1.152c.014.164-.111.175-.2.225-.071.039-.2.046-.21-.032-.046-.392-.439-.638-.424-1.049a2.724,2.724,0,0,0-.5-1.441c-.25-.435-.339-1.02-.959-1.166-.029-.007.071-.239-.132-.2a.191.191,0,0,0-.168.207c.057.342-.05.749.153,1.02.278.367.025.621-.15.785-.2.185-.531.025-.674-.175a.667.667,0,0,0-.97-.246,1.184,1.184,0,0,1-.385.025c.389.517.581.974-.121,1.359-.207.114.025.717.218.638.528-.214.728.232,1.031.449a1,1,0,0,0,.542.257c-.021-.235-.2-.335-.314-.485-.071-.1-.221-.182-.114-.321a.285.285,0,0,1,.392-.057,4.037,4.037,0,0,0,.485.3c.325.121.371.21.161.489-.132.175-.292.328-.439.492.328-.153.514-.492.9-.549a5.893,5.893,0,0,1-2.015,1.873c-.185.075-.424.029-.556.232Z" transform="translate(15.96 12.696)" fill="#fff"/>
        <path id="Path_30285" data-name="Path 30285" d="M35.366,40.168a6.06,6.06,0,0,1-1.512-.663,3.932,3.932,0,0,0-2.543-.642c-.093.007-.228.039-.282-.011-.407-.364-.827-.036-1.238-.064a2.525,2.525,0,0,1-1.623-.778.867.867,0,0,0-.706-.314c-.046,0-.111.018-.139-.007-.35-.3-.56-.1-.888.111s-.76-.014-1.106-.2c-.428-.225-.806-.564-1.348-.449a.256.256,0,0,1-.214-.082c-.506-.728-1.32-.517-2.008-.635-.945-.164-1.041-.2-1.241-1.116-.029-.132-.1-.21-.221-.2-.592.021-1.052-.428-1.655-.442-.25-.007-.485-.328-.835-.335-.214,0-.175-.3-.118-.442.093-.243-.007-.35-.189-.464a5.761,5.761,0,0,0-2.165-1.02.257.257,0,0,1-.21-.175.758.758,0,0,0-.464-.46c-.71-.278-1.059-1.049-1.8-1.284a.565.565,0,0,1-.353-.371,1.872,1.872,0,0,0-.963-.945c-.524-.307-.546-.267-.232-.717-.071-.1-.175-.071-.264-.068A2.079,2.079,0,0,1,9.133,27.2a2.465,2.465,0,0,1-.339-1.544,2.415,2.415,0,0,0-.927-1.826c-.342-.282-.4-.553-.128-.9a.507.507,0,0,0-.036-.763c-.107-.107-.26-.26-.185-.414.1-.207.325-.068.474-.043a4.072,4.072,0,0,0,1.395-.007c-.4-.5-.6-1.1-1.131-1.462a2.265,2.265,0,0,1,.011-1.441c.168-.214.838-.161,1.07.1.071.082.111.228.243.178a.307.307,0,0,0,.157-.321c-.011-.235-.036-.474-.057-.724-.164.014-.328.193-.474-.011a.24.24,0,0,1-.036-.271.305.305,0,0,1,.414-.125.191.191,0,0,0,.253-.071c.071-.132-.025-.21-.118-.275-.128-.082-.36-.128-.071-.3.089-.057.228-.089.164-.243a.267.267,0,0,0-.271-.164.508.508,0,0,1-.581-.364c-.1-.246-.4-.307-.66-.314a.647.647,0,0,1-.706-.606c-.043-.428.278-.567.638-.617.246-.032.342-.143.435-.4a1.842,1.842,0,0,1,.617-1.056c.139-.089.339-.239,0-.41a.618.618,0,0,1-.075-.97c-.1-.143-.292-.1-.41-.2s-.221-.157-.021-.321c.278-.232.007-1.131-.346-1.216a1.273,1.273,0,0,0-1.138.068.666.666,0,0,1-.881-.111.629.629,0,0,1-.086-.806c.189-.414.357-.756.838-.888.214-.057.289-.328.435-.5.111-.128.193-.31.421-.225a.184.184,0,0,0,.268-.121.3.3,0,0,0-.089-.3.806.806,0,0,0-.467-.228c-.489-.111-.428-.36-.153-.745.061.467.325.542.681.478a.7.7,0,0,1,.635.121c.139.121.3.054.449-.021a.842.842,0,0,1,.51-.093c.171.025.325.175.478-.121.1-.185.35.114.567.136.057-.182.111-.364.171-.542.046-.139.121-.268.285-.289a.3.3,0,0,1,.328.218c.161.367.36.228.535.018.125-.153.218-.325.464-.225.086.036.2.039.246-.075s-.05-.171-.128-.228c-.157-.111-.36-.21-.268-.446s.264-.239.531-.228c.613.032.852.161,1.024.838a.581.581,0,0,0,.232.346c.207.157.457.321.317.621a.794.794,0,0,1-.706.424,1.155,1.155,0,0,0-1.127.606A3.376,3.376,0,0,1,11.347,8.98c-.556.225-.678.439-.542.931a.781.781,0,0,0,1.006.638,8.926,8.926,0,0,0,3.046-.877c.21-.125.268.029.342.185.232.478.317.5.72.185.1-.082.2-.136.285-.036.31.4.753.268,1.148.289.235.014.3.029.36.325.068.35.153.6-.082.92-.1.132.353.442-.078.6-.239.089-.464-.1-.763-.061.432.66-.161,1-.407,1.448-.021.039-.071.061-.1.1-.182.221-.628.432-.446.688.157.221.628.125.949.014a7.638,7.638,0,0,1,1.544-.631c.143-.018.285-.036.424-.061.178-.036.546.1.31-.335-.071-.128.078-.146.164-.164.189-.036.382-.057.567-.093a.966.966,0,0,0,.724-.464,2.047,2.047,0,0,1,1.437-.77c.3-.064.271.371.185.546-.307.635-.1,1.4-.571,2a1.807,1.807,0,0,1,.867-.667,1.114,1.114,0,0,0,.6-.72c.071-.225.214-.357.424-.268a5.5,5.5,0,0,1,1.591.849,3.161,3.161,0,0,1,.517.849c.075.132.075.314.253.385.164-.1.1-.257.118-.389.018-.164.086-.278.257-.292a.3.3,0,0,1,.325.232.778.778,0,0,1,.029.424c-.054.275-.218.617.332.514.05-.007.132.125.185.2.1.15.071.417.321.432.471.029.956.36,1.395.125a1.968,1.968,0,0,1,1.527.025.218.218,0,0,1,.125.132c.175.621.76.731,1.223.984.146.082.389.046.432.246.043.218-.2.253-.328.364-.043.039-.089.078-.175.157h.9c-.046.221-.264.442.007.671.075.064-.014.21-.1.292a.655.655,0,0,0-.146.578c0,.114-.021.232.121.282a.276.276,0,0,0,.342-.1c.214-.35.446-.2.735-.086.681.268.97.9,1.391,1.409.132.157.214.353.4.464.121.071.285.146.171.328a.356.356,0,0,1-.464.143,3.166,3.166,0,0,1-.485-.307c-.653-.449-1.1-.375-1.651.35.4-.232.731-.075,1.063-.075.207,0,.5,0,.446.282-.05.228-.193.6-.514.524-.449-.111-.506.078-.51.428,0,.1.011.268-.146.253-.674-.046-.278.564-.489.8-.029.032.064.178.168.2.086.025.15-.046.2-.107a1.032,1.032,0,0,0,.218-.367c.078-.5.467-.688.856-.863a.958.958,0,0,0,.328-.26,2.129,2.129,0,0,1,1.516-.6c.171-.018.364.043.342.239-.039.364-.107.806-.4.984a4.271,4.271,0,0,0-1.3,1.288,3.327,3.327,0,0,1-1.131.949c-.36.2-.068.574-.317.76a.257.257,0,0,0,.442-.014c.146-.2.353-.328.492-.517a.89.89,0,0,1,.92-.375.754.754,0,0,1,.506.86c.339-.638-.021-1.113-.257-1.609-.057-.121-.214-.271-.068-.382s.292.054.4.168a2.183,2.183,0,0,1,.549.706,1.049,1.049,0,0,0-.271-.7c-.078-.111-.228-.235-.054-.367.157-.121.26.011.353.128a2.46,2.46,0,0,0,.992.7c-.36-.207-.656-.5-.524-.92.111-.357.4.086.642-.032-.139-.2-.282-.389-.414-.589a.279.279,0,0,1-.046-.314c.093-.132.2.011.3.014.5.029.845.392,1.266.585.3.139.638-.054.917.232.774.788,1.855,1.227,2.525,2.14.161.221.442.246.646.4a10.8,10.8,0,0,1,1.826,2.2c.185.243-.107.25-.228.278a1.589,1.589,0,0,0-1.12.549c.8-.581,1.149.185,1.662.439v.1a2.346,2.346,0,0,0-.382.282,2.813,2.813,0,0,1-1.273,1.009c-.15.043-.15.193-.132.325a.335.335,0,0,0,.285.335c.157.021.317.018.478.036.185.021.257.082.132.278-.4.621-.385.621.171,1.134a.292.292,0,0,1,.036.46c-.164.182-.26.114-.367-.05-.039-.064-.114-.111-.161-.171-.139-.175-.325-.325-.528-.243a.45.45,0,0,0-.31.489.2.2,0,0,1-.146.257.334.334,0,0,0-.221.421.34.34,0,0,0,.382.289c.207-.011.282.132.171.275a.591.591,0,0,0,.032.852c.071.082.014.214-.011.325a3.268,3.268,0,0,0-.232,1.152c.014.164-.111.175-.2.225-.071.039-.2.046-.21-.032-.046-.392-.439-.638-.424-1.049a2.724,2.724,0,0,0-.5-1.441c-.25-.435-.339-1.02-.959-1.166-.029-.007.071-.239-.132-.2a.191.191,0,0,0-.168.207c.057.342-.05.749.153,1.02.278.367.025.621-.15.785-.2.185-.531.025-.674-.175a.667.667,0,0,0-.97-.246,1.184,1.184,0,0,1-.385.025c.389.517.581.974-.121,1.359-.207.114.025.717.218.638.528-.214.728.232,1.031.449a1,1,0,0,0,.542.257c-.021-.235-.2-.335-.314-.485-.071-.1-.221-.182-.114-.321a.285.285,0,0,1,.392-.057,4.037,4.037,0,0,0,.485.3c.325.121.371.21.161.489-.132.175-.292.328-.439.492.328-.153.514-.492.9-.549a5.893,5.893,0,0,1-2.015,1.873c-.185.075-.424.029-.556.232Z" transform="translate(15.96 12.696)" fill="#fff"/>
        <path id="Path_30286" data-name="Path 30286" d="M8.564.5A4.86,4.86,0,0,1,9.931.907.28.28,0,0,0,10.248.9a.218.218,0,0,1,.3.046c.139.464.638.364.913.613a.874.874,0,0,1,.214.706c.007.221.078.328.332.21a1.193,1.193,0,0,1,1.694.6c.35.778,1.127.906,1.766,1.234.232.121.4-.1.521-.31.1-.182.207-.375.467-.339a.53.53,0,0,1,.453.435.6.6,0,0,0,.5.46.572.572,0,0,1,.435.339c.153.367.41.328.71.189.845-.389,1.138-.21,1.2.706a.84.84,0,0,0,.881.742.626.626,0,0,1,.638.339A5.54,5.54,0,0,0,22.6,8.4a2.434,2.434,0,0,1,.735,1.041.538.538,0,0,1-.392.749c-.521.121-.9.649-1.5.528-.078-.018-.128.075-.171.146a.552.552,0,0,1-.706.232A2.728,2.728,0,0,0,19.34,11c-.432.064-.824-.268-1.263-.1-.185.071-.421.043-.531.264.153.221.353.178.6.168a4.34,4.34,0,0,1-.852.678c-.31.143-.535.638-1.013.321-.078-.054-.232.071-.328.164a.522.522,0,0,1-.439.143.671.671,0,0,0-.6.193c-.193.189-.482.039-.72-.029a.385.385,0,0,0-.46.078,1.884,1.884,0,0,1-.589.307,1.972,1.972,0,0,0-.485.2c-.307.257-.574.5-.867-.011-.029-.054-.182-.075-.264-.054a.382.382,0,0,1-.542-.353.485.485,0,0,0-.542-.432c-.474,0-.924-.2-1.412-.153a3.418,3.418,0,0,1-1.584-.417A1.052,1.052,0,0,0,6.663,12c-.467.146-.824.218-1.038-.407-.043-.128-.435-.36-.649-.567-.086-.086-.207-.153-.21-.3.1-.157.278-.029.392-.118a2.662,2.662,0,0,0-2.893-.892A1.559,1.559,0,0,1,.921,9.224C.8,9.064.9,9.01.982,8.914a1.289,1.289,0,0,0,.353-.867c-.011-.282-.1-.638.407-.585.078.007.143-.082.136-.168a.351.351,0,0,0-.185-.31.855.855,0,0,1-.182-1.437c.132-.128.246-.26.128-.46a.418.418,0,0,1-.054-.321c.089-.417-.1-.621-.5-.7A1.279,1.279,0,0,1,.5,3.86V2.419C.586,2.276.607,2,.807,2.048a3.786,3.786,0,0,0,.9,0c.589.025,1.216.089,1.552-.589.036-.075.15-.118.235-.153a3.667,3.667,0,0,1,2.322-.278c.153.036.382.075.432-.093.107-.339.268-.271.485-.143a.461.461,0,0,0,.46.018A3.314,3.314,0,0,1,8.179.5Z" transform="translate(1.283 1.284)" fill="#fff"/>
        <path id="Path_30287" data-name="Path 30287" d="M8.564.5A4.86,4.86,0,0,1,9.931.907.28.28,0,0,0,10.248.9a.218.218,0,0,1,.3.046c.139.464.638.364.913.613a.874.874,0,0,1,.214.706c.007.221.078.328.332.21a1.193,1.193,0,0,1,1.694.6c.35.778,1.127.906,1.766,1.234.232.121.4-.1.521-.31.1-.182.207-.375.467-.339a.53.53,0,0,1,.453.435.6.6,0,0,0,.5.46.572.572,0,0,1,.435.339c.153.367.41.328.71.189.845-.389,1.138-.21,1.2.706a.84.84,0,0,0,.881.742.626.626,0,0,1,.638.339A5.54,5.54,0,0,0,22.6,8.4a2.434,2.434,0,0,1,.735,1.041.538.538,0,0,1-.392.749c-.521.121-.9.649-1.5.528-.078-.018-.128.075-.171.146a.552.552,0,0,1-.706.232A2.728,2.728,0,0,0,19.34,11c-.432.064-.824-.268-1.263-.1-.185.071-.421.043-.531.264.153.221.353.178.6.168a4.34,4.34,0,0,1-.852.678c-.31.143-.535.638-1.013.321-.078-.054-.232.071-.328.164a.522.522,0,0,1-.439.143.671.671,0,0,0-.6.193c-.193.189-.482.039-.72-.029a.385.385,0,0,0-.46.078,1.884,1.884,0,0,1-.589.307,1.972,1.972,0,0,0-.485.2c-.307.257-.574.5-.867-.011-.029-.054-.182-.075-.264-.054a.382.382,0,0,1-.542-.353.485.485,0,0,0-.542-.432c-.474,0-.924-.2-1.412-.153a3.418,3.418,0,0,1-1.584-.417A1.052,1.052,0,0,0,6.663,12c-.467.146-.824.218-1.038-.407-.043-.128-.435-.36-.649-.567-.086-.086-.207-.153-.21-.3.1-.157.278-.029.392-.118a2.662,2.662,0,0,0-2.893-.892A1.559,1.559,0,0,1,.921,9.224C.8,9.064.9,9.01.982,8.914a1.289,1.289,0,0,0,.353-.867c-.011-.282-.1-.638.407-.585.078.007.143-.082.136-.168a.351.351,0,0,0-.185-.31.855.855,0,0,1-.182-1.437c.132-.128.246-.26.128-.46a.418.418,0,0,1-.054-.321c.089-.417-.1-.621-.5-.7A1.279,1.279,0,0,1,.5,3.86V2.419C.586,2.276.607,2,.807,2.048a3.786,3.786,0,0,0,.9,0c.589.025,1.216.089,1.552-.589.036-.075.15-.118.235-.153a3.667,3.667,0,0,1,2.322-.278c.153.036.382.075.432-.093.107-.339.268-.271.485-.143a.461.461,0,0,0,.46.018A3.314,3.314,0,0,1,8.179.5Z" transform="translate(1.283 1.284)" fill="#fff"/>
        <path id="Path_30288" data-name="Path 30288" d="M6.885,6.69c.107-.25.125-.46.321-.621s.121-.339-.107-.432a.854.854,0,0,1-.578-.827c0-.121.032-.25-.121-.375s-.054-.346.1-.449c.41-.282.706-.189.952.26.506-.571.514-.571,1.113,0,.171-.114.025-.3.118-.467.185,0,.335.093.342.285.011.35.182.474.51.482A.858.858,0,0,1,10.18,5c.121.157.15.375.353.489.136.078.1.232.018.342-.132.182-.178.432-.474.489-.688.128-1.384.2-2.069.36a5.1,5.1,0,0,1-1.124.014" transform="translate(16.239 9.703)" fill="#fff"/>
        <path id="Path_30289" data-name="Path 30289" d="M6.885,6.69c.107-.25.125-.46.321-.621s.121-.339-.107-.432a.854.854,0,0,1-.578-.827c0-.121.032-.25-.121-.375s-.054-.346.1-.449c.41-.282.706-.189.952.26.506-.571.514-.571,1.113,0,.171-.114.025-.3.118-.467.185,0,.335.093.342.285.011.35.182.474.51.482A.858.858,0,0,1,10.18,5c.121.157.15.375.353.489.136.078.1.232.018.342-.132.182-.178.432-.474.489-.688.128-1.384.2-2.069.36A5.1,5.1,0,0,1,6.885,6.69Z" transform="translate(16.239 9.703)" fill="#fff"/>
      </g>
    </g>
  </g>
</svg>
