<?xml version="1.0" encoding="utf-8"?>
<!-- Generator: Adobe Illustrator 19.0.0, SVG Export Plug-In . SVG Version: 6.00 Build 0)  -->
<svg version="1.1" id="Layer_1" xmlns="http://www.w3.org/2000/svg" xmlns:xlink="http://www.w3.org/1999/xlink" x="0px" y="0px"
	 viewBox="376.6 22 663.7 145.3" style="enable-background:new 376.6 22 663.7 145.3;" xml:space="preserve">
<style type="text/css">
	.st0{fill:#FFFFFF;}
	.st1{fill:#44D0BD;}
</style>
<g>
	<g>
		<path class="st0" d="M633.4,53.6l-36.1,62.3l-36.5-62.3h-7.3v84h8.5V70.7l33,56.2h4.2l33-56.6v67.2h8.5v-84h-7.3V53.6z"/>
		<path class="st0" d="M701.8,53.6H693l-38.4,84h9.2l10.2-22.4h46.8l10.1,22.5h9.4L701.8,53.6z M677.2,108l20.2-45.2l20.2,45.2
			H677.2z"/>
		<path class="st0" d="M834.2,53.6L798,116l-36.5-62.3h-7.3v84h8.5V70.8l33,56.2h4.2l33-56.6v67.2h8.5v-84L834.2,53.6L834.2,53.6z"
			/>
		<path class="st0" d="M934.6,101.5c-3-3.6-7.3-6-12.8-7.1c4-1.6,7.2-4,9.4-7.3s3.4-7.2,3.4-11.8c0-6.9-2.6-12.2-7.7-16
			c-5.2-3.8-12.4-5.6-21.8-5.6h-36.3v84h38.7c10.4,0,18.3-1.9,23.6-5.8s8-9.4,8-16.6C939.1,109.6,937.6,105,934.6,101.5z M877.8,61
			h26.8c6.8,0,12,1.3,15.7,3.9c3.7,2.6,5.5,6.4,5.5,11.3c0,5-1.8,8.8-5.5,11.3c-3.7,2.6-8.9,3.9-15.7,3.9h-26.8V61z M924.5,126.5
			c-3.8,2.6-9.5,3.8-17.1,3.8h-29.7V98.7h29.7c15.2,0,22.8,5.2,22.8,15.7C930.2,120,928.3,124,924.5,126.5z"/>
		<path class="st0" d="M1034.5,73.7c-3.8-6.5-9.1-11.6-15.8-15.3s-14.2-5.5-22.5-5.5s-15.9,1.9-22.6,5.6
			c-6.8,3.7-12.1,8.8-15.9,15.3c-3.8,6.5-5.7,13.8-5.7,21.9c0,8.1,1.9,15.4,5.7,21.9s9.1,11.6,15.9,15.3c6.8,3.7,14.3,5.6,22.6,5.6
			s15.8-1.8,22.5-5.5s11.9-8.8,15.8-15.3c3.9-6.5,5.8-13.8,5.8-21.9C1040.2,87.6,1038.3,80.3,1034.5,73.7z M1026.8,113.5
			c-3.1,5.3-7.2,9.5-12.6,12.5c-5.4,3-11.4,4.5-18,4.5s-12.7-1.5-18.1-4.5c-5.4-3-9.7-7.2-12.7-12.5c-3.1-5.3-4.6-11.3-4.6-17.8
			c0-6.6,1.5-12.5,4.6-17.8s7.3-9.5,12.7-12.5s11.4-4.5,18.1-4.5c6.6,0,12.7,1.5,18,4.5c5.4,3,9.6,7.2,12.6,12.5
			c3,5.3,4.6,11.3,4.6,17.8C1031.3,102.2,1029.8,108.2,1026.8,113.5z"/>
	</g>
	<path class="st1" d="M521.8,22v62.4c0,45.8-37.1,82.9-82.8,82.9h-62.4l0,0V111c0-49.1,39.8-88.9,88.9-88.9h56.3V22z"/>
	<path class="st0" d="M487.9,71.6c1-1,2.3-1.5,3.7-1.5s2.7,0.5,3.7,1.5s1.5,2.3,1.5,3.7s-0.6,2.7-1.5,3.7c-2,2-5.4,2-7.4,0
		c-1-1-1.5-2.3-1.5-3.7C486.4,74,486.9,72.6,487.9,71.6z M470.9,40.7c1-1,2.3-1.5,3.7-1.5s2.7,0.5,3.7,1.5s1.5,2.3,1.5,3.7
		s-0.5,2.7-1.5,3.7c-2.1,2-5.4,2-7.4,0c-1-1-1.5-2.3-1.5-3.7S469.9,41.7,470.9,40.7z M434.7,40.7c1-1,2.3-1.5,3.7-1.5
		s2.7,0.5,3.7,1.5c2,2,2,5.4,0,7.4c-2.1,2-5.4,2-7.4,0c-1-1-1.5-2.3-1.5-3.7C433.1,43,433.7,41.7,434.7,40.7z M402.3,99.4
		c-2,2-5.4,2-7.4,0c-1-1-1.5-2.3-1.5-3.7s0.5-2.7,1.5-3.7s2.3-1.5,3.7-1.5s2.7,0.6,3.7,1.5C404.3,94,404.3,97.3,402.3,99.4z
		 M455.9,141.5c1-1,2.4-1.5,3.7-1.5c1.3,0,2.7,0.5,3.7,1.5c2,2,2,5.4,0,7.4s-5.4,2-7.4,0c-1-1-1.5-2.3-1.5-3.7
		C454.4,143.8,454.9,142.5,455.9,141.5z M505,111L505,111c-2,2-5.4,2-7.4,0c-1-1-1.5-2.3-1.5-3.7s0.5-2.7,1.5-3.7s2.4-1.5,3.7-1.5
		c1.3,0,2.7,0.5,3.7,1.5s1.5,2.3,1.5,3.7S506,110,505,111z M376.6,167.2L376.6,167.2h5.9l30.5-30.5l16.3,16.3l17.2-17.2l3.8,3.8
		c-1,1.7-1.5,3.5-1.5,5.5c0,2.9,1.1,5.6,3.2,7.7s4.9,3.2,7.7,3.2c2.8,0,5.6-1.1,7.7-3.2c4.2-4.2,4.2-11.2,0-15.4
		c-3.5-3.5-8.9-4.1-13-1.8l-7.8-7.8L429.4,145l-12.3-12.3l24.2-24.2l18.1,18.1l11.2-11.2l13.3,13.3l12.1-12.1
		c1.6,0.9,3.5,1.5,5.4,1.5c2.9,0,5.6-1.1,7.7-3.2c1-1,1.8-2.2,2.4-3.5c0.5-1.3,0.8-2.7,0.8-4.2c0-2.9-1.1-5.6-3.2-7.7
		c-4.2-4.2-11.2-4.2-15.4,0c-2.1,2.1-3.2,4.8-3.2,7.7c0,1.9,0.5,3.8,1.5,5.4l-8.1,8.1l-13.3-13.3l-11.2,11.2l-14.1-14.1l12.4-12.4
		l10.6,10.6l18.1-18.1c1.7,1,3.5,1.5,5.4,1.5c2.8,0,5.6-1.1,7.7-3.2c2.1-2.1,3.2-4.8,3.2-7.7s-1.1-5.7-3.2-7.7
		c-4.1-4.1-11.3-4.1-15.4,0c-1,1-1.8,2.2-2.4,3.5c-0.5,1.3-0.8,2.7-0.8,4.2c0,1.9,0.6,3.8,1.5,5.4l-14.1,14.1l-6.6-6.6l12.9-12.9
		l-13.3-13.3l8.1-8.1c1.7,1,3.5,1.5,5.4,1.5c2.8,0,5.6-1.1,7.7-3.2c2.1-2.1,3.2-4.8,3.2-7.7s-1.1-5.6-3.2-7.7
		c-4.1-4.1-11.3-4.1-15.4,0l0,0c-2.1,2.1-3.2,4.8-3.2,7.7c0,1.9,0.5,3.8,1.5,5.4l-12.1,12.1l13.3,13.3l-25.3,25.3l-14.3-14
		l11.2-11.2L424.9,62l8.1-8.1c1.7,1,3.5,1.5,5.4,1.5c2.8,0,5.6-1.1,7.7-3.2c4.2-4.2,4.2-11.2,0-15.4c-4.1-4.1-11.3-4.1-15.4,0l0,0
		c-2.1,2.1-3.2,4.8-3.2,7.7c0,1.9,0.5,3.8,1.5,5.4L416.9,62l13.3,13.3L419,86.5l18.1,18.1l-30.7,30.7l-8-8l18-18l-8.4-8.4
		c2.3-4.1,1.7-9.4-1.8-12.9c-4.1-4.1-11.3-4.1-15.4,0c-2.1,2.1-3.2,4.8-3.2,7.7c0,2.9,1.1,5.7,3.2,7.7c2.1,2.1,4.9,3.2,7.7,3.2
		c1.9,0,3.9-0.6,5.6-1.6l4.3,4.3l-18,18l12,12l-25.8,25.8V167.2L376.6,167.2z"/>
</g>
</svg>
