<?xml version="1.0" encoding="utf-8"?>
<!-- Generator: Adobe Illustrator 26.2.1, SVG Export Plug-In . SVG Version: 6.00 Build 0)  -->
<svg version="1.1" id="Layer_1" xmlns="http://www.w3.org/2000/svg" xmlns:xlink="http://www.w3.org/1999/xlink" x="0px" y="0px"
	 viewBox="0 0 763.7 509.8" style="enable-background:new 0 0 763.7 509.8;" xml:space="preserve">
<style type="text/css">
	.st0{fill:#1D1D3D;}
	.st1{fill:#44D0BD;}
	.st2{fill:#FFFFFF;}
</style>
<g>
	<g>
		<path class="st0" d="M307.4,212.4l-36.1,62.3l-36.5-62.3h-7.3v84h8.5v-66.9l33,56.2h4.2l33-56.6v67.2h8.5v-84H307.4z"/>
		<path class="st0" d="M375.8,212.4h-8.8l-38.4,84h9.2L348,274h46.8l10.1,22.5h9.4L375.8,212.4z M351.2,266.8l20.2-45.2l20.2,45.2
			H351.2z"/>
		<path class="st0" d="M508.2,212.4L472,274.8l-36.5-62.3h-7.3v84h8.5v-66.9l33,56.2h4.2l33-56.6v67.2h8.5v-84H508.2z"/>
		<path class="st0" d="M608.6,260.3c-3-3.6-7.3-6-12.8-7.1c4-1.6,7.1-4,9.4-7.3c2.3-3.2,3.4-7.2,3.4-11.8c0-6.9-2.6-12.2-7.7-16
			c-5.2-3.8-12.4-5.6-21.8-5.6h-36.3v84h38.7c10.4,0,18.3-1.9,23.6-5.8c5.3-3.9,8-9.4,8-16.6C613.1,268.4,611.6,263.8,608.6,260.3z
			 M551.8,219.8h26.8c6.8,0,12,1.3,15.7,3.9c3.7,2.6,5.5,6.4,5.5,11.3c0,5-1.8,8.8-5.5,11.3c-3.7,2.6-8.9,3.9-15.7,3.9h-26.8V219.8z
			 M598.5,285.3c-3.8,2.6-9.5,3.8-17,3.8h-29.7v-31.6h29.7c15.2,0,22.8,5.2,22.8,15.7C604.2,278.8,602.3,282.8,598.5,285.3z"/>
		<path class="st0" d="M708.5,232.5c-3.8-6.5-9.1-11.6-15.8-15.3c-6.7-3.7-14.2-5.5-22.5-5.5c-8.3,0-15.9,1.9-22.6,5.6
			c-6.8,3.7-12.1,8.8-15.9,15.3c-3.8,6.5-5.7,13.8-5.7,21.9c0,8.1,1.9,15.4,5.7,21.9c3.8,6.5,9.1,11.6,15.9,15.3
			c6.8,3.7,14.3,5.6,22.6,5.6c8.3,0,15.8-1.8,22.5-5.5s12-8.8,15.8-15.3c3.8-6.5,5.8-13.8,5.8-21.9
			C714.2,246.4,712.3,239.1,708.5,232.5z M700.8,272.3c-3,5.3-7.2,9.5-12.6,12.5c-5.4,3-11.4,4.5-18,4.5c-6.6,0-12.7-1.5-18.1-4.5
			c-5.4-3-9.6-7.2-12.7-12.5c-3.1-5.3-4.6-11.3-4.6-17.8c0-6.6,1.5-12.5,4.6-17.8c3.1-5.3,7.3-9.5,12.7-12.5
			c5.4-3,11.4-4.5,18.1-4.5c6.6,0,12.7,1.5,18,4.5c5.4,3,9.6,7.2,12.6,12.5c3,5.3,4.6,11.3,4.6,17.8
			C705.3,261,703.8,267,700.8,272.3z"/>
	</g>
	<path class="st1" d="M195.8,180.8v62.4c0,45.8-37.1,82.9-82.8,82.9H50.6l0,0v-56.3c0-49.1,39.8-88.9,88.9-88.9H195.8z"/>
	<path class="st2" d="M161.9,230.4c1-1,2.3-1.5,3.7-1.5c1.4,0,2.7,0.5,3.7,1.5s1.5,2.3,1.5,3.7c0,1.4-0.6,2.7-1.5,3.7
		c-2,2-5.4,2-7.4,0c-1-1-1.5-2.3-1.5-3.7C160.4,232.8,160.9,231.4,161.9,230.4z M144.9,199.5c1-1,2.3-1.5,3.7-1.5s2.7,0.5,3.7,1.5
		c1,1,1.5,2.3,1.5,3.7c0,1.4-0.5,2.7-1.5,3.7c-2.1,2-5.4,2-7.4,0c-1-1-1.5-2.3-1.5-3.7C143.4,201.8,143.9,200.5,144.9,199.5z
		 M108.7,199.5c1-1,2.3-1.5,3.7-1.5s2.7,0.5,3.7,1.5c2,2,2,5.4,0,7.4c-2.1,2-5.4,2-7.4,0c-1-1-1.5-2.3-1.5-3.7
		C107.1,201.8,107.7,200.5,108.7,199.5z M76.3,258.2c-2,2-5.4,2-7.4,0c-1-1-1.5-2.3-1.5-3.7c0-1.4,0.5-2.7,1.5-3.7s2.3-1.5,3.7-1.5
		c1.4,0,2.7,0.6,3.7,1.5C78.3,252.8,78.3,256.1,76.3,258.2z M129.9,300.3c1-1,2.4-1.5,3.7-1.5c1.3,0,2.7,0.5,3.7,1.5
		c2,2,2,5.4,0,7.4c-2,2-5.4,2-7.4,0c-1-1-1.5-2.3-1.5-3.7C128.4,302.6,128.9,301.3,129.9,300.3z M179,269.8L179,269.8
		c-2,2-5.4,2-7.4,0c-1-1-1.5-2.3-1.5-3.7s0.5-2.7,1.5-3.7c1-1,2.4-1.5,3.7-1.5c1.3,0,2.7,0.5,3.7,1.5c1,1,1.5,2.3,1.5,3.7
		S180,268.8,179,269.8z M50.6,326L50.6,326l5.9,0l30.5-30.5l16.3,16.3l17.2-17.2l3.8,3.8c-1,1.7-1.6,3.5-1.6,5.5
		c0,2.9,1.1,5.6,3.2,7.7c2.1,2.1,4.9,3.2,7.7,3.2c2.8,0,5.6-1.1,7.7-3.2c4.2-4.2,4.2-11.2,0-15.4c-3.5-3.5-8.9-4.1-13-1.8l-7.8-7.8
		l-17.2,17.2l-12.3-12.3l24.2-24.2l18.1,18.1l11.2-11.2l13.3,13.3l12.1-12.1c1.6,0.9,3.5,1.5,5.4,1.5c2.9,0,5.7-1.1,7.7-3.2
		c1-1,1.8-2.2,2.4-3.5c0.5-1.3,0.8-2.7,0.8-4.2c0-2.9-1.1-5.6-3.2-7.7c-4.2-4.2-11.2-4.2-15.4,0c-2.1,2.1-3.2,4.8-3.2,7.7
		c0,1.9,0.5,3.8,1.5,5.4l-8.1,8.1l-13.3-13.3l-11.2,11.2l-14.1-14.1l12.4-12.4l10.6,10.6l18.1-18.1c1.7,1,3.5,1.5,5.4,1.5
		c2.8,0,5.6-1.1,7.7-3.2c2.1-2.1,3.2-4.8,3.2-7.7c0-2.9-1.1-5.7-3.2-7.7c-4.1-4.1-11.3-4.1-15.4,0c-1,1-1.8,2.2-2.4,3.5
		c-0.5,1.3-0.8,2.7-0.8,4.2c0,1.9,0.6,3.8,1.5,5.4l-14.1,14.1l-6.6-6.6l12.9-12.9l-13.3-13.3l8.1-8.1c1.7,1,3.5,1.5,5.4,1.5
		c2.8,0,5.6-1.1,7.7-3.2c2.1-2.1,3.2-4.8,3.2-7.7c0-2.9-1.1-5.6-3.2-7.7c-4.1-4.1-11.3-4.1-15.4,0v0c-2.1,2.1-3.2,4.8-3.2,7.7
		c0,1.9,0.5,3.8,1.5,5.4l-12.1,12.1l13.3,13.3l-25.3,25.3L101,245.3l11.2-11.2l-13.3-13.3l8.1-8.1c1.7,1,3.5,1.5,5.4,1.5
		c2.8,0,5.6-1.1,7.7-3.2c4.2-4.2,4.2-11.2,0-15.4c-4.1-4.1-11.3-4.1-15.4,0v0c-2.1,2.1-3.2,4.8-3.2,7.7c0,1.9,0.5,3.8,1.5,5.4
		l-12.1,12.1l13.3,13.3L93,245.3l18.1,18.1l-30.7,30.7l-8-8l18-18l-8.4-8.4c2.3-4.1,1.7-9.4-1.8-12.9c-4.1-4.1-11.3-4.1-15.4,0
		c-2.1,2.1-3.2,4.8-3.2,7.7c0,2.9,1.1,5.7,3.2,7.7c2.1,2.1,4.9,3.2,7.7,3.2c1.9,0,3.9-0.6,5.6-1.6l4.3,4.3l-18,18l12,12l-25.8,25.8
		V326z"/>
</g>
</svg>
