<svg xmlns="http://www.w3.org/2000/svg" width="144.397" height="183.276" viewBox="0 0 144.397 183.276">
  <g id="Group_14833" data-name="Group 14833" transform="translate(-633.801 -851.786)">
    <g id="Group_14736" data-name="Group 14736" transform="translate(778.198 851.786) rotate(90)">
      <path id="Union_1" data-name="Union 1" d="M0,72.2q0-1.519.062-3.022A72.261,72.261,0,0,1,139.874,46.771l43.4,25.428-43.4,25.429A72.259,72.259,0,0,1,0,72.2Z" transform="translate(0)" fill="#33dbce"/>
      <ellipse id="Ellipse_2902" data-name="Ellipse 2902" cx="58.901" cy="58.137" rx="58.901" ry="58.137" transform="translate(13.194 14.063)" fill="#0d2557"/>
    </g>
    <g id="Group_14738" data-name="Group 14738" transform="translate(677.554 894.455)">
      <path id="Icon_awesome-play" data-name="Icon awesome-play" d="M21.173,10.712,3.612.33A2.381,2.381,0,0,0,0,2.39V23.149a2.393,2.393,0,0,0,3.612,2.06L21.173,14.833A2.392,2.392,0,0,0,21.173,10.712Z" transform="translate(19.867 16.573)" fill="#fff"/>
      <g id="Ellipse_2904" data-name="Ellipse 2904" transform="translate(0.318 -0.455)" fill="none" stroke="#fff" stroke-width="2">
        <ellipse cx="28.5" cy="29" rx="28.5" ry="29" stroke="none"/>
        <ellipse cx="28.5" cy="29" rx="27.5" ry="28" fill="none"/>
      </g>
    </g>
  </g>
</svg>
