<svg xmlns="http://www.w3.org/2000/svg" width="144.397" height="183.276" viewBox="0 0 144.397 183.276">
  <g id="Group_14832" data-name="Group 14832" transform="translate(-240.302 -851.786)">
    <g id="Group_14737" data-name="Group 14737" transform="translate(384.699 851.786) rotate(90)">
      <path id="Union_1" data-name="Union 1" d="M0,72.2q0-1.519.062-3.022A72.261,72.261,0,0,1,139.874,46.771l43.4,25.428-43.4,25.429A72.259,72.259,0,0,1,0,72.2Z" transform="translate(0)" fill="#33dbce"/>
      <ellipse id="Ellipse_2902" data-name="Ellipse 2902" cx="58.901" cy="58.137" rx="58.901" ry="58.137" transform="translate(13.194 14.063)" fill="#0d2557"/>
    </g>
    <g id="Group_14671" data-name="Group 14671" transform="translate(288.551 894.816)">
      <g id="Group_14670" data-name="Group 14670" transform="translate(0)">
        <g id="Rectangle_3439" data-name="Rectangle 3439" transform="translate(0)" fill="none" stroke="#fff" stroke-width="2">
          <rect width="47.898" height="56.56" rx="3" stroke="none"/>
          <rect x="1" y="1" width="45.898" height="54.56" rx="2" fill="none"/>
        </g>
        <rect id="Rectangle_3441" data-name="Rectangle 3441" width="37.757" height="13.47" rx="3" transform="translate(5.07 6.47)" fill="#fff"/>
        <rect id="Rectangle_3442" data-name="Rectangle 3442" width="37.757" height="1.69" rx="0.845" transform="translate(5.07 27.25)" fill="#fff"/>
        <rect id="Rectangle_3579" data-name="Rectangle 3579" width="37.757" height="1.69" rx="0.845" transform="translate(5.07 45.923)" fill="#fff"/>
        <rect id="Rectangle_3443" data-name="Rectangle 3443" width="37.757" height="1.69" rx="0.845" transform="translate(5.07 36.586)" fill="#fff"/>
      </g>
    </g>
  </g>
</svg>
