<svg xmlns="http://www.w3.org/2000/svg" xmlns:xlink="http://www.w3.org/1999/xlink" width="144.397" height="183.276" viewBox="0 0 144.397 183.276">
  <defs>
    <clipPath id="clip-path">
      <rect id="Rectangle_3444" data-name="Rectangle 3444" width="67.926" height="53.212" fill="rgba(0,0,0,0)" stroke="#707070" stroke-width="2"/>
    </clipPath>
  </defs>
  <g id="Group_14830" data-name="Group 14830" transform="translate(-633.801 -497.129)">
    <g id="Group_14733" data-name="Group 14733" transform="translate(778.198 497.129) rotate(90)">
      <path id="Union_1" data-name="Union 1" d="M0,72.2q0-1.519.062-3.022A72.261,72.261,0,0,1,139.874,46.771l43.4,25.428-43.4,25.429A72.259,72.259,0,0,1,0,72.2Z" transform="translate(0)" fill="#33dbce"/>
      <ellipse id="Ellipse_2902" data-name="Ellipse 2902" cx="58.901" cy="58.137" rx="58.901" ry="58.137" transform="translate(13.194 14.063)" fill="#0d2557"/>
    </g>
    <g id="Group_14660" data-name="Group 14660" transform="translate(672.036 541.594)">
      <g id="Group_14659" data-name="Group 14659" clip-path="url(#clip-path)">
        <path id="Path_28520" data-name="Path 28520" d="M1.5,11.342v39.8a1.838,1.838,0,0,0,2.522,1.708l15.092-6.868a1.322,1.322,0,0,0,.773-1.2V3.449a1.321,1.321,0,0,0-1.812-1.226L3.811,7.928A3.678,3.678,0,0,0,1.5,11.342ZM23.567,44.675a1.321,1.321,0,0,0,.9,1.253l12.992,4.331L43.89,52.4a1.321,1.321,0,0,0,1.739-1.254V9.805a1.321,1.321,0,0,0-.9-1.253L41.633,7.521,25.306,2.078a1.321,1.321,0,0,0-1.739,1.254ZM65.174,1.632,50.081,8.5a1.322,1.322,0,0,0-.773,1.2V51.03a1.321,1.321,0,0,0,1.812,1.226l14.263-5.7a3.677,3.677,0,0,0,2.311-3.414V3.339a1.839,1.839,0,0,0-2.523-1.708Z" transform="translate(-0.634 -0.634)" fill="rgba(0,0,0,0)" stroke="#fff" stroke-width="2"/>
        <line id="Line_52" data-name="Line 52" x2="14.027" y2="3.914" transform="translate(26.752 9.389)" fill="none" stroke="#fff" stroke-linecap="round" stroke-width="2"/>
        <line id="Line_53" data-name="Line 53" x2="14.027" y2="3.914" transform="translate(26.752 15.975)" fill="none" stroke="#fff" stroke-linecap="round" stroke-width="2"/>
        <line id="Line_54" data-name="Line 54" y1="3.508" x2="8.465" transform="translate(54.139 41.247)" fill="none" stroke="#fff" stroke-linecap="round" stroke-width="2"/>
        <line id="Line_62" data-name="Line 62" y1="3.508" x2="8.465" transform="translate(54.139 34.893)" fill="none" stroke="#fff" stroke-linecap="round" stroke-width="2"/>
        <path id="Path_28521" data-name="Path 28521" d="M18.707,25.279,7.6,29.944A.588.588,0,0,1,6.78,29.4V16.848a.588.588,0,0,1,.378-.549l11.113-4.228a.587.587,0,0,1,.8.549V24.738a.587.587,0,0,1-.36.542" transform="translate(-2.863 -5.081)" fill="#fff" stroke="#707070" stroke-width="2"/>
        <ellipse id="Ellipse_2894" data-name="Ellipse 2894" cx="3.755" cy="7.51" rx="3.755" ry="7.51" transform="translate(54.759 9.737)" fill="#fff"/>
      </g>
    </g>
  </g>
</svg>
