<svg xmlns="http://www.w3.org/2000/svg" xmlns:xlink="http://www.w3.org/1999/xlink" width="543.078" height="520.736" viewBox="0 0 543.078 520.736">
  <defs>
    <clipPath id="clip-path">
      <rect id="Rectangle_2623" data-name="Rectangle 2623" width="543.078" height="520.736" fill="none"/>
    </clipPath>
    <clipPath id="clip-path-3">
      <rect id="Rectangle_2567" data-name="Rectangle 2567" width="104.017" height="103.985" fill="none"/>
    </clipPath>
    <clipPath id="clip-path-4">
      <rect id="Rectangle_2568" data-name="Rectangle 2568" width="36.013" height="36.013" fill="#c3c4d7"/>
    </clipPath>
    <clipPath id="clip-path-5">
      <rect id="Rectangle_2570" data-name="Rectangle 2570" width="16.376" height="16.375" fill="#c3c4d7"/>
    </clipPath>
    <clipPath id="clip-path-6">
      <rect id="Rectangle_2603" data-name="Rectangle 2603" width="181.549" height="181.549" fill="none"/>
    </clipPath>
    <clipPath id="clip-path-7">
      <rect id="Rectangle_2604" data-name="Rectangle 2604" width="110.953" height="55.039" fill="none"/>
    </clipPath>
    <clipPath id="clip-path-8">
      <rect id="Rectangle_2605" data-name="Rectangle 2605" width="14.187" height="14.187" fill="none"/>
    </clipPath>
    <clipPath id="clip-path-9">
      <rect id="Rectangle_2606" data-name="Rectangle 2606" width="15.372" height="15.373" fill="#c3c4d7"/>
    </clipPath>
    <clipPath id="clip-path-10">
      <rect id="Rectangle_2607" data-name="Rectangle 2607" width="17.612" height="17.612" fill="#c3c4d7"/>
    </clipPath>
    <clipPath id="clip-path-11">
      <rect id="Rectangle_2608" data-name="Rectangle 2608" width="17.612" height="17.612" fill="none"/>
    </clipPath>
    <clipPath id="clip-path-12">
      <rect id="Rectangle_2609" data-name="Rectangle 2609" width="25.951" height="25.95" fill="none"/>
    </clipPath>
    <clipPath id="clip-path-13">
      <rect id="Rectangle_2610" data-name="Rectangle 2610" width="14.186" height="14.186" fill="#c3c4d7"/>
    </clipPath>
    <clipPath id="clip-path-14">
      <rect id="Rectangle_2611" data-name="Rectangle 2611" width="17.612" height="17.613" fill="none"/>
    </clipPath>
  </defs>
  <g id="Group_14828" data-name="Group 14828" transform="translate(-1347.623 -594.806)">
    <g id="Group_14265" data-name="Group 14265" transform="translate(1347.623 594.806)">
      <g id="Group_14264" data-name="Group 14264" clip-path="url(#clip-path)">
        <g id="Group_14263" data-name="Group 14263">
          <g id="Group_14262" data-name="Group 14262" clip-path="url(#clip-path)">
            <path id="Path_26553" data-name="Path 26553" d="M452.855,377.095c0,15.127-88.492,27.391-197.65,27.391S57.555,392.222,57.555,377.095,146.047,349.7,255.206,349.7s197.65,12.263,197.65,27.391" transform="translate(16.957 113.733)" fill="#d6edeb"/>
            <path id="Path_26554" data-name="Path 26554" d="M346.616,340.572q.333-.691.665-1.384c14.129-29.513,27.088-60.079,47.647-85.534,21.652-26.807,50.612-46.556,75.885-69.978S518.748,130.659,521.3,96.3a87.525,87.525,0,0,0-21.78-64.04C478.159,8.381,440.751-2.569,409.5,1.3c-31.164,3.858-56.165,20.588-84.939,31.155-27.689,10.17-56.046,11.152-84.692,4.084-27-6.663-52.472-18.382-78.983-26.791S105.72-3.72,78.821,3.356,27.437,32.115,24.12,59.73c-3.039,25.3,11.318,49.052,24.9,70.612s27.5,45.752,23.492,70.916c-3.99,25.061-24.6,43.745-36.247,66.292C18.13,302.673,23.479,347.458,45.8,380.077,82.886,434.26,156.832,454.463,218.975,441.7c58.009-11.917,102.476-48.8,127.641-101.124" transform="translate(7.069 0)" fill="#eff5f8"/>
            <path id="Path_26555" data-name="Path 26555" d="M149.43,386.712c0,6.578-33.452,11.911-74.716,11.911S0,393.29,0,386.712,33.45,374.8,74.714,374.8s74.716,5.331,74.716,11.909" transform="translate(0 111.744)" fill="#d6edeb"/>
            <path id="Path_26556" data-name="Path 26556" d="M452.67,394.7c0,6.578-33.45,11.909-74.716,11.909S303.24,401.279,303.24,394.7s33.45-11.909,74.714-11.909,74.716,5.331,74.716,11.909" transform="translate(90.408 114.126)" fill="#d6edeb"/>
            <path id="Path_26557" data-name="Path 26557" d="M405.595,81.991a.943.943,0,0,1-.67-.278L393.943,70.731a.949.949,0,0,1,1.342-1.342l10.981,10.982a.949.949,0,0,1-.671,1.62" transform="translate(117.367 20.605)" fill="#fff"/>
            <path id="Path_26558" data-name="Path 26558" d="M394.614,81.991a.949.949,0,0,1-.671-1.62l10.982-10.982a.949.949,0,0,1,1.341,1.342L395.285,81.713a.946.946,0,0,1-.671.278" transform="translate(117.367 20.605)" fill="#fff"/>
            <path id="Path_26559" data-name="Path 26559" d="M215.075,38.368H204.928a.948.948,0,0,1-.949-.949V27.272a.948.948,0,0,1,.949-.949h10.148a.949.949,0,0,1,.949.949V37.419a.949.949,0,0,1-.949.949m-9.2-1.9h8.25v-8.25h-8.25Z" transform="translate(60.814 7.848)" fill="#fff"/>
            <path id="Path_26560" data-name="Path 26560" d="M341.281,133.159H329.357a.95.95,0,0,1-.82-1.424l5.961-10.327a.949.949,0,0,1,1.643,0l5.962,10.327a.95.95,0,0,1-.822,1.424M331,131.261h8.638l-4.319-7.481Z" transform="translate(97.912 36.055)" fill="#fff"/>
            <path id="Path_26561" data-name="Path 26561" d="M339.271,18.532a.948.948,0,0,1-.949-.949v-5.25a.949.949,0,0,1,1.9,0v5.25a.949.949,0,0,1-.949.949" transform="translate(100.867 3.394)" fill="#fff"/>
            <path id="Path_26562" data-name="Path 26562" d="M339.271,29.172a.948.948,0,0,1-.949-.949V22.972a.949.949,0,0,1,1.9,0v5.251a.949.949,0,0,1-.949.949" transform="translate(100.867 6.566)" fill="#fff"/>
            <path id="Path_26563" data-name="Path 26563" d="M347.819,20.624h-5.251a.949.949,0,1,1,0-1.9h5.251a.949.949,0,1,1,0,1.9" transform="translate(101.85 5.583)" fill="#fff"/>
            <path id="Path_26564" data-name="Path 26564" d="M337.179,20.624h-5.251a.949.949,0,1,1,0-1.9h5.251a.949.949,0,1,1,0,1.9" transform="translate(98.678 5.583)" fill="#fff"/>
            <g id="Group_14228" data-name="Group 14228" transform="translate(390.443 35.333)" opacity="0.3">
              <g id="Group_14227" data-name="Group 14227">
                <g id="Group_14226" data-name="Group 14226" clip-path="url(#clip-path-3)">
                  <path id="Path_26565" data-name="Path 26565" d="M354.913,131.2a.949.949,0,0,1-.038-1.9,50.47,50.47,0,0,0,7.39-.854.949.949,0,0,1,.357,1.864,52.284,52.284,0,0,1-7.669.885h-.04m-7.575-.241a.91.91,0,0,1-.1-.005,52.051,52.051,0,0,1-7.6-1.383.949.949,0,1,1,.479-1.836,50.151,50.151,0,0,0,7.319,1.331.949.949,0,0,1-.1,1.893m22.423-2.608a.949.949,0,0,1-.315-1.843,49.942,49.942,0,0,0,6.815-2.993.949.949,0,0,1,.89,1.676,51.843,51.843,0,0,1-7.073,3.106.969.969,0,0,1-.317.054m-37.055-1.2a.948.948,0,0,1-.373-.077,51.9,51.9,0,0,1-6.85-3.556.948.948,0,1,1,1-1.614,50.138,50.138,0,0,0,6.6,3.424.949.949,0,0,1-.374,1.821m50.415-5.9a.949.949,0,0,1-.566-1.711,50.46,50.46,0,0,0,5.639-4.856.949.949,0,1,1,1.342,1.342,52.6,52.6,0,0,1-5.852,5.039.942.942,0,0,1-.563.186m-63.275-2.042a.942.942,0,0,1-.611-.225,52.48,52.48,0,0,1-5.516-5.4.949.949,0,1,1,1.424-1.254,50.582,50.582,0,0,0,5.316,5.207.95.95,0,0,1-.613,1.675m73.972-8.644a.948.948,0,0,1-.762-1.514,50.271,50.271,0,0,0,3.976-6.286.949.949,0,0,1,1.675.893,52.412,52.412,0,0,1-4.126,6.523.951.951,0,0,1-.763.383m-83.961-2.708a.95.95,0,0,1-.8-.434,52.048,52.048,0,0,1-3.7-6.781.948.948,0,1,1,1.728-.783,50.133,50.133,0,0,0,3.565,6.534.949.949,0,0,1-.8,1.464m91.07-10.633a.968.968,0,0,1-.317-.055.95.95,0,0,1-.578-1.212,49.81,49.81,0,0,0,1.951-7.177.949.949,0,0,1,1.863.36A51.741,51.741,0,0,1,401.82,96.6a.95.95,0,0,1-.894.632m-97.3-3.151a.947.947,0,0,1-.911-.691,51.753,51.753,0,0,1-1.537-7.568.949.949,0,1,1,1.882-.239,50.111,50.111,0,0,0,1.48,7.292.949.949,0,0,1-.656,1.171.982.982,0,0,1-.258.035M403.794,82.385h-.042a.949.949,0,0,1-.907-.988c.03-.709.045-1.438.047-2.165a50.664,50.664,0,0,0-.546-7.419.949.949,0,1,1,1.877-.279,52.5,52.5,0,0,1,.566,7.7c0,.754-.017,1.508-.047,2.244a.949.949,0,0,1-.948.909M301.72,79.08H301.7a.949.949,0,0,1-.928-.968,52.514,52.514,0,0,1,.731-7.686.949.949,0,1,1,1.871.318,50.361,50.361,0,0,0-.7,7.407.95.95,0,0,1-.949.929m99.9-13.854a.949.949,0,0,1-.907-.671,49.855,49.855,0,0,0-2.7-6.935.949.949,0,0,1,1.711-.82,51.841,51.841,0,0,1,2.808,7.2.949.949,0,0,1-.907,1.225m-97.35-1.049a.949.949,0,0,1-.9-1.246,51.776,51.776,0,0,1,2.96-7.133.948.948,0,1,1,1.693.855,50,50,0,0,0-2.851,6.871.949.949,0,0,1-.9.653m90.822-12.6a.947.947,0,0,1-.787-.417,50.465,50.465,0,0,0-4.617-5.836.949.949,0,1,1,1.4-1.284,52.6,52.6,0,0,1,4.79,6.056.949.949,0,0,1-.784,1.481m-84.005-.9a.949.949,0,0,1-.774-1.5,52.446,52.446,0,0,1,4.917-5.952.949.949,0,1,1,1.37,1.314,50.285,50.285,0,0,0-4.738,5.735.947.947,0,0,1-.775.4m73.772-10.238a.947.947,0,0,1-.6-.21A50.392,50.392,0,0,0,378.143,36a.949.949,0,0,1,.962-1.636,52.427,52.427,0,0,1,6.347,4.4.948.948,0,0,1-.6,1.686m-63.306-.675a.949.949,0,0,1-.58-1.7,52.278,52.278,0,0,1,6.441-4.262.948.948,0,0,1,.927,1.655,50.4,50.4,0,0,0-6.208,4.107.946.946,0,0,1-.58.2m50.278-6.984a.944.944,0,0,1-.353-.069,49.676,49.676,0,0,0-7.09-2.252.949.949,0,0,1,.437-1.847,51.81,51.81,0,0,1,7.36,2.339.949.949,0,0,1-.354,1.829m-37.077-.4a.948.948,0,0,1-.335-1.836,51.793,51.793,0,0,1,7.414-2.18.949.949,0,0,1,.4,1.855,50,50,0,0,0-7.144,2.1.941.941,0,0,1-.334.061m22.37-3.09c-.026,0-.053,0-.081,0a51.577,51.577,0,0,0-7.441-.079.939.939,0,0,1-1.006-.888.949.949,0,0,1,.888-1.006,53.172,53.172,0,0,1,7.717.083.949.949,0,0,1-.078,1.894" transform="translate(-300.771 -27.218)" fill="#f9f9f9"/>
                </g>
              </g>
            </g>
            <g id="Group_14231" data-name="Group 14231" transform="translate(424.439 69.34)" opacity="0.3">
              <g id="Group_14230" data-name="Group 14230">
                <g id="Group_14229" data-name="Group 14229" clip-path="url(#clip-path-4)">
                  <path id="Path_26566" data-name="Path 26566" d="M362.972,71.422a18.006,18.006,0,1,0-18.007,18.006,18.006,18.006,0,0,0,18.007-18.006" transform="translate(-326.959 -53.415)" fill="#c3c4d7"/>
                </g>
              </g>
            </g>
            <path id="Path_26567" data-name="Path 26567" d="M275.3,60.52a12.733,12.733,0,1,0-12.732,12.732A12.731,12.731,0,0,0,275.3,60.52" transform="translate(74.486 14.247)" fill="#fff"/>
            <g id="Group_14234" data-name="Group 14234" transform="translate(316.135 79.159)" opacity="0.3">
              <g id="Group_14233" data-name="Group 14233">
                <g id="Group_14232" data-name="Group 14232" clip-path="url(#clip-path-5)">
                  <rect id="Rectangle_2569" data-name="Rectangle 2569" width="16.376" height="16.376" fill="#c3c4d7"/>
                </g>
              </g>
            </g>
            <path id="Path_26568" data-name="Path 26568" d="M335.864,200.174a.949.949,0,0,1-.8-1.457c7.93-12.5,20.209-23.321,33.209-34.777,16.59-14.624,33.746-29.743,45.153-50.659a.949.949,0,0,1,1.666.909c-11.566,21.209-28.85,36.441-45.565,51.173-12.9,11.365-25.075,22.1-32.86,34.371a.95.95,0,0,1-.8.44" transform="translate(99.852 33.626)" fill="#33dbce"/>
            <path id="Path_26569" data-name="Path 26569" d="M374.542,160.508a.948.948,0,0,1-.611-1.675c.328-.276,32.951-28,41.576-58.453a.948.948,0,0,1,1.825.517c-8.785,31.019-41.846,59.108-42.179,59.387a.947.947,0,0,1-.61.223" transform="translate(111.383 29.722)" fill="#33dbce"/>
            <path id="Path_26570" data-name="Path 26570" d="M271.053,292.81H389.274a4.788,4.788,0,0,1,4.775,4.775v14.7a4.789,4.789,0,0,1-4.775,4.775H271.053a4.789,4.789,0,0,1-4.775-4.775v-14.7a4.788,4.788,0,0,1,4.775-4.775" transform="translate(79.388 87.298)" fill="#5f5f5f" fill-rule="evenodd"/>
            <path id="Path_26571" data-name="Path 26571" d="M271.272,282.311H394.949l.117,0v13.62c0,4.579-2.248,8.324-5,8.324H266.394l-.117,0V290.633c0-4.579,2.247-8.322,5-8.322" transform="translate(79.388 84.168)" fill="#2b2b2b" fill-rule="evenodd"/>
            <rect id="Rectangle_2571" data-name="Rectangle 2571" width="30.622" height="9.949" transform="translate(394.24 404.358)" fill="#887b77"/>
            <rect id="Rectangle_2572" data-name="Rectangle 2572" width="8.238" height="45.232" transform="translate(405.432 414.308)" fill="#bca9a2"/>
            <rect id="Rectangle_2573" data-name="Rectangle 2573" width="30.622" height="9.949" transform="translate(394.24 459.539)" fill="#d1bbb5"/>
            <path id="Path_26572" data-name="Path 26572" d="M328.182,359.866c30.518,0,55.259,9.708,55.259,21.684a8.879,8.879,0,0,1-.415,2.661c-3.344-8.377-26.621-14.864-54.844-14.864s-51.5,6.487-54.844,14.864a8.917,8.917,0,0,1-.414-2.661c0-11.977,24.74-21.684,55.258-21.684" transform="translate(81.37 107.29)" fill="#c3c3c3" fill-rule="evenodd"/>
            <rect id="Rectangle_2574" data-name="Rectangle 2574" width="8.238" height="31.555" transform="translate(405.432 427.985)" fill="#c3c3c3"/>
            <path id="Path_26573" data-name="Path 26573" d="M277.493,403.845a15.466,15.466,0,1,0-15.467-15.466,15.5,15.5,0,0,0,15.467,15.466" transform="translate(78.12 111.18)" fill="#988783" fill-rule="evenodd"/>
            <path id="Path_26574" data-name="Path 26574" d="M275.708,394.289a7.695,7.695,0,1,0-7.7-7.694,7.709,7.709,0,0,0,7.7,7.694" transform="translate(79.905 112.965)" fill="#e8dad8" fill-rule="evenodd"/>
            <path id="Path_26575" data-name="Path 26575" d="M360.593,403.845a15.466,15.466,0,1,0-15.466-15.466,15.5,15.5,0,0,0,15.466,15.466" transform="translate(102.896 111.18)" fill="#988783" fill-rule="evenodd"/>
            <path id="Path_26576" data-name="Path 26576" d="M358.808,394.289a7.695,7.695,0,1,0-7.694-7.694,7.711,7.711,0,0,0,7.694,7.694" transform="translate(104.681 112.965)" fill="#e8dad8" fill-rule="evenodd"/>
            <rect id="Rectangle_2575" data-name="Rectangle 2575" width="30.622" height="4.586" transform="translate(394.24 404.358)" fill="#635955"/>
            <rect id="Rectangle_2576" data-name="Rectangle 2576" width="7.592" height="174.596" transform="translate(88.354 317.999)" fill="#c3c3c3"/>
            <rect id="Rectangle_2577" data-name="Rectangle 2577" width="7.592" height="174.596" transform="translate(352.623 317.999)" fill="#e5cdc7"/>
            <rect id="Rectangle_2578" data-name="Rectangle 2578" width="256.677" height="163.07" transform="translate(95.946 317.999)" fill="#ebebeb"/>
            <path id="Path_26577" data-name="Path 26577" d="M286.345,343.9H160.05a6.79,6.79,0,0,1-6.772-6.77v-75.3a6.79,6.79,0,0,1,6.772-6.769H286.345a6.789,6.789,0,0,1,6.771,6.769v75.3a6.79,6.79,0,0,1-6.771,6.77" transform="translate(45.698 76.044)" fill="#fff" fill-rule="evenodd"/>
            <path id="Path_26578" data-name="Path 26578" d="M286.345,370.839H160.05a6.791,6.791,0,0,1-6.772-6.77v-23.73a6.791,6.791,0,0,1,6.772-6.77H286.345a6.79,6.79,0,0,1,6.771,6.77v23.73a6.79,6.79,0,0,1-6.771,6.77" transform="translate(45.698 99.45)" fill="#fff" fill-rule="evenodd"/>
            <path id="Path_26579" data-name="Path 26579" d="M61.782,234.4H351.764a3.055,3.055,0,0,1,3.047,3.047v9.38a3.057,3.057,0,0,1-3.047,3.048H61.782a3.057,3.057,0,0,1-3.047-3.048v-9.38a3.055,3.055,0,0,1,3.047-3.047" transform="translate(17.511 69.885)" fill="#5f5f5f" fill-rule="evenodd"/>
            <path id="Path_26580" data-name="Path 26580" d="M339.119,234.4a20.149,20.149,0,0,1-17.478,10.2H58.735v-7.151a3.056,3.056,0,0,1,3.048-3.047Z" transform="translate(17.511 69.885)" fill="#2b2b2b" fill-rule="evenodd"/>
            <rect id="Rectangle_2579" data-name="Rectangle 2579" width="8.711" height="8.711" transform="translate(211.527 343.745)" fill="#c3c3c3"/>
            <rect id="Rectangle_2580" data-name="Rectangle 2580" width="8.711" height="8.711" transform="translate(211.527 359.79)" fill="#c3c3c3"/>
            <rect id="Rectangle_2581" data-name="Rectangle 2581" width="8.711" height="8.711" transform="translate(227.572 343.745)" fill="#c3c3c3"/>
            <rect id="Rectangle_2582" data-name="Rectangle 2582" width="8.711" height="8.711" transform="translate(227.572 359.79)" fill="#c3c3c3"/>
            <rect id="Rectangle_2583" data-name="Rectangle 2583" width="8.711" height="8.711" transform="translate(243.617 343.745)" fill="#c3c3c3"/>
            <rect id="Rectangle_2584" data-name="Rectangle 2584" width="8.711" height="8.711" transform="translate(243.617 359.79)" fill="#c3c3c3"/>
            <rect id="Rectangle_2585" data-name="Rectangle 2585" width="8.709" height="8.711" transform="translate(259.662 343.745)" fill="#c3c3c3"/>
            <rect id="Rectangle_2586" data-name="Rectangle 2586" width="8.709" height="8.711" transform="translate(259.662 359.79)" fill="#c3c3c3"/>
            <rect id="Rectangle_2587" data-name="Rectangle 2587" width="8.711" height="8.711" transform="translate(275.707 343.745)" fill="#c3c3c3"/>
            <rect id="Rectangle_2588" data-name="Rectangle 2588" width="8.711" height="8.711" transform="translate(275.707 359.79)" fill="#c3c3c3"/>
            <rect id="Rectangle_2589" data-name="Rectangle 2589" width="8.711" height="8.711" transform="translate(291.752 343.745)" fill="#e5cdc7"/>
            <rect id="Rectangle_2590" data-name="Rectangle 2590" width="8.711" height="8.711" transform="translate(291.752 359.79)" fill="#e5cdc7"/>
            <rect id="Rectangle_2591" data-name="Rectangle 2591" width="8.711" height="8.711" transform="translate(211.527 439.88)" fill="#c3c3c3"/>
            <rect id="Rectangle_2592" data-name="Rectangle 2592" width="8.711" height="8.711" transform="translate(211.527 455.925)" fill="#c3c3c3"/>
            <rect id="Rectangle_2593" data-name="Rectangle 2593" width="8.711" height="8.711" transform="translate(227.572 439.88)" fill="#c3c3c3"/>
            <rect id="Rectangle_2594" data-name="Rectangle 2594" width="8.711" height="8.711" transform="translate(227.572 455.925)" fill="#c3c3c3"/>
            <rect id="Rectangle_2595" data-name="Rectangle 2595" width="8.711" height="8.711" transform="translate(243.617 439.88)" fill="#c3c3c3"/>
            <rect id="Rectangle_2596" data-name="Rectangle 2596" width="8.711" height="8.711" transform="translate(243.617 455.925)" fill="#c3c3c3"/>
            <rect id="Rectangle_2597" data-name="Rectangle 2597" width="8.709" height="8.711" transform="translate(259.662 439.88)" fill="#c3c3c3"/>
            <rect id="Rectangle_2598" data-name="Rectangle 2598" width="8.709" height="8.711" transform="translate(259.662 455.925)" fill="#c3c3c3"/>
            <rect id="Rectangle_2599" data-name="Rectangle 2599" width="8.711" height="8.711" transform="translate(275.707 439.88)" fill="#c3c3c3"/>
            <rect id="Rectangle_2600" data-name="Rectangle 2600" width="8.711" height="8.711" transform="translate(275.707 455.925)" fill="#c3c3c3"/>
            <rect id="Rectangle_2601" data-name="Rectangle 2601" width="8.711" height="8.711" transform="translate(291.752 439.88)" fill="#c3c3c3"/>
            <rect id="Rectangle_2602" data-name="Rectangle 2602" width="8.711" height="8.711" transform="translate(291.752 455.925)" fill="#c3c3c3"/>
            <g id="Group_14237" data-name="Group 14237" transform="translate(137.899 64.028)" opacity="0.3">
              <g id="Group_14236" data-name="Group 14236">
                <g id="Group_14235" data-name="Group 14235" clip-path="url(#clip-path-6)">
                  <path id="Path_26581" data-name="Path 26581" d="M197,49.323A90.774,90.774,0,1,1,106.228,140.1,90.774,90.774,0,0,1,197,49.323" transform="translate(-106.228 -49.323)" fill="#33dbce" fill-rule="evenodd"/>
                </g>
              </g>
            </g>
            <path id="Path_26582" data-name="Path 26582" d="M180.924,147.251a22.771,22.771,0,1,0-22.771-22.772,22.816,22.816,0,0,0,22.771,22.772" transform="translate(47.152 30.323)" fill="#fff" fill-rule="evenodd"/>
            <path id="Path_26583" data-name="Path 26583" d="M182.537,62.114c8.487,0,16.044,8.5,21.4,22.229,5.193,13.32,8.405,31.688,8.405,51.941s-3.213,38.62-8.405,51.94c-5.354,13.734-12.91,22.231-21.4,22.231s-16.042-8.5-21.4-22.231c-5.194-13.32-8.405-31.686-8.405-51.94s3.212-38.621,8.405-51.941c5.354-13.734,12.909-22.229,21.4-22.229M201.229,85.39c-4.906-12.583-11.524-20.366-18.692-20.366s-13.785,7.784-18.691,20.366c-5.067,13-8.2,30.989-8.2,50.895s3.134,37.9,8.2,50.894c4.906,12.583,11.522,20.367,18.691,20.367s13.786-7.784,18.692-20.367c5.065-13,8.2-30.988,8.2-50.894s-3.135-37.9-8.2-50.895" transform="translate(45.537 18.519)" fill="#fff" fill-rule="evenodd"/>
            <path id="Path_26584" data-name="Path 26584" d="M262.471,81.133c5.914,8.012,3.164,21.057-6.064,35.67-8.931,14.143-23.981,29.927-43.039,44.015l-.127.095c-19.128,14.117-38.7,23.882-54.879,28.258-16.68,4.511-29.955,3.3-35.866-4.715s-3.164-21.057,6.064-35.669c8.931-14.143,23.981-29.927,43.039-44.015l.127-.095c19.127-14.117,38.7-23.883,54.879-28.258,16.68-4.511,29.955-3.3,35.866,4.714m-8.944,33.857c8.461-13.4,11.2-25.07,6.212-31.83s-16.954-7.584-32.254-3.447c-15.792,4.271-34.939,13.833-53.7,27.676l-.031.022c-18.779,13.86-33.575,29.351-42.313,43.188-8.461,13.4-11.2,25.07-6.21,31.83s16.952,7.585,32.252,3.448c15.789-4.27,34.933-13.83,53.691-27.669l.04-.03c18.779-13.86,33.574-29.351,42.313-43.189" transform="translate(35.591 22.008)" fill="#fff" fill-rule="evenodd"/>
            <path id="Path_26585" data-name="Path 26585" d="M255.082,166.743c-4.244,7.353-15.375,9.65-29.938,7.421-14.121-2.161-31.633-8.566-49.187-18.7h-.005c-17.546-10.129-31.847-22.092-40.782-33.244-9.214-11.5-12.792-22.293-8.547-29.644s15.375-9.65,29.939-7.421c14.121,2.163,31.632,8.566,49.185,18.7l.005,0C223.3,113.984,237.6,125.948,246.535,137.1c9.215,11.5,12.793,22.293,8.547,29.644m-29.505,4.545c13.357,2.045,23.411.206,26.994-6s.149-15.83-8.3-26.37c-8.726-10.891-22.741-22.6-39.974-32.552l-.18-.108c-17.163-9.883-34.238-16.125-47.99-18.23-13.357-2.045-23.411-.205-26.994,6s-.148,15.83,8.3,26.372c8.726,10.89,22.741,22.6,39.974,32.552l.182.108c17.163,9.881,34.237,16.124,47.988,18.228" transform="translate(37.223 25.144)" fill="#fff" fill-rule="evenodd"/>
            <path id="Path_26586" data-name="Path 26586" d="M180.081,142.74a19.1,19.1,0,1,0-19.1-19.1,19.141,19.141,0,0,0,19.1,19.1" transform="translate(47.994 31.166)" fill="#0e1123" fill-rule="evenodd"/>
            <path id="Path_26587" data-name="Path 26587" d="M216.192,162.685a8.287,8.287,0,1,0-8.286-8.287,8.3,8.3,0,0,0,8.286,8.287" transform="translate(61.985 43.562)" fill="#fff" fill-rule="evenodd"/>
            <path id="Path_26588" data-name="Path 26588" d="M228.451,89.647a8.286,8.286,0,1,0-8.286-8.286,8.3,8.3,0,0,0,8.286,8.286" transform="translate(65.64 21.787)" fill="#fff" fill-rule="evenodd"/>
            <path id="Path_26589" data-name="Path 26589" d="M158.013,156.764a9.8,9.8,0,1,0-9.8-9.8,9.823,9.823,0,0,0,9.8,9.8" transform="translate(44.187 40.892)" fill="#fff" fill-rule="evenodd"/>
            <path id="Path_26590" data-name="Path 26590" d="M143.612,98.644a10.235,10.235,0,1,0-10.236-10.236,10.255,10.255,0,0,0,10.236,10.236" transform="translate(39.765 23.307)" fill="#fff" fill-rule="evenodd"/>
            <path id="Path_26591" data-name="Path 26591" d="M176.638,134.649a13.995,13.995,0,1,0-13.994-13.994,14.021,14.021,0,0,0,13.994,13.994" transform="translate(48.491 31.8)" fill="#2d3937" fill-rule="evenodd"/>
            <path id="Path_26592" data-name="Path 26592" d="M227.995,87.206a6.3,6.3,0,1,0-6.3-6.3,6.314,6.314,0,0,0,6.3,6.3" transform="translate(66.096 22.242)" fill="#00ddc3" fill-rule="evenodd"/>
            <path id="Path_26593" data-name="Path 26593" d="M157.329,153.1a6.826,6.826,0,1,0-6.827-6.827,6.839,6.839,0,0,0,6.827,6.827" transform="translate(44.871 41.576)" fill="#33dbce" fill-rule="evenodd"/>
            <path id="Path_26595" data-name="Path 26595" d="M142.734,93.943a6.412,6.412,0,1,0-6.412-6.413,6.425,6.425,0,0,0,6.412,6.413" transform="translate(40.643 24.185)" fill="#c3c4d7" fill-rule="evenodd"/>
            <g id="Group_14240" data-name="Group 14240" transform="translate(173.195 226.65)" opacity="0.3">
              <g id="Group_14239" data-name="Group 14239">
                <g id="Group_14238" data-name="Group 14238" clip-path="url(#clip-path-7)">
                  <path id="Path_26596" data-name="Path 26596" d="M244.371,174.6,188.9,229.633,133.418,174.6a90.77,90.77,0,0,0,110.953,0" transform="translate(-133.418 -174.596)" fill="#84aece" fill-rule="evenodd"/>
                </g>
              </g>
            </g>
            <g id="Group_14243" data-name="Group 14243" transform="translate(286.958 228.267)" opacity="0.3">
              <g id="Group_14242" data-name="Group 14242">
                <g id="Group_14241" data-name="Group 14241" clip-path="url(#clip-path-8)">
                  <path id="Path_26597" data-name="Path 26597" d="M228.147,175.842a7.093,7.093,0,1,1-7.094,7.093,7.093,7.093,0,0,1,7.094-7.093" transform="translate(-221.053 -175.842)" fill="#84aece" fill-rule="evenodd"/>
                </g>
              </g>
            </g>
            <g id="Group_14246" data-name="Group 14246" transform="translate(123.483 98.864)" opacity="0.3">
              <g id="Group_14245" data-name="Group 14245">
                <g id="Group_14244" data-name="Group 14244" clip-path="url(#clip-path-9)">
                  <path id="Path_26598" data-name="Path 26598" d="M102.808,76.159a7.686,7.686,0,1,1-7.685,7.685,7.686,7.686,0,0,1,7.685-7.685" transform="translate(-95.123 -76.158)" fill="#c3c4d7" fill-rule="evenodd"/>
                </g>
              </g>
            </g>
            <g id="Group_14249" data-name="Group 14249" transform="translate(316.636 96.73)" opacity="0.3">
              <g id="Group_14248" data-name="Group 14248">
                <g id="Group_14247" data-name="Group 14247" clip-path="url(#clip-path-10)">
                  <path id="Path_26599" data-name="Path 26599" d="M252.722,74.514a8.806,8.806,0,1,1-8.807,8.807,8.8,8.8,0,0,1,8.807-8.807" transform="translate(-243.915 -74.514)" fill="#c3c4d7" fill-rule="evenodd"/>
                </g>
              </g>
            </g>
            <g id="Group_14252" data-name="Group 14252" transform="translate(121.377 224.988)" opacity="0.3">
              <g id="Group_14251" data-name="Group 14251">
                <g id="Group_14250" data-name="Group 14250" clip-path="url(#clip-path-11)">
                  <path id="Path_26600" data-name="Path 26600" d="M102.306,173.316a8.807,8.807,0,1,1-8.805,8.807,8.806,8.806,0,0,1,8.805-8.807" transform="translate(-93.501 -173.316)" fill="#84aece" fill-rule="evenodd"/>
                </g>
              </g>
            </g>
            <g id="Group_14255" data-name="Group 14255" transform="translate(150.402 253.459)" opacity="0.3">
              <g id="Group_14254" data-name="Group 14254">
                <g id="Group_14253" data-name="Group 14253" clip-path="url(#clip-path-12)">
                  <path id="Path_26601" data-name="Path 26601" d="M128.836,195.248a12.976,12.976,0,1,1-12.976,12.975,12.975,12.975,0,0,1,12.976-12.975" transform="translate(-115.86 -195.248)" fill="#84aece" fill-rule="evenodd"/>
                </g>
              </g>
            </g>
            <path id="Path_26602" data-name="Path 26602" d="M202.044,164.99a5.613,5.613,0,1,1-5.612,5.613,5.613,5.613,0,0,1,5.612-5.613" transform="translate(58.564 49.19)" fill="#fff" fill-rule="evenodd"/>
            <path id="Path_26603" data-name="Path 26603" d="M126.389,115.017a3.356,3.356,0,1,1-3.354,3.357,3.358,3.358,0,0,1,3.354-3.357" transform="translate(36.682 34.291)" fill="#fff" fill-rule="evenodd"/>
            <g id="Group_14258" data-name="Group 14258" transform="translate(286.381 65.077)" opacity="0.3">
              <g id="Group_14257" data-name="Group 14257">
                <g id="Group_14256" data-name="Group 14256" clip-path="url(#clip-path-13)">
                  <path id="Path_26604" data-name="Path 26604" d="M227.7,50.131a7.093,7.093,0,1,1-7.093,7.093,7.092,7.092,0,0,1,7.093-7.093" transform="translate(-220.609 -50.131)" fill="#c3c4d7" fill-rule="evenodd"/>
                </g>
              </g>
            </g>
            <g id="Group_14261" data-name="Group 14261" transform="translate(316.636 257.626)" opacity="0.3">
              <g id="Group_14260" data-name="Group 14260">
                <g id="Group_14259" data-name="Group 14259" clip-path="url(#clip-path-14)">
                  <path id="Path_26605" data-name="Path 26605" d="M252.72,198.458a8.806,8.806,0,1,1-8.805,8.807,8.806,8.806,0,0,1,8.805-8.807" transform="translate(-243.915 -198.458)" fill="#84aece" fill-rule="evenodd"/>
                </g>
              </g>
            </g>
            <path id="Path_26606" data-name="Path 26606" d="M302.276,198.692c-12.132,42.347-41.912,47.448-89.447,34.235-1.384-.658-10.09.06-13.389-2.53-4.35-3.418-2.587-10.179,5.15-9.524,2.1.178,3.894-.154,3.4-.583-2.931-2.56-3.47-4.6-2.694-5.329.489-.46,4.336,2.347,7.872,5.008,5.363,4.035,4.911,4.634,11.291,4.938,11.193.532,25.559-3.073,38.285-13.279,9.362-7.511,14.792-19.2,19.415-28.088,6.863-12.3,23.809-.511,20.113,15.152" transform="translate(58.767 53.196)" fill="#efbda8" fill-rule="evenodd"/>
            <path id="Path_26608" data-name="Path 26608" d="M197.157,219.391c-.415-3.084,2.077-6.184,7.432-5.731,2.1.178,3.894-.155,3.4-.583-2.931-2.561-3.47-4.6-2.695-5.329.492-.46,4.337,2.347,7.873,5.008,5.363,4.035,4.911,4.634,11.291,4.937,11.193.534,25.559-3.071,38.285-13.277,6.317-5.067,27.922.954,11.426,13.215-15.915,11.834-39.2,10.941-69.893,2.409-.788-.374-3.942-.3-7.123-.649" transform="translate(58.767 60.408)" fill="#efbda8" fill-rule="evenodd"/>
            <path id="Path_26609" data-name="Path 26609" d="M316.944,375.4c4.908-5.073,8.137-10.523,13.045-15.6-32.779-13.215-50.8-57.323-60.328-63.026-9.257-5.142-45.43,30.092-27.68,41.338,5.168,1.464,62.187,3.182,74.964,37.285" transform="translate(70.703 88.329)" fill="#edd2c2" fill-rule="evenodd"/>
            <path id="Path_26612" data-name="Path 26612" d="M280.738,404.728c-1.507,2.759-20.27,3.714-18.312,2.08,8.77-7.319,10.386-23.165,7.283-33.779a42.822,42.822,0,0,0-8.635-16.044c-8.09-9.221-18.7-17.052-26.305-22.423-16.236-11.472-5.642-30.114,9.441-36.128,37.481-14.947,49.432,49.688,42.91,87.894a68.942,68.942,0,0,1-6.382,18.4" transform="translate(67.565 88.318)" fill="#edd2c2" fill-rule="evenodd"/>
            <path id="Path_26613" data-name="Path 26613" d="M267.385,395.883c-5.415.649-11.305.576-10.164-.375,8.77-7.319,10.386-23.165,7.283-33.779a42.823,42.823,0,0,0-8.635-16.044,109.585,109.585,0,0,0-11.786-11.366c32.622-3.016,38.871,30.928,30.376,51.51a35.916,35.916,0,0,1-7.074,10.054" transform="translate(72.771 99.618)" fill="#ffdfcc" fill-rule="evenodd"/>
            <path id="Path_26615" data-name="Path 26615" d="M304.878,192.815A113.134,113.134,0,0,1,290.9,224.9c-7.939,1.806-38.685-13.249-37.392-18.661,1.786-5.325,4.332-21.853,5.99-33.319,2.365-16.366,17.247-16.712,29.017-12.083,11.956,4.7,20.752,14.651,16.362,31.982" transform="translate(75.569 47.187)" fill="#e5cdc7" fill-rule="evenodd"/>
            <path id="Path_26616" data-name="Path 26616" d="M298.209,224.583c-9.188-5.409-22.7-4.542-27.766-18.145-6.44-17.3-7.173-47.4,9.238-57.622,19.893-12.395,43.806,7.138,61.923,30.356,25.236,32.343,54.032,107.071,21.663,138.561-24.962,24.284-63.027,7.769-76.629,16.089-6.791,4.154.33,14.67,2,18.927-1.328,9.35-46.849,41.152-62.013,42.186-1.159-14-24.443-56.225-11.5-78.776,26.53-46.225,85.254-32.159,95.155-53.878,4.175-9.161.931-30.043-12.066-37.7" transform="translate(62.972 43.221)" fill="#cbcbcb" fill-rule="evenodd"/>
            <path id="Path_26617" data-name="Path 26617" d="M288.107,220.051c-7.12-2.359-14.281-4.987-17.665-14.08-6.44-17.3-7.173-47.4,9.238-57.622a26.418,26.418,0,0,1,3.461-1.819,162.6,162.6,0,0,1,22.747,20.851c1.155,1.258,2.325,2.589,3.5,3.972q-.894-.179-1.8-.317c-12.68-1.929-26.747,2.1-23.814,19.762,1.506,9.077,3.422,21.114,4.329,29.252m45.46-12.8a124.906,124.906,0,0,1-3.4,30.048c-3.309,1.819-12.674.955-21.676-1.088,4.084,8.955,4.471,19.708,1.784,25.6-9.9,21.719-68.624,7.654-95.155,53.878-12.944,22.551,10.34,64.772,11.5,78.778,10.418-.711,35.16-15.941,50.061-28.438-4.357-12.36-14.106-45.385-8.722-48.807,12.684-8.061,52.568,7.941,74.856-15.588,19.675-20.773,8.79-60.958-9.248-94.386" transform="translate(62.971 43.687)" fill="#e8e6e6" fill-rule="evenodd"/>
            <path id="Path_26618" data-name="Path 26618" d="M241.563,346.641c-6.027,3-11.343,4.987-14.945,5.233-.916-11.074-15.663-39.789-15.4-62.474,1.676,12.341,8.256,39.94,30.341,57.241" transform="translate(62.973 86.282)" fill="#fff" fill-rule="evenodd"/>
            <path id="Path_26619" data-name="Path 26619" d="M297.521,246.477c6.06-3.262,13.176-4.9,19.407-7.114,4.819-1.712,6.976.713,8.156,5.078,1.7,6.28,6.2,20.646.226,24.537-6.961,4.532-22.733,5.785-34.153,6.679-3.365.265-2.52-4.337-.463-9.968,3.308-9.058,5.269-17.426,6.827-19.212" transform="translate(86.13 71.199)" fill="#fff" fill-rule="evenodd"/>
            <path id="Path_26620" data-name="Path 26620" d="M326.165,186.941c1.758,17.159-6.906,58.222-25.754,66.58H213.573c-1.6-4.836,3.039-10.126,15.718-13.418,7.679-1.993,17.685,2,21.547,2.178,33.08,1.571,38.132-18.848,37.839-34.859-.169-9.244-4.089-29.975-3.457-31.2,6.863-12.4,42.256-4.671,40.945,10.72" transform="translate(63.584 50.702)" fill="#ffceb3" fill-rule="evenodd"/>
            <path id="Path_26622" data-name="Path 26622" d="M227.532,227.093c7.677-1.993,17.685,2,21.547,2.178,17.54.832,27.2-4.516,32.361-12.113,5.26-7.741,18.069-1.087,13.48,6.273-11.143,17.869-44.2,14.691-68.469,13-12.389-.863-6.883-7.27,1.081-9.338" transform="translate(65.342 63.713)" fill="#ffdfcc" fill-rule="evenodd"/>
            <path id="Path_26623" data-name="Path 26623" d="M235.211,158.5c13.712-1.859,21.566,9.247,24.251,16.327,1.222-10.512,5.147-20.067,13.063-25a25.788,25.788,0,0,1,5.653-2.655,136.281,136.281,0,0,0-40.508-5.577,25.062,25.062,0,0,1-2.459,16.9" transform="translate(70.126 42.211)" fill="#efbda8" fill-rule="evenodd"/>
            <path id="Path_26624" data-name="Path 26624" d="M238.192,156.181c11.334.473,17.96,10.129,20.381,16.514,1.107-9.521,4.432-18.254,10.929-23.481a69.989,69.989,0,0,0-14.69-.208c-9.671.889-14.695,3.659-16.62,7.175" transform="translate(71.015 44.338)" fill="#ffbe9f" fill-rule="evenodd"/>
            <path id="Path_26625" data-name="Path 26625" d="M314.577,192.844a113.146,113.146,0,0,1-6.226,34.434c-7.311,3.583-40.694-4-40.681-9.563.514-5.592-.809-22.264-1.832-33.8-1.46-16.471,12.942-20.23,25.462-18.43,12.717,1.828,23.564,9.487,23.277,27.362" transform="translate(79.226 49.214)" fill="#f4eeee" fill-rule="evenodd"/>
            <path id="Path_26626" data-name="Path 26626" d="M263.306,214.487c-11.71-7.327-11.992-23.912-10.939-38.211.884-12,4.9-23.3,13.607-28.728a26.782,26.782,0,0,1,13.864-3.9c3.253,3.326,5.217,8.289,4.189,11.476A57.931,57.931,0,0,0,268.379,182.9l-5.492,2.591c2.93,4.238,4.877,7.885,4.353,10.052l-7.15,2.487a90.7,90.7,0,0,0,3.217,16.457" transform="translate(75.123 42.829)" fill="#fff" fill-rule="evenodd"/>
            <path id="Path_26627" data-name="Path 26627" d="M247.668,381.91c16.619,0,28.788-3.809,31.349-3.809a8.577,8.577,0,0,1,8.782,8.355,8.235,8.235,0,0,1-3.8,6.879h-45.95a7.019,7.019,0,0,1-.693-3.031c0-4.636,4.616-8.394,10.31-8.394" transform="translate(70.766 112.727)" fill="#00ddc3" fill-rule="evenodd"/>
            <path id="Path_26628" data-name="Path 26628" d="M247.668,381.91c16.619,0,28.788-3.809,31.349-3.809a9.124,9.124,0,0,1,3.7.778c-8.531,9.038-28.129,12.48-45.175,13.02a6.911,6.911,0,0,1-.186-1.6c0-4.636,4.616-8.394,10.31-8.394" transform="translate(70.766 112.727)" fill="#33dbce" fill-rule="evenodd"/>
            <path id="Path_26629" data-name="Path 26629" d="M239.5,392.323h43.284a1.6,1.6,0,0,0,1.593-1.593v-.893H237.9v.893a1.6,1.6,0,0,0,1.592,1.593" transform="translate(70.929 116.226)" fill="#b96d54" fill-rule="evenodd"/>
            <path id="Path_26630" data-name="Path 26630" d="M309.665,354.11c-2.452-8.674-8.537-14.074-20.89-13.738a28.42,28.42,0,0,0-4.442.456c8.189,5.145,15.034,12.064,18.543,21.426a94.094,94.094,0,0,0,6.789-8.143" transform="translate(84.771 101.474)" fill="#ffceb3" fill-rule="evenodd"/>
            <path id="Path_26631" data-name="Path 26631" d="M305.791,342.9c2.508-4.275,17.955-5.065,15.692,8.135-1.555,9.062-7.959,9.761-9.728,18.778-1.349,6.865-.43,16.956-10.784,17.016-13.162.078-5.595-10.849-4.664-15.527,1.187-5.969,1.392-8.747,2.107-11.905,7.263-3.06,9.382-13.893,7.377-16.5" transform="translate(87.445 101.401)" fill="#33dbce" fill-rule="evenodd"/>
            <path id="Path_26632" data-name="Path 26632" d="M312.181,340.2c5.191-.624,11.77,1.9,10.239,10.833-1.555,9.062-7.96,9.762-9.73,18.778-1.349,6.865-.427,16.956-10.784,17.016q-.937.006-1.736-.061c9.031-.845,8.243-10.379,9.535-16.955,1.769-9.016,8.174-9.715,9.728-18.778,1.246-7.268-2.877-10.294-7.253-10.833" transform="translate(89.493 101.402)" fill="#b96d54" fill-rule="evenodd"/>
            <path id="Path_26633" data-name="Path 26633" d="M304.373,376.456a78.388,78.388,0,0,1-4.328,10.325c9.205-.745,8.4-10.353,9.7-16.968,1.769-9.017,8.174-9.715,9.728-18.778,1.347-7.859-3.582-10.758-8.32-10.916,6.522,6.153-6.249,20.212-6.239,22.065.029,5.1.965,9.667-.54,14.272" transform="translate(89.455 101.403)" fill="#00ddc3" fill-rule="evenodd"/>
            <path id="Path_26634" data-name="Path 26634" d="M203.088,146.438c3.959,8.187,18.731,18,24.077,20.547,7.717,3.679,10.2,4.941,15.139-.077,6.8-6.906,8.492-22.488-.832-31.671-10.794-10.633-21.935-14.531-33.682-1.936-3.9,4.18-6.595,9.223-4.7,13.136" transform="translate(60.364 37.394)" fill="#f7d6c4" fill-rule="evenodd"/>
            <path id="Path_26636" data-name="Path 26636" d="M209.429,153.656c8.973,3.279,8.895-4.493,13.736-4.493,2.421,0,8.919-2.416,9.4-5.932,3.911-.47,10.723.984,12.83,5.191,7.3,5.054,10.817,1.714,10.854,1.7,11.751-3.841,16.144-38.781-13.885-32.659-6.6,1.347-5.132-9.217-17.452-2.856-5,2.579-32.829-8.834-32.829,23.875,0,16.5,14.168,22.6,16.663,15.536Z" transform="translate(57.267 33.557)" fill="#0e1123" fill-rule="evenodd"/>
            <path id="Path_26637" data-name="Path 26637" d="M231.22,130.378a10.638,10.638,0,0,1,6.428,7.7c.644,2.826.271,5.657-1.973,5.711-2.461-2.058-9.974-4.637-12.282-5.377-1.3-4.662,3.3-9.707,7.826-8.034" transform="translate(66.536 38.773)" fill="#ffceb3" fill-rule="evenodd"/>
            <path id="Path_26638" data-name="Path 26638" d="M226.1,133.7c1-1.758,7.658-.653,7.477,4.723a9.411,9.411,0,0,0-2.5-1.926,12.23,12.23,0,0,0-4.636-1.506c-1.161-.048-1.083.01-.344-1.29" transform="translate(67.246 39.632)" fill="#ffa680" fill-rule="evenodd"/>
            <path id="Path_26639" data-name="Path 26639" d="M292.55,225.112c-10.419-1.316-24.01-5.822-24-9.422.436-5.225-.685-20.8-1.554-31.581-1.241-15.387,10.985-18.9,21.61-17.219a28.233,28.233,0,0,1,5.47,1.416,47.708,47.708,0,0,1,3.3,19.325,177.381,177.381,0,0,1-4.823,37.48" transform="translate(79.575 49.642)" fill="#fff" fill-rule="evenodd"/>
            <path id="Path_26640" data-name="Path 26640" d="M195.728,149.728c6.881,4.451,10.2,1.3,10.235,1.288,10.834-3.54,15.414-33.519-7.475-33.374-3.78,3.406-6.405,9.284-6.405,19.325a22.194,22.194,0,0,0,3.645,12.761" transform="translate(57.268 35.074)" fill="#0e1123" fill-rule="evenodd"/>
            <path id="Path_26641" data-name="Path 26641" d="M208.8,99.96c3.461,0,4.067.484,6.288-2.27a8.339,8.339,0,0,1,6.422-3.453,7.211,7.211,0,0,1,3.641,1.011c3.967,2.294,2.659,2.185,7.251.945,2.431-.656,6.042.108,7.569,2.379,2.825,4.2,5.307,3.336,6.566,4.2,2.12,1.462,2.3,5.3,1.606,9.008a23.091,23.091,0,0,1-3.73,9.37c-1.863,2.448-3.64,3.079-5.585,2.591-6.505-1.636-1-1.263-7.564-.314a8.059,8.059,0,0,1-3.736-.314c-3.653-1.22-2.33.682-6.019.682-3.467,0-3.678-3.682-10.912-1.668-5.154,1.434-8.746-4.987-9.719-11.1S204.4,99.96,208.8,99.96" transform="translate(59.85 28.095)" fill="#0e1123" fill-rule="evenodd"/>
            <path id="Path_26642" data-name="Path 26642" d="M155.012,201.163h62.076V240.25a2.942,2.942,0,0,1-2.934,2.934H157.946a2.942,2.942,0,0,1-2.934-2.934Z" transform="translate(46.215 59.975)" fill="#fff" fill-rule="evenodd"/>
            <rect id="Rectangle_2612" data-name="Rectangle 2612" width="62.076" height="4.106" transform="translate(201.227 261.138)" fill="#c3c3c3"/>
            <path id="Path_26643" data-name="Path 26643" d="M153.173,202.413h66.85v-5.064a.379.379,0,0,0-.379-.379H153.553a.38.38,0,0,0-.38.379Z" transform="translate(45.667 58.725)" fill="#fff" fill-rule="evenodd"/>
            <path id="Path_26644" data-name="Path 26644" d="M177.63,199.747h4.228a1.47,1.47,0,0,1,1.467,1.467v9.959a1.471,1.471,0,0,1-1.467,1.467H177.63a1.471,1.471,0,0,1-1.467-1.467v-9.959a1.47,1.47,0,0,1,1.467-1.467" transform="translate(52.521 59.552)" fill="#33dbce" fill-rule="evenodd"/>
            <rect id="Rectangle_2613" data-name="Rectangle 2613" width="74.783" height="22.537" transform="translate(89.094 280.68)" fill="#0e1123"/>
            <path id="Path_26645" data-name="Path 26645" d="M60.8,193.04a75.777,75.777,0,0,1,7.608-31.179q-.444.913-.866,1.838H91.852a53.889,53.889,0,0,0-9.286,22.564H61.29q-.389,3.345-.488,6.776" transform="translate(18.127 48.257)" fill="#182b28" fill-rule="evenodd"/>
            <path id="Path_26646" data-name="Path 26646" d="M135.813,155.952v16.96H66a74.26,74.26,0,0,1,51.376-41.953v24.993Z" transform="translate(19.676 39.044)" fill="#182b28" fill-rule="evenodd"/>
            <path id="Path_26647" data-name="Path 26647" d="M71.007,227.684A75.711,75.711,0,0,1,60.78,189.542a76.874,76.874,0,0,1,.518-8.883H89.451v47.025Z" transform="translate(18.121 53.862)" fill="#556461" fill-rule="evenodd"/>
            <rect id="Rectangle_2614" data-name="Rectangle 2614" width="56.306" height="29.529" transform="translate(107.572 252.016)" fill="#2d3937"/>
            <rect id="Rectangle_2615" data-name="Rectangle 2615" width="16.489" height="13.384" transform="translate(131.505 238.633)" fill="#556461"/>
            <rect id="Rectangle_2616" data-name="Rectangle 2616" width="20.257" height="3.065" transform="translate(129.622 235.568)" fill="#182b28"/>
            <rect id="Rectangle_2617" data-name="Rectangle 2617" width="35.736" height="3.026" transform="translate(121.882 232.542)" fill="#0e1123"/>
            <path id="Path_26648" data-name="Path 26648" d="M123.224,163.277c.019.2.03.4.03.6,0,4.924-5.681,8.916-12.688,8.916s-12.684-3.992-12.684-8.916c0-.2.009-.4.027-.6Z" transform="translate(29.183 48.679)" fill="#0e1123" fill-rule="evenodd"/>
            <rect id="Rectangle_2618" data-name="Rectangle 2618" width="11.307" height="3.828" transform="translate(134.097 224.095)" fill="#182b28"/>
            <path id="Path_26649" data-name="Path 26649" d="M101.845,173.632V169.26a17.16,17.16,0,0,0,15.083,0v4.372Z" transform="translate(30.364 50.463)" fill="#556461" fill-rule="evenodd"/>
            <path id="Path_26650" data-name="Path 26650" d="M74.563,204.224a8.177,8.177,0,1,1,8.177-8.177,8.193,8.193,0,0,1-8.177,8.177" transform="translate(19.792 56.011)" fill="#2b2b2b" fill-rule="evenodd"/>
            <path id="Path_26651" data-name="Path 26651" d="M73.991,201.161a5.687,5.687,0,1,1,5.686-5.688,5.7,5.7,0,0,1-5.686,5.688" transform="translate(20.364 56.583)" fill="#556461" fill-rule="evenodd"/>
            <rect id="Rectangle_2619" data-name="Rectangle 2619" width="19.233" height="15.868" transform="translate(130.486 191.959) rotate(-48.683)" fill="#556461"/>
            <rect id="Rectangle_2620" data-name="Rectangle 2620" width="17.426" height="10.364" transform="matrix(0.66, -0.751, 0.751, 0.66, 145.252, 179.33)" fill="#46504e"/>
            <rect id="Rectangle_2621" data-name="Rectangle 2621" width="2.784" height="12.761" transform="matrix(0.66, -0.751, 0.751, 0.66, 155.857, 165.452)" fill="#182b28"/>
          </g>
        </g>
      </g>
    </g>
  </g>
</svg>
