<svg xmlns="http://www.w3.org/2000/svg" xmlns:xlink="http://www.w3.org/1999/xlink" width="144.397" height="183.276" viewBox="0 0 144.397 183.276">
  <defs>
    <clipPath id="clip-path">
      <rect id="Rectangle_3492" data-name="Rectangle 3492" width="65.258" height="51.872" transform="translate(0 0)" fill="none" stroke="#fff" stroke-width="2"/>
    </clipPath>
  </defs>
  <g id="Group_14831" data-name="Group 14831" transform="translate(-1032.226 -497.129)">
    <g id="Group_14734" data-name="Group 14734" transform="translate(1176.623 497.129) rotate(90)">
      <path id="Union_1" data-name="Union 1" d="M0,72.2q0-1.519.062-3.022A72.261,72.261,0,0,1,139.874,46.771l43.4,25.428-43.4,25.429A72.259,72.259,0,0,1,0,72.2Z" transform="translate(0)" fill="#33dbce"/>
      <ellipse id="Ellipse_2902" data-name="Ellipse 2902" cx="58.901" cy="58.137" rx="58.901" ry="58.137" transform="translate(13.194 14.063)" fill="#0d2557"/>
    </g>
    <g id="Group_14673" data-name="Group 14673" transform="matrix(0.848, -0.53, 0.53, 0.848, 1063.428, 563.496)">
      <g id="Group_14672" data-name="Group 14672" transform="translate(0 0)" clip-path="url(#clip-path)">
        <path id="Path_29505" data-name="Path 29505" d="M53.08,23.682H65.329v4.9H53.08Zm4.083,28.581-9.881-7.349,2.94-3.92L60.1,48.343Zm-6.7-41.075-2.94-3.92L57.163,0,60.1,3.92ZM10.616,49V35.931H4.9A4.727,4.727,0,0,1,1.429,34.5,4.727,4.727,0,0,1,0,31.031v-9.8a4.727,4.727,0,0,1,1.429-3.471A4.727,4.727,0,0,1,4.9,16.332H19.6l16.332-9.8v39.2L19.6,35.931H15.516V49ZM39.2,37.074V15.189a14.917,14.917,0,0,1,3.552,4.777A14.1,14.1,0,0,1,44.1,26.131,14.1,14.1,0,0,1,42.749,32.3,14.917,14.917,0,0,1,39.2,37.074" transform="translate(0 -0.248)" fill="none" stroke="#fff" stroke-width="2"/>
      </g>
    </g>
  </g>
</svg>
