<svg xmlns="http://www.w3.org/2000/svg" width="36.328" height="36.328" viewBox="0 0 36.328 36.328">
  <path id="Icon_awesome-bullseye" data-name="Icon awesome-bullseye" d="M18.164.563A18.164,18.164,0,1,0,36.328,18.727,18.164,18.164,0,0,0,18.164.563Zm0,31.641A13.477,13.477,0,1,1,31.641,18.727,13.469,13.469,0,0,1,18.164,32.2Zm0-22.852a9.375,9.375,0,1,0,9.375,9.375A9.375,9.375,0,0,0,18.164,9.352Zm0,14.063a4.688,4.688,0,1,1,4.688-4.687A4.693,4.693,0,0,1,18.164,23.414Z" transform="translate(0 -0.563)" fill="#4d6c9c"/>
</svg>
