<svg id="Group_14788" data-name="Group 14788" xmlns="http://www.w3.org/2000/svg" xmlns:xlink="http://www.w3.org/1999/xlink" width="83.497" height="83.554" viewBox="0 0 83.497 83.554">
  <defs>
    <clipPath id="clip-path">
      <rect id="Rectangle_3603" data-name="Rectangle 3603" width="47.796" height="49.417" fill="#fff"/>
    </clipPath>
  </defs>
  <path id="Path_30294" data-name="Path 30294" d="M50.6,180.8v35.883a47.648,47.648,0,0,0,47.614,47.671H134.1V231.979a51.12,51.12,0,0,0-51.122-51.122H50.6Z" transform="translate(-50.6 -180.8)" fill="#44d0bd"/>
  <g id="Group_14780" data-name="Group 14780" transform="translate(17.839 17.069)">
    <path id="Path_30280" data-name="Path 30280" d="M40.953,1.211H36.81v1.1H35.226v-1.1H29.865l-1.22,1.1h-.974l-.61,1.34-.609.975.488,3.411-.854.121-.121.975,1.218.609,2.072.121-.611.975-.73.731-.488.609v1.218l1.1.853-1.1.366-.974.366-1.584.853-.974.244-1.341-.366-.974.61v.974l.853.731,1.584.73v.854l1.218-.121.609-.732h.975l.731-.73.974-1.95.732-.853.609-1.706V16.44L28.524,17.9l-1.1,1.585-1.7.853H23.895l-1.463-.123-1.34-1.463-1.584-1.339.853-.977.61-2.193,1.827-1.1,1.1-.974v-1.1l-.975-.486V7.79L21.579,7.3H19.752V5.6l.73-.366,1.1-.366V2.916l-.609-.609-1.951,2.8V6.937L16.949,11.08l-1.461,4.508-2.681,3.778-1.828,1.95-1.218.853L7.994,23.386,10.247,24.6l.975,2.925,1.523.609,1.523-.243,1.218.487-1.1.487H10.735L8.177,24.6l-1.829.731,1.22.853.61,1.1,1.035,1.035.426.915-.731.243-1.145-1-.8-.7-.974-.732L4.7,26.189v1.1l1.279,1.463h1.1l1.827,1.463-1.95-.732.487,1.707,1.463.609v.974L7.324,32.4l-.61-1.1L5.009,30.82,5.5,29.479H.5v.853l1.217,1.463,1.1-.73V32.4h2.8l1.34,1.34L8.42,35.206l1.827-.244v-1.34l.975-.61.853,1.1h1.218l1.1-.731.853.731v.73h.975l1.1-.73.487,1.707v1.1l1.34,1.218,3.169.61.853,1.611,1.463.7.73,1.341-.974,1.584-1.34,2.194-1.1.852L22.8,48l1.218.73h2.437v-.609l.366-1.1.366-2.314H25.6l-.244-.975h.975l.487-.974H28.28l.977-1.218L28.4,40.351l1.95-1.978.364-3.167-1.46-2.8-.611-1.584-.609-1.341,1.22-.243,1.339-.123.488-.974.609.121.975,1.341.853.121,1.1-.244,1.463.123,1.46-.244,1.1-1.218-1.1-.974.123-1.22h.731l.975-.364,1.1-.854,1.584-1.218.121-3.411L40.71,19.61l-1.463-.366-.61-1.341.732-1.34.364-.853,1.463.853,1.584-.366.609-.731.123-2.315,1.1-1.339.975-1.707.243-2.315V6.45l.853-.975L45.1,4.988,44.913,4.5l-.974-.255L43.512,3.4V1.819L42.781.6Z" transform="translate(0.084 0.102)" fill="#fff"/>
    <g id="Group_14779" data-name="Group 14779" transform="translate(0 0)">
      <g id="Group_14778" data-name="Group 14778" clip-path="url(#clip-path)">
        <path id="Path_30281" data-name="Path 30281" d="M45.1,4.988,44.913,4.5l-.974-.255L43.512,3.4V1.82L42.781.6l-1.827.61H36.81v1.1H35.226v-1.1H29.865l-1.218,1.1h-.975l-.609,1.341-.61.974.488,3.412-.853.121-.123.974,1.218.61,2.071.121-.609.975-.731.73-.487.61V13.4l1.1.853-1.1.366-.975.366-1.584.853-.974.244-1.34-.366-.975.609v.975l.853.731,1.584.73v.854l1.218-.123.61-.731h.974l.731-.73.974-1.95.731-.853.61-1.707v2.925L28.524,17.9l-1.1,1.584-1.707.853H23.895l-1.463-.121-1.34-1.463-1.584-1.34.853-.974.61-2.194,1.827-1.1,1.1-.974v-1.1l-.975-.487V7.79L21.579,7.3H19.752V5.6l.73-.364,1.1-.366V2.917l-.609-.61-1.95,2.8V6.937L16.95,11.08l-1.463,4.509-2.681,3.777-1.827,1.95-1.218.853L7.993,23.387l2.255,1.218.974,2.924,1.523.61,1.523-.244,1.218.488-1.1.487H10.735L8.177,24.605l-1.828.731,1.218.853.61,1.1,1.035,1.035.426.915-.731.243-1.145-1-.8-.7-.975-.731L4.7,26.189v1.1l1.279,1.461h1.1L8.907,30.21l-1.949-.731.487,1.707,1.461.609v.974L7.323,32.4l-.609-1.1L5.009,30.82,5.5,29.479H.5v.853l1.218,1.463,1.1-.731V32.4h2.8l1.341,1.34L8.42,35.206l1.828-.244v-1.34l.974-.61.853,1.1h1.218l1.1-.731.853.731v.731h.975l1.1-.731.488,1.706v1.1l1.34,1.218,3.168.609.853,1.612,1.463.7.731,1.34-.975,1.585-1.34,2.193-1.1.853L22.8,48l1.218.73h2.437v-.609l.366-1.1.366-2.315H25.6l-.243-.974h.974l.487-.975h1.463l.974-1.218-.853-1.19,1.95-1.978.366-3.167-1.463-2.8-.609-1.584-.61-1.341,1.218-.243,1.341-.123.487-.974.609.121.975,1.341.853.121,1.1-.244,1.461.123,1.463-.244,1.1-1.218-1.1-.975.121-1.218h.731l.975-.364,1.1-.854,1.584-1.218.123-3.411L40.71,19.61l-1.463-.366L38.638,17.9l.731-1.34.366-.853,1.461.853,1.584-.366.61-.731.121-2.315,1.1-1.34.974-1.706.244-2.315V6.45l.853-.975Z" transform="translate(0.084 0.102)" fill="#fff"/>
      </g>
    </g>
  </g>
</svg>
