<svg xmlns="http://www.w3.org/2000/svg" width="59.681" height="70.474" viewBox="0 0 59.681 70.474">
  <g id="Group_14755" data-name="Group 14755" transform="translate(-321.659 -910.144)">
    <g id="Group_14747" data-name="Group 14747" transform="translate(-5.892 0)">
      <g id="Union_1" data-name="Union 1" transform="translate(327.551 910.144)" fill="none">
        <path d="M3,70.475a3,3,0,0,1-3-3V3A3,3,0,0,1,3,0H56.681a3,3,0,0,1,3,3V67.474a3,3,0,0,1-3,3Z" stroke="none"/>
        <path d="M 56.68109893798828 68.47451019287109 C 57.23233413696289 68.47451019287109 57.68080139160156 68.02562713623047 57.68080139160156 67.47389221191406 L 57.68080139160156 3.000595808029175 C 57.68080139160156 2.448873519897461 57.23233413696289 2.000006914138794 56.68109893798828 2.000006914138794 L 2.999700784683228 2.000006914138794 C 2.448467254638672 2.000006914138794 2.000000715255737 2.448873519897461 2.000000715255737 3.000595808029175 L 2.000000715255737 67.47389221191406 C 2.000000715255737 68.02562713623047 2.448467254638672 68.47451019287109 2.999700784683228 68.47451019287109 L 56.68109893798828 68.47451019287109 M 56.68109893798828 70.47451019287109 L 2.999700784683228 70.47451019287109 C 1.342800736427307 70.47451019287109 6.958007929824817e-07 69.13079833984375 6.958007929824817e-07 67.47389221191406 L 6.958007929824817e-07 3.000595808029175 C 6.958007929824817e-07 1.343706846237183 1.342800736427307 6.837293767603114e-06 2.999700784683228 6.837293767603114e-06 L 56.68109893798828 6.837293767603114e-06 C 58.3380012512207 6.837293767603114e-06 59.68080139160156 1.343706846237183 59.68080139160156 3.000595808029175 L 59.68080139160156 67.47389221191406 C 59.68080139160156 69.13079833984375 58.3380012512207 70.47451019287109 56.68109893798828 70.47451019287109 Z" stroke="none" fill="#fff"/>
      </g>
    </g>
    <g id="Rectangle_3593" data-name="Rectangle 3593" transform="translate(327.977 949)" fill="none" stroke="#fff" stroke-width="2">
      <rect width="47.045" height="2.106" rx="1.053" stroke="none"/>
      <rect x="1" y="1" width="45.045" height="0.106" rx="0.053" fill="none"/>
    </g>
    <g id="Rectangle_3594" data-name="Rectangle 3594" transform="translate(327.977 967)" fill="none" stroke="#fff" stroke-width="2">
      <rect width="47.045" height="2.106" rx="1.053" stroke="none"/>
      <rect x="1" y="1" width="45.045" height="0.106" rx="0.053" fill="none"/>
    </g>
    <g id="Rectangle_3595" data-name="Rectangle 3595" transform="translate(327.977 958)" fill="none" stroke="#fff" stroke-width="2">
      <rect width="47.045" height="2.106" rx="1.053" stroke="none"/>
      <rect x="1" y="1" width="45.045" height="0.106" rx="0.053" fill="none"/>
    </g>
    <g id="Icon_awesome-bell" data-name="Icon awesome-bell" transform="translate(341.607 917.484)" fill="#44d0bd">
      <path d="M 9.893291473388672 21.61328125 C 9.255389213562012 21.61328125 8.692868232727051 21.28412818908691 8.366412162780762 20.78662109375 L 11.42018032073975 20.78662109375 C 11.09372329711914 21.28412818908691 10.53120040893555 21.61328125 9.893291473388672 21.61328125 Z M 18.36885070800781 17.373291015625 L 1.417731523513794 17.373291015625 C 1.131521463394165 17.373291015625 1.001131415367126 17.12766075134277 0.9999614953994751 16.95325088500977 C 0.9992914795875549 16.85297012329102 1.036091446876526 16.76428031921387 1.112461447715759 16.68218040466309 C 1.162911415100098 16.62796974182129 1.216281414031982 16.57188987731934 1.271851420402527 16.51348114013672 C 2.228701591491699 15.50754070281982 3.830171585083008 13.82390022277832 3.830171585083008 9.186640739440918 C 3.830171585083008 6.321940422058105 5.826231479644775 3.906560659408569 8.684231758117676 3.312860727310181 L 9.480841636657715 3.147380590438843 L 9.480841636657715 2.333760738372803 L 9.480841636657715 1.413330674171448 C 9.480841636657715 1.185420632362366 9.665861129760742 1.000000596046448 9.893291473388672 1.000000596046448 C 10.1207218170166 1.000000596046448 10.30574131011963 1.185420632362366 10.30574131011963 1.413330674171448 L 10.30574131011963 2.333760738372803 L 10.30574131011963 3.147380590438843 L 11.10235118865967 3.312860727310181 C 13.96035194396973 3.906560659408569 15.95641136169434 6.321940422058105 15.95641136169434 9.186640739440918 C 15.95641136169434 13.82390022277832 17.55788230895996 15.50754070281982 18.51473236083984 16.51348114013672 C 18.5703010559082 16.57188987731934 18.62367057800293 16.62796974182129 18.67429161071777 16.68237113952637 C 18.75066184997559 16.76434135437012 18.78729057312012 16.85284996032715 18.78662109375 16.95333099365234 C 18.78556060791016 17.12802124023438 18.65524101257324 17.373291015625 18.36885070800781 17.373291015625 Z" stroke="none"/>
      <path d="M 17.05056381225586 16.373291015625 C 16.0850830078125 15.17178535461426 14.95641136169434 13.12786769866943 14.95641136169434 9.186640739440918 C 14.95641136169434 7.998740673065186 14.56199169158936 6.900890827178955 13.81578159332275 6.0117506980896 C 13.08566188812256 5.141790390014648 12.04978179931641 4.531020641326904 10.89896106719971 4.291960716247559 L 9.893291473388672 4.083046436309814 L 8.887621879577637 4.291960716247559 C 7.736801624298096 4.531020641326904 6.700921535491943 5.141790390014648 5.97080135345459 6.0117506980896 C 5.224591255187988 6.900890827178955 4.830171585083008 7.998740673065186 4.830171585083008 9.186640739440918 C 4.830171585083008 13.12786769866943 3.701499462127686 15.17178535461426 2.736019134521484 16.373291015625 L 17.05056381225586 16.373291015625 M 9.893291473388672 22.61328125 C 8.333331108093262 22.61328125 7.067961692810059 21.34790992736816 7.067961692810059 19.78662109375 L 12.71863174438477 19.78662109375 C 12.71863174438477 21.34790992736816 11.45325183868408 22.61328125 9.893291473388672 22.61328125 Z M 18.36885070800781 18.373291015625 L 1.417731523513794 18.373291015625 C 0.5732614994049072 18.373291015625 0.004841473419219255 17.68428993225098 -1.852661080192775e-05 16.9599609375 C -0.002228526631370187 16.62650108337402 0.115261472761631 16.28598022460938 0.3802514672279358 16.00110054016113 C 1.233551502227783 15.08421039581299 2.830171585083008 13.7048807144165 2.830171585083008 9.186640739440918 C 2.830171585083008 5.754900455474854 5.236371517181396 3.00774073600769 8.480841636657715 2.333760738372803 L 8.480841636657715 1.413330674171448 C 8.480841636657715 0.6329106092453003 9.113311767578125 6.24999984211172e-07 9.893291473388672 6.24999984211172e-07 C 10.67327117919922 6.24999984211172e-07 11.30574131011963 0.6329106092453003 11.30574131011963 1.413330674171448 L 11.30574131011963 2.333760738372803 C 14.55021190643311 3.00774073600769 16.95641136169434 5.754900455474854 16.95641136169434 9.186640739440918 C 16.95641136169434 13.7048807144165 18.55303192138672 15.08421039581299 19.40633201599121 16.00110054016113 C 19.67132186889648 16.28554153442383 19.78881072998047 16.62650108337402 19.78660202026367 16.9599609375 C 19.78218078613281 17.68428993225098 19.21332168579102 18.373291015625 18.36885070800781 18.373291015625 Z" stroke="none" fill="#fff"/>
    </g>
  </g>
</svg>
