<svg xmlns="http://www.w3.org/2000/svg" xmlns:xlink="http://www.w3.org/1999/xlink" width="99.99" height="126.913" viewBox="0 0 99.99 126.913">
  <defs>
    <clipPath id="clip-path">
      <rect id="Rectangle_3560" data-name="Rectangle 3560" width="53.764" height="61.84" transform="translate(0 0)" fill="#fff"/>
    </clipPath>
  </defs>
  <g id="Group_14815" data-name="Group 14815" transform="translate(-348.005 -2599.25)">
    <g id="Group_14708" data-name="Group 14708" transform="translate(2336.994 1590.25) rotate(90)">
      <path id="Union_1" data-name="Union 1" d="M0,49.994Q0,48.943.043,47.9A50.039,50.039,0,0,1,96.858,32.386l30.055,17.608L96.858,67.6A50.037,50.037,0,0,1,0,49.994Z" transform="translate(1009 1889)" fill="#33dbce"/>
      <ellipse id="Ellipse_2902" data-name="Ellipse 2902" cx="40.787" cy="40.258" rx="40.787" ry="40.258" transform="translate(1018.136 1898.737)" fill="#0d2557"/>
    </g>
    <g id="Group_14709" data-name="Group 14709" transform="translate(371.118 2617)">
      <g id="Group_14705" data-name="Group 14705" clip-path="url(#clip-path)">
        <path id="Path_30188" data-name="Path 30188" d="M26.882,11.723A16.493,16.493,0,0,0,10.407,28.2a26.112,26.112,0,0,0,5.328,14.863A18.227,18.227,0,0,1,19.45,53.975a1.091,1.091,0,0,0,1.091,1.092H33.222a1.092,1.092,0,0,0,1.092-1.092,18.22,18.22,0,0,1,3.715-10.914A26.119,26.119,0,0,0,43.357,28.2,16.494,16.494,0,0,0,26.882,11.723m9.4,30.02a20.5,20.5,0,0,0-4.126,11.14h-3.81L33.4,34.73a1.092,1.092,0,0,0-1.516-1.281c-4.482,2.109-9.989-.006-10.043-.027a1.092,1.092,0,0,0-1.453,1.308l5.053,18.153H21.6a20.5,20.5,0,0,0-4.126-11.14A24.179,24.179,0,0,1,12.59,28.2a14.292,14.292,0,0,1,28.583,0,24.179,24.179,0,0,1-4.886,13.545M26.9,49.962,23.026,36.051a16.53,16.53,0,0,0,7.712.114Z" fill="#fff"/>
        <path id="Path_30189" data-name="Path 30189" d="M52.672,25.79H46.42a1.092,1.092,0,0,0,0,2.184h6.252a1.092,1.092,0,0,0,0-2.184" fill="#fff"/>
        <path id="Path_30190" data-name="Path 30190" d="M1.092,27.974H7.344a1.092,1.092,0,1,0,0-2.184H1.092a1.092,1.092,0,1,0,0,2.184" fill="#fff"/>
        <path id="Path_30191" data-name="Path 30191" d="M33.167,56.27h-12.5a1.092,1.092,0,1,0,0,2.184h12.5a1.092,1.092,0,0,0,0-2.184" fill="#fff"/>
        <path id="Path_30192" data-name="Path 30192" d="M31.343,59.656H22.486a1.092,1.092,0,1,0,0,2.184h8.857a1.092,1.092,0,1,0,0-2.184" fill="#fff"/>
        <path id="Path_30193" data-name="Path 30193" d="M26.882,8.436a1.092,1.092,0,0,0,1.092-1.092V1.092a1.092,1.092,0,1,0-2.184,0V7.344a1.092,1.092,0,0,0,1.092,1.092" fill="#fff"/>
        <path id="Path_30194" data-name="Path 30194" d="M40.7,14.158a1.09,1.09,0,0,0,.772-.32l4.421-4.421a1.092,1.092,0,0,0-1.544-1.544l-4.421,4.421a1.092,1.092,0,0,0,.772,1.864" fill="#fff"/>
        <path id="Path_30195" data-name="Path 30195" d="M12.3,13.839A1.092,1.092,0,1,0,13.839,12.3L9.418,7.874A1.092,1.092,0,0,0,7.874,9.418Z" fill="#fff"/>
      </g>
    </g>
  </g>
</svg>
