<?xml version="1.0" encoding="utf-8"?>
<!-- Generator: Adobe Illustrator 27.0.0, SVG Export Plug-In . SVG Version: 6.00 Build 0)  -->
<svg version="1.1" id="Layer_1" xmlns="http://www.w3.org/2000/svg" xmlns:xlink="http://www.w3.org/1999/xlink" x="0px" y="0px"
	 viewBox="0 0 80 80" style="enable-background:new 0 0 80 80;" xml:space="preserve">
<style type="text/css">
	.st0{clip-path:url(#SVGID_00000009577687716788074090000011885642806109799055_);}
	.st1{fill:#00F4CB;}
	.st2{clip-path:url(#SVGID_00000003097165535164544380000015967848948083949446_);}
	.st3{clip-path:url(#SVGID_00000009587679103419674400000016949311882189347003_);}
	.st4{clip-path:url(#SVGID_00000062883334494738960590000004193559237931047091_);}
	.st5{clip-path:url(#SVGID_00000150101380610454726260000004620664769620959889_);}
</style>
<g id="Group_14237" transform="translate(0 306.276)">
	<g>
		<defs>
			<rect id="SVGID_00000180326664589194548060000011894136758732345000_" y="-306.3" width="80" height="80"/>
		</defs>
		<clipPath id="SVGID_00000124859385279905690900000006422996869420980136_">
			<use xlink:href="#SVGID_00000180326664589194548060000011894136758732345000_"  style="overflow:visible;"/>
		</clipPath>
		<g id="Group_14236" style="clip-path:url(#SVGID_00000124859385279905690900000006422996869420980136_);">
			<path id="Path_26559" class="st1" d="M48.9-245.6h-18v-6.4c0-1.4,1.2-2.6,2.6-2.6c0,0,0,0,0,0h12.9c1.4,0,2.6,1.2,2.6,2.6V-245.6
				z"/>
			<path id="Path_26560" class="st1" d="M48.9-272.6h-18l-2.6-6.4h23.1L48.9-272.6z"/>
			<path id="Path_26561" d="M72-248.8h-2.6v-27.7c0-0.7-0.6-1.3-1.3-1.3l0,0H11.6c-0.7,0-1.3,0.6-1.3,1.3v27.6H7.7v-27.6
				c0-2.1,1.7-3.9,3.9-3.9h56.6c2.1,0,3.9,1.7,3.9,3.9V-248.8z"/>
			<rect id="Rectangle_2596" x="17" y="-246.9" width="45.5" height="2.6"/>
			<path id="Path_26562" d="M46.3-279h-2.6v-3.9H36v3.9h-2.6v-6.4h12.9V-279z"/>
			
				<rect id="Rectangle_2597" x="40.6" y="-297.3" transform="matrix(0.9966 -8.296276e-02 8.296276e-02 0.9966 24.2628 2.4727)" width="2.6" height="13.2"/>
			
				<rect id="Rectangle_2598" x="31.2" y="-292" transform="matrix(8.296276e-02 -0.9966 0.9966 8.296276e-02 324.4166 -228.8936)" width="13.2" height="2.6"/>
			<path id="Path_26563" d="M39.9-295.7c-2.8,0-5.1-2.3-5.1-5.1c0-2.8,2.3-5.1,5.1-5.1s5.1,2.3,5.1,5.1
				C45-298,42.7-295.7,39.9-295.7 M39.9-303.4c-1.4,0-2.6,1.2-2.6,2.6c0,1.4,1.2,2.6,2.6,2.6s2.6-1.2,2.6-2.6c0,0,0,0,0,0
				C42.4-302.3,41.3-303.4,39.9-303.4"/>
			<path id="Path_26564" d="M57.9-249.4c-5,0-9-4-9-9c0-5,4-9,9-9s9,4,9,9c0,1.2-0.2,2.4-0.7,3.5l-2.4-1c1.4-3.3-0.2-7-3.4-8.4
				c-3.3-1.4-7,0.2-8.4,3.4s0.2,7,3.4,8.4c0.8,0.3,1.6,0.5,2.5,0.5c0.3,0,0.7,0,1-0.1l0.4,2.5C58.8-249.5,58.3-249.4,57.9-249.4"/>
			<path id="Path_26565" d="M66.9-232.7h-2.6v-6.5c0-1.4-0.4-2.7-1.2-3.8l-8.1-11.2C54.3-255,54-256,54-257v-0.5
				c0-2.6,2.1-4.8,4.8-4.8c1.4,0,2.8,0.7,3.7,1.8l7.7,9.6c0.7,0.9,1.8,1.5,3,1.4h1.4v2.6h-1.4c-2,0-3.8-0.9-5-2.4l-7.7-9.6
				c-0.8-0.9-2.1-1.1-3.1-0.4c-0.5,0.4-0.8,1-0.8,1.7v0.5c0,0.5,0.1,0.9,0.4,1.3l8.1,11.2c1.1,1.5,1.7,3.4,1.7,5.3L66.9-232.7z"/>
			<path id="Path_26566" d="M77.1-232.4l-2.5-0.6l2.2-8.8c0.2-0.9,0.3-1.9,0.3-2.8V-261c0-2.3-0.7-4.5-1.9-6.4l-4.6-6.8
				c-0.2-0.2-0.4-0.4-0.6-0.6l1.4-2.2c0.5,0.3,1,0.8,1.4,1.3l4.6,6.8c1.6,2.3,2.4,5.1,2.4,7.8v16.4c0,1.2-0.1,2.3-0.4,3.4
				L77.1-232.4z"/>
			<path id="Path_26567" d="M21.9-249.4c-0.5,0-0.9,0-1.4-0.1l0.4-2.5c3.5,0.5,6.8-1.9,7.3-5.4c0.5-3.5-1.9-6.8-5.4-7.3
				c-3.5-0.5-6.8,1.9-7.3,5.4c-0.1,0.3-0.1,0.7-0.1,1c0,0.9,0.2,1.7,0.5,2.5l-2.4,1c-1.9-4.6,0.2-9.9,4.8-11.8
				c4.6-1.9,9.9,0.2,11.8,4.8c1.9,4.6-0.2,9.9-4.8,11.8C24.3-249.7,23.1-249.4,21.9-249.4"/>
			<path id="Path_26568" d="M15.4-232.7h-2.6v-6.5c0-1.9,0.6-3.8,1.7-5.3l8.1-11.2c0.3-0.4,0.4-0.8,0.4-1.3v-0.5
				c0-1.2-1-2.2-2.2-2.2c-0.7,0-1.3,0.3-1.7,0.8l-7.7,9.6c-1.2,1.5-3.1,2.4-5,2.4H5.1v-2.6h1.4c1.2,0,2.3-0.5,3-1.4l7.7-9.6
				c1.6-2.1,4.6-2.4,6.7-0.7c1.1,0.9,1.8,2.3,1.8,3.7v0.5c0,1-0.3,2-0.9,2.8L16.7-243c-0.8,1.1-1.2,2.4-1.2,3.8V-232.7z"/>
			<path id="Path_26569" d="M2.6-232.4l-2.2-8.8c-0.3-1.1-0.4-2.3-0.4-3.4V-261c0-2.8,0.8-5.5,2.4-7.8l4.6-6.8
				c0.4-0.5,0.8-1,1.4-1.3l1.4,2.2c-0.2,0.2-0.5,0.4-0.6,0.6l-4.6,6.8c-1.3,1.9-1.9,4.1-1.9,6.4v16.4c0,0.9,0.1,1.9,0.3,2.8l2.2,8.8
				L2.6-232.4z"/>
			<rect id="Rectangle_2599" x="62" y="-234.3" width="18" height="8"/>
			<rect id="Rectangle_2600" x="39" y="-254.3" width="2" height="9"/>
			<path id="Path_26570" d="M46.3-257.1H33.4V-270h12.9V-257.1z M36-259.7h7.7v-7.7H36V-259.7z"/>
			<rect id="Rectangle_2601" x="35" y="-265.3" width="10" height="3"/>
			<rect id="Rectangle_2602" y="-234.3" width="18" height="8"/>
		</g>
	</g>
</g>
</svg>
