<svg xmlns="http://www.w3.org/2000/svg" xmlns:xlink="http://www.w3.org/1999/xlink" width="99.99" height="126.913" viewBox="0 0 99.99 126.913">
  <defs>
    <clipPath id="clip-path">
      <rect id="Rectangle_3572" data-name="Rectangle 3572" width="47.947" height="47.026" fill="#fff" stroke="#fff" stroke-width="0.5"/>
    </clipPath>
  </defs>
  <g id="Group_14818" data-name="Group 14818" transform="translate(-1458.505 -3008.25)">
    <g id="Group_14710" data-name="Group 14710" transform="translate(3447.494 1999.25) rotate(90)">
      <path id="Union_1" data-name="Union 1" d="M0,49.994Q0,48.943.043,47.9A50.039,50.039,0,0,1,96.858,32.386l30.055,17.608L96.858,67.6A50.037,50.037,0,0,1,0,49.994Z" transform="translate(1009 1889)" fill="#33dbce"/>
      <ellipse id="Ellipse_2902" data-name="Ellipse 2902" cx="40.787" cy="40.258" rx="40.787" ry="40.258" transform="translate(1018.136 1898.737)" fill="#0d2557"/>
    </g>
    <g id="Group_14730" data-name="Group 14730" transform="translate(1484.35 3033.652)">
      <g id="Group_14729" data-name="Group 14729" transform="translate(0 0)" clip-path="url(#clip-path)">
        <path id="Path_30210" data-name="Path 30210" d="M40.268,10.464a5.232,5.232,0,1,0-5.232-5.232,5.238,5.238,0,0,0,5.232,5.232m0-9.3A4.063,4.063,0,1,1,36.2,5.232a4.068,4.068,0,0,1,4.063-4.063" transform="translate(-16.289 0)" fill="#fff" stroke="#fff" stroke-width="0.5"/>
        <path id="Path_30211" data-name="Path 30211" d="M44.4,57.641h0a.584.584,0,0,0-.584.583L43.8,73.239a.584.584,0,0,0,.583.585h0a.584.584,0,0,0,.584-.584l.017-15.014a.584.584,0,0,0-.583-.585" transform="translate(-20.362 -26.798)" fill="#fff" stroke="#fff" stroke-width="0.5"/>
        <path id="Path_30212" data-name="Path 30212" d="M67.874,16.653A4.856,4.856,0,1,0,63.019,11.8a4.861,4.861,0,0,0,4.855,4.855m0-8.543A3.687,3.687,0,1,1,64.188,11.8a3.692,3.692,0,0,1,3.687-3.687" transform="translate(-29.298 -3.227)" fill="#fff" stroke="#fff" stroke-width="0.5"/>
        <path id="Path_30213" data-name="Path 30213" d="M42.084,24.844H35.069a5.838,5.838,0,0,0-1.857.3A6.33,6.33,0,0,0,27.8,22.087H20.163a6.331,6.331,0,0,0-5.418,3.062,5.829,5.829,0,0,0-1.866-.3H5.864A5.87,5.87,0,0,0,0,30.707V41.619A2.44,2.44,0,0,0,3.722,43.7V56.71a.584.584,0,1,0,1.169,0V31.042a.584.584,0,1,0-1.169,0V41.619a1.277,1.277,0,1,1-2.553,0V30.707a4.7,4.7,0,0,1,4.695-4.695h7.015a4.692,4.692,0,0,1,1.353.2,6.29,6.29,0,0,0-.4,2.2V40.289a2.561,2.561,0,0,0,.017.288V56.71a.584.584,0,1,0,1.168,0V42.473a2.6,2.6,0,0,0,2.865-.01V56.71a.584.584,0,1,0,1.169,0V28.779a.584.584,0,0,0-1.169,0v11.51a1.44,1.44,0,0,1-2.865.209V31.042A.584.584,0,0,0,15,30.908V28.416a5.166,5.166,0,0,1,5.16-5.16H27.8a5.166,5.166,0,0,1,5.16,5.16V30.87a.59.59,0,0,0-.028.172v9.533a1.441,1.441,0,0,1-2.853-.286V28.779a.584.584,0,0,0-1.169,0V56.71a.584.584,0,1,0,1.169,0V42.463a2.6,2.6,0,0,0,2.853.017V56.71a.584.584,0,1,0,1.168,0V40.655a2.578,2.578,0,0,0,.029-.366V28.416a6.3,6.3,0,0,0-.4-2.208,4.693,4.693,0,0,1,1.342-.2h7.015a4.7,4.7,0,0,1,4.695,4.695V41.619a1.277,1.277,0,0,1-2.554,0V31.042a.584.584,0,1,0-1.168,0V56.71a.584.584,0,1,0,1.168,0V43.7a2.44,2.44,0,0,0,3.722-2.082V30.707a5.869,5.869,0,0,0-5.863-5.863" transform="translate(0 -10.269)" fill="#fff" stroke="#fff" stroke-width="0.5"/>
        <path id="Path_30214" data-name="Path 30214" d="M71.67,59.914h0a.585.585,0,0,0-.584.584L71.07,74.3a.585.585,0,0,0,.584.585h0a.585.585,0,0,0,.584-.584l.015-13.8a.584.584,0,0,0-.583-.585" transform="translate(-33.041 -27.855)" fill="#fff" stroke="#fff" stroke-width="0.5"/>
        <path id="Path_30215" data-name="Path 30215" d="M13.293,16.653A4.856,4.856,0,1,0,8.438,11.8a4.861,4.861,0,0,0,4.855,4.855m0-8.543A3.687,3.687,0,1,1,9.606,11.8a3.692,3.692,0,0,1,3.687-3.687" transform="translate(-3.923 -3.227)" fill="#fff" stroke="#fff" stroke-width="0.5"/>
        <path id="Path_30216" data-name="Path 30216" d="M17.09,59.914h0a.584.584,0,0,0-.584.584L16.49,74.3a.585.585,0,0,0,.584.585h0a.585.585,0,0,0,.584-.584l.015-13.8a.584.584,0,0,0-.583-.585" transform="translate(-7.666 -27.855)" fill="#fff" stroke="#fff" stroke-width="0.5"/>
      </g>
    </g>
  </g>
</svg>
