<?xml version="1.0" encoding="utf-8"?>
<!-- Generator: Adobe Illustrator 27.0.0, SVG Export Plug-In . SVG Version: 6.00 Build 0)  -->
<svg version="1.1" id="Layer_1" xmlns="http://www.w3.org/2000/svg" xmlns:xlink="http://www.w3.org/1999/xlink" x="0px" y="0px"
	 viewBox="0 0 80 80" style="enable-background:new 0 0 80 80;" xml:space="preserve">
<style type="text/css">
	.st0{clip-path:url(#SVGID_00000029044055742190853520000010470132644924442521_);}
	.st1{fill:#00F4CB;}
	.st2{clip-path:url(#SVGID_00000008859895377523735390000012464972581064334500_);}
	.st3{clip-path:url(#SVGID_00000155861154152284064420000000176578896590331038_);}
	.st4{clip-path:url(#SVGID_00000121252363840757490640000017673967253020286639_);}
	.st5{clip-path:url(#SVGID_00000183219132286113501610000010394377000626079398_);}
</style>
<g id="Group_14227" transform="translate(1079 15.772)">
	<g>
		<defs>
			<rect id="SVGID_1_" x="-1077" y="-13.8" width="76" height="76"/>
		</defs>
		<clipPath id="SVGID_00000029743949334694811090000016913679210017867655_">
			<use xlink:href="#SVGID_1_"  style="overflow:visible;"/>
		</clipPath>
		<g id="Group_14226" style="clip-path:url(#SVGID_00000029743949334694811090000016913679210017867655_);">
			<path id="Path_26505" class="st1" d="M-1034,3.2h-9.8c-2,0-3.7,1.6-3.7,3.7v7.4h17.2V6.9C-1030.3,4.8-1032,3.2-1034,3.2
				L-1034,3.2"/>
			<path id="Path_26506" class="st1" d="M-1004.6,6.5l-4.9-0.6v14.5l7.4-4.9L-1004.6,6.5z"/>
			<path id="Path_26507" class="st1" d="M-1009.5-9.1l2.5,8.9l4.9,0.6V-14L-1009.5-9.1z"/>
			<path id="Path_26508" class="st1" d="M-1048.8,42.5v4.9c0,2,1.6,3.7,3.7,3.7h12.3c2,0,3.7-1.7,3.7-3.7v-4.9H-1048.8z"/>
			<path id="Path_26509" class="st1" d="M-1073.3,6.5l-2.5,8.9l7.4,4.9V5.9L-1073.3,6.5z"/>
			<path id="Path_26510" class="st1" d="M-1075.8-14V0.5l4.9-0.6l2.5-8.9L-1075.8-14z"/>
			<path id="Path_26511" d="M-1038.9,51.1c-2.7,0-4.9-2.2-4.9-4.9c0-2.7,2.2-4.9,4.9-4.9c2.7,0,4.9,2.2,4.9,4.9l0,0
				C-1034,48.9-1036.2,51.1-1038.9,51.1 M-1038.9,43.7c-1.4,0-2.5,1.1-2.5,2.5c0,1.4,1.1,2.5,2.5,2.5c1.4,0,2.5-1.1,2.5-2.5
				C-1036.5,44.8-1037.6,43.7-1038.9,43.7"/>
			<path id="Path_26512" class="st1" d="M-1075.8,32.7l2.5,8.9l4.9,0.6V27.8L-1075.8,32.7z"/>
			<path id="Path_26513" class="st1" d="M-1070.9,48.3l-4.9-0.6v14.5l7.4-4.9L-1070.9,48.3z"/>
			<path id="Path_26514" d="M-1031.4,43.7h-15c-2.6,0-5-1.7-5.8-4.2l-1.1-3.3c-0.2-0.6-0.3-1.3-0.3-1.9V5.7c0-4.7,3.9-8.6,8.6-8.6
				h12.3c4.7,0,8.6,3.9,8.6,8.6v28.7c0,0.7-0.1,1.3-0.3,1.9l-1.1,3.3C-1026.4,42-1028.8,43.7-1031.4,43.7 M-1051,35.5l1.1,3.3
				c0.5,1.5,1.9,2.5,3.5,2.5h15c1.6,0,3-1,3.5-2.5l1.1-3.3c0.1-0.4,0.2-0.8,0.2-1.2V5.7c0-3.4-2.8-6.1-6.1-6.1h-12.3
				c-3.4,0-6.1,2.8-6.1,6.1v28.7C-1051.2,34.7-1051.1,35.1-1051,35.5"/>
			<path id="Path_26515" class="st1" d="M-1009.5,27.8v14.5l4.9-0.6l2.5-8.9L-1009.5,27.8z"/>
			<path id="Path_26516" class="st1" d="M-1007,48.3l-2.5,8.9l7.4,4.9V47.7L-1007,48.3z"/>
			<path id="Path_26517" d="M-1005.8,8.1c-2.7,0-4.9-2.2-4.9-4.9s2.2-4.9,4.9-4.9c2.7,0,4.9,2.2,4.9,4.9v0
				C-1000.9,5.9-1003.1,8.1-1005.8,8.1 M-1005.8,0.7c-1.4,0-2.5,1.1-2.5,2.5s1.1,2.5,2.5,2.5c1.4,0,2.5-1.1,2.5-2.5
				C-1003.3,1.8-1004.4,0.7-1005.8,0.7"/>
			<path id="Path_26518" d="M-1072.1,8.1c-2.7,0-4.9-2.2-4.9-4.9s2.2-4.9,4.9-4.9c2.7,0,4.9,2.2,4.9,4.9
				C-1067.2,5.9-1069.4,8.1-1072.1,8.1 M-1072.1,0.7c-1.4,0-2.5,1.1-2.5,2.5s1.1,2.5,2.5,2.5s2.5-1.1,2.5-2.5l0,0
				C-1069.6,1.8-1070.7,0.7-1072.1,0.7"/>
			<path id="Path_26519" d="M-1072.1,49.9c-2.7,0-4.9-2.2-4.9-4.9c0-2.7,2.2-4.9,4.9-4.9c2.7,0,4.9,2.2,4.9,4.9l0,0
				C-1067.2,47.7-1069.4,49.9-1072.1,49.9 M-1072.1,42.5c-1.4,0-2.5,1.1-2.5,2.5s1.1,2.5,2.5,2.5s2.5-1.1,2.5-2.5
				C-1069.6,43.6-1070.7,42.5-1072.1,42.5"/>
			<path id="Path_26520" d="M-1005.8,49.9c-2.7,0-4.9-2.2-4.9-4.9s2.2-4.9,4.9-4.9c2.7,0,4.9,2.2,4.9,4.9v0
				C-1000.9,47.7-1003.1,49.9-1005.8,49.9 M-1005.8,42.5c-1.4,0-2.5,1.1-2.5,2.5s1.1,2.5,2.5,2.5c1.4,0,2.5-1.1,2.5-2.5
				C-1003.3,43.6-1004.4,42.5-1005.8,42.5"/>
			
				<rect id="Rectangle_2567" x="-1027.4" y="11.5" transform="matrix(0.8202 -0.5721 0.5721 0.8202 -190.0635 -579.2373)" width="21.9" height="2.5"/>
			
				<rect id="Rectangle_2568" x="-1017.7" y="24.5" transform="matrix(0.5721 -0.8202 0.8202 0.5721 -463.9534 -818.4882)" width="2.5" height="21.9"/>
			<path id="Path_26521" d="M-1010,46l-16.8-8.5l1.1-2.2l17.5,8.9l0,1l-1.2-0.2L-1010,46z"/>
			<path id="Path_26522" d="M-1067.9,46l-0.5-1.1h0l-1.2,0.2l0-0.3v-0.8l17.5-8.9l1.1,2.2L-1067.9,46z"/>
			
				<rect id="Rectangle_2569" x="-1072.4" y="34.2" transform="matrix(0.8202 -0.5721 0.5721 0.8202 -211.1416 -600.8903)" width="21.9" height="2.5"/>
			
				<rect id="Rectangle_2570" x="-1062.6" y="1.8" transform="matrix(0.5721 -0.8202 0.8202 0.5721 -464.5801 -865.0954)" width="2.5" height="21.9"/>
			<path id="Path_26523" d="M-1053,12.4l-16.6-8.4l0-1l1.2,0.2l0.5-1.1l16,8.1L-1053,12.4z"/>
			<path id="Path_26524" d="M-1024.9,12.4l-1.1-2.2l16-8.1l0.5,1.1h0l1.2-0.2l0,0.2V4L-1024.9,12.4z"/>
			<path id="Path_26525" d="M-1034,31.4h-9.8c-2.7,0-4.9-2.2-4.9-4.9V6.9c0-2.7,2.2-4.9,4.9-4.9h9.8c2.7,0,4.9,2.2,4.9,4.9v19.6
				C-1029.1,29.2-1031.3,31.4-1034,31.4 M-1043.8,4.4c-1.4,0-2.5,1.1-2.5,2.5v19.6c0,1.4,1.1,2.5,2.5,2.5h9.8c1.4,0,2.5-1.1,2.5-2.5
				V6.9c0-1.4-1.1-2.5-2.5-2.5H-1043.8z"/>
			<rect id="Rectangle_2571" x="-1047" y="6.2" width="16" height="3"/>
			<rect id="Rectangle_2572" x="-1034" y="12.2" width="3" height="2"/>
			<rect id="Rectangle_2573" x="-1047" y="12.2" width="3" height="2"/>
		</g>
	</g>
</g>
</svg>
