<?xml version="1.0" encoding="utf-8"?>
<!-- Generator: Adobe Illustrator 27.0.0, SVG Export Plug-In . SVG Version: 6.00 Build 0)  -->
<svg version="1.1" id="Layer_1" xmlns="http://www.w3.org/2000/svg" xmlns:xlink="http://www.w3.org/1999/xlink" x="0px" y="0px"
	 viewBox="0 0 80 80" style="enable-background:new 0 0 80 80;" xml:space="preserve">
<style type="text/css">
	.st0{clip-path:url(#SVGID_00000137833805663147876140000017581200470549882034_);}
	.st1{fill:#00F4CB;}
	.st2{clip-path:url(#SVGID_00000039813506279172770100000002519069828104782506_);}
	.st3{clip-path:url(#SVGID_00000119821848233776418530000008730880026032564670_);}
	.st4{clip-path:url(#SVGID_00000092447607149186424640000013442564154590348948_);}
	.st5{clip-path:url(#SVGID_00000003088143502385679060000008311526201556106377_);}
</style>
<g id="Group_14241" transform="translate(1073 311.307)">
	<g>
		<defs>
			<rect id="SVGID_00000090277897354983409270000013477742704644893343_" x="-1072" y="-310.3" width="78" height="78"/>
		</defs>
		<clipPath id="SVGID_00000114752823336128700440000013759444857776518311_">
			<use xlink:href="#SVGID_00000090277897354983409270000013477742704644893343_"  style="overflow:visible;"/>
		</clipPath>
		<g id="Group_14240" style="clip-path:url(#SVGID_00000114752823336128700440000013759444857776518311_);">
			<path id="Path_26586" d="M-1051.1-265.5c-3.1-9.9,2.4-20.5,12.3-23.6c0.5-0.2,1.1-0.3,1.6-0.4l0.5,2.4
				c-8.8,1.9-14.4,10.6-12.4,19.4c0.1,0.5,0.2,0.9,0.4,1.4L-1051.1-265.5z"/>
			<path id="Path_26587" d="M-1033.2-252.4c-5.3,0-10.3-2.2-13.9-6.1l1.8-1.7c6.1,6.6,16.4,7.1,23,1.1c0.4-0.3,0.7-0.7,1.1-1.1
				l1.8,1.7C-1022.8-254.6-1027.9-252.4-1033.2-252.4"/>
			<path id="Path_26588" d="M-1015.2-265.5l-2.4-0.8c2.7-8.6-2-17.8-10.6-20.5c-0.5-0.2-1.1-0.3-1.6-0.4l0.5-2.5
				c10.2,2.1,16.7,12.1,14.6,22.2C-1014.9-266.7-1015-266.1-1015.2-265.5"/>
			<path id="Path_26589" class="st1" d="M-1009.6-263.3l-12.6-7.2l-5.8-1.2l-3.1,5.4l3.9,4.4l12.6,7.2l6.8-1.8L-1009.6-263.3z"/>
			<path id="Path_26590" class="st1" d="M-1044.2-270.6l-12.6,7.2l-1.8,6.9l6.8,1.8l12.6-7.3l3.9-4.4l-3.1-5.4L-1044.2-270.6z"/>
			<path id="Path_26591" class="st1" d="M-1030-275.4l1.9-5.6v-14.5l-5-5l-5,5v14.5l1.9,5.6L-1030-275.4z"/>
			<path id="Path_26592" d="M-1033.2-232.3c-21.5,0-38.8-17.4-38.8-38.8c0-21.5,17.4-38.8,38.8-38.8c21.5,0,38.8,17.4,38.8,38.8
				C-994.3-249.7-1011.7-232.3-1033.2-232.3 M-1033.2-307.5c-20.1,0-36.3,16.3-36.3,36.3s16.3,36.3,36.3,36.3
				c20.1,0,36.3-16.3,36.3-36.3C-996.8-291.2-1013.1-307.5-1033.2-307.5"/>
			<path id="Path_26593" d="M-1033.2-237.3c-18.7,0-33.8-15.1-33.8-33.8c0-18.7,15.1-33.8,33.8-33.8c18.7,0,33.8,15.1,33.8,33.8
				C-999.3-252.5-1014.5-237.3-1033.2-237.3 M-1033.2-302.5c-17.3,0-31.3,14-31.3,31.3s14,31.3,31.3,31.3c17.3,0,31.3-14,31.3-31.3
				C-1001.8-288.4-1015.9-302.5-1033.2-302.5"/>
			<path id="Path_26594" d="M-1058.9-265.9c-0.4-1.7-0.5-3.5-0.5-5.3c0-11.5,7.5-21.7,18.5-25.1l0.7,2.4
				c-10,3.1-16.8,12.3-16.7,22.7c0,1.6,0.2,3.2,0.5,4.8L-1058.9-265.9z"/>
			<path id="Path_26595" d="M-1033.2-244.8c-6.3,0-12.3-2.2-17.1-6.3l1.6-1.9c9,7.7,22.2,7.6,31.1-0.2l1.6,1.9
				C-1020.6-247.1-1026.8-244.8-1033.2-244.8"/>
			<path id="Path_26596" d="M-1007.2-267.1l-2.5-0.4c0.2-1.2,0.3-2.5,0.3-3.7c0-10.4-6.8-19.7-16.7-22.7l0.7-2.4
				c11,3.4,18.5,13.6,18.5,25.1C-1006.8-269.8-1006.9-268.4-1007.2-267.1"/>
			<path id="Path_26597" d="M-1033.2-264.9c-3.5,0-6.3-2.8-6.3-6.3c0-3.5,2.8-6.3,6.3-6.3c3.5,0,6.3,2.8,6.3,6.3l0,0
				C-1026.9-267.7-1029.7-264.9-1033.2-264.9 M-1033.2-274.9c-2.1,0-3.8,1.7-3.8,3.8c0,2.1,1.7,3.8,3.8,3.8c2.1,0,3.8-1.7,3.8-3.8
				l0,0C-1029.4-273.2-1031.1-274.9-1033.2-274.9"/>
		</g>
	</g>
</g>
</svg>
