<svg xmlns="http://www.w3.org/2000/svg" xmlns:xlink="http://www.w3.org/1999/xlink" width="99.99" height="126.913" viewBox="0 0 99.99 126.913">
  <defs>
    <clipPath id="clip-path">
      <rect id="Rectangle_3573" data-name="Rectangle 3573" width="63.23" height="63.239" transform="translate(-12 -8)" fill="#fff" stroke="#fff" stroke-width="1"/>
    </clipPath>
  </defs>
  <g id="Group_14820" data-name="Group 14820" transform="translate(-348.005 -3008.25)">
    <g id="Group_14713" data-name="Group 14713" transform="translate(2336.994 1999.25) rotate(90)">
      <path id="Union_1" data-name="Union 1" d="M0,49.994Q0,48.943.043,47.9A50.039,50.039,0,0,1,96.858,32.386l30.055,17.608L96.858,67.6A50.037,50.037,0,0,1,0,49.994Z" transform="translate(1009 1889)" fill="#33dbce"/>
      <ellipse id="Ellipse_2902" data-name="Ellipse 2902" cx="40.787" cy="40.258" rx="40.787" ry="40.258" transform="translate(1018.136 1898.737)" fill="#0d2557"/>
    </g>
    <g id="Group_14732" data-name="Group 14732" transform="translate(378.118 3037.649)">
      <g id="Group_14731" data-name="Group 14731" transform="translate(0 0)" clip-path="url(#clip-path)">
        <path id="Path_30217" data-name="Path 30217" d="M23.407,6.9a.535.535,0,0,0-.558-.509A16.247,16.247,0,0,0,8.41,16.893a.534.534,0,0,0,.313.687.534.534,0,0,0,.688-.313A15.179,15.179,0,0,1,22.9,7.455a.534.534,0,0,0,.509-.558" transform="translate(-4.278 -3.263)" fill="#fff" stroke="#fff" stroke-width="1"/>
        <path id="Path_30218" data-name="Path 30218" d="M8.193,46.006a.534.534,0,0,0-1.042.237,16.218,16.218,0,0,0,3.73,7.2.534.534,0,0,0,.8-.713,15.146,15.146,0,0,1-3.484-6.729" transform="translate(-3.646 -23.286)" fill="#fff" stroke="#fff" stroke-width="1"/>
        <path id="Path_30219" data-name="Path 30219" d="M44.918,43.416l-6.282-6.282a1.066,1.066,0,0,0-1.031-.276l-4.231-4.23a19.338,19.338,0,1,0-.755.755l4.231,4.23a1.066,1.066,0,0,0,.275,1.031l6.282,6.282a1.068,1.068,0,1,0,1.51-1.511M6.41,32.256a18.269,18.269,0,1,1,12.919,5.351A18.29,18.29,0,0,1,6.41,32.256" transform="translate(0 0)" fill="#fff" stroke="#fff" stroke-width="1"/>
        <path id="Path_30220" data-name="Path 30220" d="M23.1,29.1H38.759a.489.489,0,0,0,0-.978H23.1a.489.489,0,1,0,0,.978" transform="translate(-11.551 -14.366)" fill="#fff" stroke="#fff" stroke-width="1"/>
        <path id="Path_30221" data-name="Path 30221" d="M23.1,39.1H38.759a.489.489,0,0,0,0-.978H23.1a.489.489,0,1,0,0,.978" transform="translate(-11.551 -19.473)" fill="#fff" stroke="#fff" stroke-width="1"/>
        <path id="Path_30222" data-name="Path 30222" d="M23.1,49.1H38.759a.489.489,0,0,0,0-.978H23.1a.489.489,0,1,0,0,.978" transform="translate(-11.551 -24.581)" fill="#fff" stroke="#fff" stroke-width="1"/>
      </g>
    </g>
  </g>
</svg>
