<?xml version="1.0" encoding="utf-8"?>
<!-- Generator: Adobe Illustrator 27.0.0, SVG Export Plug-In . SVG Version: 6.00 Build 0)  -->
<svg version="1.1" id="Layer_1" xmlns="http://www.w3.org/2000/svg" xmlns:xlink="http://www.w3.org/1999/xlink" x="0px" y="0px"
	 viewBox="0 0 80 80" style="enable-background:new 0 0 80 80;" xml:space="preserve">
<style type="text/css">
	.st0{clip-path:url(#SVGID_00000100363917171837381310000000735299337897029032_);}
	.st1{fill:#00F4CB;}
	.st2{clip-path:url(#SVGID_00000085930457388080936210000005230104208115315880_);}
	.st3{clip-path:url(#SVGID_00000172409675142488034780000012102492987230516139_);}
	.st4{clip-path:url(#SVGID_00000093172685338051366240000017997929851836420780_);}
	.st5{clip-path:url(#SVGID_00000031181385984506588190000010393673754042959513_);}
</style>
<g>
	<path id="Path_26526" class="st1" d="M19.5,12.7c-2.8,0-5.6,1-7.8,2.8l-1,0.8c-2.8,0.7-4.9,3.2-4.9,6.2v10.4h0.9
		c0-1.9,1.6-3.5,3.5-3.5v-1.8c2.8,0,5.6-1,7.8-2.7l1-0.8l1,0.8c2.2,1.8,5,2.7,7.8,2.7v1.8c1.9,0,3.5,1.6,3.5,3.5H32v-7.6
		C32,18.3,26.4,12.7,19.5,12.7"/>
	<g>
		<path id="Path_26527_00000085949019883799422150000011995344567761049997_" d="M18.9,44.2c-5.3,0-9.6-4.3-9.6-9.6v-7.9h0.9
			c2.6,0,5.2-0.9,7.3-2.5l1.5-1.2l1.5,1.2c2.1,1.6,4.6,2.5,7.3,2.5h0.9v7.9C28.5,39.9,24.2,44.2,18.9,44.2 M11,28.4v6.2
			c0,4.4,3.5,7.9,7.9,7.9s7.9-3.5,7.9-7.9v-6.2c-2.7-0.2-5.3-1.2-7.5-2.9l-0.4-0.3l-0.4,0.3C16.3,27.2,13.7,28.2,11,28.4"/>
		<path d="M18.9,44.6L18.9,44.6c-5.5,0-10-4.5-10-10v-8.2h1.2c2.5,0,5-0.9,7-2.5l1.7-1.4l1.7,1.4c2,1.6,4.5,2.5,7,2.5h1.2v8.2
			C28.9,40.1,24.4,44.6,18.9,44.6z M9.6,27v7.5c0,5.1,4.2,9.3,9.3,9.3c5.1,0,9.3-4.2,9.3-9.3V27h-0.5c-2.7,0-5.4-0.9-7.5-2.6l-1.3-1
			l-1.3,1c-2.1,1.7-4.8,2.6-7.5,2.6H9.6z M18.9,42.8c-4.5,0-8.2-3.7-8.2-8.2v-6.2H11l0-0.4c2.7-0.2,5.2-1.2,7.3-2.8l0.6-0.5l0.6,0.5
			c2.1,1.7,4.6,2.6,7.3,2.8l0.3,0v6.5C27.1,39.1,23.4,42.8,18.9,42.8z M11.3,28.7v5.8c0,4.2,3.4,7.5,7.5,7.5s7.5-3.4,7.5-7.5v-5.8
			c-2.7-0.2-5.2-1.3-7.3-3l-0.2-0.2l-0.2,0.2C16.6,27.5,14,28.5,11.3,28.7z"/>
	</g>
	<g>
		<path id="Path_26528_00000048480617821234655070000006299555198275359934_" d="M27.6,37.2h-0.2v-1.8h0.2c1.5,0,2.6-1.2,2.6-2.6
			c0-1.5-1.2-2.6-2.6-2.6l0,0v-1.8c2.4,0,4.4,2,4.4,4.4S30.1,37.2,27.6,37.2"/>
		<path d="M27.6,37.5l0-0.4L27.6,37.5h-0.5v-2.5h0.5c1.3,0,2.3-1,2.3-2.3s-1-2.3-2.3-2.3h-0.4v-2.5h0.4c2.6,0,4.7,2.1,4.7,4.7
			S30.2,37.5,27.6,37.5z M27.8,35.8v1c2.1-0.1,3.8-1.9,3.8-4c0-2.1-1.6-3.8-3.7-4v1c1.5,0.2,2.6,1.4,2.6,3
			C30.6,34.4,29.4,35.7,27.8,35.8z"/>
	</g>
	<g>
		<path id="Path_26529_00000016778002908054994000000006918630760797902753_" d="M10.3,37.2h-0.2c-2.4,0-4.4-2-4.4-4.4
			s2-4.4,4.4-4.4c0,0,0,0,0,0v1.8c-1.5,0-2.6,1.2-2.6,2.6c0,1.5,1.2,2.6,2.6,2.6h0.2V37.2z"/>
		<path d="M10.1,37.5c-1.3,0-2.5-0.5-3.3-1.4c-0.9-0.9-1.4-2.1-1.4-3.3s0.5-2.5,1.4-3.3s2.1-1.4,3.3-1.4h0.4l0,2.5h-0.4
			c-1.3,0-2.3,1-2.3,2.3s1,2.3,2.3,2.3h0.5v2.5H10.1C10.1,37.5,10.1,37.5,10.1,37.5z M9.8,28.8c-0.9,0.1-1.8,0.5-2.5,1.2
			c-0.8,0.8-1.2,1.8-1.2,2.8s0.4,2.1,1.2,2.8c0.7,0.7,1.7,1.1,2.7,1.2v-1c-1.6-0.1-2.8-1.4-2.8-3c0-1.5,1.2-2.8,2.6-3V28.8z"/>
	</g>
	<g>
		<path id="Path_26530_00000119836415282562994910000004354006839182937771_" d="M37.3,67H0.5V52.5c0-2.7,1.8-5.1,4.4-5.9l7.8-2.2
			v-2.8h1.8v4.2l-9.1,2.6c-1.9,0.5-3.2,2.3-3.2,4.2v12.7h33.3V52.5c0-2-1.3-3.7-3.2-4.2l-9.1-2.6v-4.2H25v2.8l7.8,2.2
			c2.6,0.8,4.4,3.2,4.4,5.9L37.3,67z"/>
		<path d="M37.6,67.3H0.1V52.5c0-2.9,1.9-5.4,4.7-6.2l7.6-2.2v-2.9h2.5V46l-9.3,2.7c-1.7,0.5-2.9,2.1-2.9,3.9v12.3h32.6V52.5
			c0-1.8-1.2-3.4-2.9-3.9L22.9,46v-4.8h2.5v2.9l7.6,2.2c2.8,0.8,4.7,3.4,4.7,6.2L37.6,67.3z M0.8,66.6h36.1l0-14.1
			c0-2.6-1.7-4.8-4.2-5.6l-8.1-2.3v-2.8h-1v3.5l8.8,2.5c2,0.6,3.4,2.5,3.4,4.6v13h-34v-13c0-2.1,1.4-4,3.4-4.6l8.8-2.5v-3.5h-1v2.8
			L5,47c-2.5,0.7-4.2,3-4.2,5.6V66.6z"/>
	</g>
	<g>
		<rect id="Rectangle_2575_00000134935376176225881880000008812752318326552711_" x="29.4" y="58.3" width="7.2" height="1.4"/>
		<path d="M36.9,60.1H29V58h7.9V60.1z M29.7,59.4h6.5v-0.7h-6.5V59.4z"/>
	</g>
	<g>
		<rect id="Rectangle_2576_00000150785037890311998150000012297736809837648038_" x="28.6" y="53.3" width="1.4" height="13"/>
		<path d="M30.4,66.6h-2.2V52.9h2.2V66.6z M29,65.9h0.7V53.6H29V65.9z"/>
	</g>
	<g>
		<rect id="Rectangle_2577_00000161612113161222632810000007610670255158967209_" x="1.2" y="58.3" width="7.2" height="1.4"/>
		<path d="M8.8,60.1H0.8V58h7.9V60.1z M1.6,59.4h6.5v-0.7H1.6V59.4z"/>
	</g>
	<g>
		<rect id="Rectangle_2578_00000023976615278932910250000005220149298931159226_" x="7.7" y="53.3" width="1.4" height="13"/>
		<path d="M9.5,66.6H7.3V52.9h2.2V66.6z M8.1,65.9h0.7V53.6H8.1V65.9z"/>
	</g>
	<g>
		<path id="Path_26531_00000140734889567770366240000015983769017884600222_" d="M18.9,49.5c-2.5,0-4.8-1.4-5.9-3.6l-0.2-0.4
			l1.6-0.8l0.2,0.4c1.2,2.4,4.1,3.3,6.4,2.1c0.9-0.5,1.7-1.2,2.1-2.1l0.2-0.4l1.6,0.8l-0.2,0.4C23.6,48.1,21.4,49.5,18.9,49.5"/>
		<path d="M18.9,49.8C18.9,49.8,18.9,49.8,18.9,49.8c-2.6,0-5-1.5-6.2-3.8l-0.4-0.7l2.2-1.1l0.3,0.7c1.1,2.2,3.8,3.1,6,2
			c0.9-0.4,1.6-1.1,2-2l0.3-0.7l2.2,1.1L25,46C23.9,48.3,21.5,49.8,18.9,49.8z M18.9,49.1C18.9,49.1,18.9,49.1,18.9,49.1
			c2.3,0,4.5-1.3,5.5-3.4l0-0.1l-0.9-0.5l0,0.1c-0.5,1-1.3,1.8-2.3,2.3c-2.5,1.3-5.6,0.2-6.9-2.3l0-0.1l-0.9,0.5l0,0
			C14.4,47.8,16.5,49.1,18.9,49.1C18.9,49.1,18.9,49.1,18.9,49.1L18.9,49.1C18.9,49.1,18.9,49.1,18.9,49.1L18.9,49.1z"/>
	</g>
	<g>
		<path id="Path_26532_00000094617664432677205610000012883315373814161551_" d="M18.9,53c-3.6,0-6.9-1.9-8.6-5l-0.9-1.6l1.5-0.9
			l0.9,1.6c2.2,3.9,7.2,5.3,11.2,3c1.3-0.7,2.3-1.8,3-3l0.9-1.6l1.5,0.9L27.5,48C25.7,51,22.4,53,18.9,53"/>
		<path d="M18.9,53.3c-3.7,0-7.1-2-8.9-5.2l-1.1-1.9L11,45l1.1,1.9c1,1.8,2.7,3.1,4.7,3.7c2,0.5,4.1,0.3,5.9-0.8
			c1.2-0.7,2.2-1.7,2.9-2.9l1.1-1.9l2.1,1.2l-1.1,1.9C26,51.3,22.6,53.3,18.9,53.3l0-0.7c3.4,0,6.6-1.9,8.3-4.8l0.7-1.3L27,46
			l-0.7,1.3c-0.8,1.3-1.9,2.4-3.2,3.2c-2,1.1-4.3,1.4-6.5,0.8c-2.2-0.6-4-2-5.2-4L10.7,46l-0.9,0.5l0.7,1.3c1.7,3,4.9,4.8,8.3,4.8
			L18.9,53.3z"/>
	</g>
	<path id="Path_26533" d="M61.7,12.7c-2.8,0-5.6,1-7.8,2.8l-1,0.8C50,16.9,48,19.5,48,22.4v10.4h0.9c0-1.9,1.6-3.5,3.5-3.5v-1.8
		c2.8,0,5.6-1,7.8-2.7l1-0.8l1,0.8c2.2,1.8,5,2.7,7.8,2.7v1.8c1.9,0,3.5,1.6,3.5,3.5h0.9v-7.6C74.3,18.3,68.6,12.7,61.7,12.7"/>
	<g>
		<path id="Path_26534_00000080198662485759850520000003900075686818566582_" d="M61.1,44.2c-5.3,0-9.6-4.3-9.6-9.6v-7.9h0.9
			c2.6,0,5.2-0.9,7.3-2.5l1.5-1.2l1.5,1.2c2.1,1.6,4.6,2.5,7.3,2.5h0.9v7.9C70.8,39.9,66.4,44.2,61.1,44.2 M53.2,28.4v6.2
			c0,4.4,3.5,7.9,7.9,7.9c4.4,0,7.9-3.5,7.9-7.9v-6.2c-2.7-0.2-5.3-1.2-7.5-2.9l-0.4-0.3l-0.4,0.3C58.6,27.2,56,28.2,53.2,28.4"/>
		<path d="M61.1,44.6L61.1,44.6c-5.5,0-10-4.5-10-10v-8.2h1.2c2.5,0,5-0.9,7-2.5l1.7-1.4l1.7,1.4c2,1.6,4.5,2.5,7,2.5h1.2v8.2
			C71.1,40.1,66.6,44.6,61.1,44.6z M51.8,27v7.5c0,5.1,4.2,9.3,9.3,9.3c5.1,0,9.3-4.2,9.3-9.3V27h-0.5c-2.7,0-5.4-0.9-7.5-2.6
			l-1.3-1l-1.3,1c-2.1,1.7-4.8,2.6-7.5,2.6H51.8z M61.1,42.8c-4.5,0-8.2-3.7-8.2-8.2v-6.2h0.4l0-0.4c2.7-0.2,5.2-1.2,7.3-2.8
			l0.6-0.5l0.6,0.5c2.1,1.7,4.6,2.6,7.3,2.8l0.3,0v6.5C69.4,39.1,65.7,42.8,61.1,42.8z M53.6,28.7v5.8c0,4.2,3.4,7.5,7.5,7.5
			c4.2,0,7.5-3.4,7.5-7.5v-5.8c-2.7-0.2-5.2-1.3-7.3-3l-0.2-0.2l-0.2,0.2C58.8,27.5,56.3,28.5,53.6,28.7z"/>
	</g>
	<g>
		<path id="Path_26535_00000078730017234395836240000005437628701423910834_" d="M69.9,37.2h-0.2v-1.8h0.2c1.5,0,2.6-1.2,2.6-2.6
			c0-1.5-1.2-2.6-2.6-2.6v-1.8c2.4,0,4.4,2,4.4,4.4S72.3,37.2,69.9,37.2"/>
		<path d="M69.9,37.5h-0.5v-2.5h0.5c1.3,0,2.3-1,2.3-2.3s-1-2.3-2.3-2.3h-0.4v-2.5h0.4c2.6,0,4.7,2.1,4.7,4.7S72.5,37.5,69.9,37.5z
			 M70.1,35.8v1c2.1-0.1,3.8-1.9,3.8-4c0-2.1-1.6-3.8-3.7-4v1c1.5,0.2,2.6,1.4,2.6,3C72.9,34.4,71.6,35.7,70.1,35.8z"/>
	</g>
	<g>
		<path id="Path_26536_00000166651961378357658790000011775581996255431839_" d="M52.5,37.2h-0.2c-2.4,0-4.4-2-4.4-4.4
			c0-2.4,2-4.4,4.4-4.4c0,0,0,0,0,0v1.8c-1.5,0-2.6,1.2-2.6,2.6c0,1.5,1.2,2.6,2.6,2.6l0,0h0.2V37.2z"/>
		<path d="M52.4,37.5c-2.6,0-4.7-2.1-4.7-4.7c0-1.3,0.5-2.5,1.4-3.3c0.9-0.9,2.1-1.4,3.3-1.4h0.4l0,2.5h-0.4c-1.3,0-2.3,1-2.3,2.3
			s1,2.3,2.3,2.3h0.5v2.5H52.4C52.4,37.5,52.4,37.5,52.4,37.5z M52,28.8c-0.9,0.1-1.8,0.5-2.5,1.2c-0.8,0.8-1.2,1.8-1.2,2.8
			c0,2.2,1.7,3.9,3.8,4v-1c-1.6-0.1-2.8-1.4-2.8-3c0-1.5,1.2-2.8,2.6-3V28.8z"/>
	</g>
	<g>
		<path id="Path_26537_00000090274402046338456680000017710374576850445461_" d="M79.5,67H42.7V52.5c0-2.7,1.8-5.1,4.4-5.9l7.8-2.2
			v-2.8h1.8v4.2l-9.1,2.6c-1.9,0.5-3.2,2.3-3.2,4.2v12.7h33.3V52.5c0-2-1.3-3.7-3.2-4.2l-9.1-2.6v-4.2h1.8v2.8l7.8,2.2
			c2.6,0.8,4.4,3.2,4.4,5.9L79.5,67z"/>
		<path d="M79.9,67.3H42.4V52.5c0-2.9,1.9-5.4,4.7-6.2l7.6-2.2v-2.9h2.5V46l-9.3,2.7c-1.7,0.5-2.9,2.1-2.9,3.9v12.3h32.6V52.5
			c0-1.8-1.2-3.4-2.9-3.9L65.2,46v-4.8h2.5v2.9l7.6,2.2c2.8,0.8,4.7,3.4,4.7,6.2L79.9,67.3z M43.1,66.6h36.1l0-14.1
			c0-2.6-1.7-4.8-4.2-5.6l-8.1-2.3v-2.8h-1v3.5l8.8,2.5c2,0.6,3.4,2.5,3.4,4.6v13h-34v-13c0-2.1,1.4-4,3.4-4.6l8.8-2.5v-3.5h-1v2.8
			L47.3,47c-2.5,0.7-4.2,3-4.2,5.6V66.6z"/>
	</g>
	<g>
		<rect id="Rectangle_2579_00000052094401086728044360000015501386668636991643_" x="71.6" y="58.2" width="7" height="1.8"/>
		<path d="M79,60.3h-7.7v-2.5H79V60.3z M72,59.6h6.3v-1H72V59.6z"/>
	</g>
	<g>
		<rect id="Rectangle_2580_00000154416935053087886440000015404024221686875327_" x="70.8" y="53" width="1.8" height="13.1"/>
		<path d="M72.9,66.5h-2.5V52.6h2.5V66.5z M71.1,65.8h1V53.3h-1V65.8z"/>
	</g>
	<g>
		<rect id="Rectangle_2581_00000183213933275290256020000000533717800204190133_" x="43.6" y="58.2" width="7" height="1.8"/>
		<path d="M51,60.3h-7.7v-2.5H51V60.3z M44,59.6h6.3v-1H44V59.6z"/>
	</g>
	<g>
		<rect id="Rectangle_2582_00000152958960150779463090000005148234638474180271_" x="49.7" y="53" width="1.8" height="13.1"/>
		<path d="M51.8,66.5h-2.5V52.6h2.5V66.5z M50.1,65.8h1V53.3h-1V65.8z"/>
	</g>
	<g>
		<path id="Path_26538_00000098907104967568378080000013714292216009708424_" d="M61.1,49.5c-2.5,0-4.8-1.4-5.9-3.6l-0.2-0.4
			l1.6-0.8l0.2,0.4c1.2,2.4,4.1,3.3,6.4,2.1c0.9-0.5,1.7-1.2,2.1-2.1l0.2-0.4l1.6,0.8L67,45.8C65.9,48.1,63.6,49.5,61.1,49.5"/>
		<path d="M61.1,49.8c-2.6,0-5-1.5-6.2-3.8l-0.3-0.7l2.2-1.1l0.3,0.7c1.1,2.2,3.8,3.1,6,2c0.9-0.4,1.6-1.1,2-2l0.3-0.7l2.2,1.1
			L67.3,46C66.1,48.4,63.8,49.8,61.1,49.8C61.1,49.8,61.1,49.8,61.1,49.8L61.1,49.8C61.1,49.8,61.1,49.8,61.1,49.8z M61.1,49.1v0.2
			V49.1C61.1,49.1,61.1,49.1,61.1,49.1c2.4,0,4.5-1.3,5.5-3.4l0-0.1l-0.9-0.5l0,0.1c-0.5,1-1.3,1.8-2.3,2.3
			c-2.5,1.3-5.6,0.2-6.9-2.3l0-0.1l-0.9,0.5l0,0.1C56.6,47.8,58.8,49.1,61.1,49.1C61.1,49.1,61.1,49.1,61.1,49.1z"/>
	</g>
	<g>
		<path id="Path_26539_00000075138045190127882820000008516531450809443231_" d="M61.1,53c-3.6,0-6.9-1.9-8.6-5l-0.9-1.6l1.5-0.9
			l0.9,1.6c2.2,3.9,7.2,5.3,11.2,3c1.3-0.7,2.3-1.8,3-3l0.9-1.6l1.5,0.9L69.8,48C68,51,64.7,53,61.1,53"/>
		<path d="M61.1,53.3c-3.7,0-7.1-2-8.9-5.2l-1.1-1.9l2.1-1.2l1.1,1.9c1,1.8,2.7,3.1,4.7,3.7c2,0.6,4.1,0.3,5.9-0.8
			c1.2-0.7,2.2-1.7,2.9-2.9L69,45l2.1,1.2l-1.1,1.9C68.2,51.3,64.8,53.3,61.1,53.3v-0.7V53.3z M52.1,46.5l0.7,1.3
			c1.7,3,4.9,4.8,8.3,4.8v0c3.4,0,6.6-1.9,8.3-4.8l0.7-1.3L69.3,46l-0.7,1.3c-0.8,1.3-1.9,2.4-3.2,3.2c-2,1.1-4.3,1.4-6.5,0.8
			c-2.2-0.6-4-2-5.2-4L53,46L52.1,46.5z"/>
	</g>
	<g>
		<path id="Path_26540_00000155847396516747475320000014553949150080281739_" d="M48,32v14.9l7-2.5v-2.8l-2.6-4.4"/>
		<polygon points="47.6,47.4 47.6,32 48.3,32 48.3,46.4 54.6,44.2 54.6,41.7 52.1,37.4 52.7,37 55.3,41.5 55.3,44.7 		"/>
	</g>
	<g>
		<path id="Path_26541_00000135651885950398251790000006536868682647958188_" d="M74.3,32v14.9l-7-2.5v-2.8l2.6-4.4"/>
		<polygon points="74.6,47.4 66.9,44.7 66.9,41.5 69.6,37 70.2,37.4 67.6,41.7 67.6,44.2 73.9,46.4 73.9,32 74.6,32 		"/>
	</g>
</g>
</svg>
