<svg xmlns="http://www.w3.org/2000/svg" xmlns:xlink="http://www.w3.org/1999/xlink" width="99.99" height="126.913" viewBox="0 0 99.99 126.913">
  <defs>
    <clipPath id="clip-path">
      <rect id="Rectangle_3569" data-name="Rectangle 3569" width="29.019" height="54.976" fill="#fff" stroke="#fff" stroke-width="0.5"/>
    </clipPath>
  </defs>
  <g id="Group_14816" data-name="Group 14816" transform="translate(-910.005 -2599.25)">
    <g id="Group_14700" data-name="Group 14700" transform="translate(2898.994 1590.25) rotate(90)">
      <path id="Union_1" data-name="Union 1" d="M0,49.994Q0,48.943.043,47.9A50.039,50.039,0,0,1,96.858,32.386l30.055,17.608L96.858,67.6A50.037,50.037,0,0,1,0,49.994Z" transform="translate(1009 1889)" fill="#33dbce"/>
      <ellipse id="Ellipse_2902" data-name="Ellipse 2902" cx="40.787" cy="40.258" rx="40.787" ry="40.258" transform="translate(1018.136 1898.737)" fill="#0d2557"/>
    </g>
    <g id="Group_14724" data-name="Group 14724" transform="translate(946.077 2619.438)">
      <g id="Group_14723" data-name="Group 14723" transform="translate(0 0)" clip-path="url(#clip-path)">
        <path id="Path_30201" data-name="Path 30201" d="M28.453,4.25,17.739,1.808a.728.728,0,0,0-.872.548l-1.425,6.25-.61,2.678-.61,2.678h0l-.61,2.678h0L12.98,19.41h-1.2L8.665,7.775c0-.016-.012-.03-.018-.046a.583.583,0,0,0-.029-.077.574.574,0,0,0-.035-.061.476.476,0,0,0-.029-.05c0-.005-.008-.009-.012-.014s-.006-.01-.01-.015L2.8.276A.728.728,0,0,0,1.513.622L.164,9.75a.171.171,0,0,0,0,.018.171.171,0,0,0,0,.018c0,.02,0,.039,0,.057s0,.048,0,.072A.565.565,0,0,0,.174,10c0,.016,0,.033.007.048L2.687,19.41H.728A.729.729,0,0,0,0,20.2L2.749,54.306a.728.728,0,0,0,.726.67h20.6a.728.728,0,0,0,.726-.67L27.551,20.2a.728.728,0,0,0-.726-.787H25.744L29,5.122a.728.728,0,0,0-.548-.872M7.986,19.41,5.469,10a10.891,10.891,0,0,0,2.044-.894l2.756,10.3ZM2.708,2.5,6.893,7.787A10.954,10.954,0,0,1,1.726,9.149Zm-.869,8.106a13.208,13.208,0,0,0,2.219-.242l2.42,9.045H4.194ZM23.406,53.52H4.147L1.517,20.866H26.036Zm.844-34.11H14.473l.4-1.735,1.522.347a.728.728,0,1,0,.324-1.42l-1.522-.347L15.48,15,17,15.343a.728.728,0,1,0,.324-1.42L15.8,13.576l.287-1.259,1.522.347a.765.765,0,0,0,.162.018.728.728,0,0,0,.161-1.438L16.414,10.9,16.7,9.639l1.522.347a.728.728,0,1,0,.323-1.419l-1.522-.347.287-1.258,1.522.347a.728.728,0,0,0,.324-1.42l-1.523-.347.491-2.151,9.293,2.119Z" transform="translate(0 0)" fill="#fff" stroke="#fff" stroke-width="0.5"/>
      </g>
    </g>
  </g>
</svg>
