<?xml version="1.0" encoding="utf-8"?>
<!-- Generator: Adobe Illustrator 27.0.0, SVG Export Plug-In . SVG Version: 6.00 Build 0)  -->
<svg version="1.1" id="Layer_1" xmlns="http://www.w3.org/2000/svg" xmlns:xlink="http://www.w3.org/1999/xlink" x="0px" y="0px"
	 viewBox="0 0 80 80" style="enable-background:new 0 0 80 80;" xml:space="preserve">
<style type="text/css">
	.st0{clip-path:url(#SVGID_00000050622216354480348830000006936004638718403460_);}
	.st1{fill:#00F4CB;}
	.st2{clip-path:url(#SVGID_00000029744375883668633350000009664788002378225540_);}
	.st3{clip-path:url(#SVGID_00000013160415409873640830000006612877506396797585_);}
	.st4{clip-path:url(#SVGID_00000065784312112213847430000002093020866153071290_);}
	.st5{clip-path:url(#SVGID_00000092443147064847792710000016635603599754269864_);}
</style>
<g id="Group_14232" transform="translate(7 30.756)">
	<rect id="Rectangle_2584" x="25" y="-6.8" class="st1" width="18" height="16"/>
	<g id="Group_14231">
		<g>
			<defs>
				<rect id="SVGID_00000160887809769830527760000002480220663831923876_" x="-7" y="-13.8" width="80" height="46"/>
			</defs>
			<clipPath id="SVGID_00000077292677774308011210000010935878583515848604_">
				<use xlink:href="#SVGID_00000160887809769830527760000002480220663831923876_"  style="overflow:visible;"/>
			</clipPath>
			<g id="Group_14230" style="clip-path:url(#SVGID_00000077292677774308011210000010935878583515848604_);">
				<path id="Path_26542" d="M66.2,32.2H-0.6c-3.5,0-6.4-2.9-6.4-6.4V-7.6c0-3.5,2.9-6.4,6.4-6.4h66.8c3.5,0,6.4,2.9,6.4,6.4v33.4
					C72.6,29.4,69.8,32.2,66.2,32.2 M-0.6-11.4c-2.1,0-3.9,1.7-3.9,3.9v33.4c0,2.1,1.7,3.9,3.9,3.9h66.8c2.1,0,3.9-1.7,3.9-3.9V-7.6
					c0-2.1-1.7-3.9-3.9-3.9H-0.6z"/>
				<rect id="Rectangle_2585" x="-2" y="5.2" width="3" height="8"/>
				<rect id="Rectangle_2586" x="3" y="-12.8" width="3" height="44"/>
				<rect id="Rectangle_2587" x="62" y="-12.8" width="3" height="44"/>
				<path id="Path_26543" class="st1" d="M52.1,27.1c-4.3,0-7.7-3.5-7.7-7.7c0-4.3,3.5-7.7,7.7-7.7s7.7,3.5,7.7,7.7
					C59.8,23.7,56.3,27.1,52.1,27.1"/>
				<path id="Path_26544" class="st1" d="M16.1,27.1c-4.3,0-7.7-3.5-7.7-7.7c0-4.3,3.5-7.7,7.7-7.7s7.7,3.5,7.7,7.7
					C23.8,23.7,20.4,27.1,16.1,27.1"/>
				<path id="Path_26545" d="M34.1,5.3c-2.1,0-3.9-1.7-3.9-3.9s1.7-3.9,3.9-3.9S38-0.7,38,1.4C38,3.5,36.2,5.3,34.1,5.3 M34.1,0.1
					c-0.7,0-1.3,0.6-1.3,1.3c0,0.7,0.6,1.3,1.3,1.3s1.3-0.6,1.3-1.3l0,0C35.4,0.7,34.8,0.1,34.1,0.1"/>
				<path id="Path_26546" d="M45.7-1.2h-2.6v-5.1H38v-2.6h7.7V-1.2z"/>
				<path id="Path_26547" d="M45.7,11.7H38V9.1h5.1V4h2.6V11.7z"/>
				<path id="Path_26548" d="M30.3,11.7h-7.7V4h2.6v5.1h5.1V11.7z"/>
				<path id="Path_26549" d="M25.1-1.2h-2.6v-7.7h7.7v2.6h-5.1V-1.2z"/>
			</g>
		</g>
	</g>
</g>
</svg>
