<svg xmlns="http://www.w3.org/2000/svg" xmlns:xlink="http://www.w3.org/1999/xlink" width="99.99" height="126.913" viewBox="0 0 99.99 126.913">
  <defs>
    <clipPath id="clip-path">
      <rect id="Rectangle_3570" data-name="Rectangle 3570" width="48.301" height="48.845" fill="#fff" stroke="#fff" stroke-width="0.5"/>
    </clipPath>
  </defs>
  <g id="Group_14817" data-name="Group 14817" transform="translate(-1458.505 -2599.25)">
    <g id="Group_14711" data-name="Group 14711" transform="translate(3447.494 1590.25) rotate(90)">
      <path id="Union_1" data-name="Union 1" d="M0,49.994Q0,48.943.043,47.9A50.039,50.039,0,0,1,96.858,32.386l30.055,17.608L96.858,67.6A50.037,50.037,0,0,1,0,49.994Z" transform="translate(1009 1889)" fill="#33dbce"/>
      <ellipse id="Ellipse_2902" data-name="Ellipse 2902" cx="40.787" cy="40.258" rx="40.787" ry="40.258" transform="translate(1018.136 1898.737)" fill="#0d2557"/>
    </g>
    <g id="Group_14726" data-name="Group 14726" transform="translate(1484.35 2622.503)">
      <g id="Group_14725" data-name="Group 14725" transform="translate(0 0)" clip-path="url(#clip-path)">
        <path id="Path_30202" data-name="Path 30202" d="M11.67,8.517a.624.624,0,0,0,.819.056,19.767,19.767,0,0,1,9.162-3.8.623.623,0,0,0,.539-.617V1.251h1.986V0H21.567a.626.626,0,0,0-.628.623v3a20.976,20.976,0,0,0-8.764,3.636L10.054,5.134a.624.624,0,0,0-.443-.185.634.634,0,0,0-.443.185l-4.04,4.04a.626.626,0,0,0,0,.881l2.121,2.121a21,21,0,0,0-3.63,8.764h-3A.626.626,0,0,0,0,21.567v5.711a.625.625,0,0,0,.623.623h3a20.99,20.99,0,0,0,3.63,8.769L5.128,38.791a.626.626,0,0,0,0,.881l4.04,4.04a.634.634,0,0,0,.443.185.624.624,0,0,0,.443-.185L12.175,41.6a21.04,21.04,0,0,0,8.764,3.63v3a.626.626,0,0,0,.628.623h2.609V47.594H22.19V44.688a.627.627,0,0,0-.539-.617,19.708,19.708,0,0,1-9.162-3.8.624.624,0,0,0-.819.056L9.611,42.387,6.458,39.234l2.059-2.059a.631.631,0,0,0,.056-.819,19.7,19.7,0,0,1-3.8-9.168.629.629,0,0,0-.623-.539h-2.9V22.19h2.9a.629.629,0,0,0,.623-.539,19.733,19.733,0,0,1,3.8-9.162.631.631,0,0,0-.056-.819L6.458,9.611,9.611,6.458Zm2.8,9.785A11.743,11.743,0,0,1,18.3,14.469a11.483,11.483,0,0,1,3.411-1.408,11.607,11.607,0,0,1,2.463-.309V11.5a12.182,12.182,0,0,0-2.755.342,12.857,12.857,0,0,0-3.776,1.56A13.04,13.04,0,0,0,13.4,17.645a12.87,12.87,0,0,0-1.565,3.776,13.1,13.1,0,0,0,0,6A12.746,12.746,0,0,0,13.4,31.194,12.894,12.894,0,0,0,21.415,37a12.606,12.606,0,0,0,2.76.348V36.1a11.02,11.02,0,0,1-2.469-.314A11.512,11.512,0,0,1,18.3,34.376a11.707,11.707,0,0,1-3.832-3.838,11.551,11.551,0,0,1-1.414-3.406A11.679,11.679,0,0,1,14.469,18.3" transform="translate(0 0)" fill="#fff" stroke="#fff" stroke-width="0.5"/>
        <path id="Path_30203" data-name="Path 30203" d="M57.565,6.458l3.153,3.153L58.659,11.67a.631.631,0,0,0-.056.819,19.733,19.733,0,0,1,3.8,9.162.629.629,0,0,0,.623.539h2.9v4.46h-2.9a.629.629,0,0,0-.623.539,19.7,19.7,0,0,1-3.8,9.168.631.631,0,0,0,.056.819l2.059,2.059-3.153,3.153-2.059-2.059a.624.624,0,0,0-.819-.056,19.708,19.708,0,0,1-9.162,3.8.627.627,0,0,0-.539.617v2.906H43v1.251h2.609a.626.626,0,0,0,.628-.623v-3A21.04,21.04,0,0,0,55,41.6l2.121,2.115a.624.624,0,0,0,.443.185.634.634,0,0,0,.443-.185l4.04-4.04a.626.626,0,0,0,0-.881L59.927,36.67a20.99,20.99,0,0,0,3.63-8.769h3a.625.625,0,0,0,.623-.623V21.567a.626.626,0,0,0-.623-.628h-3a21,21,0,0,0-3.63-8.764l2.121-2.121a.626.626,0,0,0,0-.881l-4.04-4.04a.634.634,0,0,0-.443-.185.624.624,0,0,0-.443.185L55,7.254a20.976,20.976,0,0,0-8.764-3.636v-3A.626.626,0,0,0,45.609,0H43V1.251h1.986V4.157a.623.623,0,0,0,.539.617,19.767,19.767,0,0,1,9.162,3.8.624.624,0,0,0,.819-.056ZM54.12,21.713a11.843,11.843,0,0,1,0,5.42,11.551,11.551,0,0,1-1.414,3.406,11.707,11.707,0,0,1-3.832,3.838,11.512,11.512,0,0,1-3.406,1.408A11.02,11.02,0,0,1,43,36.1v1.251A12.606,12.606,0,0,0,45.76,37a12.894,12.894,0,0,0,8.012-5.807,12.746,12.746,0,0,0,1.565-3.776,12.919,12.919,0,0,0-9.583-15.575A12.182,12.182,0,0,0,43,11.5v1.251a11.607,11.607,0,0,1,2.463.309,11.483,11.483,0,0,1,3.411,1.408,11.691,11.691,0,0,1,5.246,7.243" transform="translate(-18.875 0)" fill="#fff" stroke="#fff" stroke-width="0.5"/>
      </g>
    </g>
  </g>
</svg>
