<?xml version="1.0" encoding="utf-8"?>
<!-- Generator: Adobe Illustrator 27.0.0, SVG Export Plug-In . SVG Version: 6.00 Build 0)  -->
<svg version="1.1" id="Layer_1" xmlns="http://www.w3.org/2000/svg" xmlns:xlink="http://www.w3.org/1999/xlink" x="0px" y="0px"
	 viewBox="0 0 160 160" style="enable-background:new 0 0 160 160;" xml:space="preserve">
<style type="text/css">
	.st0{fill:none;stroke:#E5E5E5;stroke-miterlimit:10;}
	
		.st1{clip-path:url(#SVGID_00000147938510261209667650000007540979002360612998_);fill-rule:evenodd;clip-rule:evenodd;fill:#5F7F65;}
	
		.st2{clip-path:url(#SVGID_00000121281797437101054910000000730192169546398122_);fill-rule:evenodd;clip-rule:evenodd;fill:#87BA4F;}
	
		.st3{clip-path:url(#SVGID_00000002356048372942647280000001010664933746861231_);fill-rule:evenodd;clip-rule:evenodd;fill:#5F7F65;}
	.st4{clip-path:url(#SVGID_00000008833314335479126900000002936670977523719560_);fill:#010101;}
	.st5{clip-path:url(#SVGID_00000083782808500884884560000014957255929110398140_);fill:#010101;}
	.st6{clip-path:url(#SVGID_00000098917224523938507890000012791631419033071263_);fill:#010101;}
	
		.st7{clip-path:url(#SVGID_00000156569466087879900720000015669374094304602765_);fill-rule:evenodd;clip-rule:evenodd;fill:#010101;}
	
		.st8{clip-path:url(#SVGID_00000045598816250244144570000004994602097129034637_);fill-rule:evenodd;clip-rule:evenodd;fill:#010101;}
	
		.st9{clip-path:url(#SVGID_00000054225137095856716810000000387401101519946372_);fill-rule:evenodd;clip-rule:evenodd;fill:#010101;}
</style>
<circle class="st0" cx="80" cy="80" r="77.9"/>
<g>
	<g>
		<defs>
			<rect id="SVGID_1_" x="16.1" y="67" width="123" height="26.1"/>
		</defs>
		<clipPath id="SVGID_00000172423520137080161700000015215248605541671862_">
			<use xlink:href="#SVGID_1_"  style="overflow:visible;"/>
		</clipPath>
		
			<path style="clip-path:url(#SVGID_00000172423520137080161700000015215248605541671862_);fill-rule:evenodd;clip-rule:evenodd;fill:#5F7F65;" d="
			M38.8,86.2c0.4,0.3,0.9,0.2,1.2,0.1c0.3-0.1,0.9-0.6,1.2-1.1c0.2-0.2,1.6-1.8-0.1-3.7l-5.7-5.8c0.4,0,0.9-1.2,0.1-2
			c0,0-5.6-5.5-5.6-5.5c-0.9-0.8-1.3-1.1-2-1.1h-0.9c-0.4,0-0.6,0.3-0.6,0.7v4.5c0,0.4,0,0.9,0.3,1.1H16.8c-0.3,0-0.6,0.1-0.7,0.4
			s0,0.5,0.1,0.7l6.9,9.6h5l3.6-2.6l0.3,0.4c0,0-13.1,9.7-13.1,9.6c-0.3,0.2-0.3,0.6-0.3,0.8c0.1,0.2,0.3,0.6,0.6,0.6h7.3
			c0.6,0,1.3-0.5,1.3-1.2v-2c0-0.7,0-0.7,1-0.7h1.5c-0.4,0.3-1.2,0.6-1.3,0.6c0,0-0.1,0.1-0.1,0.3c0,0.1-0.3,0.9-0.3,1
			c0,0-0.1,0.1,0,0.3c0,0.1,0,0.3,0,0.3h12.9v-0.9H29.7c0,0,0.1-0.3,0.2-0.3c0,0,1.8-0.9,2.3-1.2h0.7c1.4,0,2.3-0.3,3-1.5
			c0,0,1.4-2.6,1.6-2.7c0.2-0.1,0.5-0.6,1.2-0.5c0.5,0,1,0.5,1.1,0.9s-0.1,0.6-0.1,0.6C39.5,86,39.1,86.2,38.8,86.2"/>
	</g>
	<g>
		<defs>
			<rect id="SVGID_00000153707175883623965300000015860124016781174697_" x="16.1" y="67" width="123" height="26.1"/>
		</defs>
		<clipPath id="SVGID_00000157986922008338444820000016756324869767255712_">
			<use xlink:href="#SVGID_00000153707175883623965300000015860124016781174697_"  style="overflow:visible;"/>
		</clipPath>
		
			<path style="clip-path:url(#SVGID_00000157986922008338444820000016756324869767255712_);fill-rule:evenodd;clip-rule:evenodd;fill:#87BA4F;" d="
			M17.3,74.4l6.4,8.9h4.2l4.1-3l1.4,1.8l-13.5,10h6.1c0.7,0,1-0.2,1-0.9c0,0,0-2,0-2c0-1,0.6-1.1,1.6-1.1h1.9h2.4
			c0.7,0,1.6-0.1,2-0.6c0.4-0.4,1.3-2.2,1.7-2.9c0.2-0.3,0.5-1.1,2-1.1c1,0,1.7,0.9,1.9,1.4c0.4-0.4,1.1-1.6,0.1-2.8
			c0,0-6.5-6.3-6.5-6.3c-1.3-1.2-3.3-1.4-4.2-1.4C29.9,74.4,17.3,74.4,17.3,74.4 M28.3,68c0.6,0.2,4.3,4,4.3,4
			c1.7,1.7,2.7,2.4,2.1,3c-0.9-0.7-2.2-1.6-4.3-1.6h-2c-0.5,0-0.8-0.2-0.8-0.9V68C27.5,68,28,67.9,28.3,68"/>
	</g>
	<g>
		<defs>
			<rect id="SVGID_00000007422171770500512240000008935243722144949428_" x="16.1" y="67" width="123" height="26.1"/>
		</defs>
		<clipPath id="SVGID_00000127005174165770862950000016131128983370756030_">
			<use xlink:href="#SVGID_00000007422171770500512240000008935243722144949428_"  style="overflow:visible;"/>
		</clipPath>
		
			<path style="clip-path:url(#SVGID_00000127005174165770862950000016131128983370756030_);fill-rule:evenodd;clip-rule:evenodd;fill:#5F7F65;" d="
			M40.7,83.4c0,0.2-0.1,0.3-0.3,0.3c-0.2,0-0.3-0.1-0.3-0.3s0.1-0.3,0.3-0.3C40.5,83.1,40.7,83.2,40.7,83.4"/>
	</g>
	<g>
		<defs>
			<rect id="SVGID_00000150787451408096443170000016299610612103080089_" x="16.1" y="67" width="123" height="26.1"/>
		</defs>
		<clipPath id="SVGID_00000088114153714035022390000002892813268516008086_">
			<use xlink:href="#SVGID_00000150787451408096443170000016299610612103080089_"  style="overflow:visible;"/>
		</clipPath>
		<path style="clip-path:url(#SVGID_00000088114153714035022390000002892813268516008086_);fill:#010101;" d="M44.3,77.1h4.2h3.7
			c2.5,0,1.9,1.8,1.5,2.3c-1.1,1.3-2.1,1.6-3,2.1v-3.7h-4.2v11.3h4.1v-3.7c0.4-0.1,2.9-1.5,4-2.2c0.3-0.2,2.2-1.3,3.2-3.1
			c0.8-1.4,0.6-3.2,0-4.3c-0.6-1.1-2.2-2.4-4.3-2.4c0,0-7,0-7,0c-0.8,0-1.4,0.4-1.6,1.2C44.9,74.6,44.3,77.1,44.3,77.1"/>
	</g>
	<g>
		<defs>
			<rect id="SVGID_00000054234204472713359850000010187872584259626646_" x="16.1" y="67" width="123" height="26.1"/>
		</defs>
		<clipPath id="SVGID_00000040570867146607612220000009678629913889983373_">
			<use xlink:href="#SVGID_00000054234204472713359850000010187872584259626646_"  style="overflow:visible;"/>
		</clipPath>
		<path style="clip-path:url(#SVGID_00000040570867146607612220000009678629913889983373_);fill:#010101;" d="M111.5,77.9
			c-0.1-1.4-0.5-2.3-1.6-3.2c-0.8-0.7-2.3-1.2-4.1-1.2h-9H91c-1.4,0-3.2,0.3-4,1.7c-0.8,1.4-0.6,3.1,0.5,4.4c0,0,4.2,4.6,4.1,4.7
			c0.4,0.6,0.2,1.3-0.4,1.3h-6.4v-12h-4.1v5.5l-4.5-5.5H56.4c1.7,0.6,2.6,2.1,2.7,3.6h0.4H60v12h9.9l0.9-3.6h-6.7V83h4.7l0.9-3.6
			h-5.6v-2.3h8v12h4v-9.6l4.4,5v4.6H92c1.6,0,3.5-0.3,4.3-1.6c0.8-1.3,0.4-2.9-0.6-4.4c0,0-4.1-4.7-4.1-4.7
			c-0.4-0.6-0.5-1.3,0.6-1.3c0,0,11.9,0,11.9,0c2.6,0,2.6,1.3,2.7,1.9c0.3,2.3-0.1,3.9-0.4,4.7c-0.5,1.7-1.5,2.2-2.1,2.2
			c-0.6,0-1.6-0.4-2.1-2.2c-0.3-1-0.8-4-0.1-5.8c0,0-5,0-5,0c-0.1,4.3,0.6,6.4,1.4,7.7c1.4,2.5,3.3,3.9,5.8,3.9c2.9,0,4.4-1.4,5.9-4
			C111,84.2,111.8,81.7,111.5,77.9"/>
	</g>
	<g>
		<defs>
			<rect id="SVGID_00000179648233943320931950000007573884361988180365_" x="16.1" y="67" width="123" height="26.1"/>
		</defs>
		<clipPath id="SVGID_00000000927440555706403000000010369450294921416127_">
			<use xlink:href="#SVGID_00000179648233943320931950000007573884361988180365_"  style="overflow:visible;"/>
		</clipPath>
		<path style="clip-path:url(#SVGID_00000000927440555706403000000010369450294921416127_);fill:#010101;" d="M109.6,73.5
			c1.7,0.8,2.6,1.9,2.9,3.6h1.3v11.5c0,1.8,0.4,2.6,0.7,3.3l3.9-2.4c-0.4-0.9-0.4-1.8-0.5-2.3v-3.9h4.8l1-3.6h-5.9v-2.5h9.9v12h4.1
			v-12h5.3c0,0-0.6-2.6-0.6-2.5c-0.2-0.8-0.9-1.1-1.7-1.1H128L109.6,73.5L109.6,73.5z"/>
	</g>
	<g>
		<defs>
			<rect id="SVGID_00000174582423569283967200000012714028602558999998_" x="16.1" y="67" width="123" height="26.1"/>
		</defs>
		<clipPath id="SVGID_00000008133296843543046930000013396020233091004584_">
			<use xlink:href="#SVGID_00000174582423569283967200000012714028602558999998_"  style="overflow:visible;"/>
		</clipPath>
		
			<rect x="117.5" y="90.6" style="clip-path:url(#SVGID_00000008133296843543046930000013396020233091004584_);fill-rule:evenodd;clip-rule:evenodd;fill:#010101;" width="14.4" height="1"/>
	</g>
	<g>
		<defs>
			<rect id="SVGID_00000067233027608882605540000012369700624776821888_" x="16.1" y="67" width="123" height="26.1"/>
		</defs>
		<clipPath id="SVGID_00000034059098697141277390000009931843841389186988_">
			<use xlink:href="#SVGID_00000067233027608882605540000012369700624776821888_"  style="overflow:visible;"/>
		</clipPath>
		
			<polygon style="clip-path:url(#SVGID_00000034059098697141277390000009931843841389186988_);fill-rule:evenodd;clip-rule:evenodd;fill:#010101;" points="
			41.4,90.6 113,90.6 113,91.6 41.4,91.6 		"/>
	</g>
	<g>
		<defs>
			<rect id="SVGID_00000071523638194985504110000017043322124531575950_" x="16.1" y="67" width="123" height="26.1"/>
		</defs>
		<clipPath id="SVGID_00000080884883714546275990000006712564616409419931_">
			<use xlink:href="#SVGID_00000071523638194985504110000017043322124531575950_"  style="overflow:visible;"/>
		</clipPath>
		
			<path style="clip-path:url(#SVGID_00000080884883714546275990000006712564616409419931_);fill-rule:evenodd;clip-rule:evenodd;fill:#010101;" d="
			M135.4,90.5h0.4v-0.8h0.4c0.3,0,0.3,0.1,0.3,0.4c0,0.2,0,0.3,0,0.4h0.5v0c-0.1,0-0.1-0.1-0.1-0.4c0-0.4-0.1-0.4-0.3-0.5
			c0.2-0.1,0.3-0.3,0.3-0.5c0-0.2-0.1-0.6-0.6-0.6h-1V90.5z M135.9,89.3v-0.6h0.5c0.3,0,0.3,0.1,0.3,0.3c0,0.2-0.1,0.3-0.3,0.3
			L135.9,89.3L135.9,89.3z M134.5,89.4c0,1,0.8,1.7,1.7,1.7s1.7-0.8,1.7-1.7c0-1-0.8-1.7-1.7-1.7C135.3,87.7,134.5,88.5,134.5,89.4
			 M138.5,89.4c0,1.3-1,2.3-2.3,2.3s-2.3-1-2.3-2.3c0-1.3,1-2.3,2.3-2.3S138.5,88.2,138.5,89.4"/>
	</g>
</g>
</svg>
