<svg xmlns="http://www.w3.org/2000/svg" width="59.681" height="70.474" viewBox="0 0 59.681 70.474">
  <g id="Group_14797" data-name="Group 14797" transform="translate(-935.836 -908.187)">
    <g id="Group_14758" data-name="Group 14758" transform="translate(614.177 -1.957)">
      <g id="Group_14747" data-name="Group 14747" transform="translate(-5.892 0)">
        <g id="Union_1" data-name="Union 1" transform="translate(327.551 910.144)" fill="none">
          <path d="M3,70.475a3,3,0,0,1-3-3V3A3,3,0,0,1,3,0H56.681a3,3,0,0,1,3,3V67.474a3,3,0,0,1-3,3Z" stroke="none"/>
          <path d="M 56.68109893798828 68.47451019287109 C 57.23233413696289 68.47451019287109 57.68080139160156 68.02562713623047 57.68080139160156 67.47389221191406 L 57.68080139160156 3.000595808029175 C 57.68080139160156 2.448873519897461 57.23233413696289 2.000006914138794 56.68109893798828 2.000006914138794 L 2.999700784683228 2.000006914138794 C 2.448467254638672 2.000006914138794 2.000000715255737 2.448873519897461 2.000000715255737 3.000595808029175 L 2.000000715255737 67.47389221191406 C 2.000000715255737 68.02562713623047 2.448467254638672 68.47451019287109 2.999700784683228 68.47451019287109 L 56.68109893798828 68.47451019287109 M 56.68109893798828 70.47451019287109 L 2.999700784683228 70.47451019287109 C 1.342800736427307 70.47451019287109 6.958007929824817e-07 69.13079833984375 6.958007929824817e-07 67.47389221191406 L 6.958007929824817e-07 3.000595808029175 C 6.958007929824817e-07 1.343706846237183 1.342800736427307 6.837293767603114e-06 2.999700784683228 6.837293767603114e-06 L 56.68109893798828 6.837293767603114e-06 C 58.3380012512207 6.837293767603114e-06 59.68080139160156 1.343706846237183 59.68080139160156 3.000595808029175 L 59.68080139160156 67.47389221191406 C 59.68080139160156 69.13079833984375 58.3380012512207 70.47451019287109 56.68109893798828 70.47451019287109 Z" stroke="none" fill="#fff"/>
        </g>
      </g>
      <g id="Rectangle_3594" data-name="Rectangle 3594" transform="translate(327.977 967)" fill="none" stroke="#fff" stroke-width="2">
        <rect width="47.045" height="2.106" rx="1.053" stroke="none"/>
        <rect x="1" y="1" width="45.045" height="0.106" rx="0.053" fill="none"/>
      </g>
      <g id="Rectangle_3595" data-name="Rectangle 3595" transform="translate(327.977 958)" fill="none" stroke="#fff" stroke-width="2">
        <rect width="47.045" height="2.106" rx="1.053" stroke="none"/>
        <rect x="1" y="1" width="45.045" height="0.106" rx="0.053" fill="none"/>
      </g>
    </g>
    <path id="Icon_feather-shield" data-name="Icon feather-shield" d="M18,33s12-6,12-15V7.5L18,3,6,7.5V18C6,27,18,33,18,33Z" transform="translate(947.676 915.192)" fill="#44d0bd" stroke="#fff" stroke-linecap="round" stroke-linejoin="round" stroke-width="2"/>
    <path id="Icon_feather-check" data-name="Icon feather-check" d="M16.191,9,9.185,16.006,6,12.822" transform="translate(954.581 920.186)" fill="none" stroke="#fff" stroke-linecap="round" stroke-linejoin="round" stroke-width="2"/>
  </g>
</svg>
