<svg xmlns="http://www.w3.org/2000/svg" xmlns:xlink="http://www.w3.org/1999/xlink" width="118.216" height="94.585" viewBox="0 0 118.216 94.585">
  <defs>
    <clipPath id="clip-path">
      <rect id="Rectangle_3596" data-name="Rectangle 3596" width="118.216" height="94.585" transform="translate(-14 -12)" fill="none"/>
    </clipPath>
  </defs>
  <g id="Group_14756" data-name="Group 14756" transform="translate(14 12)">
    <g id="Group_14751" data-name="Group 14751" clip-path="url(#clip-path)">
      <g id="Path_29800" data-name="Path 29800" transform="translate(-117.428 -23.294)" fill="#44d0bd">
        <path d="M 183.300537109375 64.27271270751953 L 180.3866119384766 61.35879516601562 C 183.030029296875 58.38186264038086 184.4717254638672 54.58977127075195 184.4669342041016 50.57698440551758 C 184.4621734619141 46.57749557495117 183.0210113525391 42.80065536499023 180.3881378173828 39.83538818359375 L 183.2994842529297 36.93701553344727 C 184.9119110107422 38.71192932128906 186.1817626953125 40.7292594909668 187.0807495117188 42.94639587402344 C 188.0694732666016 45.38481521606445 188.57080078125 47.96169662475586 188.57080078125 50.60544586181641 C 188.57080078125 53.24918746948242 188.0694732666016 55.82606506347656 187.0807495117188 58.26448440551758 C 186.1819458007812 60.48115921020508 184.9124755859375 62.49806594848633 183.300537109375 64.27271270751953 Z" stroke="none"/>
        <path d="M 183.2431335449219 38.40417861938477 L 181.7447814941406 39.89587020874023 C 182.7582244873047 41.17120742797852 183.5800170898438 42.5770263671875 184.1973266601562 44.0941047668457 C 185.037109375 46.15795516967773 185.4642791748047 48.33870697021484 185.4669342041016 50.5757942199707 C 185.4696044921875 52.81290435791016 185.0476379394531 54.99469757080078 184.2127532958984 57.06055450439453 C 183.5934906005859 58.59285354614258 182.7658996582031 60.01219177246094 181.7419891357422 61.29997253417969 L 183.2456512451172 62.80362701416016 C 186.0476837158203 59.36438751220703 187.5707855224609 55.10186386108398 187.5707855224609 50.60544586181641 C 187.5707855224609 46.10775756835938 186.0466918945312 41.84391784667969 183.2431335449219 38.40417861938477 M 183.3174896240234 35.50700378417969 C 191.6552276611328 43.84610748291016 191.6552276611328 57.36477661132812 183.3174896240234 65.70388793945312 L 178.9929809570312 61.37937545776367 L 179.0184478759766 61.35392761230469 C 184.9598693847656 55.39839553833008 184.9481658935547 45.75434494018555 178.9929809570312 39.81327438354492 L 183.3174896240234 35.50700378417969 Z" stroke="none" fill="#fff"/>
      </g>
      <g id="Path_29801" data-name="Path 29801" transform="translate(-134.031 -7.44)" fill="#44d0bd">
        <path d="M 208.5393981933594 56.71817016601562 L 205.7011260986328 53.87992477416992 C 208.0439453125 51.3629264831543 209.8800201416016 48.48329544067383 211.1661376953125 45.30641937255859 C 212.5282897949219 41.94172668457031 213.2189636230469 38.38715744018555 213.2189636230469 34.74142837524414 C 213.2189636230469 31.0957088470459 212.5282897949219 27.54112815856934 211.1661376953125 24.17643928527832 C 209.8800201416016 20.99956130981445 208.0439453125 18.11993598937988 205.7011260986328 15.60294151306152 L 208.5388793945312 12.76520919799805 C 211.2725524902344 15.66800594329834 213.4107208251953 18.99814796447754 214.9013519287109 22.67721748352051 C 216.4590148925781 26.52174758911133 217.2481842041016 30.58417892456055 217.2469329833984 34.75166702270508 C 217.2456817626953 38.91915893554688 216.4540863037109 42.98109817504883 214.8941040039062 46.82466888427734 C 213.4037322998047 50.49676132202148 211.2683715820312 53.8204345703125 208.5393981933594 56.71817016601562 Z" stroke="none"/>
        <path d="M 208.5054626464844 14.21283340454102 L 207.0793304443359 15.63895034790039 C 209.1990966796875 18.07083511352539 210.8815155029297 20.80850601196289 212.0930633544922 23.80118942260742 C 213.5037078857422 27.28565979003906 214.2189636230469 30.96648025512695 214.2189636230469 34.74142837524414 C 214.2189636230469 38.51638031005859 213.5037078857422 42.19719696044922 212.0930633544922 45.68167114257812 C 210.8815155029297 48.67435073852539 209.1990966796875 51.41202545166016 207.0793304443359 53.84390640258789 L 208.5059661865234 55.27053833007812 C 210.8197021484375 52.64732360839844 212.6529235839844 49.68757629394531 213.9675140380859 46.44860076904297 C 215.4788208007812 42.72494888305664 216.2457275390625 38.78943634033203 216.2469329833984 34.75136947631836 C 216.2481384277344 30.71329879760742 215.4836120605469 26.77730941772461 213.9745330810547 23.05271911621094 C 212.6594085693359 19.80681991577148 210.8237762451172 16.84115982055664 208.5054626464844 14.21283340454102 M 208.5498657226562 11.34000015258789 L 208.5498657226562 11.34103012084961 C 208.5546875 11.34584808349609 208.5591430664062 11.35065841674805 208.56396484375 11.35512924194336 C 221.4800415039062 24.27911758422852 221.4738464355469 45.22678756713867 208.5498657226562 58.14286041259766 L 204.2999877929688 53.89299011230469 C 214.8586273193359 43.3082275390625 214.8586273193359 26.17462921142578 204.2999877929688 15.58986663818359 L 208.5498657226562 11.34000015258789 Z" stroke="none" fill="#fff"/>
      </g>
      <path id="Path_29802" data-name="Path 29802" d="M54.92,20.489V7a6,6,0,0,0-6-6l-12.6,10.5a19.3,19.3,0,0,1-12.357,4.475H7a10.84,10.84,0,0,0-6,9.7v7.563a10.84,10.84,0,0,0,6,9.7L20.519,64.572a4.949,4.949,0,0,0,9.015-3.753L25.341,42.94a18.553,18.553,0,0,1,10.29,3.114l13.3,8.862a6,6,0,0,0,6-6V35.428c3.445-.318,6-3.538,6-7.466S58.365,20.807,54.92,20.489Z" transform="translate(-0.656 -0.657)" fill="none" stroke="#fff" stroke-linecap="round" stroke-linejoin="round" stroke-width="2"/>
      <path id="Path_29803" data-name="Path 29803" d="M18.431,71.11l18.588,0V43.948" transform="translate(-12.091 -28.832)" fill="none" stroke="#fff" stroke-linecap="round" stroke-linejoin="round" stroke-width="2"/>
      <line id="Line_87" data-name="Line 87" y2="21.1" transform="translate(54.264 19.832)" fill="none" stroke="#fff" stroke-linecap="round" stroke-linejoin="round" stroke-width="2"/>
    </g>
  </g>
</svg>
