<svg width="16" height="16" viewBox="0 0 16 16" fill="none" xmlns="http://www.w3.org/2000/svg">
<path fill-rule="evenodd" clip-rule="evenodd" d="M7.66683 1.83331C4.44517 1.83331 1.8335 4.44499 1.8335 7.66665C1.8335 10.8883 4.44517 13.5 7.66683 13.5C10.8885 13.5 13.5002 10.8883 13.5002 7.66665C13.5002 4.44499 10.8885 1.83331 7.66683 1.83331ZM0.833496 7.66665C0.833496 3.8927 3.89288 0.833313 7.66683 0.833313C11.4408 0.833313 14.5002 3.8927 14.5002 7.66665C14.5002 9.37365 13.8742 10.9345 12.8394 12.1321L15.0204 14.3131C15.2156 14.5084 15.2156 14.8249 15.0204 15.0202C14.8251 15.2155 14.5085 15.2155 14.3133 15.0202L12.1323 12.8392C10.9347 13.8741 9.37384 14.5 7.66683 14.5C3.89288 14.5 0.833496 11.4406 0.833496 7.66665Z" fill="white"/>
</svg>
