<svg xmlns="http://www.w3.org/2000/svg" width="50.814" height="42.288" viewBox="0 0 50.814 42.288">
  <path id="training_modules_-_icon" data-name="training modules - icon" d="M130.251-771.8a4.907,4.907,0,0,1-1.86-1.782,4.793,4.793,0,0,1-.674-2.517v-11.643l-5.357-2.962a2.514,2.514,0,0,1-.97-.917,2.364,2.364,0,0,1-.31-1.2,2.361,2.361,0,0,1,.31-1.2,2.515,2.515,0,0,1,.97-.916L142.85-806.1a4.537,4.537,0,0,1,1.124-.446,4.974,4.974,0,0,1,1.187-.141,4.975,4.975,0,0,1,1.187.141,4.575,4.575,0,0,1,1.125.445l23.141,12.595a2.377,2.377,0,0,1,.95.907,2.43,2.43,0,0,1,.33,1.235v15.834a1.948,1.948,0,0,1-.579,1.434,1.949,1.949,0,0,1-1.434.578,1.945,1.945,0,0,1-1.434-.578,1.949,1.949,0,0,1-.578-1.434v-15.059l-5.264,2.849V-776.1a4.793,4.793,0,0,1-.674,2.517,4.907,4.907,0,0,1-1.86,1.782l-12.593,6.808a4.516,4.516,0,0,1-1.13.451,4.978,4.978,0,0,1-1.187.142,4.977,4.977,0,0,1-1.187-.142,4.516,4.516,0,0,1-1.131-.451Zm14.6-11.245a.668.668,0,0,0,.323.1.666.666,0,0,0,.323-.1l18.022-9.775L145.5-802.572a.666.666,0,0,0-.323-.1.669.669,0,0,0-.323.1L126.8-792.823Zm-.025,14.569a.683.683,0,0,0,.335.1.683.683,0,0,0,.335-.1l12.7-6.859a.809.809,0,0,0,.3-.3.891.891,0,0,0,.091-.426V-785.6l-11.06,6.074a4.46,4.46,0,0,1-1.145.452,5.188,5.188,0,0,1-1.213.142,5.188,5.188,0,0,1-1.213-.142,4.459,4.459,0,0,1-1.145-.452l-11.06-6.074v9.537a.936.936,0,0,0,.091.4.756.756,0,0,0,.3.322ZM145.161-782.919ZM145.161-776.607ZM145.161-776.607Z" transform="translate(-121.08 806.69)" fill="#fff"/>
</svg>
