<svg id="Group_289" data-name="Group 289" xmlns="http://www.w3.org/2000/svg" width="21.522" height="17.519" viewBox="0 0 21.522 17.519">
  <g id="Group_285" data-name="Group 285">
    <g id="Group_64" data-name="Group 64">
      <g id="Group_63" data-name="Group 63">
        <g id="Group_62" data-name="Group 62">
          <path id="Path_531" data-name="Path 531" d="M18.218,2.324a8.734,8.734,0,0,0,2.591-.987.161.161,0,0,1,.11-.034,4.526,4.526,0,0,1-1.871,2.4,8.683,8.683,0,0,0,2.474-.672c-.034.055-.055.082-.075.11A8.786,8.786,0,0,1,19.4,5.251a.187.187,0,0,0-.089.178,12.389,12.389,0,0,1-.034,1.515,12.917,12.917,0,0,1-.254,1.624,13.144,13.144,0,0,1-1.679,4.113,12.319,12.319,0,0,1-3.084,3.386,11.862,11.862,0,0,1-4.01,1.953,12.69,12.69,0,0,1-2.817.439c-.021,0-.055-.007-.069.021H7.121a.124.124,0,0,0-.082-.021H6.463a.124.124,0,0,0-.082.021H6.155a1.561,1.561,0,0,0-.4-.034c-.548-.062-1.1-.13-1.638-.24A12.9,12.9,0,0,1,.247,16.663c-.082-.055-.165-.11-.247-.158a9.278,9.278,0,0,0,3.42-.288,8.773,8.773,0,0,0,3.057-1.549c-.171-.007-.343-.027-.507-.048a4.314,4.314,0,0,1-1.611-.569A4.429,4.429,0,0,1,2.413,11.68c-.021-.062-.034-.1.062-.082a4.346,4.346,0,0,0,1.734-.048c.041-.014.082-.007.123-.048-.027-.007-.055-.014-.075-.021A4.377,4.377,0,0,1,1.782,9.9,4.28,4.28,0,0,1,.843,7.211c0-.069.007-.1.082-.055a4.643,4.643,0,0,0,1.782.514c.027,0,.069.014.075-.014s-.027-.041-.048-.062a4.618,4.618,0,0,1-.651-.562,4.447,4.447,0,0,1-1.117-4,4.513,4.513,0,0,1,.452-1.186c.041-.075.062-.069.11-.007A11.815,11.815,0,0,0,3.064,3.4a12.543,12.543,0,0,0,4.7,2.522,13.527,13.527,0,0,0,1.885.391c.274.041.548.055.823.075.089.007.1-.007.089-.1a4.684,4.684,0,0,1-.082-.528,5.152,5.152,0,0,1,.082-1.3,4.431,4.431,0,0,1,3.53-3.434,2.013,2.013,0,0,0,.4-.069h.754a2.191,2.191,0,0,0,.425.062,4.384,4.384,0,0,1,2.385,1.261.161.161,0,0,0,.171.041" transform="translate(0 -0.96)" fill="#fff"/>
        </g>
      </g>
    </g>
  </g>
</svg>
