<svg xmlns="http://www.w3.org/2000/svg" width="32.352" height="26.335" viewBox="0 0 32.352 26.335">
  <path id="Path_26494" data-name="Path 26494" d="M27.385,3.01A13.128,13.128,0,0,0,31.28,1.527a.242.242,0,0,1,.165-.052,6.8,6.8,0,0,1-2.813,3.606,13.052,13.052,0,0,0,3.719-1.01c-.052.082-.082.124-.113.165a13.207,13.207,0,0,1-3.07,3.173.281.281,0,0,0-.134.268,18.623,18.623,0,0,1-.052,2.277A19.416,19.416,0,0,1,28.6,12.4a19.758,19.758,0,0,1-2.524,6.182,18.517,18.517,0,0,1-4.636,5.09A17.831,17.831,0,0,1,15.413,26.6a19.076,19.076,0,0,1-4.235.659c-.031,0-.082-.01-.1.031H10.7a.186.186,0,0,0-.124-.031H9.716a.186.186,0,0,0-.124.031h-.34a2.346,2.346,0,0,0-.6-.052c-.824-.093-1.648-.2-2.462-.361A19.4,19.4,0,0,1,.371,24.565C.247,24.482.124,24.4,0,24.328a13.947,13.947,0,0,0,5.141-.433,13.187,13.187,0,0,0,4.6-2.329c-.258-.01-.515-.041-.762-.072a6.484,6.484,0,0,1-2.421-.855,6.658,6.658,0,0,1-2.926-3.565c-.031-.093-.052-.155.093-.124a6.533,6.533,0,0,0,2.607-.072c.062-.021.124-.01.185-.072-.041-.01-.082-.021-.113-.031a6.58,6.58,0,0,1-3.719-2.37,6.434,6.434,0,0,1-1.412-4.049c0-.1.01-.144.124-.082a6.979,6.979,0,0,0,2.679.773c.041,0,.1.021.113-.021s-.041-.062-.072-.093a6.941,6.941,0,0,1-.979-.845A6.685,6.685,0,0,1,1.453,4.072a6.784,6.784,0,0,1,.68-1.782c.062-.113.093-.1.165-.01A17.76,17.76,0,0,0,4.605,4.628a18.854,18.854,0,0,0,7.058,3.792,20.334,20.334,0,0,0,2.833.587c.412.062.824.082,1.236.113.134.01.155-.01.134-.155a7.042,7.042,0,0,1-.124-.793,7.745,7.745,0,0,1,.124-1.947,6.661,6.661,0,0,1,5.306-5.162,3.025,3.025,0,0,0,.6-.1H22.9a3.294,3.294,0,0,0,.639.093,6.59,6.59,0,0,1,3.585,1.9.242.242,0,0,0,.258.062" transform="translate(0 -0.96)" fill="#44d0bd"/>
</svg>
