<svg xmlns="http://www.w3.org/2000/svg" width="20.653" height="16.812" viewBox="0 0 20.653 16.812">
  <path id="Path_26470" data-name="Path 26470" d="M17.483,2.269a8.381,8.381,0,0,0,2.486-.947.154.154,0,0,1,.105-.033,4.343,4.343,0,0,1-1.8,2.3,8.332,8.332,0,0,0,2.374-.645c-.033.053-.053.079-.072.105a8.431,8.431,0,0,1-1.96,2.026.179.179,0,0,0-.086.171A11.888,11.888,0,0,1,18.5,6.7a12.4,12.4,0,0,1-.243,1.559,12.613,12.613,0,0,1-1.611,3.946,11.821,11.821,0,0,1-2.96,3.249A11.383,11.383,0,0,1,9.84,17.331a12.178,12.178,0,0,1-2.7.421c-.02,0-.053-.007-.066.02H6.834a.119.119,0,0,0-.079-.02H6.2a.119.119,0,0,0-.079.02H5.906a1.5,1.5,0,0,0-.381-.033c-.526-.059-1.052-.125-1.572-.23a12.382,12.382,0,0,1-3.716-1.48c-.079-.053-.158-.105-.237-.151A8.9,8.9,0,0,0,3.282,15.6a8.419,8.419,0,0,0,2.934-1.486c-.164-.007-.329-.026-.487-.046a4.139,4.139,0,0,1-1.546-.546,4.25,4.25,0,0,1-1.868-2.276c-.02-.059-.033-.1.059-.079a4.171,4.171,0,0,0,1.664-.046c.039-.013.079-.007.118-.046-.026-.007-.053-.013-.072-.02A4.2,4.2,0,0,1,1.71,9.544a4.107,4.107,0,0,1-.9-2.585c0-.066.007-.092.079-.053A4.455,4.455,0,0,0,2.6,7.4c.026,0,.066.013.072-.013s-.026-.039-.046-.059A4.431,4.431,0,0,1,2,6.788,4.268,4.268,0,0,1,.927,2.946a4.331,4.331,0,0,1,.434-1.138c.039-.072.059-.066.105-.007A11.338,11.338,0,0,0,2.94,3.3a12.036,12.036,0,0,0,4.505,2.42A12.981,12.981,0,0,0,9.254,6.1c.263.039.526.053.789.072.086.007.1-.007.086-.1a4.5,4.5,0,0,1-.079-.506,4.944,4.944,0,0,1,.079-1.243,4.252,4.252,0,0,1,3.387-3.3A1.931,1.931,0,0,0,13.9.96h.724a2.1,2.1,0,0,0,.408.059,4.207,4.207,0,0,1,2.289,1.21.155.155,0,0,0,.164.039" transform="translate(0 -0.96)" fill="#fff"/>
</svg>
