<svg id="Group_14789" data-name="Group 14789" xmlns="http://www.w3.org/2000/svg" xmlns:xlink="http://www.w3.org/1999/xlink" width="82.741" height="82.798" viewBox="0 0 82.741 82.798">
  <defs>
    <clipPath id="clip-path">
      <rect id="Rectangle_3602" data-name="Rectangle 3602" width="35.611" height="61.406" fill="#fff"/>
    </clipPath>
  </defs>
  <path id="Path_30293" data-name="Path 30293" d="M133.341,180.8v35.558A47.216,47.216,0,0,1,86.158,263.6H50.6V231.516a50.657,50.657,0,0,1,50.659-50.659h32.082Z" transform="translate(-50.6 -180.8)" fill="#44d0bd"/>
  <g id="Group_14777" data-name="Group 14777" transform="translate(23.564 8.61)">
    <g id="Group_14776" data-name="Group 14776" clip-path="url(#clip-path)">
      <path id="Path_30250" data-name="Path 30250" d="M10.52,77.436V76.178H9.4l.134-.294.294-.267H10.2l.187-.268-.134-.482-.134-.455-.187-.535L9.8,73.315l.321-.16v-.267L9.9,72.7l-.134-.187L9.5,72.379l-.241-.268H8.888l-.642-.267H7.068l-.375.249-.16.286-.187-.107-.356-.179-.3.125L4.459,73.5h-.8l-.374-.16-.053.321.481.482-1.124.16-.8.268V75l.535.642.107.749h.247l.2.227.08.381.381.12h.18l.14.281h.562l.241-.4h.16V76.56l.22-.14.221-.08.221-.14.341.06.14.361V77.7h.361l.04.261-.12.341-.1.2.1.3H7.227l.228.261.154.281.182.04h.161l.333-.187.255-.134.08-.321.107-.321h.241l.267.027.134.294H9.5l.187-.134h.134l.134-.161L9.824,78l-.241.027-.027-.241.214-.08.16-.294-.107-.214.08-.428.187-.107.161.241.107.214-.08.24-.107.187-.134.214v.535l.241-.241s.107-.134.241-.267,0-.348,0-.348" transform="translate(-1.097 -44.201)" fill="#fff"/>
      <path id="Path_30251" data-name="Path 30251" d="M29.92,24.282l.267.482h.482v-.482h.267l.482-.214.589-.214.321-.267h.482v.589l-.321.589h-.268l-.12.214.187.174h.267l.094.053-.04.147-.227.12-.2.067-.147-.174-.174-.147-.214.12-.027.294h-.161l-.093.067v.08l.147.067.013.147v.254l-.16.067H31.11l-.134.08-.013.12-.04.094H30.7l-.107-.12-.16-.053-.134-.08-.094-.013-.053.268-.134.08h-.187v.254h-.281l-.107.134-.16.107H29.09l-.08-.134-.08-.187-.094-.16v-.093l.2.013.227-.054h.174l-.027-.2-.187-.094.093-.134.094-.08-.08-.2-.08-.227.107-.094.107-.154v-.3l.027-.308.174-.134.12-.161Z" transform="translate(-17.741 -14.511)" fill="#fff"/>
      <path id="Path_30252" data-name="Path 30252" d="M29.92,24.282l.267.482h.482v-.482h.267l.482-.214.589-.214.321-.267h.482v.589l-.321.589h-.268l-.12.214.187.174h.267l.094.053-.04.147-.227.12-.2.067-.147-.174-.174-.147-.214.12-.027.294h-.161l-.093.067v.08l.147.067.013.147v.254l-.16.067H31.11l-.134.08-.013.12-.04.094H30.7l-.107-.12-.16-.053-.134-.08-.094-.013-.053.268-.134.08h-.187v.254h-.281l-.107.134-.16.107H29.09l-.08-.134-.08-.187-.094-.16v-.093l.2.013.227-.054h.174l-.027-.2-.187-.094.093-.134.094-.08-.08-.2-.08-.227.107-.094.107-.154v-.3l.027-.308.174-.134.12-.161Z" transform="translate(-17.741 -14.511)" fill="#fff"/>
      <path id="Path_30253" data-name="Path 30253" d="M23.589,32.939h.83l.174-.107.187-.067h.187v.067l-.187.107-.12.067-.013.187h.24l.027.16-.08.16-.12.12-.174.147-.04.134h-.221l-.167-.053-.2-.093v.24l.161.107v.267l-.161.12h-.093l-.093.16.053.107-.04.2-.013.241-.134.2-.107.053-.08.107v.4l-.053.294-.214.053v-.214l-.174-.04v-.723l.174-.227.12-.147.067-.227.04-.2.147-.12.027-.254.093-.214.12-.093.067-.174.04-.214-.147-.12-.12-.04-.2-.093.067-.107Z" transform="translate(-14.126 -20.158)" fill="#fff"/>
      <path id="Path_30254" data-name="Path 30254" d="M23.589,32.939h.83l.174-.107.187-.067h.187v.067l-.187.107-.12.067-.013.187h.24l.027.16-.08.16-.12.12-.174.147-.04.134h-.221l-.167-.053-.2-.093v.24l.161.107v.267l-.161.12h-.093l-.093.16.053.107-.04.2-.013.241-.134.2-.107.053-.08.107v.4l-.053.294-.214.053v-.214l-.174-.04v-.723l.174-.227.12-.147.067-.227.04-.2.147-.12.027-.254.093-.214.12-.093.067-.174.04-.214-.147-.12-.12-.04-.2-.093.067-.107Z" transform="translate(-14.126 -20.158)" fill="#fff"/>
      <path id="Path_30255" data-name="Path 30255" d="M20.457,42.535l.227-.187.134-.16.187-.174.08.261v.261l-.147.08H20.7Z" transform="translate(-12.586 -25.848)" fill="#fff"/>
      <path id="Path_30256" data-name="Path 30256" d="M20.457,42.535l.227-.187.134-.16.187-.174.08.261v.261l-.147.08H20.7Z" transform="translate(-12.586 -25.848)" fill="#fff"/>
      <path id="Path_30257" data-name="Path 30257" d="M18.68,26.455v-.488l-.07-.13.07-.07.15-.06h.15l.1-.14.11-.13.08-.11h.07l.191.11.16.08.11.1.06.14.09.181.11.11v.12l-.08.07-.1.11.12.03.12-.1.13-.14.08-.13.17-.04.18.07v.251l.06.241-.151.08-.1.15.19-.1.13-.09.08-.211.4.03.562-.02.241.02.11.15h.231l.06.1.13.05.3-.03.191-.02.291.06h.17l.05.15.17.05h.21v-.17l.161-.01h.16l.281-.02.12.09.251.11.14.1-.06.15-.09.09-.1.09-.14.11-.12.15-.07.15.06.161h.17l-.07.18-.12.1-.13.11-.18.17-.07.12-.16.12h-.371l-.231.11-.19.06-.2.291-.321.08-.321.17h-.22l-.321.14-.14.14-.2.14-.2.127h-.381l-.16.134v.261l-.06.241-.2-.1-.12-.06-.281-.14-.221-.12-.1.16.381.16.2.1.14.14h.983l-.08.181-.2.14-.22.2-.2.181-.18.14h-.221l-.02-.261-.2-.02-.12.14-.3.02-.04-.181-.2.08-.1.12-.12.1-.181.16h.422l.582-.1.12.1v.12l-.16.12-.12.14H19.8l-.241.18h-.642v.18h1.043l.12-.3.16-.02h.2l.14.1.221.04.221-.06.18-.1.16.04.281.04.22-.06.14-.1.5-.06.221.12.16.18.221.18.06.12h.743l.2.1.2.1h.18l.16.18h.261l.211.12h.592l.1.18h.562l.16.181.241.1v.16l.1.221V34.8l-.12.281-.22.221-.12.2-.261.12-.281.16-.06.181-.1.18-.2.18-.02.442-.2.14-.06.16-.281.181h-.12l-.1.22-.02.348-.16.194-.181.2-.4.281h-.2l-.12.18-.02.241-.3.2-.1.22-.1.241h-.16l-.341.181h-.2l-.161.16h-.241l-.14-.181-.22.02h-.7l-.2.16-.06.16h.2l.1-.12.281-.06h.241l.3.04.02.441H21.63l.181.14.16.12.16.241.18.14-.02.261-.3.2h-.722l-.1-.261-.241.04-.12.221h-.2l-.12.1h-.12l-.12.161-.08.2h-1l-.14-.261-.2-.1-.21-.16h-.191v.12l.241.1.18.08.04.22.241.14.181.12.1.14h.421l.16.2.16.16.261.1h.321l.1-.221.1-.18.16-.08.14-.08.321.06.22.14.321.361.14.281.18.241.06.3h.622l.02.421.08.2.08.361.06.321.14.18.1.3.181.2.14.12.14.281.22.2-.02.823h-.18l-.02.963-.161.281.14.221-.04.3-.1.2.08.682.14.221-.04,1.706.221.281-.04.4.321.14.261.257.2.2.2.12.281.321.22.241.241.261.1.562.16.823.221.18.04.422.1.12.16.181.14.12v.2l-.22.1-.161.2-.06.18.04.943.14.361v.241l.1.1.06.321.1.321.2.422-.1.12-.2-.26-.261-.161h-.281L26.1,59.1l-.14-.16-.1-.16-.241-.421-.16.14-.181.04-.4.02-.14-.2-.08-.12h-.3l-.1.16.361.08.221.22.622.1.26.06.241.361.12.4.261.14.221.442.522.3.14.321.16.421v1.184l-.12.18-.281.1-.281.1-.361.22-.241.16-.18.181-.2.16-.18.18.261.12.16.261.08.321.2.1.181.141h.281l.221-.181.1-.281.14-.241.221-.261.281.08.381.1h.241l.16.06.361.1.321.14.542.241.221.08.321.161.16.321.341.482.181.341.16.421v.462l-.1.241-.02.662-.1.3-.02.3-.221.181-.2.281-.1.14-.06.1-.08.2-.08.14-.08.3v.22l-.16.161h-.2l-.2.12-.181.1-.241.14-.16.1-.2-.221-.12-.24-.181.04-.14.18-.241.04.04.2h.542l.12.1-.241.12-.04.2-.12.281-.12.161H27.59l-.08-.2-.281-.14-.04.18-.1.161h-.622l-.06.1h.281l.2.1h.12l.1.241-.14.14-.08.221-.06.281h-.241l-.261.16h-.341l-.02-.2-.241.04-.14.16H25l-.261.221h.3l.321-.1.341-.02.1.22v.1l-.1.14h-.361l-.02.16H25.8l.14-.14.14-.16.12.14.14.16h.14l.14.221.02.14h-.481l.14.14H27.75l.1.14.622.1-.08.221-.321.241.02.762-.16.12-.281.161h-.381l-.18.16h-.6l-.16.2v.241l-.02.221h-.221l-.22-.1-.161-.14h-.522l-.14.241-.06.18H23.657l-.1.221-.12.12h-.2l-.241-.221-.743-.522-.3-.08-.241-.141-.14-.12-1.244.08-.141-.241-.481.06-.12.12-.16.1-.14-.1-.1-.08.06-.522-.2-.14H18.8l-.1.16-.461-.08-.462-.4-.12-.221-.18-.241v.341l.12.18v.281l.14.08.12.16.361.341.14.16-.26.2-.141.12-.12.14-.542-.06v-.16l-.161-.161-.12-.14v-.24h.14l.261-.12.02-.181-.12-.22h-.3l-.16.1v.422h-.241v-.321l-.461-.241-.442-.04-.24-.06-.281-.06h-.221l-.14.1.12.12.281-.04-.02.4-.12.241-.562-.12v-.18l-.281-.08-.261-.08h-.22l-.1-.241-.241.04H13.2v.662l-.16-.461-.16-.321-.5-.562-.3-.3-.281-.221-1.345.06-.14.24-.5-.02v-.522l-.181.02v.682l-.16.02-.12.12-.1.14v.281l-.1.261-.1.12v.22l-.221.161H8.567l-.14.1v.4l-.22.08-.281-.02-.16-.2-.2-.14-.14-.3v-.261l-.6-.02v-.321l-.2-.141v-.321l-.12.06v.421l-.241-.08v-.16l-.16-.12-.2-.12-.18-.06-.1.06v.14l-.261.02-.381-.06v-.16l-.321-.12h-.2l-.1.22-.1.221-.241.12-.14-.04h-.2l-.221.04v.12l-.3.04-.2.08v.12l-.161.24v.181l-.3.08-.261.06L2,75.59v-.542l-.22-.2v-.16l-.241-.1-.1-.14-.2.08v.2l-.14.14-.6-.02v-.361l.12-.14.241-.2.18-.2.221-.06.3.02.14.04.02.16.16-.02.06-.12h.14l.221.1.16-.2.16-.06.241-.221.18-.1.14-.241.181-.06.2-.14.06-.12.12-.261.261-.12.22-.12.181.02.2.02h.2l.12-.14.1-.2.181-.06.16-.08.221-.06.04-.16.18-.04.12-.16.14-.14.04-.4.12-.12.06-.16.16-.181.04-.24h.321l.12.14.16.18h.16l.181-.04.12-.12.341-.08-.14-.281v-.16l.16-.2L8,69.59l.281-.08.2.08.261.08.762.02.161.14.1.241.7.04.241.321.2.1.14.181h1.184l.14-.141.1-.562.1-.2.361-.181.221-.1.2-.12.18-.1H13.9l.2-.2.221-.321.08-.2.181-.16.562-.02.06-.18.06-.281-.2.2-.261.16-.361.02-.2.2-.18.221-.16.08-1.284-.02-.14.14-.221.12-.1.1-.221.14-.6.06-.542-.261-.281-.18-.08-.261-.12-.16-.12-.12-.12-.662-.06-.16-.1-.12-.08-.16H9.61l-.1.1-.06.221-.381-.1-.4-.02H8.406l-.06-.14V67.1l.12-.1.221.02.06.12.7-.04.06-.12V66.8l-.18.12-.241.06-.14-.04-.06-.241H8.567l-.18.02.02-.3.14-.02.04-.14.04-.221-1.365-.02-.08.12-.1.18-.18.02H6.72l-.22-.08-.12-.02-.14.14-.181-.02-.14-.161-.16-.14-.08-.281.04-.12H5.9l.221-.02.06.16.16.1.281-.06.06-.181.139-.1.122-.04.04-.16-.162-.06-.159.02-.08.22-.08.12-.241-.04-.642-.06-.06-.12-.08-.12-.04-.1.241-.06h.1l.18-.3-.1-.281-.241-.14-.14-.06-.04-.141.261-.14.261-.04h.361l.08-.18.3-.06h.119l.122.181.241.06.16-.08.18-.12.1-.141.562-.08h.2l.18.02h.1l.2.04.06-.18.462-.06.14-.06h.26l.181-.12.18-.261.221-.2.16-.261.2-.141.12-.6.1-.4.161-.341.14-.2-.04-.3v-.421l.06-.341.2-.16-.24-.08-.06-.2-.221.02-.3.06-.18-.04h-.4l-.14.18-.06.2-.1.14-.16-.06-.04-.3-.482.04-.04-.14.16-.2.261-.14L9.79,58.9l.341.04.261-.1.221-.16.16-.16.1-.2.14-.181-.12-.18v-.221l-.16-.1-.241-.1-.06-.7-.321-.16.12-.1h.22l.241-.02v-.341h.281l.261-.02.24.08.12.14.1.281-.02.281.06.12.221.04.241.161-.181.22-.24.06-.2.08-.281.12-.12.2.08.1.16-.161.261-.14.1-.08.22.02.361-.06h.321l.281-.12.02-.16.3.06.16.14.1.16.16.1,1.124-.06.18.381.16.12.1.2.08.18.12-.2-.141-.321-.02-.542.6.02.12.1.06.281-.08.1-.02.18.1.12.12.16.221.14.06-.16.161-.02-.04-.16-.14-.12-.18-.12-.3-.642v-.883l.24-.16.12-.16.14-.16.181-.1.14-.08-.1-.16-.261-.06-.02-.6.16-.12.02-.3.261-.06.241-.02.281-.02.04-.542.08-.14.2-.04v-.221l.08-.441-.14-.08-.18.08-.08-.14h-.14l-.16.06-.08.221-.24.16-.181.06-.241.06v-.3l.161-.14.02-.18.1-.14v-.164h-.26l-.141.1-.08-.2-.06-.16.02-.743-.14-.12-.1-.8.02-.321.18-.08.1-.16.08-.241.18-.16.2-.261.281-.14.08-.16.181-.161.08-.1.08-.14.281-.12.221-.181.341.04.3-.08-.121-.14H17.7l-.181-.18-.482-.02-.06-.16-.2-.02v.562l-.2.02-.261-.2H15.78l-.11.2-.14.221-.763-.16-.2-.04-.08-.6-.321-.02-.08-.12v-.2l-.18.1v.321l.06.16-.04.12-.06.14-.04.221-.06.12-.161.02-.14-.06-.12-.221L13.2,48.3l-.12-.2-.04-.2-.16-.06-.14-.16-.14-.12.02-.2H12.3l-.161.08L12,47.7v.622l-.02.22-.16-.16-.02-.261.06-.4-.08-.261-.12-.08v-.2l-.14-.06-.04-.5.1-.281.16-.16h.422l-.08.361-.08.14-.02.16.16.04.08-.181.04-.281-.06-.4.2-.18.161-.281.14-.1.16-.06.241-.16.2-.08v-.221l.12-.2.12-.2.18-.1.08-.2.221-.02h.18l.04-.582v-.18l.16-.1-.12-.281-.1-.12-.12-.181-.16-.16.04-.281v-.14l.14-.08.14-.1-.04-.743.08-.221.22-.1.221-.02.14.14.2.1.141.12.281.234.02-.214-.181-.1-.18-.181-.16-.2-.16-.1v-.622l-.14.221-.08.261-.181.06-.06.181-.14.1-.14.161-.241.02-.1-.341-.08.14.12.381.04.234-.04.408-.12.08-.14-.02-.1-.12v-.642l.08-.12v-.482l-.14.06-.1.2-.02.221-.1.06-.16-.14-.06-.261.1-.281.12-.2.16-.221.2-.181.281-.14.16-.1.241-.08.18-.16.3-.04.04-.14-.2-.181-.18.2-.321.2-.2.08-.241.14-.281.18-.241.1H12.8l.02.281-.14.14-.06.12-.02.3.12.14.04.341-.06.254h-.3l-.14.147-.18.2-.1.04-.08.241-.06.22-.14.14-.06.281-.141.16-.2.14v.441l-.06.16h-.743l-.18.1v-.562l.281-.18.261-.02.06-.14.06-.14.06-.481.1-.14.16-.141.14-.2.1-.16.08-.107.261-.174.181-.08H12.3v-.2l-.261.04h-.221l-.06-.1v-.18l.08-.221.2-.221v-.461l.16-.16.12-.261.341-.181.06-.5v-.4l.06-.341.14-.254.12.134.12.02.241-.154.14-.247.281-.14.361.14.18.08h.1l.14-.02.06-.16-.3.04-.14-.06-.18-.08-.12-.04.06-.14.02-.1.06-.22.3-.181.06-.281.2-.04.2-.06-.341-.08-.241.08-.321.14-.1.181-.04.18-.08.12-.281.02-.261-.1-.241-.12-.18-.261-.241-.12-.18-.14-.16.08.281.221.22.12-.04.16.261.12.06.2.02.241-.141.181-.18.1-.261.281-.261-.2-.221-.14-.582.08-.642-.1-.06-.221-.161-.261.241-.04.2.2.254.04.227-.06.141-.2v-.161l.12-.12.14-.1-.161-.16-.06-.181-.08-.14-.18-.04-.06-.16.04-.2.16-.08h.2l.24-.181.12.06.08.18.261.06.582-.02.281-.1-.361-.06-.241-.16h-.221l-.04-.14-.14-.02-.14-.04-.12-.16.1-.14.14-.1h.2l.381.06.04.12.1.1.261.04.1-.08.04-.261.241-.06.04-.221-.194-.14H13.1l.2-.12.087-.3.194-.221.14.06.12-.06.04-.281.14-.1.1-.14.161.1.14-.321-.2-.16-.18-.06-.12.281-.18.08-.1.06-.14.16-.4-.08.16-.16.127-.16.094-.16.02-.241-.2-.04-.08.22-.241-.02.06-.381H12.42v-.3h-.141v-.763l.161-.1-.02-.321-.141-.04h-.24l-.02.18-.12-.08-.1-.12-.181-.08.12-.622h.221l.12.02.261-.154v-.248l.14-.14.06.12.04.268v.194h.261l.18-.08.06-.281.02-.321.16-.12.127-.06.395.06-.04.963-.181.12v.341l-.174.1v.783l.134.241.14.02.06.221.241.2h.5l.02.181.281.1.16.1.341.16-.14-.281-.3-.261-.221-.2.08-.1h.281l-.04-.3-.16-.1-.2.1-.1.12-.08-.241v-.241l.02-.441.02-.321-.14.02-.14.14-.12.181-.1.241-.02.22.06.2.12.261-.12.16-.12-.3-.12-.1-.04-.2.04-.3.161-.241.261-.341.18-.181h.14l.261.1.18.08.14.18.12.181.207.04v-.181l-.167-.1-.1-.2-.16-.18-.04-.12.06-.12.14-.2h.267l-.207-.18.06-.281-.02-.321.06-.1.281-.02h.12l.02.241.09.281.11-.161-.11-.281.09-.241.16-.08.1.12.06.281.241-.06.3-.02.221.06.221.08.18.14.02.281.14-.12-.18-.381-.02-.281-.181-.241-.2-.16-.02-.227v-.254l.18.06.16.04.12-.04.1-.18-.04-.261-.02-.522.12.02.12.14h.462l.14-.06v-.281l-.04-.281.16-.114Z" transform="translate(-0.308 -15.58)" fill="#fff"/>
      <path id="Path_30258" data-name="Path 30258" d="M18.68,26.455v-.488l-.07-.13.07-.07.15-.06h.15l.1-.14.11-.13.08-.11h.07l.191.11.16.08.11.1.06.14.09.181.11.11v.12l-.08.07-.1.11.12.03.12-.1.13-.14.08-.13.17-.04.18.07v.251l.06.241-.151.08-.1.15.19-.1.13-.09.08-.211.4.03.562-.02.241.02.11.15h.231l.06.1.13.05.3-.03.191-.02.291.06h.17l.05.15.17.05h.21v-.17l.161-.01h.16l.281-.02.12.09.251.11.14.1-.06.15-.09.09-.1.09-.14.11-.12.15-.07.15.06.161h.17l-.07.18-.12.1-.13.11-.18.17-.07.12-.16.12h-.371l-.231.11-.19.06-.2.291-.321.08-.321.17h-.22l-.321.14-.14.14-.2.14-.2.127h-.381l-.16.134v.261l-.06.241-.2-.1-.12-.06-.281-.14-.221-.12-.1.16.381.16.2.1.14.14h.983l-.08.181-.2.14-.22.2-.2.181-.18.14h-.221l-.02-.261-.2-.02-.12.14-.3.02-.04-.181-.2.08-.1.12-.12.1-.181.16h.422l.582-.1.12.1v.12l-.16.12-.12.14H19.8l-.241.18h-.642v.18h1.043l.12-.3.16-.02h.2l.14.1.221.04.221-.06.18-.1.16.04.281.04.22-.06.14-.1.5-.06.221.12.16.18.221.18.06.12h.743l.2.1.2.1h.18l.16.18h.261l.211.12h.592l.1.18h.562l.16.181.241.1v.16l.1.221V34.8l-.12.281-.22.221-.12.2-.261.12-.281.16-.06.181-.1.18-.2.18-.02.442-.2.14-.06.16-.281.181h-.12l-.1.22-.02.348-.16.194-.181.2-.4.281h-.2l-.12.18-.02.241-.3.2-.1.22-.1.241h-.16l-.341.181h-.2l-.161.16h-.241l-.14-.181-.22.02h-.7l-.2.16-.06.16h.2l.1-.12.281-.06h.241l.3.04.02.441H21.63l.181.14.16.12.16.241.18.14-.02.261-.3.2h-.722l-.1-.261-.241.04-.12.221h-.2l-.12.1h-.12l-.12.161-.08.2h-1l-.14-.261-.2-.1-.21-.16h-.191v.12l.241.1.18.08.04.22.241.14.181.12.1.14h.421l.16.2.16.16.261.1h.321l.1-.221.1-.18.16-.08.14-.08.321.06.22.14.321.361.14.281.18.241.06.3h.622l.02.421.08.2.08.361.06.321.14.18.1.3.181.2.14.12.14.281.22.2-.02.823h-.18l-.02.963-.161.281.14.221-.04.3-.1.2.08.682.14.221-.04,1.706.221.281-.04.4.321.14.261.257.2.2.2.12.281.321.22.241.241.261.1.562.16.823.221.18.04.422.1.12.16.181.14.12v.2l-.22.1-.161.2-.06.18.04.943.14.361v.241l.1.1.06.321.1.321.2.422-.1.12-.2-.26-.261-.161h-.281L26.1,59.1l-.14-.16-.1-.16-.241-.421-.16.14-.181.04-.4.02-.14-.2-.08-.12h-.3l-.1.16.361.08.221.22.622.1.26.06.241.361.12.4.261.14.221.442.522.3.14.321.16.421v1.184l-.12.18-.281.1-.281.1-.361.22-.241.16-.18.181-.2.16-.18.18.261.12.16.261.08.321.2.1.181.141h.281l.221-.181.1-.281.14-.241.221-.261.281.08.381.1h.241l.16.06.361.1.321.14.542.241.221.08.321.161.16.321.341.482.181.341.16.421v.462l-.1.241-.02.662-.1.3-.02.3-.221.181-.2.281-.1.14-.06.1-.08.2-.08.14-.08.3v.22l-.16.161h-.2l-.2.12-.181.1-.241.14-.16.1-.2-.221-.12-.24-.181.04-.14.18-.241.04.04.2h.542l.12.1-.241.12-.04.2-.12.281-.12.161H27.59l-.08-.2-.281-.14-.04.18-.1.161h-.622l-.06.1h.281l.2.1h.12l.1.241-.14.14-.08.221-.06.281h-.241l-.261.16h-.341l-.02-.2-.241.04-.14.16H25l-.261.221h.3l.321-.1.341-.02.1.22v.1l-.1.14h-.361l-.02.16H25.8l.14-.14.14-.16.12.14.14.16h.14l.14.221.02.14h-.481l.14.14H27.75l.1.14.622.1-.08.221-.321.241.02.762-.16.12-.281.161h-.381l-.18.16h-.6l-.16.2v.241l-.02.221h-.221l-.22-.1-.161-.14h-.522l-.14.241-.06.18H23.657l-.1.221-.12.12h-.2l-.241-.221-.743-.522-.3-.08-.241-.141-.14-.12-1.244.08-.141-.241-.481.06-.12.12-.16.1-.14-.1-.1-.08.06-.522-.2-.14H18.8l-.1.16-.461-.08-.462-.4-.12-.221-.18-.241v.341l.12.18v.281l.14.08.12.16.361.341.14.16-.26.2-.141.12-.12.14-.542-.06v-.16l-.161-.161-.12-.14v-.24h.14l.261-.12.02-.181-.12-.22h-.3l-.16.1v.422h-.241v-.321l-.461-.241-.442-.04-.24-.06-.281-.06h-.221l-.14.1.12.12.281-.04-.02.4-.12.241-.562-.12v-.18l-.281-.08-.261-.08h-.22l-.1-.241-.241.04H13.2v.662l-.16-.461-.16-.321-.5-.562-.3-.3-.281-.221-1.345.06-.14.24-.5-.02v-.522l-.181.02v.682l-.16.02-.12.12-.1.14v.281l-.1.261-.1.12v.22l-.221.161H8.567l-.14.1v.4l-.22.08-.281-.02-.16-.2-.2-.14-.14-.3v-.261l-.6-.02v-.321l-.2-.141v-.321l-.12.06v.421l-.241-.08v-.16l-.16-.12-.2-.12-.18-.06-.1.06v.14l-.261.02-.381-.06v-.16l-.321-.12h-.2l-.1.22-.1.221-.241.12-.14-.04h-.2l-.221.04v.12l-.3.04-.2.08v.12l-.161.24v.181l-.3.08-.261.06L2,75.59v-.542l-.22-.2v-.16l-.241-.1-.1-.14-.2.08v.2l-.14.14-.6-.02v-.361l.12-.14.241-.2.18-.2.221-.06.3.02.14.04.02.16.16-.02.06-.12h.14l.221.1.16-.2.16-.06.241-.221.18-.1.14-.241.181-.06.2-.14.06-.12.12-.261.261-.12.22-.12.181.02.2.02h.2l.12-.14.1-.2.181-.06.16-.08.221-.06.04-.16.18-.04.12-.16.14-.14.04-.4.12-.12.06-.16.16-.181.04-.24h.321l.12.14.16.18h.16l.181-.04.12-.12.341-.08-.14-.281v-.16l.16-.2L8,69.59l.281-.08.2.08.261.08.762.02.161.14.1.241.7.04.241.321.2.1.14.181h1.184l.14-.141.1-.562.1-.2.361-.181.221-.1.2-.12.18-.1H13.9l.2-.2.221-.321.08-.2.181-.16.562-.02.06-.18.06-.281-.2.2-.261.16-.361.02-.2.2-.18.221-.16.08-1.284-.02-.14.14-.221.12-.1.1-.221.14-.6.06-.542-.261-.281-.18-.08-.261-.12-.16-.12-.12-.12-.662-.06-.16-.1-.12-.08-.16H9.61l-.1.1-.06.221-.381-.1-.4-.02H8.406l-.06-.14V67.1l.12-.1.221.02.06.12.7-.04.06-.12V66.8l-.18.12-.241.06-.14-.04-.06-.241H8.567l-.18.02.02-.3.14-.02.04-.14.04-.221-1.365-.02-.08.12-.1.18-.18.02H6.72l-.22-.08-.12-.02-.14.14-.181-.02-.14-.161-.16-.14-.08-.281.04-.12H5.9l.221-.02.06.16.16.1.281-.06.06-.181.139-.1.122-.04.04-.16-.162-.06-.159.02-.08.22-.08.12-.241-.04-.642-.06-.06-.12-.08-.12-.04-.1.241-.06h.1l.18-.3-.1-.281-.241-.14-.14-.06-.04-.141.261-.14.261-.04h.361l.08-.18.3-.06h.119l.122.181.241.06.16-.08.18-.12.1-.141.562-.08h.2l.18.02h.1l.2.04.06-.18.462-.06.14-.06h.26l.181-.12.18-.261.221-.2.16-.261.2-.141.12-.6.1-.4.161-.341.14-.2-.04-.3v-.421l.06-.341.2-.16-.24-.08-.06-.2-.221.02-.3.06-.18-.04h-.4l-.14.18-.06.2-.1.14-.16-.06-.04-.3-.482.04-.04-.14.16-.2.261-.14L9.79,58.9l.341.04.261-.1.221-.16.16-.16.1-.2.14-.181-.12-.18v-.221l-.16-.1-.241-.1-.06-.7-.321-.16.12-.1h.22l.241-.02v-.341h.281l.261-.02.24.08.12.14.1.281-.02.281.06.12.221.04.241.161-.181.22-.24.06-.2.08-.281.12-.12.2.08.1.16-.161.261-.14.1-.08.22.02.361-.06h.321l.281-.12.02-.16.3.06.16.14.1.16.16.1,1.124-.06.18.381.16.12.1.2.08.18.12-.2-.141-.321-.02-.542.6.02.12.1.06.281-.08.1-.02.18.1.12.12.16.221.14.06-.16.161-.02-.04-.16-.14-.12-.18-.12-.3-.642v-.883l.24-.16.12-.16.14-.16.181-.1.14-.08-.1-.16-.261-.06-.02-.6.16-.12.02-.3.261-.06.241-.02.281-.02.04-.542.08-.14.2-.04v-.221l.08-.441-.14-.08-.18.08-.08-.14h-.14l-.16.06-.08.221-.24.16-.181.06-.241.06v-.3l.161-.14.02-.18.1-.14v-.164h-.26l-.141.1-.08-.2-.06-.16.02-.743-.14-.12-.1-.8.02-.321.18-.08.1-.16.08-.241.18-.16.2-.261.281-.14.08-.16.181-.161.08-.1.08-.14.281-.12.221-.181.341.04.3-.08-.121-.14H17.7l-.181-.18-.482-.02-.06-.16-.2-.02v.562l-.2.02-.261-.2H15.78l-.11.2-.14.221-.763-.16-.2-.04-.08-.6-.321-.02-.08-.12v-.2l-.18.1v.321l.06.16-.04.12-.06.14-.04.221-.06.12-.161.02-.14-.06-.12-.221L13.2,48.3l-.12-.2-.04-.2-.16-.06-.14-.16-.14-.12.02-.2H12.3l-.161.08L12,47.7v.622l-.02.22-.16-.16-.02-.261.06-.4-.08-.261-.12-.08v-.2l-.14-.06-.04-.5.1-.281.16-.16h.422l-.08.361-.08.14-.02.16.16.04.08-.181.04-.281-.06-.4.2-.18.161-.281.14-.1.16-.06.241-.16.2-.08v-.221l.12-.2.12-.2.18-.1.08-.2.221-.02h.18l.04-.582v-.18l.16-.1-.12-.281-.1-.12-.12-.181-.16-.16.04-.281v-.14l.14-.08.14-.1-.04-.743.08-.221.22-.1.221-.02.14.14.2.1.141.12.281.234.02-.214-.181-.1-.18-.181-.16-.2-.16-.1v-.622l-.14.221-.08.261-.181.06-.06.181-.14.1-.14.161-.241.02-.1-.341-.08.14.12.381.04.234-.04.408-.12.08-.14-.02-.1-.12v-.642l.08-.12v-.482l-.14.06-.1.2-.02.221-.1.06-.16-.14-.06-.261.1-.281.12-.2.16-.221.2-.181.281-.14.16-.1.241-.08.18-.16.3-.04.04-.14-.2-.181-.18.2-.321.2-.2.08-.241.14-.281.18-.241.1H12.8l.02.281-.14.14-.06.12-.02.3.12.14.04.341-.06.254h-.3l-.14.147-.18.2-.1.04-.08.241-.06.22-.14.14-.06.281-.141.16-.2.14v.441l-.06.16h-.743l-.18.1v-.562l.281-.18.261-.02.06-.14.06-.14.06-.481.1-.14.16-.141.14-.2.1-.16.08-.107.261-.174.181-.08H12.3v-.2l-.261.04h-.221l-.06-.1v-.18l.08-.221.2-.221v-.461l.16-.16.12-.261.341-.181.06-.5v-.4l.06-.341.14-.254.12.134.12.02.241-.154.14-.247.281-.14.361.14.18.08h.1l.14-.02.06-.16-.3.04-.14-.06-.18-.08-.12-.04.06-.14.02-.1.06-.22.3-.181.06-.281.2-.04.2-.06-.341-.08-.241.08-.321.14-.1.181-.04.18-.08.12-.281.02-.261-.1-.241-.12-.18-.261-.241-.12-.18-.14-.16.08.281.221.22.12-.04.16.261.12.06.2.02.241-.141.181-.18.1-.261.281-.261-.2-.221-.14-.582.08-.642-.1-.06-.221-.161-.261.241-.04.2.2.254.04.227-.06.141-.2v-.161l.12-.12.14-.1-.161-.16-.06-.181-.08-.14-.18-.04-.06-.16.04-.2.16-.08h.2l.24-.181.12.06.08.18.261.06.582-.02.281-.1-.361-.06-.241-.16h-.221l-.04-.14-.14-.02-.14-.04-.12-.16.1-.14.14-.1h.2l.381.06.04.12.1.1.261.04.1-.08.04-.261.241-.06.04-.221-.194-.14H13.1l.2-.12.087-.3.194-.221.14.06.12-.06.04-.281.14-.1.1-.14.161.1.14-.321-.2-.16-.18-.06-.12.281-.18.08-.1.06-.14.16-.4-.08.16-.16.127-.16.094-.16.02-.241-.2-.04-.08.22-.241-.02.06-.381H12.42v-.3h-.141v-.763l.161-.1-.02-.321-.141-.04h-.24l-.02.18-.12-.08-.1-.12-.181-.08.12-.622h.221l.12.02.261-.154v-.248l.14-.14.06.12.04.268v.194h.261l.18-.08.06-.281.02-.321.16-.12.127-.06.395.06-.04.963-.181.12v.341l-.174.1v.783l.134.241.14.02.06.221.241.2h.5l.02.181.281.1.16.1.341.16-.14-.281-.3-.261-.221-.2.08-.1h.281l-.04-.3-.16-.1-.2.1-.1.12-.08-.241v-.241l.02-.441.02-.321-.14.02-.14.14-.12.181-.1.241-.02.22.06.2.12.261-.12.16-.12-.3-.12-.1-.04-.2.04-.3.161-.241.261-.341.18-.181h.14l.261.1.18.08.14.18.12.181.207.04v-.181l-.167-.1-.1-.2-.16-.18-.04-.12.06-.12.14-.2h.267l-.207-.18.06-.281-.02-.321.06-.1.281-.02h.12l.02.241.09.281.11-.161-.11-.281.09-.241.16-.08.1.12.06.281.241-.06.3-.02.221.06.221.08.18.14.02.281.14-.12-.18-.381-.02-.281-.181-.241-.2-.16-.02-.227v-.254l.18.06.16.04.12-.04.1-.18-.04-.261-.02-.522.12.02.12.14h.462l.14-.06v-.281l-.04-.281.16-.114Z" transform="translate(-0.308 -15.58)" fill="#fff"/>
      <path id="Path_30259" data-name="Path 30259" d="M31.089,68.4h.261l.16.12v.261l.181.221-.141.22-.06.682-.1.161h-.3l-.14-.161-.2-.18v-.261l.2-.231-.2-.291.181-.261Z" transform="translate(-18.917 -42.084)" fill="#fff"/>
      <path id="Path_30260" data-name="Path 30260" d="M31.089,68.4h.261l.16.12v.261l.181.221-.141.22-.06.682-.1.161h-.3l-.14-.161-.2-.18v-.261l.2-.231-.2-.291.181-.261Z" transform="translate(-18.917 -42.084)" fill="#fff"/>
      <path id="Path_30261" data-name="Path 30261" d="M22.653,61.486h1.224v.14h.482v-.14l.1-.281.12-.181.361-.2h.2l.1-.14h.18v.261l-.12.21-.14.131-.16.18-.18.16-.221.14-.12.2h-.12l-.12.22-.2.1h-.18l-.02-.341-.12-.08-.16.08-.08.181v.16l.2.2-.02.3-.1.12-.1.18h-.522l-.281.06v-.281l.16-.2-.16-.321v-.161l-.16.161-.1.2-.14-.04-.16-.1.12-.2.12-.291.2-.21Z" transform="translate(-13.591 -37.335)" fill="#fff"/>
      <path id="Path_30262" data-name="Path 30262" d="M22.653,61.486h1.224v.14h.482v-.14l.1-.281.12-.181.361-.2h.2l.1-.14h.18v.261l-.12.21-.14.131-.16.18-.18.16-.221.14-.12.2h-.12l-.12.22-.2.1h-.18l-.02-.341-.12-.08-.16.08-.08.181v.16l.2.2-.02.3-.1.12-.1.18h-.522l-.281.06v-.281l.16-.2-.16-.321v-.161l-.16.161-.1.2-.14-.04-.16-.1.12-.2.12-.291.2-.21Z" transform="translate(-13.591 -37.335)" fill="#fff"/>
      <path id="Path_30263" data-name="Path 30263" d="M29.805,45.142h.3l.14.14v.361h-.14l-.2.16-.1-.16-.1-.171Z" transform="translate(-18.276 -27.773)" fill="#fff"/>
      <path id="Path_30264" data-name="Path 30264" d="M29.805,45.142h.3l.14.14v.361h-.14l-.2.16-.1-.16-.1-.171Z" transform="translate(-18.276 -27.773)" fill="#fff"/>
      <path id="Path_30265" data-name="Path 30265" d="M22.556,50.887h.7l.12.1.16-.1.114-.16h.187l.14-.16h.481l-.18.21-.06.211h-.569l-.314.12-.181.1-.321.1h-.381Z" transform="translate(-13.816 -31.11)" fill="#fff"/>
      <path id="Path_30266" data-name="Path 30266" d="M22.556,50.887h.7l.12.1.16-.1.114-.16h.187l.14-.16h.481l-.18.21-.06.211h-.569l-.314.12-.181.1-.321.1h-.381Z" transform="translate(-13.816 -31.11)" fill="#fff"/>
      <path id="Path_30267" data-name="Path 30267" d="M28.454,44.2h.482v.221h-.241l-.241-.11Z" transform="translate(-17.506 -27.196)" fill="#fff"/>
      <path id="Path_30268" data-name="Path 30268" d="M28.454,44.2h.482v.221h-.241l-.241-.11Z" transform="translate(-17.506 -27.196)" fill="#fff"/>
      <path id="Path_30269" data-name="Path 30269" d="M31.274,47.228h.16l-.16.261v.241l-.16-.12Z" transform="translate(-19.142 -29.057)" fill="#fff"/>
      <path id="Path_30270" data-name="Path 30270" d="M31.274,47.228h.16l-.16.261v.241l-.16-.12Z" transform="translate(-19.142 -29.057)" fill="#fff"/>
      <path id="Path_30271" data-name="Path 30271" d="M64.022,21.148h.522l.18.18.181-.09v-.191h.16l.2.14h.14v.261H65l-.08.1-.04.2-.08.12-.09.154h-.13l.13.187.191.2.08-.161.08-.12.04-.107h.181l.12-.093.181-.04v.134l-.241.167-.2.1-.02.12.08.12.12.161h.261l-.16.18-.1.1h-.18l-.161.221-.06.2H64.8l-.12.16-.06.268-.241-.087.06-.2-.02-.321.221.04.16-.18v-.141l.2-.06.06-.18h-.1l-.16.14-.14-.04v-.22l-.04-.137h-.6v-.2l-.261-.12v-.6Z" transform="translate(-39.228 -12.949)" fill="#fff"/>
      <path id="Path_30272" data-name="Path 30272" d="M64.022,21.148h.522l.18.18.181-.09v-.191h.16l.2.14h.14v.261H65l-.08.1-.04.2-.08.12-.09.154h-.13l.13.187.191.2.08-.161.08-.12.04-.107h.181l.12-.093.181-.04v.134l-.241.167-.2.1-.02.12.08.12.12.161h.261l-.16.18-.1.1h-.18l-.161.221-.06.2H64.8l-.12.16-.06.268-.241-.087.06-.2-.02-.321.221.04.16-.18v-.141l.2-.06.06-.18h-.1l-.16.14-.14-.04v-.22l-.04-.137h-.6v-.2l-.261-.12v-.6Z" transform="translate(-39.228 -12.949)" fill="#fff"/>
      <path id="Path_30273" data-name="Path 30273" d="M62.457,24.792l.08-.137h.241l.18.137.14.221v.2l.1.321-.14.2-.1-.2-.13-.04-.211-.08-.02-.3-.14-.08Z" transform="translate(-38.426 -15.169)" fill="#fff"/>
      <path id="Path_30274" data-name="Path 30274" d="M62.457,24.792l.08-.137h.241l.18.137.14.221v.2l.1.321-.14.2-.1-.2-.13-.04-.211-.08-.02-.3-.14-.08Z" transform="translate(-38.426 -15.169)" fill="#fff"/>
      <path id="Path_30275" data-name="Path 30275" d="M67.516,19.014h.522v.522l.18.12.12.14h.281v-.12l.241-.08h.181l.14.04.14.06v.1l-.12.12H68.88l-.22.16h-.4l.02.3-.181-.12-.08-.2.06-.261-.261-.1-.02-.261h-.14l-.14-.1Z" transform="translate(-41.538 -11.698)" fill="#fff"/>
      <path id="Path_30276" data-name="Path 30276" d="M67.516,19.014h.522v.522l.18.12.12.14h.281v-.12l.241-.08h.181l.14.04.14.06v.1l-.12.12H68.88l-.22.16h-.4l.02.3-.181-.12-.08-.2.06-.261-.261-.1-.02-.261h-.14l-.14-.1Z" transform="translate(-41.538 -11.698)" fill="#fff"/>
      <path id="Path_30277" data-name="Path 30277" d="M82.853,1.9l.221-.18.281-.181h.14l.16-.12.1.1v.241l-.12.14-.08.1.08.12H83.9L84.137,2V1.774l.2-.17V1.323l.14-.141V1h.341l.1.14.14-.02V1L85.2.66V.5h.542l.14.12L85.7.8l-.1.14-.06.14-.06.231-.662.15v.12l.18.04.181.14.18.06-.02.3h-.2L85,2l-.08-.12-.1-.181-.221.06.06.361h-.14l-.02.18-.13.12H84.1V2.205l-.281.12h-.14l-.1.1.181.1.08.12h.442l.09.1-.19.12-.02.221h-.181l-.08.16v.14l-.02.241-.02.14h-.642l-.06.181h.241l.02.16.12.14H83.8l.08.2-.06.16h-.381l-.08-.1-.181.1.04.321-.12.16.02.2-.16.1h-.1v.2l-.12.1v.241h-.281V5.5l.16-.16.06-.542.18-.181.1-.08.16-.18V4.092l-.1-.321-.241.04-.18.04-.14.1V3.69l-.1-.02-.18-.18V2.807h.2l.1.2h.221l.12.211h.381l.08-.15-.08-.181-.141-.04.141-.12.06-.1.12-.06-.261-.06.02-.16-.1-.18-.2-.08Z" transform="translate(-50.555 -0.307)" fill="#fff"/>
      <path id="Path_30278" data-name="Path 30278" d="M82.853,1.9l.221-.18.281-.181h.14l.16-.12.1.1v.241l-.12.14-.08.1.08.12H83.9L84.137,2V1.774l.2-.17V1.323l.14-.141V1h.341l.1.14.14-.02V1L85.2.66V.5h.542l.14.12L85.7.8l-.1.14-.06.14-.06.231-.662.15v.12l.18.04.181.14.18.06-.02.3h-.2L85,2l-.08-.12-.1-.181-.221.06.06.361h-.14l-.02.18-.13.12H84.1V2.205l-.281.12h-.14l-.1.1.181.1.08.12h.442l.09.1-.19.12-.02.221h-.181l-.08.16v.14l-.02.241-.02.14h-.642l-.06.181h.241l.02.16.12.14H83.8l.08.2-.06.16h-.381l-.08-.1-.181.1.04.321-.12.16.02.2-.16.1h-.1v.2l-.12.1v.241h-.281V5.5l.16-.16.06-.542.18-.181.1-.08.16-.18V4.092l-.1-.321-.241.04-.18.04-.14.1V3.69l-.1-.02-.18-.18V2.807h.2l.1.2h.221l.12.211h.381l.08-.15-.08-.181-.141-.04.141-.12.06-.1.12-.06-.261-.06.02-.16-.1-.18-.2-.08Z" transform="translate(-50.555 -0.307)" fill="#fff"/>
      <path id="Path_30279" data-name="Path 30279" d="M29.08,91.3H29.4L29.682,91l.19-.281h.472v.762l-.181.408h-.291l-.472.354h-.843l.241-.354.08-.408Z" transform="translate(-17.57 -55.817)" fill="#fff"/>
    </g>
  </g>
</svg>
