<svg xmlns="http://www.w3.org/2000/svg" width="73.399" height="56.452" viewBox="0 0 73.399 56.452">
  <g id="Group_14798" data-name="Group 14798" transform="translate(-1530.964 -919.417)">
    <g id="Group_14757" data-name="Group 14757" transform="translate(-2 5.241)">
      <g id="Group_14753" data-name="Group 14753" transform="translate(1532.964 963.642) rotate(-90)">
        <g id="Rectangle_3439" data-name="Rectangle 3439" transform="translate(0)" fill="none" stroke="#fff" stroke-width="2">
          <rect width="49.467" height="73.399" rx="3" stroke="none"/>
          <rect x="1" y="1" width="47.467" height="71.399" rx="2" fill="none"/>
        </g>
        <rect id="Rectangle_3442" data-name="Rectangle 3442" width="38.994" height="1.745" rx="0.873" transform="translate(5.236 35.585)" fill="none"/>
        <rect id="Rectangle_3579" data-name="Rectangle 3579" width="38.994" height="1.745" rx="0.873" transform="translate(5.236 62.414)" fill="none"/>
        <rect id="Rectangle_3443" data-name="Rectangle 3443" width="38.994" height="1.745" rx="0.873" transform="translate(5.236 47.778)" fill="none"/>
      </g>
      <path id="Icon_awesome-play" data-name="Icon awesome-play" d="M14.746,7.461,2.516.23A1.659,1.659,0,0,0,0,1.665V16.123a1.666,1.666,0,0,0,2.516,1.435l12.231-7.227A1.666,1.666,0,0,0,14.746,7.461Z" transform="translate(1563.984 930.011)" fill="#44d0bd" stroke="#fff" stroke-width="2"/>
      <path id="Path_29804" data-name="Path 29804" d="M-1817.5,3443.073v5.985" transform="translate(3387.164 -2479.431)" fill="none" stroke="#fff" stroke-width="2"/>
      <path id="Path_29805" data-name="Path 29805" d="M0,0V17.97" transform="translate(1560.679 969.627) rotate(-90)" fill="none" stroke="#fff" stroke-linecap="round" stroke-width="2"/>
    </g>
  </g>
</svg>
